<svg xmlns="http://www.w3.org/2000/svg" width="94.667" height="105.293" viewBox="0 0 94.667 105.293">
  <g id="calendar" transform="translate(708.956 -1538.091)">
    <path id="Path_2242" data-name="Path 2242" d="M-630.741,1587.753c-.765,1.445-1.213,3.269-1.921,4.781-.961.582-2.093.96-2.554,2.144-3.914,1.305-8.557,1.745-9.205,6.941,3.72.586,7.936.118,11.777.593.314,1.978-.331,4.764-.4,7.062-.776-.294-.727.39-1.123.55-6.076-3.118-13.819-3.069-20.789-3.314-.1-.668.422-.6.323-1.263a117.23,117.23,0,0,1,20.653,2.441c-.673-1.545.214-2.253-.114-3.666-3.664-2.2-10.516,1.4-12.284-2.145.537-1.713,1.648-2.745,1.918-4.78,3.585-2.093,8.047-3.143,11.055-5.921,1.821-4.167-1.009-6.445-2.9-8.64-5.455-1.334-9.437.975-10.59,5.531-.276.757,1.03.188.547,1.123,2.979.691,4.549-4.4,6.792-3.926,1.119.233,1.485,1.89,1.878,3.173-.43,1.687-1.861,2.184-2.666,3.426a17.364,17.364,0,0,0-11.565,9.316c.219.278.577.442.337,1.105,1.248.312,1.368-1.173,2.4-.436-.819,1.383-1.835,2.524-3.87,2.461a3.512,3.512,0,0,0-.417-2.618c2.032-5.118,5.381-8.672,10.552-10.052,1.229-.581,2.09-1.6,3.406-2.07a2.34,2.34,0,0,0-.63-2.635c-1.591,2.192-5.605,4.727-8.64,2.9.5-1.362.474-3.127,1.241-4.406.152-.251.829-.324,1.374-.958,1.015-1.178,2.046-2.868,3.732-3.332a17.973,17.973,0,0,1,5.624-.37c2.526.556,3.631,3.16,5.626,4.577C-631.21,1586.3-631.269,1587.274-630.741,1587.753Z" transform="translate(-21.626 -17.058)" fill="#42d4f3" fill-rule="evenodd"/>
    <path id="Path_2243" data-name="Path 2243" d="M-574.427,1597.081c1.018,2.387-.152,5.316-.4,7.063-.553-1.446.733-4.443-.158-5.6C-575.109,1597.684-574.194,1598.066-574.427,1597.081Z" transform="translate(-53.661 -23.63)" fill="#42d4f3" fill-rule="evenodd"/>
    <path id="Path_2244" data-name="Path 2244" d="M-552.379,1609.393c.214.018.427.038.641.056.223.971-.771.5-.752,1.224C-553.072,1610.406-552.353,1609.772-552.379,1609.393Z" transform="translate(-62.584 -28.561)" fill="#42d4f3" fill-rule="evenodd"/>
    <path id="Path_2245" data-name="Path 2245" d="M-574.909,1610.281c.788-.137.223.868.315,1.321C-575.384,1611.734-574.818,1610.733-574.909,1610.281Z" transform="translate(-53.651 -28.912)" fill="#42d4f3" fill-rule="evenodd"/>
    <path id="Path_2246" data-name="Path 2246" d="M-575.471,1613.462l.641.058a16.924,16.924,0,0,1-.14,4.074C-575.794,1616.577-575.239,1614.484-575.471,1613.462Z" transform="translate(-53.47 -30.191)" fill="#42d4f3" fill-rule="evenodd"/>
    <path id="Path_2247" data-name="Path 2247" d="M-574.892,1620.712c-.062,1.175.612,2.78.111,3.666C-575.508,1623.646-575.2,1621.752-574.892,1620.712Z" transform="translate(-53.567 -33.095)" fill="#42d4f3" fill-rule="evenodd"/>
    <path id="Path_2248" data-name="Path 2248" d="M-651.374,1631.024c.616-.124.523.348,1.045.3-.409,1.791-1.651,2.59-1.708,4.8,1.339-.966,1.5-3.036,2.1-4.332.972-.223.5.771,1.226.75-.976,1.325-1.279,4.157-1.123,5.494-.3-.044-.6-.086-.66.158-1.055-.966-1.62-.535-3.183-.492A14.885,14.885,0,0,1-651.374,1631.024Z" transform="translate(-22.143 -37.218)" fill="#42d4f3" fill-rule="evenodd"/>
    <path id="Path_2249" data-name="Path 2249" d="M-632.1,1637.509c1.21,0,2.4-3.235,4.3-2.421-.074.539-.138,1.093-.733,1.009.224.1.812,1.013-.076.854.794,1.041-1.554,3.367-.623,4.679-.8-.052-.63.186-1.279-.111a14.049,14.049,0,0,1,.835-4.662c-1.237.334-1.869,1.391-2.572,2.359-.964-.208-1.99.523-1.865-.806a1.832,1.832,0,0,1-2.4.436c-.282-1.816,1.222-2.717.334-3.843.758.273.263-.944.929-.781.7,0,.56.718.993.946-.6.542-.563,1.841-.882,2.72,1.611-.911,2.036-3.232,3.2-4.669.909.029.252,1.37.935,1.587C-631.727,1635.279-631.376,1637.032-632.1,1637.509Z" transform="translate(-29.003 -38.105)" fill="#42d4f3" fill-rule="evenodd"/>
    <path id="Path_2250" data-name="Path 2250" d="M-642.741,1632.849a1.19,1.19,0,0,0,.833.287c.5,1.681-.565,2.731-.6,4.465.68-.134.665-1.09,1.392-1.169a2.9,2.9,0,0,1-3.656,2.479C-643.734,1637.383-643.255,1635.08-642.741,1632.849Z" transform="translate(-25.709 -37.957)" fill="#42d4f3" fill-rule="evenodd"/>
    <path id="Path_2251" data-name="Path 2251" d="M-655.753,1635.2l.639.056c-.009.615-.074,1.167-.731,1.01A.8.8,0,0,1-655.753,1635.2Z" transform="translate(-21.209 -38.899)" fill="#42d4f3" fill-rule="evenodd"/>
    <path id="Path_2252" data-name="Path 2252" d="M-571.448,1674.486l.64.056c-.539,2.2.231,5.974-.742,8.536C-572.537,1681.582-571.547,1677.845-571.448,1674.486Z" transform="translate(-54.867 -54.636)" fill="#42d4f3" fill-rule="evenodd"/>
    <path id="Path_2253" data-name="Path 2253" d="M-658.731,1635.492c-.143,1.168-1.354,3.1-3.265,2.943-.109-2.879,1.343-3.9,1.625-6.312.782.379.46-.551,1.1-.334.542.012.48.523.8.713-.525,1.34-1.865,1.706-1.829,3.713C-660.1,1636.517-659.046,1635.833-658.731,1635.492Z" transform="translate(-18.809 -37.519)" fill="#42d4f3" fill-rule="evenodd"/>
    <path id="Path_2254" data-name="Path 2254" d="M-644.553,1540.188c2.139-.145,2.752.986,3.482,2.024a4.881,4.881,0,0,1,3.907,2.058c4.112,1.363,7,3.749,11.174,5.061,1.994,2.248,6.075,3.691,9.079,4.446-.026.547-.056,1.1.546,1.121-.681,10.041.53,17.453.9,26.75a74.292,74.292,0,0,0,.269,14.22c.225,7.925-.55,16.686.733,23.722.015.568-.5.512-.912.565.982,2.346-.2,6.506.5,9.078-4.653,2.624-9.505,5.018-14.211,7.581a75.41,75.41,0,0,1-8.74,6.554c-.566.082-.762-.152-.584-.7-.573.577-1.7.493-2.834.4-.05-.456.2-.551.29-.835-4.159-.566-8.4-2.77-12.761-4.121-1.094-.34-2.187-.331-3.167-.707-.672-.257-1.111-.953-1.828-1.234-.9-.352-2.133-.246-3.163-.7a65.008,65.008,0,0,0-6.916-2.107c-3.919-1.115-7.692-1.553-11.592-2.731-.735.158-.273-.692-.334-1.1-1.349.5-1.5-.525-2.932-.9.073-.853.641-1.123,1.588-.938.209-3.257.967-6.348-.788-8.242-5.006-.495-11.986-2.362-17.72-1.541-.712.2-.1-.7-.818-.5-2.582,1.149-5.125-.356-7.433-1.078-.432-.586.224-1.3.771-1.437a7.571,7.571,0,0,1-.686-1.994,4.988,4.988,0,0,1,3.228-2.515,8.349,8.349,0,0,1,4.391-3.491c.881-2.037,3.121-3.194,4.519-4.985.246-.316.131-.964.327-1.263.288-.445,1.084-.662,1.392-1.167.2-.331.1-.927.323-1.265.114-.164.565-.032.659-.158.957-1.261,1.448-3.074,2.312-4.315.263-.373.89-.387,1.141-.761,1.8-2.644,2.353-5.405,3.593-9.153.531-1.6,1.723-2.884,2.331-4.529.941-2.541.557-5.751,2.376-7.537.185-1.188.208-2.579.918-3.145.372-3.2.378-6.609.993-8.946-.437-.921-.838-2.961.122-3.862-1.765-.384-5.56-.666-8.039-1.559a1.026,1.026,0,0,1,1.355-.742c.178-1.073-.961-1.041-1.131-1.82a9.421,9.421,0,0,0,1.372-.958c-.483-2.362,1.281-6.615-.613-7.8a6.6,6.6,0,0,1,3.648-4.842c13.1,1.967,26.013.8,38.024.51C-645.443,1539.355-644.1,1539.02-644.553,1540.188Zm-18.1.36c.662,1.031,3.238.449,4.662.836,2.568-.949,7.583,1.016,9.912-.214C-652.9,1540.059-657.579,1541.169-662.652,1540.549Zm-.462.39c-.387.09-1.232-.366-1.3.1C-664.027,1540.951-663.18,1541.409-663.113,1540.938Zm-20.159-.678c.214.02.428.036.641.056.019-.211.038-.425.056-.639l-.64-.056C-683.234,1539.835-683.254,1540.047-683.272,1540.26Zm-1.431,1.6c-.366,3.453,1.281,6.952.7,9.307,3.055.135,4.191,1.371,5.959.735,1.97,1.26,3.327-.089,4.443.815.647.217.327-.712,1.105-.331,8.649.4,17.772,1.366,26.7,2.105.7-.284.62,1.38.837.287,1.606-2.417-.85-7.4.519-10.923C-658.508,1541.008-671.63,1543.009-684.7,1541.858Zm6.657.149c.213.019.427.038.64.055.012-.141.024-.285.036-.426l-.639-.055C-678.022,1541.72-678.034,1541.863-678.047,1542.007Zm39.13,5.123c.213.019.427.038.641.055q.119-.692-.586-.694C-638.879,1546.7-638.9,1546.918-638.917,1547.13Zm-2.682,3.637c.824-.162,1.326-2.951.277-3.2C-640.8,1548.989-641.461,1549.1-641.6,1550.767Zm3.5,1.81c.126-1.556.522-3.339-.517-3.916C-638.264,1550.043-639.3,1551.7-638.1,1552.578Zm1.178-1.187c.835-.186,1.049-1.108,1.061-2.274-.522.043-.432-.428-1.052-.306C-637.087,1549.815-636.661,1550.313-636.924,1551.39Zm4.223-1.569.642.057c.012-.144.024-.285.037-.43-.213-.018-.427-.036-.642-.056C-632.674,1549.538-632.687,1549.68-632.7,1549.821Zm.354,10.786a32.316,32.316,0,0,0,0-9.894l-.639-.056C-632.728,1553.936-632.449,1557.195-632.347,1560.607Zm-8.974-8.094a.775.775,0,0,0-.549-1.125C-641.7,1551.78-641.975,1552.536-641.321,1552.514Zm4.751,4.713c.84.088.522,1.146,1.169,1.395a8.881,8.881,0,0,0-.742-6.3C-636.86,1553.777-636.3,1555.519-636.57,1557.227Zm-3.164-.7c.293-1.432-.093-2.3.1-3.649-.212-.019-.425-.038-.639-.055C-640.393,1553.666-640.618,1555.9-639.734,1556.524Zm-2.061-1.041c.495-.115.186-1.189.363-1.689l-.639-.056C-641.943,1554.291-642.649,1555.54-641.8,1555.483Zm7.351,4.511c.408-.012.451.284.835.286-.041-1.75-.1-4.53-.622-5.214C-634.847,1557.389-633.665,1558.632-634.445,1559.994Zm2.963,3.052c.609,22.876-2.486,50.855-2.137,74.021a10.306,10.306,0,0,0,3.21-2.3c-1.633-4.531.011-11.273-.026-16.993-.137-20.569-.508-40.638.009-61.943a1,1,0,0,1-.619-.27A71.32,71.32,0,0,1-631.482,1563.046Zm1.574,70.9c2.367-.091,3.022-2.214,3.221-4.883.416-.061.863.74.872-.137a64.756,64.756,0,0,0,.483-10.5c-.783-.382-.125.954-.908.568.106-.683-.3-.937-.065-1.725.727-.018.305.929.993.945a59.543,59.543,0,0,1,.225-7.51c-1.7.638.1,5.293-1.123,5.5-.234-11.357-.479-21.488.352-33.739-.487-6.186.168-13.331-2.088-18.033-.369,3.358.914,5.333-.3,8.364-.317-5.537-.777-10.958-.686-16.838a1,1,0,0,1-.622-.268C-630,1581.268-629.374,1607.47-629.908,1633.947Zm-34.784-79.81.642.056c.011-.143.023-.286.037-.429l-.642-.056C-664.668,1553.852-664.68,1553.995-664.692,1554.138Zm2.987.26c2.412.59,6.325.932,8.364.3-2.884-.068-4.346-.519-6.228-.11C-659.885,1554.258-661.081,1553.808-661.7,1554.4Zm33.841,6.6c-.217-.8,1.015-3.758-.073-4.094C-627.79,1558.165-628.774,1560.373-627.863,1561Zm-11.249-4.2c-.158.662.484.647.78.928-.091-.321.343-1.081-.121-1.084C-638.512,1556.881-638.81,1556.837-639.112,1556.793Zm-18.135.789a11.474,11.474,0,0,1-5.979-.52c-5.77.27-7.164-.8-13.662-1.189.373,1.442-.737,3.154-.817,4.446-.056.9.44,1.9.4,2.831-.365,8.467-3.113,14.833-4.825,20.873a11.72,11.72,0,0,1-2.136,4.76c-.7.891-.841,2.213-1.343,3.11-.226.4-.926.586-1.161.975-.664,1.1-.838,2.493-1.6,3.517a26.9,26.9,0,0,1-2.57,2.359c-2.2,2.445-3.534,5.547-5.618,7.683-.394.158-.593.55-1.316.318-1.473,2.724-5.012,2.985-6.128,6.133,2.988.46,6.283.659,8.679,1.615.344-.062.242-.654.89-.35,11.137,2.163,24.467,2.055,36.337,5.094,2.1-3.227,4.578-6.013,6.033-10.015,2.235-1.4,2.7-4.855,3.695-7.849,1.264-3.807,3.615-9.253,4.742-12.494,2.92-8.389,6.087-17.195,5.6-27.26a24.241,24.241,0,0,0-5.419-1.976c.025-.287.049-.568.073-.854C-647.072,1559.749-653.383,1558.391-657.247,1557.582Zm29.449,5.14c.024-.312.232-1.738-.122-1.085C-627.944,1561.951-628.154,1563.377-627.8,1562.721Zm-6.99,18.537c-.385.718-.032,2.319-.864,2.506.477,4.569-.264,8.934-.584,14.144.89,2.55-.868,7.324.465,9.505-1.443,10.269-1.421,19.661-2.191,30.136-.041.734-.8.624-.966,1.208.487.448.472,1.32.688,1.995,1.574-.4,1.7-2.526,3.267-2.943.4-4.356.551-9.22.816-14.341-.31-2.7-.559-6.681.047-7.95-.8-2.06.026-5.252.26-7.937.5-5.789.275-12.049,1.042-16.9-.492-9.622,1.132-20.375.156-29.021l-.426-.036C-632.206,1567.614-636.453,1574.68-634.788,1581.258Zm10.989-17.541c.264-.238.644-.334.521-1.032-.214-.02-.428-.035-.642-.055C-623.83,1562.951-624.266,1563.713-623.8,1563.717Zm-.111,1.278a.457.457,0,1,0,.074-.852C-623.861,1564.427-623.885,1564.713-623.91,1565Zm-1.765.495c.028-.314.234-1.741-.12-1.086C-625.819,1564.718-626.027,1566.143-625.675,1565.49Zm1.617,1.214c1.107-.141-.4,1.921.7,1.782-.376-.541.227-1.9-.221-2.385C-623.548,1566.527-623.9,1566.5-624.058,1566.7Zm6.711,4.455a3.843,3.843,0,0,0-.222-2.385A3.8,3.8,0,0,0-617.348,1571.16Zm-5.71,8.752c-.122.405-.978-.065-.713.8.419,5.313-.644,11.372-.6,16.725.1,10.977.058,21.551-.49,32.865a21.882,21.882,0,0,0,4.158-3.3c-.674-7.869-.111-15.98-.483-24.128-.2-4.359-.131-9.062-.539-13.6-.2-2.184-1.043-4.136-.975-6.108a33.139,33.139,0,0,0,.038-5.375c-.384-3.207.647-6.749-.965-8.687C-624.007,1573.189-623.155,1576.235-623.058,1579.912Zm2.583.009c-.316-1.582.352-3.991-.644-5-.06.161-.043.422-.251.408-.131,0-.255.01-.231.2C-620.43,1576.191-621.463,1579.758-620.474,1579.921Zm-4.364.7c-.149-.667.645-2.123-.243-2.172C-625.265,1579.192-625.667,1580.269-624.838,1580.617Zm-58.12-4.409c.6.366.706-.9.055-.642C-682.92,1575.781-682.94,1576-682.958,1576.208Zm57.617,29.961c.59-9.487.454-17.419.465-25.124-.032-.17-.156-.264-.406-.251C-625.2,1589.4-626.019,1598.657-625.341,1606.169Zm4.7-19.382c-.141-.607.613-1.964-.26-1.957C-620.763,1585.438-621.515,1586.8-620.643,1586.787Zm3.945,1.635c-.6,1.835.194-.6,0,0Zm-20.309,1.03c.026-.313.232-1.74-.122-1.087C-637.153,1588.682-637.361,1590.106-637.007,1589.453Zm20.616,2.869c-.092-.453.472-1.454-.315-1.319C-616.619,1591.455-617.182,1592.457-616.391,1592.322Zm-23.336,6.144c.032,1.556-.554,3.631.483,4.343.064-5,.981-7.287.439-12.437C-640.1,1592.132-640.441,1596.25-639.727,1598.466Zm21.255,2.923c1-2.568-.17-6.709-.7-9.309C-619.31,1595.5-618.44,1598.063-618.472,1601.389Zm1.524-7.61c.141.014.282.024.427.037.023-.282.05-.57.074-.855-.145-.014-.284-.025-.428-.038C-616.9,1593.208-616.926,1593.495-616.948,1593.779Zm-2.415,32.7c.287.7.34-.826,1.1-.336-.391-5.87-1.269-11.334-.341-18.312-.8-4.734-1.052-9.933-1.726-14.775-.033-.171-.158-.264-.408-.252C-620.042,1604.263-620.843,1615.868-619.363,1626.477Zm-23.863-24.875c-.917.241-1.24,1.195-2.069,1.541-2.108,5.345-5.232,9.476-7.121,15.082-1.674.909-2.239,3.143-4,3.954.07.6.608.806.508,1.55-1.538-.026-1.834,1.427-3.154,1.66-6.591-2.532-13.154-3.851-21.46-5.522-.352,3.925-.147,4.326-.24,7.721,11.914,4.338,24.346,7.35,37.792,10.6.882-12.621,3.338-29.438,2.109-41.545-.214-.02-.429-.037-.641-.056C-642.206,1598.437-643.281,1599.357-643.226,1601.6Zm3.481,2.025c.6.366.706-.9.056-.641C-639.708,1603.2-639.727,1603.413-639.745,1603.627Zm14.274,4.037c-.273,2.971.426,1.081.092-1.068C-625.852,1607.177-625.421,1607.139-625.471,1607.664Zm-13.115,9.827c-.023-1.364.568-3.245.158-4.287C-638.626,1614.372-639.369,1616.62-638.586,1617.491Zm-18.553,3.118c.522.272,1.01-.637.5-.818C-656.433,1620.506-657.344,1619.9-657.139,1620.609Zm16.642,8.977.425.038c.05-.571.1-1.138.149-1.711C-640.752,1627.711-640.273,1629.064-640.5,1629.586Zm14.033,1.864.64.056c.013-.141.025-.285.038-.428l-.641-.056C-626.44,1631.166-626.453,1631.309-626.464,1631.45Z" fill="#42d4f3" fill-rule="evenodd"/>
  </g>
</svg>
