<svg xmlns="http://www.w3.org/2000/svg" width="212.597" height="481.641" viewBox="0 0 212.597 481.641">
  <g id="drop_green" data-name="drop green" transform="translate(-3089.878 -889.904) rotate(180)" opacity="0.15">
    <circle id="Ellipse_28" data-name="Ellipse 28" cx="5.096" cy="5.096" r="5.096" transform="matrix(0.779, -0.628, 0.628, 0.779, -3250.604, -1220.624)" fill="#4ee16d" stroke="rgba(0,0,0,0)" stroke-width="1"/>
    <path id="Path_1260" data-name="Path 1260" d="M-3183.339-885.526a3.323,3.323,0,0,0,4.458-1.488,3.322,3.322,0,0,0-.611-3.82,1.263,1.263,0,0,0,.909-.528,1.271,1.271,0,0,0-.31-1.77,1.27,1.27,0,0,0-1.77.309,1.269,1.269,0,0,0-.151,1.171,3.321,3.321,0,0,0-4.014,1.668A3.323,3.323,0,0,0-3183.339-885.526Z" transform="translate(-69.993 -286.661)" fill="#4ee16d" stroke="rgba(0,0,0,0)" stroke-width="1"/>
    <path id="Path_1261" data-name="Path 1261" d="M-3071.833-858.144a3.7,3.7,0,0,0-1.656-4.962,3.7,3.7,0,0,0-4.962,1.656,3.7,3.7,0,0,0,1.657,4.962A3.7,3.7,0,0,0-3071.833-858.144Z" transform="translate(-133.823 -304.589)" fill="#4ee16d" stroke="rgba(0,0,0,0)" stroke-width="1"/>
    <path id="Path_1262" data-name="Path 1262" d="M-3096.217-790.3a3.161,3.161,0,0,0-4.241,1.416,3.161,3.161,0,0,0,1.416,4.24,3.161,3.161,0,0,0,4.241-1.416A3.161,3.161,0,0,0-3096.217-790.3Z" transform="translate(-120.648 -348.325)" fill="#4ee16d" stroke="rgba(0,0,0,0)" stroke-width="1"/>
    <path id="Path_1263" data-name="Path 1263" d="M-3164.418-724.536a2.376,2.376,0,0,0,3.188-1.064,2.376,2.376,0,0,0-1.064-3.188,2.377,2.377,0,0,0-3.188,1.064A2.376,2.376,0,0,0-3164.418-724.536Z" transform="translate(-81.665 -385.299)" fill="#4ee16d" stroke="rgba(0,0,0,0)" stroke-width="1"/>
    <path id="Path_1264" data-name="Path 1264" d="M-3126.459-714.391a3.529,3.529,0,0,0,4.733-1.58,3.529,3.529,0,0,0-1.581-4.734,3.528,3.528,0,0,0-4.733,1.581A3.529,3.529,0,0,0-3126.459-714.391Z" transform="translate(-104.068 -390.078)" fill="#4ee16d" stroke="rgba(0,0,0,0)" stroke-width="1"/>
    <path id="Path_1265" data-name="Path 1265" d="M-3102.636-651.616a4.98,4.98,0,0,0,5.674-.868,2.963,2.963,0,0,0,3.417-1.087,2.964,2.964,0,0,0-.721-4.13,2.953,2.953,0,0,0-1.664-.538,4.958,4.958,0,0,0-1.123-1.509,1.5,1.5,0,0,0-.829-1.435,1.5,1.5,0,0,0-1.656.208,4.982,4.982,0,0,0-5.329,2.677A4.982,4.982,0,0,0-3102.636-651.616Z" transform="translate(-117.885 -425.934)" fill="#4ee16d" stroke="rgba(0,0,0,0)" stroke-width="1"/>
    <path id="Path_1266" data-name="Path 1266" d="M-3119.907-626.782a3.248,3.248,0,0,0-4.357,1.455,3.248,3.248,0,0,0,1.455,4.357,3.248,3.248,0,0,0,4.357-1.455A3.248,3.248,0,0,0-3119.907-626.782Z" transform="translate(-106.352 -446.474)" fill="#4ee16d" stroke="rgba(0,0,0,0)" stroke-width="1"/>
    <path id="Path_1267" data-name="Path 1267" d="M-3072.426-573.361a2.846,2.846,0,0,0,3.818-1.275,2.846,2.846,0,0,0-1.274-3.818,2.847,2.847,0,0,0-3.818,1.275A2.846,2.846,0,0,0-3072.426-573.361Z" transform="translate(-136.729 -475.509)" fill="#4ee16d" stroke="rgba(0,0,0,0)" stroke-width="1"/>
    <path id="Path_1268" data-name="Path 1268" d="M-3179.289-494.688a2.965,2.965,0,0,0,3.977-1.328,2.965,2.965,0,0,0-1.328-3.977,2.964,2.964,0,0,0-3.976,1.328A2.965,2.965,0,0,0-3179.289-494.688Z" transform="translate(-72.544 -522.599)" fill="#4ee16d" stroke="rgba(0,0,0,0)" stroke-width="1"/>
    <path id="Path_1269" data-name="Path 1269" d="M-3085.171-498.379a4.107,4.107,0,0,0-3.5-.082,4.084,4.084,0,0,0,.676-.969,4.083,4.083,0,0,0-1.829-5.477,4.083,4.083,0,0,0-5.477,1.828,4.083,4.083,0,0,0,.791,4.734,2.618,2.618,0,0,0,.9,2.681,2.615,2.615,0,0,0,2.53.42,4.112,4.112,0,0,0,.074,1.5,5.238,5.238,0,0,0-.808.609,5.234,5.234,0,0,0-.307,7.395,5.234,5.234,0,0,0,7.4.307,5.232,5.232,0,0,0,.884-6.634,4.119,4.119,0,0,0,.521-.791A4.116,4.116,0,0,0-3085.171-498.379Z" transform="translate(-123.684 -519.578)" fill="#4ee16d" stroke="rgba(0,0,0,0)" stroke-width="1"/>
    <path id="Path_1270" data-name="Path 1270" d="M-2926.765-1223.283a3.074,3.074,0,0,0,4.123-1.376,3.073,3.073,0,0,0-1.376-4.122,3.073,3.073,0,0,0-4.123,1.376A3.073,3.073,0,0,0-2926.765-1223.283Z" transform="translate(-224.088 -85.127)" fill="#4ee16d" stroke="rgba(0,0,0,0)" stroke-width="1"/>
    <path id="Path_1271" data-name="Path 1271" d="M-2937.368-1155.2a2,2,0,0,0,2.688-.9,2,2,0,0,0-.9-2.689,2,2,0,0,0-2.688.9A2,2,0,0,0-2937.368-1155.2Z" transform="translate(-218.079 -127.208)" fill="#4ee16d" stroke="rgba(0,0,0,0)" stroke-width="1"/>
    <path id="Path_1272" data-name="Path 1272" d="M-2873.114-1139.086a2.231,2.231,0,0,0,2.993-1,2.231,2.231,0,0,0-1-2.992,2.231,2.231,0,0,0-2.992,1A2.231,2.231,0,0,0-2873.114-1139.086Z" transform="translate(-256.573 -136.625)" fill="#4ee16d" stroke="rgba(0,0,0,0)" stroke-width="1"/>
    <path id="Path_1273" data-name="Path 1273" d="M-2886.531-1095.759a1.907,1.907,0,0,0,2.558-.854,1.907,1.907,0,0,0-.854-2.557,1.906,1.906,0,0,0-2.557.854A1.907,1.907,0,0,0-2886.531-1095.759Z" transform="translate(-248.627 -163.002)" fill="#4ee16d" stroke="rgba(0,0,0,0)" stroke-width="1"/>
    <path id="Path_1274" data-name="Path 1274" d="M-2925.958-1059.509a1.434,1.434,0,0,0,1.923-.642,1.434,1.434,0,0,0-.642-1.923,1.434,1.434,0,0,0-1.923.642A1.434,1.434,0,0,0-2925.958-1059.509Z" transform="translate(-225.118 -185.299)" fill="#4ee16d" stroke="rgba(0,0,0,0)" stroke-width="1"/>
    <path id="Path_1275" data-name="Path 1275" d="M-2903.065-1053.391a2.128,2.128,0,0,0,2.854-.953,2.128,2.128,0,0,0-.953-2.855,2.128,2.128,0,0,0-2.854.953A2.128,2.128,0,0,0-2903.065-1053.391Z" transform="translate(-238.628 -188.181)" fill="#4ee16d" stroke="rgba(0,0,0,0)" stroke-width="1"/>
    <path id="Path_1276" data-name="Path 1276" d="M-2888.7-1015.534a3,3,0,0,0,4.03-1.346,3,3,0,0,0-.663-3.559.907.907,0,0,0-.5-.865.907.907,0,0,0-1,.125,3,3,0,0,0-3.214,1.615A3,3,0,0,0-2888.7-1015.534Z" transform="translate(-246.961 -209.806)" fill="#4ee16d" stroke="rgba(0,0,0,0)" stroke-width="1"/>
    <path id="Path_1277" data-name="Path 1277" d="M-2922.66-1002.144a2.726,2.726,0,0,0-3.657,1.221,2.727,2.727,0,0,0,1.221,3.657,2.726,2.726,0,0,0,3.657-1.221A2.726,2.726,0,0,0-2922.66-1002.144Z" transform="translate(-225.205 -221.191)" fill="#4ee16d" stroke="rgba(0,0,0,0)" stroke-width="1"/>
    <path id="Path_1278" data-name="Path 1278" d="M-2901.741-999.68a1.959,1.959,0,0,0,.877,2.628,1.958,1.958,0,0,0,2.627-.877,1.959,1.959,0,0,0-.877-2.627A1.959,1.959,0,0,0-2901.741-999.68Z" transform="translate(-240.006 -222.193)" fill="#4ee16d" stroke="rgba(0,0,0,0)" stroke-width="1"/>
    <path id="Path_1279" data-name="Path 1279" d="M-2927.221-968.766a3.155,3.155,0,0,0,4.233-1.413,3.156,3.156,0,0,0-1.413-4.232,3.155,3.155,0,0,0-4.232,1.413A3.155,3.155,0,0,0-2927.221-968.766Z" transform="translate(-223.788 -237.811)" fill="#4ee16d" stroke="rgba(0,0,0,0)" stroke-width="1"/>
    <path id="Path_1280" data-name="Path 1280" d="M-2899.918-972.549a1.262,1.262,0,0,0-1.693.565,1.262,1.262,0,0,0,.565,1.693,1.262,1.262,0,0,0,1.693-.565A1.262,1.262,0,0,0-2899.918-972.549Z" transform="translate(-240.128 -239.049)" fill="#4ee16d" stroke="rgba(0,0,0,0)" stroke-width="1"/>
    <path id="Path_1281" data-name="Path 1281" d="M-2868.946-971.411a1.717,1.717,0,0,0-2.3.769,1.716,1.716,0,0,0,.769,2.3,1.716,1.716,0,0,0,2.3-.769A1.716,1.716,0,0,0-2868.946-971.411Z" transform="translate(-258.325 -239.703)" fill="#4ee16d" stroke="rgba(0,0,0,0)" stroke-width="1"/>
    <path id="Path_1282" data-name="Path 1282" d="M-2891.288-956.617a3,3,0,0,0,4.031-1.346,3,3,0,0,0-1.345-4.03,3,3,0,0,0-4.031,1.345A3,3,0,0,0-2891.288-956.617Z" transform="translate(-245.407 -245.275)" fill="#4ee16d" stroke="rgba(0,0,0,0)" stroke-width="1"/>
    <path id="Path_1283" data-name="Path 1283" d="M-2935.727-923.292a1.788,1.788,0,0,0,.8,2.4,1.788,1.788,0,0,0,2.4-.8,1.788,1.788,0,0,0-.8-2.4A1.788,1.788,0,0,0-2935.727-923.292Z" transform="translate(-219.617 -268.102)" fill="#4ee16d" stroke="rgba(0,0,0,0)" stroke-width="1"/>
    <path id="Path_1284" data-name="Path 1284" d="M-2880.973-927.057a2.463,2.463,0,0,0-3.3,1.1,2.463,2.463,0,0,0,1.1,3.3,2.458,2.458,0,0,0,2.091.051,2.494,2.494,0,0,0-.414.592,2.482,2.482,0,0,0,1.112,3.329,2.482,2.482,0,0,0,3.329-1.112,2.482,2.482,0,0,0-1.112-3.329,2.477,2.477,0,0,0-2.112-.05,2.458,2.458,0,0,0,.407-.584A2.462,2.462,0,0,0-2880.973-927.057Z" transform="translate(-250.458 -266.28)" fill="#4ee16d" stroke="rgba(0,0,0,0)" stroke-width="1"/>
    <path id="Path_1285" data-name="Path 1285" d="M-3273.474-1064.325a3.073,3.073,0,0,0,4.123-1.377,3.073,3.073,0,0,0-1.376-4.122,3.074,3.074,0,0,0-4.123,1.377A3.074,3.074,0,0,0-3273.474-1064.325Z" transform="translate(-15.972 -180.543)" fill="#4ee16d" stroke="rgba(0,0,0,0)" stroke-width="1"/>
    <path id="Path_1286" data-name="Path 1286" d="M-3284.078-996.246a2,2,0,0,0,2.689-.9,2,2,0,0,0-.9-2.689,2,2,0,0,0-2.688.9A2,2,0,0,0-3284.078-996.246Z" transform="translate(-9.962 -222.625)" fill="#4ee16d" stroke="rgba(0,0,0,0)" stroke-width="1"/>
    <path id="Path_1287" data-name="Path 1287" d="M-3219.823-980.127a2.23,2.23,0,0,0,2.992-1,2.23,2.23,0,0,0-1-2.992,2.231,2.231,0,0,0-2.992,1A2.231,2.231,0,0,0-3219.823-980.127Z" transform="translate(-48.456 -232.042)" fill="#4ee16d" stroke="rgba(0,0,0,0)" stroke-width="1"/>
    <circle id="Ellipse_29" data-name="Ellipse 29" cx="1.907" cy="1.907" r="1.907" transform="matrix(0.201, -0.98, 0.98, 0.201, -3275.15, -1195.441)" fill="#4ee16d" stroke="rgba(0,0,0,0)" stroke-width="1"/>
    <path id="Path_1288" data-name="Path 1288" d="M-3272.667-900.551a1.433,1.433,0,0,0,1.922-.642,1.433,1.433,0,0,0-.642-1.922,1.433,1.433,0,0,0-1.923.642A1.433,1.433,0,0,0-3272.667-900.551Z" transform="translate(-17.001 -280.716)" fill="#4ee16d" stroke="rgba(0,0,0,0)" stroke-width="1"/>
    <path id="Path_1289" data-name="Path 1289" d="M-3249.775-894.432a2.128,2.128,0,0,0,2.854-.953,2.128,2.128,0,0,0-.953-2.855,2.129,2.129,0,0,0-2.855.953A2.128,2.128,0,0,0-3249.775-894.432Z" transform="translate(-30.511 -283.599)" fill="#4ee16d" stroke="rgba(0,0,0,0)" stroke-width="1"/>
    <path id="Path_1290" data-name="Path 1290" d="M-3232.541-862.345a.907.907,0,0,0-1,.125,3,3,0,0,0-3.214,1.615,3,3,0,0,0,1.345,4.03,3,3,0,0,0,4.03-1.345,3,3,0,0,0-.663-3.559A.907.907,0,0,0-3232.541-862.345Z" transform="translate(-38.845 -305.223)" fill="#4ee16d" stroke="rgba(0,0,0,0)" stroke-width="1"/>
    <path id="Path_1291" data-name="Path 1291" d="M-3269.369-843.185a2.726,2.726,0,0,0-3.657,1.221,2.726,2.726,0,0,0,1.221,3.657,2.726,2.726,0,0,0,3.657-1.221A2.726,2.726,0,0,0-3269.369-843.185Z" transform="translate(-17.089 -316.608)" fill="#4ee16d" stroke="rgba(0,0,0,0)" stroke-width="1"/>
    <path id="Path_1292" data-name="Path 1292" d="M-3271.966-815.452a3.155,3.155,0,0,0-4.233,1.413,3.155,3.155,0,0,0,1.413,4.232c.047.023.094.041.141.062-.036.032-.075.059-.11.092a7.267,7.267,0,0,0-.426,10.269,7.268,7.268,0,0,0,10.27.426,7.268,7.268,0,0,0,.425-10.27,7.25,7.25,0,0,0-5.929-2.316A3.155,3.155,0,0,0-3271.966-815.452Z" transform="translate(-14.816 -333.228)" fill="#4ee16d" stroke="rgba(0,0,0,0)" stroke-width="1"/>
    <path id="Path_1293" data-name="Path 1293" d="M-3248.32-813.025a1.263,1.263,0,0,0,.565,1.693,1.262,1.262,0,0,0,1.693-.566,1.262,1.262,0,0,0-.565-1.693A1.263,1.263,0,0,0-3248.32-813.025Z" transform="translate(-32.012 -334.465)" fill="#4ee16d" stroke="rgba(0,0,0,0)" stroke-width="1"/>
    <path id="Path_1294" data-name="Path 1294" d="M-3215.655-812.452a1.716,1.716,0,0,0-2.3.769,1.717,1.717,0,0,0,.769,2.3,1.717,1.717,0,0,0,2.3-.769A1.717,1.717,0,0,0-3215.655-812.452Z" transform="translate(-50.208 -335.12)" fill="#4ee16d" stroke="rgba(0,0,0,0)" stroke-width="1"/>
    <path id="Path_1295" data-name="Path 1295" d="M-3233.966-799a3,3,0,0,0-1.346-4.03,3,3,0,0,0-4.03,1.346,3,3,0,0,0,1.345,4.03A3,3,0,0,0-3233.966-799Z" transform="translate(-37.291 -340.692)" fill="#4ee16d" stroke="rgba(0,0,0,0)" stroke-width="1"/>
    <path id="Path_1296" data-name="Path 1296" d="M-3279.238-762.736a1.788,1.788,0,0,0-.8-2.4,1.788,1.788,0,0,0-2.4.8,1.788,1.788,0,0,0,.8,2.4A1.788,1.788,0,0,0-3279.238-762.736Z" transform="translate(-11.5 -363.519)" fill="#4ee16d" stroke="rgba(0,0,0,0)" stroke-width="1"/>
    <path id="Path_1297" data-name="Path 1297" d="M-3227.093-759.72a2.482,2.482,0,0,0,3.329-1.112,2.482,2.482,0,0,0-1.112-3.329,2.475,2.475,0,0,0-2.112-.05,2.452,2.452,0,0,0,.408-.584,2.462,2.462,0,0,0-1.1-3.3,2.462,2.462,0,0,0-3.3,1.1,2.462,2.462,0,0,0,1.1,3.3,2.458,2.458,0,0,0,2.091.051,2.457,2.457,0,0,0-.414.592A2.482,2.482,0,0,0-3227.093-759.72Z" transform="translate(-42.341 -361.697)" fill="#4ee16d" stroke="rgba(0,0,0,0)" stroke-width="1"/>
    <path id="Path_1298" data-name="Path 1298" d="M-3155.407-488.3a4.625,4.625,0,0,0,.7,6.5,4.625,4.625,0,0,0,6.5-.7,4.625,4.625,0,0,0-.7-6.5A4.625,4.625,0,0,0-3155.407-488.3Z" transform="translate(-87.251 -528.769)" fill="#4ee16d" stroke="rgba(0,0,0,0)" stroke-width="1"/>
    <path id="Path_1299" data-name="Path 1299" d="M-3219.126-467.234a5.234,5.234,0,0,0-.8-7.358,5.234,5.234,0,0,0-7.358.8,5.233,5.233,0,0,0,.8,7.358A5.234,5.234,0,0,0-3219.126-467.234Z" transform="translate(-44.027 -537.34)" fill="#4ee16d" stroke="rgba(0,0,0,0)" stroke-width="1"/>
    <path id="Path_1300" data-name="Path 1300" d="M-3224.016-536.746a4.53,4.53,0,0,0,.689,6.369,4.53,4.53,0,0,0,6.37-.69,4.53,4.53,0,0,0-.689-6.369A4.53,4.53,0,0,0-3224.016-536.746Z" transform="translate(-46.08 -499.711)" fill="#4ee16d" stroke="rgba(0,0,0,0)" stroke-width="1"/>
    <path id="Path_1301" data-name="Path 1301" d="M-3275.621-701.522a2.874,2.874,0,0,0-.437-4.041,2.874,2.874,0,0,0-4.041.437,2.875,2.875,0,0,0,.437,4.041A2.874,2.874,0,0,0-3275.621-701.522Z" transform="translate(-12.635 -399.009)" fill="#4ee16d" stroke="rgba(0,0,0,0)" stroke-width="1"/>
    <path id="Path_1302" data-name="Path 1302" d="M-3214.044-703.761a3.278,3.278,0,0,0,.5,4.608,3.277,3.277,0,0,0,4.608-.5,3.277,3.277,0,0,0-.5-4.608A3.277,3.277,0,0,0-3214.044-703.761Z" transform="translate(-52.232 -399.738)" fill="#4ee16d" stroke="rgba(0,0,0,0)" stroke-width="1"/>
    <path id="Path_1303" data-name="Path 1303" d="M-3268.807-730.883a2.163,2.163,0,0,0-3.042.329,2.145,2.145,0,0,0-.41.845,3.323,3.323,0,0,0-1.776,1.139,3.343,3.343,0,0,0,.509,4.7,3.343,3.343,0,0,0,4.7-.509,3.34,3.34,0,0,0,.4-3.548A2.158,2.158,0,0,0-3268.807-730.883Z" transform="translate(-16.212 -383.905)" fill="#4ee16d" stroke="rgba(0,0,0,0)" stroke-width="1"/>
    <path id="Path_1304" data-name="Path 1304" d="M-3256.14-704.559a1.2,1.2,0,0,0,.183,1.693,1.2,1.2,0,0,0,1.693-.183,1.2,1.2,0,0,0-.183-1.693A1.2,1.2,0,0,0-3256.14-704.559Z" transform="translate(-27.238 -399.723)" fill="#4ee16d" stroke="rgba(0,0,0,0)" stroke-width="1"/>
    <path id="Path_1305" data-name="Path 1305" d="M-3191.472-719.919a2.782,2.782,0,0,0,3.911-.423,2.782,2.782,0,0,0-.423-3.911,2.782,2.782,0,0,0-3.911.423A2.782,2.782,0,0,0-3191.472-719.919Z" transform="translate(-65.592 -387.802)" fill="#4ee16d" stroke="rgba(0,0,0,0)" stroke-width="1"/>
    <path id="Path_1306" data-name="Path 1306" d="M-3261.922-737.916a1.239,1.239,0,0,0-.188-1.743,1.239,1.239,0,0,0-1.742.189,1.239,1.239,0,0,0,.189,1.743A1.239,1.239,0,0,0-3261.922-737.916Z" transform="translate(-22.603 -378.76)" fill="#4ee16d" stroke="rgba(0,0,0,0)" stroke-width="1"/>
    <path id="Path_1307" data-name="Path 1307" d="M-3176.392-782.956a1.951,1.951,0,0,0-.3-2.743,1.951,1.951,0,0,0-2.743.3,1.951,1.951,0,0,0,.3,2.743A1.951,1.951,0,0,0-3176.392-782.956Z" transform="translate(-73.184 -351.029)" fill="#4ee16d" stroke="rgba(0,0,0,0)" stroke-width="1"/>
    <path id="Path_1308" data-name="Path 1308" d="M-3138.7-819.473a5.183,5.183,0,0,0,.789,7.288,5.183,5.183,0,0,0,7.288-.789,5.183,5.183,0,0,0-.789-7.288A5.183,5.183,0,0,0-3138.7-819.473Z" transform="translate(-97.207 -329.854)" fill="#4ee16d" stroke="rgba(0,0,0,0)" stroke-width="1"/>
    <path id="Path_1309" data-name="Path 1309" d="M-3297.252-792.281a2.785,2.785,0,0,0-3.916.424,2.785,2.785,0,0,0,.423,3.916,2.785,2.785,0,0,0,3.916-.424A2.785,2.785,0,0,0-3297.252-792.281Z" transform="translate(0 -346.968)" fill="#4ee16d" stroke="rgba(0,0,0,0)" stroke-width="1"/>
    <path id="Path_1310" data-name="Path 1310" d="M-3155.472-848.393a3.379,3.379,0,0,0-4.751.514,3.379,3.379,0,0,0,.515,4.751,3.379,3.379,0,0,0,4.751-.514A3.379,3.379,0,0,0-3155.472-848.393Z" transform="translate(-84.525 -313.207)" fill="#4ee16d" stroke="rgba(0,0,0,0)" stroke-width="1"/>
    <path id="Path_1311" data-name="Path 1311" d="M-3291.457-820.678a.719.719,0,0,0,1.011-.109.72.72,0,0,0-.11-1.011.719.719,0,0,0-1.011.11A.719.719,0,0,0-3291.457-820.678Z" transform="translate(-6.038 -329.523)" fill="#4ee16d" stroke="rgba(0,0,0,0)" stroke-width="1"/>
    <path id="Path_1312" data-name="Path 1312" d="M-3289.768-807.429a2.042,2.042,0,0,0-2.872.311,2.042,2.042,0,0,0,.311,2.871,2.042,2.042,0,0,0,2.871-.311A2.042,2.042,0,0,0-3289.768-807.429Z" transform="translate(-5.218 -337.973)" fill="#4ee16d" stroke="rgba(0,0,0,0)" stroke-width="1"/>
    <path id="Path_1313" data-name="Path 1313" d="M-3158.319-787.031a.713.713,0,0,0,.328.953.712.712,0,0,0,.952-.328.712.712,0,0,0-.328-.952A.712.712,0,0,0-3158.319-787.031Z" transform="translate(-86.073 -350.248)" fill="#4ee16d" stroke="rgba(0,0,0,0)" stroke-width="1"/>
    <path id="Path_1314" data-name="Path 1314" d="M-3214.766-671.907a3.562,3.562,0,0,0,4.763-1.64,3.561,3.561,0,0,0-1.64-4.762,3.562,3.562,0,0,0-4.762,1.64A3.561,3.561,0,0,0-3214.766-671.907Z" transform="translate(-51.032 -415.533)" fill="#4ee16d" stroke="rgba(0,0,0,0)" stroke-width="1"/>
    <path id="Path_1315" data-name="Path 1315" d="M-3123.112-663a4.429,4.429,0,0,0-5.923,2.039,4.429,4.429,0,0,0,2.039,5.923,4.429,4.429,0,0,0,5.923-2.039A4.429,4.429,0,0,0-3123.112-663Z" transform="translate(-103.425 -424.667)" fill="#4ee16d" stroke="rgba(0,0,0,0)" stroke-width="1"/>
    <path id="Path_1316" data-name="Path 1316" d="M-3188.789-507.562a.951.951,0,0,0,.438,1.271.951.951,0,0,0,1.271-.438.95.95,0,0,0-.438-1.271A.951.951,0,0,0-3188.789-507.562Z" transform="translate(-67.769 -517.923)" fill="#4ee16d" stroke="rgba(0,0,0,0)" stroke-width="1"/>
    <path id="Path_1317" data-name="Path 1317" d="M-3050.566-464.086a3.31,3.31,0,0,0-1.524-4.426,3.336,3.336,0,0,0-.677-.242,3.323,3.323,0,0,0-.726-.485,3.338,3.338,0,0,0-4.463,1.537,3.337,3.337,0,0,0,1.537,4.463,3.323,3.323,0,0,0,.789.265,3.3,3.3,0,0,0,.639.412A3.31,3.31,0,0,0-3050.566-464.086Z" transform="translate(-146.157 -541.044)" fill="#4ee16d" stroke="rgba(0,0,0,0)" stroke-width="1"/>
    <path id="Path_1318" data-name="Path 1318" d="M-3210.475-424.527a13.656,13.656,0,0,0,18.683.177,13.657,13.657,0,0,0,.8-19.3,13.657,13.657,0,0,0-19.3-.8,13.67,13.67,0,0,0-2.036,2.358,4.471,4.471,0,0,0-.359-.324,4.5,4.5,0,0,0-6.331.685,4.5,4.5,0,0,0,.685,6.33,4.488,4.488,0,0,0,3.636.917,13.644,13.644,0,0,0,1.035,5.316,4.829,4.829,0,0,0-5.98,2.425,4.829,4.829,0,0,0,2.223,6.458,4.83,4.83,0,0,0,6.458-2.223A4.81,4.81,0,0,0-3210.475-424.527Z" transform="translate(-49.013 -553.962)" fill="#4ee16d" stroke="rgba(0,0,0,0)" stroke-width="1"/>
    <path id="Path_1319" data-name="Path 1319" d="M-3050.88-398.28a1.639,1.639,0,0,0,.755,2.192,1.639,1.639,0,0,0,2.192-.755,1.64,1.64,0,0,0-.754-2.193A1.64,1.64,0,0,0-3050.88-398.28Z" transform="translate(-150.508 -583.288)" fill="#4ee16d" stroke="rgba(0,0,0,0)" stroke-width="1"/>
    <path id="Path_1320" data-name="Path 1320" d="M-3113.013-341.173a3.349,3.349,0,0,0-1.542-4.478,3.348,3.348,0,0,0-4.477,1.542,3.348,3.348,0,0,0,1.541,4.478A3.349,3.349,0,0,0-3113.013-341.173Z" transform="translate(-109.494 -615.228)" fill="#4ee16d" stroke="rgba(0,0,0,0)" stroke-width="1"/>
    <path id="Path_1321" data-name="Path 1321" d="M-3106.415-312.515a4.819,4.819,0,0,0,6.444-2.219,4.812,4.812,0,0,0-.28-4.714,4.174,4.174,0,0,0,2.763-2.228,4.184,4.184,0,0,0-1.926-5.595,4.184,4.184,0,0,0-5.595,1.926,4.174,4.174,0,0,0,.034,3.726,4.814,4.814,0,0,0-3.658,2.659A4.819,4.819,0,0,0-3106.415-312.515Z" transform="translate(-115.647 -626.211)" fill="#4ee16d" stroke="rgba(0,0,0,0)" stroke-width="1"/>
    <path id="Path_1322" data-name="Path 1322" d="M-2942.535-772.978a5.1,5.1,0,0,0,1.241,7.1,5.1,5.1,0,0,0,7.1-1.241,5.1,5.1,0,0,0-1.241-7.1A5.1,5.1,0,0,0-2942.535-772.978Z" transform="translate(-215.088 -357.623)" fill="#4ee16d" stroke="rgba(0,0,0,0)" stroke-width="1"/>
    <path id="Path_1323" data-name="Path 1323" d="M-2901.889-548.023a3.161,3.161,0,0,0-.769-4.4,3.161,3.161,0,0,0-4.4.77,3.161,3.161,0,0,0,.77,4.4A3.161,3.161,0,0,0-2901.889-548.023Z" transform="translate(-236.591 -490.967)" fill="#4ee16d" stroke="rgba(0,0,0,0)" stroke-width="1"/>
    <path id="Path_1324" data-name="Path 1324" d="M-2979.691-497.7a2.376,2.376,0,0,0,3.311-.578,2.376,2.376,0,0,0-.579-3.311,2.376,2.376,0,0,0-3.311.578A2.376,2.376,0,0,0-2979.691-497.7Z" transform="translate(-192.733 -521.572)" fill="#4ee16d" stroke="rgba(0,0,0,0)" stroke-width="1"/>
    <path id="Path_1325" data-name="Path 1325" d="M-2943.287-482.639a3.529,3.529,0,0,0-.86-4.916,3.528,3.528,0,0,0-4.916.859,3.523,3.523,0,0,0-.323,3.486,2.614,2.614,0,0,0-2.314.634,2.618,2.618,0,0,0-.153,3.7,2.618,2.618,0,0,0,3.7.153,2.616,2.616,0,0,0,.743-2.641A3.528,3.528,0,0,0-2943.287-482.639Z" transform="translate(-209.635 -529.867)" fill="#4ee16d" stroke="rgba(0,0,0,0)" stroke-width="1"/>
    <path id="Path_1326" data-name="Path 1326" d="M-2930.125-415.432a4.982,4.982,0,0,0,6.94-1.213,4.98,4.98,0,0,0-.21-6,1.5,1.5,0,0,0-.607-1.543,1.505,1.505,0,0,0-1.669-.04,4.982,4.982,0,0,0-5.667,1.855A4.982,4.982,0,0,0-2930.125-415.432Z" transform="translate(-221.82 -568.109)" fill="#4ee16d" stroke="rgba(0,0,0,0)" stroke-width="1"/>
    <path id="Path_1327" data-name="Path 1327" d="M-2954.15-388.914a3.247,3.247,0,0,0,4.524-.791,3.247,3.247,0,0,0-.791-4.525,3.248,3.248,0,0,0-4.524.791A3.248,3.248,0,0,0-2954.15-388.914Z" transform="translate(-207.842 -585.918)" fill="#4ee16d" stroke="rgba(0,0,0,0)" stroke-width="1"/>
    <path id="Path_1328" data-name="Path 1328" d="M-2994.043-367.473a2.087,2.087,0,0,0-2.708.269,12.073,12.073,0,0,0-6.953-12,12.069,12.069,0,0,0-16.024,5.879,12.009,12.009,0,0,0-.972,6.944c-.028.049-.057.1-.082.147a3.163,3.163,0,0,0,1.456,4.228,3.15,3.15,0,0,0,.3.129,12.006,12.006,0,0,0,5.173,4.575,12.069,12.069,0,0,0,16.023-5.879,12.137,12.137,0,0,0,.656-1.763,2.078,2.078,0,0,0,.719.9,2.093,2.093,0,0,0,2.916-.51A2.093,2.093,0,0,0-2994.043-367.473Z" transform="translate(-168.483 -594.618)" fill="#4ee16d" stroke="rgba(0,0,0,0)" stroke-width="1"/>
    <path id="Path_1329" data-name="Path 1329" d="M-2941.89-321.1a4.982,4.982,0,0,0-1.213-6.941,4.981,4.981,0,0,0-6.94,1.213,4.982,4.982,0,0,0,1.213,6.94A4.981,4.981,0,0,0-2941.89-321.1Z" transform="translate(-210.593 -625.457)" fill="#4ee16d" stroke="rgba(0,0,0,0)" stroke-width="1"/>
    <path id="Path_1330" data-name="Path 1330" d="M-2935.357-261.917a4.107,4.107,0,0,0-3.45-.6,4.072,4.072,0,0,0,.812-.857,4.083,4.083,0,0,0-.994-5.688,4.083,4.083,0,0,0-5.688.994,4.083,4.083,0,0,0,.994,5.688,4.073,4.073,0,0,0,3.417.6,4.116,4.116,0,0,0-.824.869,4.116,4.116,0,0,0,1,5.733,4.116,4.116,0,0,0,5.733-1A4.116,4.116,0,0,0-2935.357-261.917Z" transform="translate(-213.912 -660.959)" fill="#4ee16d" stroke="rgba(0,0,0,0)" stroke-width="1"/>
    <path id="Path_1331" data-name="Path 1331" d="M-2965.56-922.953a3.162,3.162,0,0,0,4.4-.77,3.161,3.161,0,0,0-.77-4.4,3.161,3.161,0,0,0-4.4.769A3.161,3.161,0,0,0-2965.56-922.953Z" transform="translate(-201.015 -265.448)" fill="#4ee16d" stroke="rgba(0,0,0,0)" stroke-width="1"/>
    <path id="Path_1332" data-name="Path 1332" d="M-3035.647-873.974a2.377,2.377,0,0,0-.578-3.311,2.377,2.377,0,0,0-3.311.579,2.376,2.376,0,0,0,.579,3.311A2.376,2.376,0,0,0-3035.647-873.974Z" transform="translate(-157.158 -296.053)" fill="#4ee16d" stroke="rgba(0,0,0,0)" stroke-width="1"/>
    <path id="Path_1333" data-name="Path 1333" d="M-3004.064-862.4a3.529,3.529,0,0,0,.86,4.916,3.529,3.529,0,0,0,4.916-.859,3.529,3.529,0,0,0-.859-4.916A3.529,3.529,0,0,0-3004.064-862.4Z" transform="translate(-178.325 -304.348)" fill="#4ee16d" stroke="rgba(0,0,0,0)" stroke-width="1"/>
    <path id="Path_1334" data-name="Path 1334" d="M-2985.172-799.887a1.5,1.5,0,0,0-1.668-.04,4.981,4.981,0,0,0-5.667,1.855,4.981,4.981,0,0,0,.783,6.6,1.945,1.945,0,0,0-2.327.226,1.951,1.951,0,0,0-.115,2.756,1.951,1.951,0,0,0,2.757.114,1.951,1.951,0,0,0,.114-2.757,4.981,4.981,0,0,0,6.94-1.213,4.981,4.981,0,0,0-.21-6A1.5,1.5,0,0,0-2985.172-799.887Z" transform="translate(-184.342 -342.59)" fill="#4ee16d" stroke="rgba(0,0,0,0)" stroke-width="1"/>
    <path id="Path_1335" data-name="Path 1335" d="M-3054.5-776.974a4.521,4.521,0,0,0,1.1,6.3,4.521,4.521,0,0,0,6.3-1.1,4.521,4.521,0,0,0-1.1-6.3A4.521,4.521,0,0,0-3054.5-776.974Z" transform="translate(-147.939 -355.371)" fill="#4ee16d" stroke="rgba(0,0,0,0)" stroke-width="1"/>
    <path id="Path_1336" data-name="Path 1336" d="M-3009.683-769.93a3.248,3.248,0,0,0-4.525.791,3.248,3.248,0,0,0,.791,4.525,3.248,3.248,0,0,0,4.524-.791A3.248,3.248,0,0,0-3009.683-769.93Z" transform="translate(-172.267 -360.399)" fill="#4ee16d" stroke="rgba(0,0,0,0)" stroke-width="1"/>
    <path id="Path_1337" data-name="Path 1337" d="M-3065.356-731.608a5.231,5.231,0,0,0,1.274,7.288,5.232,5.232,0,0,0,7.288-1.274,5.231,5.231,0,0,0-1.274-7.288A5.23,5.23,0,0,0-3065.356-731.608Z" transform="translate(-141.347 -382.421)" fill="#4ee16d" stroke="rgba(0,0,0,0)" stroke-width="1"/>
    <path id="Path_1338" data-name="Path 1338" d="M-2971.268-714.092a2.846,2.846,0,0,0,.693,3.965,2.847,2.847,0,0,0,3.966-.693,2.846,2.846,0,0,0-.693-3.965A2.846,2.846,0,0,0-2971.268-714.092Z" transform="translate(-198.085 -393.544)" fill="#4ee16d" stroke="rgba(0,0,0,0)" stroke-width="1"/>
    <path id="Path_1339" data-name="Path 1339" d="M-3015.738-714.641a4.982,4.982,0,0,0,1.213,6.941,4.982,4.982,0,0,0,6.94-1.213,4.982,4.982,0,0,0-1.213-6.94,4.954,4.954,0,0,0-2.665-.9,2.9,2.9,0,0,0,.411-.313,2.874,2.874,0,0,0,.168-4.061,2.874,2.874,0,0,0-3.294-.673,2.819,2.819,0,0,0-.2-.248,2.776,2.776,0,0,0-2.378-.876,2.079,2.079,0,0,0-.872-1.521,2.094,2.094,0,0,0-2.916.51,2.093,2.093,0,0,0,.51,2.916,2.072,2.072,0,0,0,.877.347,2.773,2.773,0,0,0,.685,2.392,2.78,2.78,0,0,0,3.087.693,2.858,2.858,0,0,0,.273.353,2.859,2.859,0,0,0,1.527.864A4.952,4.952,0,0,0-3015.738-714.641Z" transform="translate(-168.589 -387.83)" fill="#4ee16d" stroke="rgba(0,0,0,0)" stroke-width="1"/>
    <circle id="Ellipse_30" data-name="Ellipse 30" cx="3.161" cy="3.161" r="3.161" transform="translate(-3175.595 -1308.431) rotate(-9.913)" fill="#4ee16d" stroke="rgba(0,0,0,0)" stroke-width="1"/>
    <path id="Path_1340" data-name="Path 1340" d="M-3054.185-1164.653a2.376,2.376,0,0,0-3.311.578,2.377,2.377,0,0,0,.579,3.311,2.376,2.376,0,0,0,3.311-.578A2.376,2.376,0,0,0-3054.185-1164.653Z" transform="translate(-146.377 -123.556)" fill="#4ee16d" stroke="rgba(0,0,0,0)" stroke-width="1"/>
    <path id="Path_1341" data-name="Path 1341" d="M-3017.107-1150.625a3.529,3.529,0,0,0-4.916.859,3.529,3.529,0,0,0,.859,4.916,3.529,3.529,0,0,0,4.916-.859A3.529,3.529,0,0,0-3017.107-1150.625Z" transform="translate(-167.544 -131.851)" fill="#4ee16d" stroke="rgba(0,0,0,0)" stroke-width="1"/>
    <path id="Path_1342" data-name="Path 1342" d="M-3008.564-1085.44a4.982,4.982,0,0,0,1.213,6.94,4.982,4.982,0,0,0,6.94-1.213,4.98,4.98,0,0,0-.209-6,1.5,1.5,0,0,0-.607-1.543,1.5,1.5,0,0,0-1.668-.04A4.981,4.981,0,0,0-3008.564-1085.44Z" transform="translate(-175.465 -170.094)" fill="#4ee16d" stroke="rgba(0,0,0,0)" stroke-width="1"/>
    <path id="Path_1343" data-name="Path 1343" d="M-3072.463-1064.343a4.521,4.521,0,0,0,1.1,6.3,4.521,4.521,0,0,0,6.3-1.1,4.521,4.521,0,0,0-1.1-6.3A4.521,4.521,0,0,0-3072.463-1064.343Z" transform="translate(-137.159 -182.875)" fill="#4ee16d" stroke="rgba(0,0,0,0)" stroke-width="1"/>
    <path id="Path_1344" data-name="Path 1344" d="M-3032.167-1056.508a3.248,3.248,0,0,0,.791,4.525,3.248,3.248,0,0,0,4.525-.791,3.248,3.248,0,0,0-.791-4.525A3.248,3.248,0,0,0-3032.167-1056.508Z" transform="translate(-161.486 -187.902)" fill="#4ee16d" stroke="rgba(0,0,0,0)" stroke-width="1"/>
    <circle id="Ellipse_31" data-name="Ellipse 31" cx="5.232" cy="5.232" r="5.232" transform="translate(-3216.605 -1223.507) rotate(-63.822)" fill="#4ee16d" stroke="rgba(0,0,0,0)" stroke-width="1"/>
    <path id="Path_1345" data-name="Path 1345" d="M-3037.994-1008.385a2.092,2.092,0,0,0,2.916-.51,2.093,2.093,0,0,0-.509-2.916,2.093,2.093,0,0,0-2.916.51A2.093,2.093,0,0,0-3037.994-1008.385Z" transform="translate(-157.809 -215.333)" fill="#4ee16d" stroke="rgba(0,0,0,0)" stroke-width="1"/>
    <path id="Path_1346" data-name="Path 1346" d="M-2985.262-1002.153a2.847,2.847,0,0,0-3.965.693,2.846,2.846,0,0,0,.693,3.965,2.846,2.846,0,0,0,3.965-.693A2.846,2.846,0,0,0-2985.262-1002.153Z" transform="translate(-187.305 -221.048)" fill="#4ee16d" stroke="rgba(0,0,0,0)" stroke-width="1"/>
    <path id="Path_1347" data-name="Path 1347" d="M-3026.056-982.96a4.982,4.982,0,0,0,6.941-1.213,4.982,4.982,0,0,0-1.213-6.941,4.982,4.982,0,0,0-6.94,1.213A4.982,4.982,0,0,0-3026.056-982.96Z" transform="translate(-164.237 -227.441)" fill="#4ee16d" stroke="rgba(0,0,0,0)" stroke-width="1"/>
    <path id="Path_1348" data-name="Path 1348" d="M-3102.528-940.411a2.964,2.964,0,0,0-4.13.722,2.964,2.964,0,0,0,.722,4.13,2.964,2.964,0,0,0,4.13-.721A2.965,2.965,0,0,0-3102.528-940.411Z" transform="translate(-116.803 -258.097)" fill="#4ee16d" stroke="rgba(0,0,0,0)" stroke-width="1"/>
    <path id="Path_1349" data-name="Path 1349" d="M-3020.908-925.452a4.073,4.073,0,0,0,3.417.6,4.116,4.116,0,0,0-.824.869,4.116,4.116,0,0,0,1,5.733,4.116,4.116,0,0,0,5.733-1,4.115,4.115,0,0,0-1-5.733,4.1,4.1,0,0,0-3.45-.6,4.086,4.086,0,0,0,.812-.858,4.082,4.082,0,0,0-.994-5.688,4.083,4.083,0,0,0-5.688.994A4.083,4.083,0,0,0-3020.908-925.452Z" transform="translate(-167.556 -262.943)" fill="#4ee16d" stroke="rgba(0,0,0,0)" stroke-width="1"/>
    <path id="Path_1350" data-name="Path 1350" d="M-3077.75-1352.768a2.708,2.708,0,0,0,3.772-.659,2.708,2.708,0,0,0-.66-3.772,2.708,2.708,0,0,0-3.772.659A2.708,2.708,0,0,0-3077.75-1352.768Z" transform="translate(-133.787 -7.942)" fill="#4ee16d" stroke="rgba(0,0,0,0)" stroke-width="1"/>
    <path id="Path_1351" data-name="Path 1351" d="M-3140.62-1310.318a2.035,2.035,0,0,0,2.835-.5,2.036,2.036,0,0,0-.5-2.836,2.035,2.035,0,0,0-2.835.5A2.035,2.035,0,0,0-3140.62-1310.318Z" transform="translate(-96.22 -34.156)" fill="#4ee16d" stroke="rgba(0,0,0,0)" stroke-width="1"/>
    <path id="Path_1352" data-name="Path 1352" d="M-3110-1296.687a3.022,3.022,0,0,0,4.211-.736,3.022,3.022,0,0,0-.736-4.21,3.022,3.022,0,0,0-4.211.736A3.023,3.023,0,0,0-3110-1296.687Z" transform="translate(-114.351 -41.262)" fill="#4ee16d" stroke="rgba(0,0,0,0)" stroke-width="1"/>
    <path id="Path_1353" data-name="Path 1353" d="M-3099.2-1245.8a4.267,4.267,0,0,0,1.039,5.944,4.267,4.267,0,0,0,5.944-1.039,4.265,4.265,0,0,0-.179-5.139,1.289,1.289,0,0,0-.52-1.321,1.289,1.289,0,0,0-1.429-.035A4.266,4.266,0,0,0-3099.2-1245.8Z" transform="translate(-121.136 -74.018)" fill="#4ee16d" stroke="rgba(0,0,0,0)" stroke-width="1"/>
    <path id="Path_1354" data-name="Path 1354" d="M-3152.993-1222.334a3.872,3.872,0,0,0,5.394-.943,3.872,3.872,0,0,0-.943-5.394,3.872,3.872,0,0,0-5.394.943A3.872,3.872,0,0,0-3152.993-1222.334Z" transform="translate(-88.325 -84.966)" fill="#4ee16d" stroke="rgba(0,0,0,0)" stroke-width="1"/>
    <path id="Path_1355" data-name="Path 1355" d="M-3118.743-1217.142a2.782,2.782,0,0,0,3.876-.677,2.782,2.782,0,0,0-.677-3.875,2.782,2.782,0,0,0-3.875.677A2.782,2.782,0,0,0-3118.743-1217.142Z" transform="translate(-109.162 -89.272)" fill="#4ee16d" stroke="rgba(0,0,0,0)" stroke-width="1"/>
    <path id="Path_1356" data-name="Path 1356" d="M-3162.142-1182.627a4.482,4.482,0,0,0,6.243-1.091,4.48,4.48,0,0,0-1.091-6.242,4.481,4.481,0,0,0-6.242,1.091A4.481,4.481,0,0,0-3162.142-1182.627Z" transform="translate(-82.678 -108.136)" fill="#4ee16d" stroke="rgba(0,0,0,0)" stroke-width="1"/>
    <path id="Path_1357" data-name="Path 1357" d="M-3124.412-1179.8a1.793,1.793,0,0,0,2.5-.437,1.793,1.793,0,0,0-.437-2.5,1.793,1.793,0,0,0-2.5.437A1.793,1.793,0,0,0-3124.412-1179.8Z" transform="translate(-106.012 -112.768)" fill="#4ee16d" stroke="rgba(0,0,0,0)" stroke-width="1"/>
    <circle id="Ellipse_32" data-name="Ellipse 32" cx="2.438" cy="2.438" r="2.438" transform="matrix(0.507, -0.862, 0.862, 0.507, -3215.26, -1289.261)" fill="#4ee16d" stroke="rgba(0,0,0,0)" stroke-width="1"/>
    <path id="Path_1358" data-name="Path 1358" d="M-3109.28-1165a4.267,4.267,0,0,0-5.945,1.039,4.267,4.267,0,0,0,1.039,5.945,4.268,4.268,0,0,0,5.945-1.039A4.268,4.268,0,0,0-3109.28-1165Z" transform="translate(-111.518 -123.139)" fill="#4ee16d" stroke="rgba(0,0,0,0)" stroke-width="1"/>
    <path id="Path_1359" data-name="Path 1359" d="M-3182.607-1117.418a2.539,2.539,0,0,0,3.537-.618,2.539,2.539,0,0,0-.618-3.538,2.539,2.539,0,0,0-3.537.618A2.539,2.539,0,0,0-3182.607-1117.418Z" transform="translate(-70.889 -149.397)" fill="#4ee16d" stroke="rgba(0,0,0,0)" stroke-width="1"/>
    <path id="Path_1360" data-name="Path 1360" d="M-3104.9-1109.612a3.5,3.5,0,0,0-.852-4.872,3.5,3.5,0,0,0-4.872.851,3.5,3.5,0,0,0,.852,4.872,3.49,3.49,0,0,0,2.927.513,3.507,3.507,0,0,0-.706.744,3.525,3.525,0,0,0,.858,4.911,3.525,3.525,0,0,0,4.911-.858,3.526,3.526,0,0,0-.858-4.911,3.519,3.519,0,0,0-2.955-.516A3.487,3.487,0,0,0-3104.9-1109.612Z" transform="translate(-114.361 -153.549)" fill="#4ee16d" stroke="rgba(0,0,0,0)" stroke-width="1"/>
    <path id="Path_1361" data-name="Path 1361" d="M-3003.833-1367.789a1.723,1.723,0,0,0,2.4-.42,1.723,1.723,0,0,0-.419-2.4,1.723,1.723,0,0,0-2.4.42A1.723,1.723,0,0,0-3003.833-1367.789Z" transform="translate(-178.408)" fill="#4ee16d" stroke="rgba(0,0,0,0)" stroke-width="1"/>
    <path id="Path_1362" data-name="Path 1362" d="M-3043.839-1340.777a1.3,1.3,0,0,0,1.8-.315,1.3,1.3,0,0,0-.315-1.8,1.3,1.3,0,0,0-1.8.315A1.3,1.3,0,0,0-3043.839-1340.777Z" transform="translate(-154.504 -16.681)" fill="#4ee16d" stroke="rgba(0,0,0,0)" stroke-width="1"/>
    <path id="Path_1363" data-name="Path 1363" d="M-3024.352-1332.1a1.923,1.923,0,0,0,2.679-.468,1.923,1.923,0,0,0-.468-2.679,1.923,1.923,0,0,0-2.679.469A1.923,1.923,0,0,0-3024.352-1332.1Z" transform="translate(-166.041 -21.202)" fill="#4ee16d" stroke="rgba(0,0,0,0)" stroke-width="1"/>
    <path id="Path_1364" data-name="Path 1364" d="M-3017.484-1299.723a2.715,2.715,0,0,0,.661,3.783,2.715,2.715,0,0,0,3.783-.661,2.715,2.715,0,0,0-.115-3.27.819.819,0,0,0-.331-.841.819.819,0,0,0-.909-.022A2.715,2.715,0,0,0-3017.484-1299.723Z" transform="translate(-170.358 -42.046)" fill="#4ee16d" stroke="rgba(0,0,0,0)" stroke-width="1"/>
    <path id="Path_1365" data-name="Path 1365" d="M-3051.712-1284.791a2.464,2.464,0,0,0,3.433-.6,2.464,2.464,0,0,0-.6-3.432,2.464,2.464,0,0,0-3.433.6A2.464,2.464,0,0,0-3051.712-1284.791Z" transform="translate(-149.479 -49.012)" fill="#4ee16d" stroke="rgba(0,0,0,0)" stroke-width="1"/>
    <path id="Path_1366" data-name="Path 1366" d="M-3029.918-1281.486a1.771,1.771,0,0,0,2.466-.431,1.77,1.77,0,0,0-.431-2.466,1.771,1.771,0,0,0-2.466.431A1.771,1.771,0,0,0-3029.918-1281.486Z" transform="translate(-162.739 -51.753)" fill="#4ee16d" stroke="rgba(0,0,0,0)" stroke-width="1"/>
    <path id="Path_1367" data-name="Path 1367" d="M-3057.534-1259.524a2.852,2.852,0,0,0,3.973-.694,2.852,2.852,0,0,0-.694-3.972,2.851,2.851,0,0,0-3.972.694A2.851,2.851,0,0,0-3057.534-1259.524Z" transform="translate(-145.886 -63.756)" fill="#4ee16d" stroke="rgba(0,0,0,0)" stroke-width="1"/>
    <path id="Path_1368" data-name="Path 1368" d="M-3033.524-1257.723a1.14,1.14,0,0,0,1.589-.278,1.141,1.141,0,0,0-.277-1.589,1.141,1.141,0,0,0-1.589.278A1.141,1.141,0,0,0-3033.524-1257.723Z" transform="translate(-160.734 -66.704)" fill="#4ee16d" stroke="rgba(0,0,0,0)" stroke-width="1"/>
    <path id="Path_1369" data-name="Path 1369" d="M-3004.406-1252.166a1.551,1.551,0,0,0-.378-2.161,1.551,1.551,0,0,0-2.161.378,1.551,1.551,0,0,0,.377,2.161A1.551,1.551,0,0,0-3004.406-1252.166Z" transform="translate(-176.811 -69.819)" fill="#4ee16d" stroke="rgba(0,0,0,0)" stroke-width="1"/>
    <path id="Path_1370" data-name="Path 1370" d="M-3023.9-1248.309a2.715,2.715,0,0,0-3.782.661,2.715,2.715,0,0,0,.661,3.783,2.715,2.715,0,0,0,3.783-.661A2.715,2.715,0,0,0-3023.9-1248.309Z" transform="translate(-164.238 -73.304)" fill="#4ee16d" stroke="rgba(0,0,0,0)" stroke-width="1"/>
    <path id="Path_1371" data-name="Path 1371" d="M-3070.95-1220.281a1.616,1.616,0,0,0,.393,2.251,1.615,1.615,0,0,0,2.251-.393,1.616,1.616,0,0,0-.393-2.251A1.616,1.616,0,0,0-3070.95-1220.281Z" transform="translate(-138.384 -90.012)" fill="#4ee16d" stroke="rgba(0,0,0,0)" stroke-width="1"/>
    <path id="Path_1372" data-name="Path 1372" d="M-3021.112-1213.062a2.225,2.225,0,0,0-.542-3.1,2.226,2.226,0,0,0-3.1.542,2.226,2.226,0,0,0,.542,3.1,2.211,2.211,0,0,0,1.907.3,2.228,2.228,0,0,0-.495.5,2.243,2.243,0,0,0,.546,3.125,2.243,2.243,0,0,0,3.125-.546,2.243,2.243,0,0,0-.546-3.125,2.231,2.231,0,0,0-1.926-.305A2.192,2.192,0,0,0-3021.112-1213.062Z" transform="translate(-166.047 -92.654)" fill="#4ee16d" stroke="rgba(0,0,0,0)" stroke-width="1"/>
    <path id="Path_1373" data-name="Path 1373" d="M-3119.9-1011.013a1.354,1.354,0,0,0-1.887.33,1.354,1.354,0,0,0,.33,1.887,1.355,1.355,0,0,0,1.887-.33A1.355,1.355,0,0,0-3119.9-1011.013Z" transform="translate(-107.895 -215.892)" fill="#4ee16d" stroke="rgba(0,0,0,0)" stroke-width="1"/>
    <path id="Path_1374" data-name="Path 1374" d="M-3135.854-983.214a1.512,1.512,0,0,0-2.107.368,1.512,1.512,0,0,0,.368,2.107,1.512,1.512,0,0,0,2.107-.368A1.512,1.512,0,0,0-3135.854-983.214Z" transform="translate(-98.171 -232.562)" fill="#4ee16d" stroke="rgba(0,0,0,0)" stroke-width="1"/>
    <path id="Path_1375" data-name="Path 1375" d="M-3132.193-955.27a2.135,2.135,0,0,0,.52,2.974,2.135,2.135,0,0,0,2.974-.52,2.129,2.129,0,0,0-.093-2.562.644.644,0,0,0-.257-.67.644.644,0,0,0-.724-.011A2.128,2.128,0,0,0-3132.193-955.27Z" transform="translate(-101.566 -248.961)" fill="#4ee16d" stroke="rgba(0,0,0,0)" stroke-width="1"/>
    <path id="Path_1376" data-name="Path 1376" d="M-3156.877-946.712a1.937,1.937,0,0,0-2.7.472,1.937,1.937,0,0,0,.472,2.7,1.937,1.937,0,0,0,2.7-.472A1.937,1.937,0,0,0-3156.877-946.712Z" transform="translate(-85.15 -254.427)" fill="#4ee16d" stroke="rgba(0,0,0,0)" stroke-width="1"/>
    <path id="Path_1377" data-name="Path 1377" d="M-3140.368-943.221a1.392,1.392,0,0,0-1.939.339,1.393,1.393,0,0,0,.339,1.939,1.393,1.393,0,0,0,1.939-.339A1.392,1.392,0,0,0-3140.368-943.221Z" transform="translate(-95.575 -256.581)" fill="#4ee16d" stroke="rgba(0,0,0,0)" stroke-width="1"/>
    <path id="Path_1378" data-name="Path 1378" d="M-3164.226-926.8a2.242,2.242,0,0,0,.546,3.123,2.242,2.242,0,0,0,3.123-.546,2.242,2.242,0,0,0-.546-3.123A2.241,2.241,0,0,0-3164.226-926.8Z" transform="translate(-82.326 -266.018)" fill="#4ee16d" stroke="rgba(0,0,0,0)" stroke-width="1"/>
    <path id="Path_1379" data-name="Path 1379" d="M-3145.023-923.511a.9.9,0,0,0,.218,1.25.9.9,0,0,0,1.25-.218.9.9,0,0,0-.218-1.25A.9.9,0,0,0-3145.023-923.511Z" transform="translate(-93.999 -268.336)" fill="#4ee16d" stroke="rgba(0,0,0,0)" stroke-width="1"/>
    <path id="Path_1380" data-name="Path 1380" d="M-3123.907-919.293a1.219,1.219,0,0,0,.3,1.7,1.219,1.219,0,0,0,1.7-.3,1.219,1.219,0,0,0-.3-1.7A1.22,1.22,0,0,0-3123.907-919.293Z" transform="translate(-106.639 -270.785)" fill="#4ee16d" stroke="rgba(0,0,0,0)" stroke-width="1"/>
    <path id="Path_1381" data-name="Path 1381" d="M-3137.234-914.86a2.135,2.135,0,0,0-2.974.52,2.135,2.135,0,0,0,.52,2.974,2.136,2.136,0,0,0,2.975-.52A2.136,2.136,0,0,0-3137.234-914.86Z" transform="translate(-96.754 -273.525)" fill="#4ee16d" stroke="rgba(0,0,0,0)" stroke-width="1"/>
    <path id="Path_1382" data-name="Path 1382" d="M-3136.033-889.585a1.749,1.749,0,0,0-2.437.426,1.749,1.749,0,0,0,.142,2.185,2.3,2.3,0,0,0-.33.333,2.279,2.279,0,0,0,.347,3.2,2.27,2.27,0,0,0,2.688.111,1.756,1.756,0,0,0,1.577-.738,1.763,1.763,0,0,0-.429-2.457,1.75,1.75,0,0,0-.811-.3,2.319,2.319,0,0,0-.167-.165c-.059-.047-.124-.08-.186-.121.011-.014.024-.025.034-.039A1.749,1.749,0,0,0-3136.033-889.585Z" transform="translate(-97.615 -288.738)" fill="#4ee16d" stroke="rgba(0,0,0,0)" stroke-width="1"/>
    <path id="Path_1383" data-name="Path 1383" d="M-2853.3-478.326a2.618,2.618,0,0,0-.153,3.7,2.619,2.619,0,0,0,3.7.154,2.619,2.619,0,0,0,.154-3.7A2.619,2.619,0,0,0-2853.3-478.326Z" transform="translate(-268.701 -535.377)" fill="#4ee16d" stroke="rgba(0,0,0,0)" stroke-width="1"/>
    <path id="Path_1384" data-name="Path 1384" d="M-2910.439-477.014a4.625,4.625,0,0,0,.271-6.535,4.625,4.625,0,0,0-6.535-.271,4.625,4.625,0,0,0-.271,6.535A4.625,4.625,0,0,0-2910.439-477.014Z" transform="translate(-230.253 -531.761)" fill="#4ee16d" stroke="rgba(0,0,0,0)" stroke-width="1"/>
    <circle id="Ellipse_33" data-name="Ellipse 33" cx="4.53" cy="4.53" r="4.53" transform="translate(-3174.261 -1033.608) rotate(-62.156)" fill="#4ee16d" stroke="rgba(0,0,0,0)" stroke-width="1"/>
    <path id="Path_1385" data-name="Path 1385" d="M-3018.77-569.239a3.574,3.574,0,0,0,5.051.209,3.572,3.572,0,0,0,.918-3.9,7.211,7.211,0,0,0,3.483-1.768,7.259,7.259,0,0,0,.425-10.258,7.26,7.26,0,0,0-10.258-.425,7.26,7.26,0,0,0-.425,10.258,7.268,7.268,0,0,0,.973.876A3.573,3.573,0,0,0-3018.77-569.239Z" transform="translate(-168.247 -470.38)" fill="#4ee16d" stroke="rgba(0,0,0,0)" stroke-width="1"/>
    <path id="Path_1386" data-name="Path 1386" d="M-2881.533-585.529a3.575,3.575,0,0,0,.209-5.052,3.575,3.575,0,0,0-5.052-.209,3.575,3.575,0,0,0-.209,5.052A3.575,3.575,0,0,0-2881.533-585.529Z" transform="translate(-248.661 -467.718)" fill="#4ee16d" stroke="rgba(0,0,0,0)" stroke-width="1"/>
    <path id="Path_1387" data-name="Path 1387" d="M-2995.874-740.653a2.145,2.145,0,0,0-.532.775,3.324,3.324,0,0,0-1.926.862,3.343,3.343,0,0,0-.2,4.724,3.342,3.342,0,0,0,4.723.2,3.341,3.341,0,0,0,.926-3.449,2.158,2.158,0,0,0,.06-2.982A2.164,2.164,0,0,0-2995.874-740.653Z" transform="translate(-181.503 -377.984)" fill="#4ee16d" stroke="rgba(0,0,0,0)" stroke-width="1"/>
    <path id="Path_1388" data-name="Path 1388" d="M-2983.417-711.655a1.2,1.2,0,0,0,1.7.07,1.2,1.2,0,0,0,.071-1.7,1.2,1.2,0,0,0-1.7-.07A1.2,1.2,0,0,0-2983.417-711.655Z" transform="translate(-190.913 -394.521)" fill="#4ee16d" stroke="rgba(0,0,0,0)" stroke-width="1"/>
    <path id="Path_1389" data-name="Path 1389" d="M-2985.792-749.019a1.239,1.239,0,0,0-.073,1.751,1.24,1.24,0,0,0,1.751.073,1.239,1.239,0,0,0,.072-1.752A1.239,1.239,0,0,0-2985.792-749.019Z" transform="translate(-189.438 -373.109)" fill="#4ee16d" stroke="rgba(0,0,0,0)" stroke-width="1"/>
    <path id="Path_1390" data-name="Path 1390" d="M-2893.008-778.872a1.951,1.951,0,0,0,.114-2.756,1.95,1.95,0,0,0-2.756-.114,1.951,1.951,0,0,0-.115,2.757A1.951,1.951,0,0,0-2893.008-778.872Z" transform="translate(-243.408 -353.354)" fill="#4ee16d" stroke="rgba(0,0,0,0)" stroke-width="1"/>
    <path id="Path_1391" data-name="Path 1391" d="M-3015.274-806.052a2.785,2.785,0,0,0-.163,3.935,2.784,2.784,0,0,0,3.935.163,2.785,2.785,0,0,0,.163-3.935A2.785,2.785,0,0,0-3015.274-806.052Z" transform="translate(-171.441 -338.629)" fill="#4ee16d" stroke="rgba(0,0,0,0)" stroke-width="1"/>
    <path id="Path_1392" data-name="Path 1392" d="M-2863.132-835.4a3.379,3.379,0,0,0,.2-4.774,3.379,3.379,0,0,0-4.775-.2,3.379,3.379,0,0,0-.2,4.775A3.379,3.379,0,0,0-2863.132-835.4Z" transform="translate(-259.904 -317.932)" fill="#4ee16d" stroke="rgba(0,0,0,0)" stroke-width="1"/>
    <path id="Path_1393" data-name="Path 1393" d="M-2837.81-868.793a2.279,2.279,0,0,0,.134-3.219,2.279,2.279,0,0,0-3.219-.134,2.279,2.279,0,0,0-.134,3.22A2.278,2.278,0,0,0-2837.81-868.793Z" transform="translate(-276.212 -299.036)" fill="#4ee16d" stroke="rgba(0,0,0,0)" stroke-width="1"/>
    <path id="Path_1394" data-name="Path 1394" d="M-2999.874-833.493a.719.719,0,0,0,.042-1.016.719.719,0,0,0-1.016-.042.719.719,0,0,0-.042,1.016A.719.719,0,0,0-2999.874-833.493Z" transform="translate(-180.501 -321.849)" fill="#4ee16d" stroke="rgba(0,0,0,0)" stroke-width="1"/>
    <path id="Path_1395" data-name="Path 1395" d="M-3004.513-817.143a2.042,2.042,0,0,0,2.886.12,2.042,2.042,0,0,0,.119-2.886,2.042,2.042,0,0,0-2.886-.12A2.042,2.042,0,0,0-3004.513-817.143Z" transform="translate(-178.116 -330.357)" fill="#4ee16d" stroke="rgba(0,0,0,0)" stroke-width="1"/>
    <path id="Path_1396" data-name="Path 1396" d="M-2993.59-467.967a12.012,12.012,0,0,0-4.978-3.249,5.208,5.208,0,0,0,1.907-1.117,5.233,5.233,0,0,0,.307-7.395,5.233,5.233,0,0,0-7.395-.307,5.234,5.234,0,0,0-.307,7.4,5.232,5.232,0,0,0,.932.794,12.019,12.019,0,0,0-7.521,3.172,12.068,12.068,0,0,0-.707,17.053,12.011,12.011,0,0,0,5.1,3.288c-.027.036-.056.068-.082.105a4.52,4.52,0,0,0,1.1,6.3,4.521,4.521,0,0,0,6.3-1.1,4.518,4.518,0,0,0-.019-5.217,12.017,12.017,0,0,0,4.655-2.667A12.069,12.069,0,0,0-2993.59-467.967Z" transform="translate(-172.422 -533.937)" fill="#4ee16d" stroke="rgba(0,0,0,0)" stroke-width="1"/>
    <path id="Path_1397" data-name="Path 1397" d="M-2907.83-341.864c-.066-.056-.135-.111-.207-.162a2.846,2.846,0,0,0-3.965.693,2.846,2.846,0,0,0,.687,3.96,12.072,12.072,0,0,0,2.135,13.111,12.068,12.068,0,0,0,17.053.706,12.069,12.069,0,0,0,.707-17.053A12.067,12.067,0,0,0-2907.83-341.864Z" transform="translate(-233.661 -616.122)" fill="#4ee16d" stroke="rgba(0,0,0,0)" stroke-width="1"/>
    <path id="Path_1398" data-name="Path 1398" d="M-3098.638-293.9a26.417,26.417,0,0,0-4.371,5.209,4.447,4.447,0,0,0-3.1,2.407,4.45,4.45,0,0,0,.105,4.106,26.371,26.371,0,0,0,5.824,25.563,26.387,26.387,0,0,0,37.286,1.545,26.387,26.387,0,0,0,1.544-37.286A26.388,26.388,0,0,0-3098.638-293.9Z" transform="translate(-116.831 -642.312)" fill="#4ee16d" stroke="rgba(0,0,0,0)" stroke-width="1"/>
    <path id="Path_1399" data-name="Path 1399" d="M-3149.269-607.363a2.058,2.058,0,0,0,.129-.724,11.8,11.8,0,0,0-3-9.692,11.816,11.816,0,0,0-11.06-3.579,4.5,4.5,0,0,0,1.971-1.992,4.521,4.521,0,0,0-2.025-6.064,4.521,4.521,0,0,0-6.064,2.025,4.521,4.521,0,0,0,2.025,6.064,4.488,4.488,0,0,0,2.367.458,11.781,11.781,0,0,0-3.919,2.4,11.822,11.822,0,0,0-.692,16.705,11.822,11.822,0,0,0,16.7.692A11.764,11.764,0,0,0-3149.269-607.363Z" transform="translate(-77.506 -444.813)" fill="#4ee16d" stroke="rgba(0,0,0,0)" stroke-width="1"/>
    <path id="Path_1400" data-name="Path 1400" d="M-3256.848-629.42c.01-.009.018-.02.028-.029a8.692,8.692,0,0,0,2.276,6.511,8.724,8.724,0,0,0,12.327.511,8.716,8.716,0,0,0,2.421-8.985,5.64,5.64,0,0,0,.153-7.8,5.646,5.646,0,0,0-7.977-.331,5.612,5.612,0,0,0-1.4,2.024,8.677,8.677,0,0,0-4.872,2.132,9.3,9.3,0,0,0-2.411-7.218,9.328,9.328,0,0,0-13.18-.546,9.328,9.328,0,0,0-.546,13.181A9.328,9.328,0,0,0-3256.848-629.42Z" transform="translate(-17.582 -435.377)" fill="#4ee16d" stroke="rgba(0,0,0,0)" stroke-width="1"/>
    <path id="Path_1401" data-name="Path 1401" d="M-2939.523-724.219a3.27,3.27,0,0,0-2.811.808,3.278,3.278,0,0,0-.192,4.631,3.277,3.277,0,0,0,4.631.191,3.257,3.257,0,0,0,.883-1.355,9.322,9.322,0,0,0,12.821.189,9.331,9.331,0,0,0,.546-13.184,9.331,9.331,0,0,0-13.184-.547A9.325,9.325,0,0,0-2939.523-724.219Z" transform="translate(-215.129 -381.151)" fill="#4ee16d" stroke="rgba(0,0,0,0)" stroke-width="1"/>
    <path id="Path_1402" data-name="Path 1402" d="M-3169.876-329.972a6.811,6.811,0,0,0-5.649-.036,11.73,11.73,0,0,0-2.908-10.1,11.75,11.75,0,0,0-16.6-.688,11.75,11.75,0,0,0-.687,16.6,11.749,11.749,0,0,0,16.177,1.06,6.824,6.824,0,0,0,3.926,5.563,6.833,6.833,0,0,0,9.073-3.329A6.833,6.833,0,0,0-3169.876-329.972Z" transform="translate(-61.8 -616.483)" fill="#4ee16d" stroke="rgba(0,0,0,0)" stroke-width="1"/>
    <circle id="Ellipse_34" data-name="Ellipse 34" cx="11.75" cy="11.75" r="11.75" transform="translate(-3139.646 -1023.123) rotate(-80.906)" fill="#4ee16d" stroke="rgba(0,0,0,0)" stroke-width="1"/>
    <circle id="Ellipse_35" data-name="Ellipse 35" cx="13.657" cy="13.657" r="13.657" transform="matrix(0.679, -0.734, 0.734, 0.679, -3129.184, -995.868)" fill="#4ee16d" stroke="rgba(0,0,0,0)" stroke-width="1"/>
    <path id="Path_1403" data-name="Path 1403" d="M-2959.871-648.427a18.668,18.668,0,0,0-9.094-24.785,18.67,18.67,0,0,0-20.307,3.036,3.321,3.321,0,0,0-3.524,1.312,3.322,3.322,0,0,0-.255,3.395c-.247.438-.484.887-.7,1.352a18.586,18.586,0,0,0-1.721,8.377,4.114,4.114,0,0,0-2.6-.148,4.069,4.069,0,0,0,.813-.857,4.084,4.084,0,0,0-.994-5.688,4.083,4.083,0,0,0-5.688.994,4.083,4.083,0,0,0,.994,5.688,4.074,4.074,0,0,0,3.417.6,4.125,4.125,0,0,0-.824.869,4.116,4.116,0,0,0,1,5.733,4.114,4.114,0,0,0,5.325-.514,18.6,18.6,0,0,0,9.374,9.733A18.668,18.668,0,0,0-2959.871-648.427Z" transform="translate(-178.337 -417.77)" fill="#4ee16d" stroke="rgba(0,0,0,0)" stroke-width="1"/>
    <path id="Path_1404" data-name="Path 1404" d="M-2854.071-631.152a9.328,9.328,0,0,0-4.544-12.385A9.328,9.328,0,0,0-2871-638.993a9.3,9.3,0,0,0-.862,3.713,3.69,3.69,0,0,0-2.78,1.563,3.7,3.7,0,0,0,.9,5.153,3.7,3.7,0,0,0,4.41-.118,9.3,9.3,0,0,0,2.875,2.074A9.329,9.329,0,0,0-2854.071-631.152Z" transform="translate(-255.993 -436.103)" fill="#4ee16d" stroke="rgba(0,0,0,0)" stroke-width="1"/>
    <path id="Path_1405" data-name="Path 1405" d="M-3249.179-560.245a7.5,7.5,0,0,0,.439-10.6,7.5,7.5,0,0,0-10.6-.439,7.5,7.5,0,0,0-1.6,8.923,3.571,3.571,0,0,0-3.528,1.253,3.574,3.574,0,0,0,.544,5.026,3.574,3.574,0,0,0,5.026-.544,3.561,3.561,0,0,0,.753-2.726A7.5,7.5,0,0,0-3249.179-560.245Z" transform="translate(-21.928 -478.805)" fill="#4ee16d" stroke="rgba(0,0,0,0)" stroke-width="1"/>
    <path id="Path_1406" data-name="Path 1406" d="M-3072.319-541.415a8.552,8.552,0,0,0-12.084-.5,8.552,8.552,0,0,0-.5,12.084,8.552,8.552,0,0,0,12.084.5A8.552,8.552,0,0,0-3072.319-541.415Z" transform="translate(-128.828 -496.265)" fill="#4ee16d" stroke="rgba(0,0,0,0)" stroke-width="1"/>
    <path id="Path_1407" data-name="Path 1407" d="M-3186.993-561.241a3.143,3.143,0,0,0-4.441-.184,3.143,3.143,0,0,0-.184,4.441,3.143,3.143,0,0,0,4.441.184A3.143,3.143,0,0,0-3186.993-561.241Z" transform="translate(-65.63 -485.412)" fill="#4ee16d" stroke="rgba(0,0,0,0)" stroke-width="1"/>
    <path id="Path_1408" data-name="Path 1408" d="M-3198.006-649.922a3.235,3.235,0,0,0,4.571.189,3.236,3.236,0,0,0,.189-4.571,3.235,3.235,0,0,0-4.571-.189A3.235,3.235,0,0,0-3198.006-649.922Z" transform="translate(-61.78 -429.533)" fill="#4ee16d" stroke="rgba(0,0,0,0)" stroke-width="1"/>
    <path id="Path_1409" data-name="Path 1409" d="M-2962.577-739.889a5.091,5.091,0,0,0-.3,7.194,5.091,5.091,0,0,0,7.194.3,5.091,5.091,0,0,0,.3-7.194A5.091,5.091,0,0,0-2962.577-739.889Z" transform="translate(-202.627 -377.978)" fill="#4ee16d" stroke="rgba(0,0,0,0)" stroke-width="1"/>
    <path id="Path_1410" data-name="Path 1410" d="M-2829.209-790.363a13.526,13.526,0,0,0,.792-19.113,13.531,13.531,0,0,0-16.99-2.392,5.185,5.185,0,0,0-5.668.9,5.18,5.18,0,0,0-.38,7.232,13.512,13.512,0,0,0,3.132,12.582A13.526,13.526,0,0,0-2829.209-790.363Z" transform="translate(-269.541 -334.395)" fill="#4ee16d" stroke="rgba(0,0,0,0)" stroke-width="1"/>
    <path id="Path_1411" data-name="Path 1411" d="M-2889.658-892.9a8.818,8.818,0,0,0-.516,12.461,8.819,8.819,0,0,0,12.461.516,8.819,8.819,0,0,0,.516-12.461A8.818,8.818,0,0,0-2889.658-892.9Z" transform="translate(-245.674 -285.54)" fill="#4ee16d" stroke="rgba(0,0,0,0)" stroke-width="1"/>
    <path id="Path_1412" data-name="Path 1412" d="M-2811.633-967.063a5.946,5.946,0,0,0,.348-8.4,5.946,5.946,0,0,0-8.4-.348,5.946,5.946,0,0,0-.348,8.4A5.946,5.946,0,0,0-2811.633-967.063Z" transform="translate(-288.232 -236.226)" fill="#4ee16d" stroke="rgba(0,0,0,0)" stroke-width="1"/>
    <path id="Path_1413" data-name="Path 1413" d="M-3234.567-874.943a1.877,1.877,0,0,0,.11-2.652,1.876,1.876,0,0,0-2.652-.11,1.877,1.877,0,0,0-.11,2.652A1.876,1.876,0,0,0-3234.567-874.943Z" transform="translate(-38.458 -295.763)" fill="#4ee16d" stroke="rgba(0,0,0,0)" stroke-width="1"/>
    <path id="Path_1414" data-name="Path 1414" d="M-3245.212-841.124a1.951,1.951,0,0,0-.608-.473,1.959,1.959,0,0,0-2.627.877,1.954,1.954,0,0,0,.472,2.348,5.329,5.329,0,0,0,.96,5.744,5.33,5.33,0,0,0,7.531.312,5.33,5.33,0,0,0,.312-7.531A5.328,5.328,0,0,0-3245.212-841.124Z" transform="translate(-31.892 -317.61)" fill="#4ee16d" stroke="rgba(0,0,0,0)" stroke-width="1"/>
    <path id="Path_1415" data-name="Path 1415" d="M-3085.761-437.167a4.5,4.5,0,0,0-.264,6.362,4.5,4.5,0,0,0,6.362.264,4.5,4.5,0,0,0,.264-6.362A4.5,4.5,0,0,0-3085.761-437.167Z" transform="translate(-128.797 -559.784)" fill="#4ee16d" stroke="rgba(0,0,0,0)" stroke-width="1"/>
    <path id="Path_1416" data-name="Path 1416" d="M-3008.84-473.865a4.625,4.625,0,0,0,.271-6.535,4.625,4.625,0,0,0-6.535-.271,4.625,4.625,0,0,0-.271,6.535A4.625,4.625,0,0,0-3008.84-473.865Z" transform="translate(-171.187 -533.651)" fill="#4ee16d" stroke="rgba(0,0,0,0)" stroke-width="1"/>
    <path id="Path_1417" data-name="Path 1417" d="M-3109.447-553.4c.047-.043.088-.09.132-.134a4.944,4.944,0,0,0,1.549.12,4.129,4.129,0,0,0,.553.332,4.064,4.064,0,0,0,5.433-1.871,4.061,4.061,0,0,0-1.806-5.4,4.955,4.955,0,0,0-2.346-2.483,4.982,4.982,0,0,0-6.683,2.231,4.98,4.98,0,0,0-.411,1.192,3.555,3.555,0,0,0-1.262.75,3.574,3.574,0,0,0-.209,5.051A3.575,3.575,0,0,0-3109.447-553.4Z" transform="translate(-111.853 -484.748)" fill="#4ee16d" stroke="rgba(0,0,0,0)" stroke-width="1"/>
    <path id="Path_1418" data-name="Path 1418" d="M-2979.934-582.38a3.575,3.575,0,0,0,.209-5.052,3.575,3.575,0,0,0-5.052-.209,3.575,3.575,0,0,0-.209,5.052A3.575,3.575,0,0,0-2979.934-582.38Z" transform="translate(-189.595 -469.608)" fill="#4ee16d" stroke="rgba(0,0,0,0)" stroke-width="1"/>
    <path id="Path_1419" data-name="Path 1419" d="M-3101.863-709.756a2.874,2.874,0,0,0,.168-4.061,2.874,2.874,0,0,0-4.061-.168,2.874,2.874,0,0,0-.168,4.061A2.874,2.874,0,0,0-3101.863-709.756Z" transform="translate(-117.111 -393.879)" fill="#4ee16d" stroke="rgba(0,0,0,0)" stroke-width="1"/>
    <path id="Path_1420" data-name="Path 1420" d="M-3036.3-697.91a3.277,3.277,0,0,0,.192-4.631,3.277,3.277,0,0,0-4.63-.192,3.277,3.277,0,0,0-.192,4.631A3.276,3.276,0,0,0-3036.3-697.91Z" transform="translate(-156.063 -400.57)" fill="#4ee16d" stroke="rgba(0,0,0,0)" stroke-width="1"/>
    <path id="Path_1421" data-name="Path 1421" d="M-3094.274-737.5a2.147,2.147,0,0,0-.532.775,3.325,3.325,0,0,0-1.926.863,3.343,3.343,0,0,0-.2,4.724,3.343,3.343,0,0,0,4.724.2,3.34,3.34,0,0,0,.926-3.448,2.158,2.158,0,0,0,.06-2.982A2.163,2.163,0,0,0-3094.274-737.5Z" transform="translate(-122.437 -379.874)" fill="#4ee16d" stroke="rgba(0,0,0,0)" stroke-width="1"/>
    <path id="Path_1422" data-name="Path 1422" d="M-3080.116-708.436a1.2,1.2,0,0,0,.071-1.7,1.2,1.2,0,0,0-1.7-.07,1.2,1.2,0,0,0-.071,1.7A1.2,1.2,0,0,0-3080.116-708.436Z" transform="translate(-131.846 -396.411)" fill="#4ee16d" stroke="rgba(0,0,0,0)" stroke-width="1"/>
    <path id="Path_1423" data-name="Path 1423" d="M-3084.265-744.119a1.239,1.239,0,0,0,1.751.072,1.24,1.24,0,0,0,.073-1.751,1.24,1.24,0,0,0-1.752-.073A1.24,1.24,0,0,0-3084.265-744.119Z" transform="translate(-130.371 -374.999)" fill="#4ee16d" stroke="rgba(0,0,0,0)" stroke-width="1"/>
    <path id="Path_1424" data-name="Path 1424" d="M-2949.782-798.239a5.183,5.183,0,0,0,7.324.3,5.183,5.183,0,0,0,.3-7.324,5.183,5.183,0,0,0-7.324-.3A5.183,5.183,0,0,0-2949.782-798.239Z" transform="translate(-210.471 -338.542)" fill="#4ee16d" stroke="rgba(0,0,0,0)" stroke-width="1"/>
    <path id="Path_1425" data-name="Path 1425" d="M-3109.74-802.74a2.785,2.785,0,0,0-3.935-.163,2.784,2.784,0,0,0-.163,3.935,2.785,2.785,0,0,0,3.935.163A2.785,2.785,0,0,0-3109.74-802.74Z" transform="translate(-112.375 -340.519)" fill="#4ee16d" stroke="rgba(0,0,0,0)" stroke-width="1"/>
    <path id="Path_1426" data-name="Path 1426" d="M-2961.533-832.253a3.379,3.379,0,0,0,.2-4.775,3.38,3.38,0,0,0-4.775-.2,3.379,3.379,0,0,0-.2,4.775A3.379,3.379,0,0,0-2961.533-832.253Z" transform="translate(-200.837 -319.822)" fill="#4ee16d" stroke="rgba(0,0,0,0)" stroke-width="1"/>
    <path id="Path_1427" data-name="Path 1427" d="M-2936.211-865.644a2.279,2.279,0,0,0,.133-3.219A2.278,2.278,0,0,0-2939.3-869a2.279,2.279,0,0,0-.134,3.219A2.279,2.279,0,0,0-2936.211-865.644Z" transform="translate(-217.145 -300.926)" fill="#4ee16d" stroke="rgba(0,0,0,0)" stroke-width="1"/>
    <path id="Path_1428" data-name="Path 1428" d="M-3098.275-830.344a.719.719,0,0,0,.042-1.016.719.719,0,0,0-1.016-.042.719.719,0,0,0-.042,1.016A.719.719,0,0,0-3098.275-830.344Z" transform="translate(-121.434 -323.74)" fill="#4ee16d" stroke="rgba(0,0,0,0)" stroke-width="1"/>
    <path id="Path_1429" data-name="Path 1429" d="M-3102.914-813.994a2.043,2.043,0,0,0,2.886.12,2.042,2.042,0,0,0,.12-2.886,2.043,2.043,0,0,0-2.886-.12A2.042,2.042,0,0,0-3102.914-813.994Z" transform="translate(-119.049 -332.247)" fill="#4ee16d" stroke="rgba(0,0,0,0)" stroke-width="1"/>
  </g>
</svg>
