<svg xmlns="http://www.w3.org/2000/svg" width="102.682" height="105.483" viewBox="0 0 102.682 105.483">
  <g id="clock" transform="translate(0)">
    <path id="Path_2255" data-name="Path 2255" d="M-893.656,1767.438a1.327,1.327,0,0,0,.664,1.987c.206,2.487-.858,3.705-.883,5.963h-1.1v-2.651c-.722.163-.982.785-1.547,1.1-1.454-.8-1.728-4.229-.883-5.962h1.324c.02.35-.107.843.221.884C-894.966,1768.482-895.14,1767.128-893.656,1767.438Z" transform="translate(946.638 -1745.422)" fill="#4ee16d" fill-rule="evenodd"/>
    <path id="Path_2256" data-name="Path 2256" d="M-903.263,1773.843c-.993,1.638-2.64-.19-2.869-1.325C-905.11,1770.7-903.571,1772.879-903.263,1773.843Z" transform="translate(942.113 -1742.994)" fill="#4ee16d" fill-rule="evenodd"/>
    <path id="Path_2257" data-name="Path 2257" d="M-911.33,1777.264c.189-.042.209.087.222.221a9.885,9.885,0,0,1,2.871,1.545c0,.813-.622,1-.883,1.545-1.417-.057-1.341-1.378-2.651-.441A3.306,3.306,0,0,1-911.33,1777.264Z" transform="translate(938.92 -1740.011)" fill="#4ee16d" fill-rule="evenodd"/>
    <path id="Path_2258" data-name="Path 2258" d="M-874.424,1785.839c-.67,1.423-.564,2.248-1.324,3.534a12.54,12.54,0,0,0-4.2,0c-.026-.564-.042-1.137-.661-1.1,1.072-.3.392-1.776.661-2.43C-878.316,1785.774-875.724,1784.822-874.424,1785.839Z" transform="translate(956.114 -1735.56)" fill="#4ee16d" fill-rule="evenodd"/>
    <path id="Path_2259" data-name="Path 2259" d="M-881.309,1795.812c1.047-.162,1.519.249,2.43.22-.173.983.294,1.325.221,2.21A2.013,2.013,0,0,1-881.309,1795.812Z" transform="translate(955.712 -1729.855)" fill="#4ee16d" fill-rule="evenodd"/>
    <path id="Path_2260" data-name="Path 2260" d="M-884.166,1800.307a9.8,9.8,0,0,1,0,2.871c-1.113.3-1.166-.454-1.988-.441a13.323,13.323,0,0,1-.441-2.43A3.2,3.2,0,0,1-884.166,1800.307Z" transform="translate(952.828 -1727.503)" fill="#4ee16d" fill-rule="evenodd"/>
    <path id="Path_2261" data-name="Path 2261" d="M-894.215,1802.236c-.046.713.392.934.223,1.767.844.181.26-1.064,1.1-.884,2.292.349,2.231,3.755,1.767,6.183-.852.461-1.375-.268-1.767-.883a2.226,2.226,0,0,0-1.327,1.1c-1.078.124-.523-1.386-.66-2.207-.054-.568-.381.3-.884,0C-895.878,1805.778-896.934,1801.642-894.215,1802.236Z" transform="translate(947.638 -1726.342)" fill="#4ee16d" fill-rule="evenodd"/>
    <path id="Path_2262" data-name="Path 2262" d="M-866.929,1782.68c-.441-.076-.689.043-.661.441-.838-.458-.107-1.629-.441-2.21-4.08-5.709-8.67-10.909-12.807-16.561-1.493.127-3.715-.477-3.975.883-.732.069-1.358.034-1.544-.441-2.094.191-3.721.844-5.963.884-.669,1.025-2.478.907-3.092,1.988-5.268.91-7.981,4.381-11.7,6.843-3.777,5.277-8.263,9.845-10.6,16.561,2.08,3.514,4.847,6.341,7.066,9.717a4.763,4.763,0,0,1,1.987.22,7.416,7.416,0,0,0,3.534,6.626c3.218,6.13,7.879,10.816,11.484,16.561h1.545c.125.715-.068,1.11-.443,1.324,2.314,2.84,4.409,5.9,6.844,8.613-1.406.325-2.052-1.6-3.089-2.872-1.316-1.6-2.759-3.156-3.755-4.636-.83.178-1.561.7-2.429.222.073-.887.714-1.2,1.1-1.767-4.95-6.6-9.69-13.421-14.794-19.875a2.98,2.98,0,0,1-2.65.886c2.258,3.778,5.259,6.812,7.509,10.6,2.772,2.162,4.107,5.756,7.064,7.728-.183.624.313.573.223,1.1,3.967,2.879,5.847,7.842,10.158,10.379a1.878,1.878,0,0,0,.218,1.324c5.454.754,11.318-1.145,16.12-2.428,0-.522-.381-.652-.22-1.325.986-.118,1.544-.664,2.869-.443,2.412-1.341,4.207-3.3,6.4-4.856.824-1.49,2.521-2.429,3.532-3.755.314-.41.15-1.112.441-1.545.946-1.4,2.727-2.281,3.535-3.533.172-.266,0-1.036.218-1.324a25.694,25.694,0,0,0,3.094-5.079c.65-1.815.2-4,1.544-5.3.5-3.328.985-6.671,1.768-9.717.121-.49-.423-.314-.441-.663a8.824,8.824,0,0,0-1.987-5.521c-1.336-1.92-2.693-3.842-4.2-5.961-.536-.753-1.483-1.251-1.988-1.988-.715-1.042-1.026-2.3-1.767-3.311a123.031,123.031,0,0,0-8.391-9.717c.29-1.47,2.106-1.744,3.314-1.1,1.4,3.459,4.6,5.118,5.962,8.613a13.023,13.023,0,0,1-3.975-3.755c-.647.189.131.712,0,1.1,4.676,4.893,8.061,11.076,12.146,16.563.952-.152.2-2.005.441-2.872-2.476-5.475-6.16-9.738-9.5-14.351.284-.406.99-.971,1.546-.443-1.465-1.034-2.7-2.307-4.636-2.869.5-1.747-1.471-1.033-1.767-1.988,1.167-.866,2.4.288,3.091.884.4.345,1.352.361,1.767.663s.37,1.017.884,1.324c.6.361,1.474.2,1.765.443.321.27.333,1.084.663,1.324.725.525,1.889.429,2.43,1.1-.318,1.2.692,1.072.663,1.987,2.521.791,2.811,3.812,4.636,5.3,1,4.007,1.178,8.829,2.428,12.584-.242,2.282.321,5.341,0,7.948-.017.133-.824,2.3-1.1,3.534a59.544,59.544,0,0,1-1.326,6.4c-.432,1.267-1.555,2.458-1.985,3.754-.291.87-.144,2.016-.444,2.649-.121.257-.925.621-1.1.883-.876,1.29-1.146,2.262-1.988,3.755-.206.365-1.054.7-1.324,1.1a23.451,23.451,0,0,1-4.638,4.858,36.2,36.2,0,0,1-9.5,6.185c-2.752.118-4.619,1.123-7.509,1.1-3.276,2.648-9.861.8-14.793,1.545.164-1.489-2.32-.33-2.43-1.545a14.888,14.888,0,0,1-8.17-3.089c-7.1-.856-8.764-7.135-13.69-10.158.1-1.277-.965-1.392-1.106-2.43-.694.246-.5.02-1.322,0-2.371-3.3-3.953-7.383-5.522-11.482.444-2.194-.734-7.747-.22-9.936a31.1,31.1,0,0,1,.661-9.5c.214-.9-.15-1.858.221-2.651.062-.13.657-.42.663-.441.449-1.449.327-2.731.883-3.975.607-1.347,2.341-2.591,3.092-3.974.194-.358.03-1.041.221-1.324.153-.232,1.027-1.206,1.322-1.547a40.528,40.528,0,0,1,9.938-8.39v-1.324c.311.017.624.036.664-.222.784-.345.13.748.661.663,7.936-5.138,23.538-9.029,32.458-2.431-2.324,1.027-5.144-2.309-8.17-1.326a14.512,14.512,0,0,0,4.859,6.626c1.9,3.619,4.61,6.429,6.844,9.717,1.274-.321.1-1.784.883-2.651h1.325c-2.711-3.766-5.991-6.964-8.611-10.821.375.082.415-.172.441-.441,1.228,1.423,2.762,2.536,3.532,4.416,3.537,3.383,5.979,7.86,9.277,11.482.034.627.4.92.44,1.546a115.677,115.677,0,0,1,8.17,11.926c.331.257.541.636,1.1.661-.135,1.459,1.208,1.443,1.1,2.869-2.529-2.767-4.3-6.3-6.846-9.052-1.168.011-1.525.83-2.428,1.1-.824.235-.35-.828-1.1-.663.65-.9.7-2.392,2.208-2.43a2.919,2.919,0,0,0-1.547-1.987c.184-.622-.31-.571-.22-1.1-1.847-1.245-2.22-3.964-4.195-5.079-.279,1.047-1.071,1.578-1.547,2.428,1.081,3.557,3.428,5.845,5.079,8.833C-863.011,1789.655-864.679,1785.288-866.929,1782.68Zm-41.733-9.717a4.131,4.131,0,0,1-.661,1.324c-3.828,1.691-5.683,5.358-8.391,8.17-.334,2.317-2.011,3.286-1.767,6.183-.348.02-.172.564-.663.441.122,1.631-.87,4.379.221,5.522.937-4.364,2.919-7.68,3.975-11.923,1.031-.147,1.3-1.055,1.767-1.768a3.816,3.816,0,0,0,2.869-3.312c-1.375,1.422-3.184,3.587-4.856,3.975,2.75-3.654,7.06-6.923,9.714-9.937A5.15,5.15,0,0,1-908.662,1772.963Zm59.4,10.378a22.7,22.7,0,0,0-5.3-7.289A46.994,46.994,0,0,0-849.261,1783.341Zm-15.9-4.416h.664c.039-.482-.181-.7-.664-.663Zm18.549,11.7c1.089-.38.032-3.681-.661-4.416C-847.076,1787.706-846.509,1788.829-846.613,1790.627Zm-67.789,11.262c.756-.423.847-1.508,2.428-1.1-1.993-2.716-3.558-5.863-6.4-7.728C-919.452,1797.733-916.38,1799.593-914.4,1801.889Zm69.115-5.74c.2.13.164-1.321-.441-1.105C-845.633,1795.46-846.029,1796.375-845.287,1796.149Zm-75.519,1.765h.443v-1.765C-921.234,1796.012-920.624,1797.36-920.807,1797.914Zm2.431,13.692a2.419,2.419,0,0,1,1.324,2.206,2.907,2.907,0,0,1,1.765,2.208,37.209,37.209,0,0,1,6.4,7.509,22.152,22.152,0,0,1,3.975,3.973c.226.413,1.155.025.221,0-.729-1.847-2.126-3.026-3.314-4.415a6.963,6.963,0,0,0-1.767-2.429c-.911-1.959-2.423-3.315-3.752-4.859-1.675-4.138-4.45-7.179-5.079-12.365.221,0,.262-.178.44-.222,2.317.63,2.467,3.422,4.2,4.639.111.771.895.872.884,1.765,1.036.143,1.346,1.008,1.545,1.989a8.376,8.376,0,0,1,2.869,3.753c1.284.336,1.4,1.841,2.43,2.428-.4-1.355.615-1.3,1.1-1.767-3.483-3.362-5.4-8.293-9.274-11.262h.441c-1.584-2.1-2.922-4.436-4.856-6.182C-920.254,1802.976-918.674,1807.121-918.376,1811.606Zm72.647-11.484c.643,4.587-1.291,8.306-2.428,10.6a52.64,52.64,0,0,0-1.988,5.519c-.392,1.078-1.477,2.1-1.988,3.314-1.013,2.4-1.158,4.466-2.651,5.74,3.438-2.746,4.7-7.667,7.069-11.482-.076-.883.393-1.227.219-2.206,1.694-2.978,2.589-8.492,2.21-12.146C-845.309,1799.808-845.26,1800.226-845.729,1800.122Zm-71.323,7.067c1.406,1.462,1.482,4.258,3.091,5.519,3.606,7.286,9.514,12.275,13.69,18.989v1.325c-.26.034-.626-.037-.663.221,3.289.763,5.325,2.772,9.054,3.092q-12.91-14.914-25.172-30.473Zm7.948,18.767c.547,2.251,3.521,2.075,3.534,4.858.482-.039.7.181.663.663a6.811,6.811,0,0,1,2.428.441c-4.6-5.189-9.21-10.369-13.689-15.678A17.8,17.8,0,0,0-909.1,1825.957Zm18.549,7.728a90.657,90.657,0,0,1-7.287-9.052c-.565-.025-.773-.4-1.1-.663-1.863-1.558-3.145-6.612-6.184-4.858,4.54,6.134,9.814,11.53,14.574,17.444,1.6-.347,1.722.78,2.869.883C-888.169,1835.568-889.427,1834.965-890.554,1833.685Zm32.459-6.183c-.155-.818.774-.55,1.1-.883.635-1.943,2.341-2.812,2.871-4.858C-855.671,1823.3-857.643,1825.6-858.095,1827.5Z" transform="translate(933.381 -1748.517)" fill="#4ee16d" fill-rule="evenodd"/>
    <path id="Path_2263" data-name="Path 2263" d="M-864.019,1858.686c-1.073-.353-.7-.353-1.767,0-3.616-2.476-8.165-.6-12.588,0,.192-.986,1.953-.4,2.428-1.1-4.968-.172-13.356-.181-17.664-2.429-.238.057-.149.44-.441.444-6.007-2.679-12.617-4.754-15.9-10.158a16.147,16.147,0,0,1-7.287-7.068c-5.658-5.159-7.343-14.3-10.819-21.638-.2-1.94.138-4.408-.883-5.52-.122-.491.421-.314.442-.663a38.1,38.1,0,0,1-.442-13.911c.16-1.01,1.021-1.854,1.324-2.871.551-1.838.592-3.7,1.106-5.52.246-.88,1.013-1.725,1.324-2.649.673-2,.924-3.93,1.988-5.521.316-.474,1.107-.715,1.545-1.326,1.192-1.658,2.341-4.238,3.754-5.96.339-.418,1.149-.643,1.545-1.1.322-.378.4-1.065.661-1.325.777-.765,1.864-1.038,2.43-1.769.246-.317.166-.811.443-1.1.345-.366.993-.321,1.324-.663.409-.424.443-1.121.884-1.547.381-.367,1.093-.68,1.545-1.1,1.885-1.761,4.408-3.373,6.623-5.076a2.565,2.565,0,0,0,1.988-.884,14.526,14.526,0,0,0,4.858-1.546c1.008.124,1.375-.392,2.428-.221.536-.2.585-.887.664-1.545,3.726-.291,9.81-1.953,13.91-1.106,4.356-1.019,8.659-.42,13.47-.44,2.718,1.184,5.234,2.566,8.393,3.312-.167.68.6.424.44,1.1,8.919,3.665,14.615,10.557,20.533,17.222-.113,1.072.619,1.3.886,1.987a1.077,1.077,0,0,0,1.106.443c.506,1.552,1.583,2.536,1.765,4.416.655.228.559,1.206,1.326,1.325.093,4.838,2.57,7.29,2.649,12.143,1.629,3.354.111,8.541,1.324,12.366-.4.644.107,1.578,0,2.651-.2,2.066-1.171,4.647-.883,7.064-.865,1.124-.638,3.337-.882,5.079-.832-.169-.153,1.172-1.106.883-.658,3.1-1.954,5.554-2.871,8.391-1.657,3.791-5.492,5.4-6.4,9.936a14.565,14.565,0,0,0-3.091,4.2c-3.04,2.1-5.994,4.361-9.5,6.844-2.7,1.919-3.976,4.142-8.611,3.755C-861.194,1857.391-863.2,1857.445-864.019,1858.686Zm9.937-98.26c-2.9-1.959-7.1-2.618-9.937-4.638-2.371.232-3.942-1.5-5.962-.883C-864.457,1756.374-858.854,1758.941-854.082,1760.426Zm-39.305-1.324c.821-.285,2.129-.08,2.428-.884A7.851,7.851,0,0,0-893.387,1759.1Zm35.33,5.3c.351-1.085-1.141-.33-.883-1.324-4.5-1.092-7.962-3.225-12.808-3.973-1.027-.293-.739.731-1.767.44-5.31-1.714-12.588-.407-17.224.221-1.617,1.34-4.045.99-5.962,1.767-.582.235-1.021,1.042-1.767,1.324-2.536.96-4.043,2.5-5.962,3.753-.955.626-2.11.795-2.871,1.326-.361.253-.478.983-.882,1.324-.61.517-1.713.686-2.208,1.106-.98.83-1.75,2.391-2.871,3.532-.547.556-1.513.8-1.987,1.326-.221.245-.008.819-.221,1.1-.358.482-1.154.677-1.545,1.1a23.647,23.647,0,0,0-2.43,3.752c-.681,1.185-1.627,1.849-2.207,3.094-1.511,3.233-2.137,6.869-3.312,10.6-.09.529,1.007-.123.661.662-.858,2.9-1.4,6.1-2.207,9.054,1,1.587-.4,4.531,0,7.95.669.434.444,1.761.661,2.648a1.577,1.577,0,0,1,.663.441c1.03,7.067,4.159,12.033,7.948,16.339a10.59,10.59,0,0,0,6.4,6.185c1.631,3.3,6.344,3.52,7.728,7.066a50.1,50.1,0,0,1,10.158,3.091c1.245.157,2.521.277,2.649,1.547-3.484-.932-6.494-2.34-10.376-2.872,1.9.327,3.45,1.835,4.636,2.208.934.3,1.892-.124,3.091.22.711.208,1.284,1.072,1.987,1.327,4.39,1.593,8.583.491,13.912.663,3.729.119,7.623.709,10.6,0,1.476-.352,2.7-1.7,4.195-1.326.333-.847,1.4-.96,2.431-1.1,1.353-1.81,4.08-2.248,5.962-3.532,4.751-1.431,6.456-5.911,10.158-8.391-.221-.881.656-.666.441-1.547,3.554-3.733,6.64-8.6,6.4-15.455.844.181.26-1.065,1.1-.884a51.168,51.168,0,0,0,2.433-23.848c-2.992-9.523-6.262-18.766-13.249-24.289-.68-.164-.271.762-1.106.441-.88-2.8-3.558-3.8-6.182-4.858.181-.624-.311-.571-.222-1.1C-855.757,1765.487-856.594,1764.629-858.057,1764.4Zm-39.3-3.973c-1.2.643,1.717-.632,0,0Zm51.67,6.181c.183-.624-.311-.571-.222-1.1-2.429-.881-3.856-2.767-5.962-3.973C-850.668,1764.076-847.328,1764.491-845.691,1766.608Zm-59.178-3.973h.661v-.441h-.661Zm-2.208,1.765a10.424,10.424,0,0,0,1.987-1.545C-905.888,1763.1-907.3,1763.876-907.077,1764.4Zm2.208,0c-1.332,1.688-4.553,2.66-4.858,4.638,2.01-2.111,4.873-3.369,7.066-5.3C-903.537,1763.817-903.827,1764.486-904.869,1764.4Zm62.049,4.638c-.051-.611-.7-.624-.883-1.1C-843.565,1768.458-843.407,1768.961-842.82,1769.037Zm2.648,2.873c0-.885-.807-.96-1.1-1.547A1.417,1.417,0,0,0-840.172,1771.91Zm9.5,21.858a13.421,13.421,0,0,0-2.21-7.287A56.251,56.251,0,0,0-830.675,1793.768ZM-832,1807.9c1.082.078-.418.144,0,.883,1.265.383.589-3.283.441-2.869A2.557,2.557,0,0,1-832,1807.9Zm3.091,2.651c.643.324.643-.988,0-.664Zm0,3.532a15.835,15.835,0,0,0,.443-3.311h-.663C-829.02,1811.7-829.373,1814.244-828.91,1814.083Zm-4.856,12.366c.982-.783.972-2.559,1.545-3.753h-.664C-832.883,1824.242-833.834,1824.835-833.766,1826.449Zm-80.6,13.69c1.522-.121,1.5,2.467,2.869,1.767-1.217-.771-1.951-3.2-3.311-3.091C-914.242,1838.838-914.368,1839.554-914.363,1840.139Zm9.714,4.858c-1.361-1.07-2.577-3.453-4.856-2.871C-907.821,1842.87-906.93,1845.585-904.649,1845Zm51.67,5.742c1.917-1.1,4.142-1.892,5.963-3.092-.737.221-.725-.307-.663-.883,1.383-.313,2.727-1.833,2.431-3.093C-847.334,1846.518-850.57,1848.214-852.979,1850.738Zm-44.381-.883c-.534-.069-1.233-1.105-1.767-.444C-898.633,1849.521-898.04,1850.661-897.361,1849.855Zm1.987,2.428c-.672.138-1.9-.282-2.208.221a8.154,8.154,0,0,0,4.195.663,8.926,8.926,0,0,0-.221-2.208c-1.181.151-1.149-.91-2.428-.663C-896.493,1851.636-895.05,1851.077-895.374,1852.284Zm28.263,5.3c2.487,1.239,5.037-1.093,7.067-1.765,4.526.036,6.191-2.789,9.054-4.416C-856.149,1853.677-861.642,1855.618-867.111,1857.582Zm-12.806-4.858a15.4,15.4,0,0,0,5.079.443C-875.694,1851.909-878.543,1852.365-879.917,1852.725Zm-4.416,1.325c-2.679.1-4.63-1.7-6.846-1.325C-889.926,1853.919-885.937,1854.674-884.333,1854.05Zm18.326-1.545c-2.352-.279-1.4.675,0,0Zm-6.182.883c3.117.16-1.211-.878-.22.441C-872.36,1853.659-872.4,1853.394-872.188,1853.388Zm-1.325,2.871c1.245-.265,2.323.672,2.651-.441C-872.077,1856.048-873.152,1855.11-873.514,1856.258Z" transform="translate(929.368 -1753.204)" fill="#4ee16d" fill-rule="evenodd"/>
    <path id="Path_2264" data-name="Path 2264" d="M-891.223,1770.844c.7.186,1.068.7,1.768.883.288,4.282-1.183,7.687-1.988,11.041-.884,3.681-1.484,7.5-3.312,10.821-.7.246-.5.02-1.325,0v-.884c-1.177.869-.381,2.22,0,3.312,5.678,1.168,10.353,3.337,13.911,6.626v1.324c-.162.353-1.082-.051-.884.663-.345-.1-.189-.7-.883-.441-.13.908.206,2.53,0,3.312.393,1.157,2.044,1.459,1.324,3.091h-.661c-1.736-2.385-3.572-4.672-7.287-5.079-.616-1.034-2.934-1.189-2.208-2.869a12.728,12.728,0,0,1,2.43,1.324c2.033-1.354,2.414,1.531,4.858,1.1-1.86-3.662-10.331-1.381-9.054-7.509-1,.105-1.164,1.044-2.649.663a5.91,5.91,0,0,0-1.106-2.208c.638-5.605,3.458-11,4.418-16.559.438-2.538.1-5.392,2.43-6.846-.144-.223-.508-.229-.441-.662C-891.921,1771.324-891.223,1771.434-891.223,1770.844Zm1.325,28.926c2.665,1.126.686-.584,0,0Z" transform="translate(946.414 -1743.528)" fill="#4ee16d" fill-rule="evenodd"/>
  </g>
</svg>
