<svg xmlns="http://www.w3.org/2000/svg" width="170.901" height="118.867" viewBox="0 0 170.901 118.867">
  <g id="magic_hat" data-name="magic hat" transform="translate(652.822 -1934.767)">
    <path id="Path_2359" data-name="Path 2359" d="M-614.761,2039.365a12.776,12.776,0,0,0-6.964-2.142,10.438,10.438,0,0,0-3.722.664,13.711,13.711,0,0,0-2.807-2.927,12.292,12.292,0,0,0-7.207-2.553,8.6,8.6,0,0,0-2.632.4,8.155,8.155,0,0,0-1.44-2.249,7.967,7.967,0,0,0-5.964-2.507,10.623,10.623,0,0,0-7.1,2.858.645.645,0,0,0-.179.722.771.771,0,0,0,.7.474.726.726,0,0,0,.469-.176,9.745,9.745,0,0,1,6.022-2.259,6.839,6.839,0,0,1,3.4.858,6.778,6.778,0,0,1,2.694,2.887,7.414,7.414,0,0,0-1.634,1.255c-1.138,1.155-2.318,3.2-1.9,5.178a2.145,2.145,0,0,0,2.1,1.824,2.6,2.6,0,0,0,1-.209c2.815-1.167,3.1-4.334,2.425-6.97a7.289,7.289,0,0,1,2.125-.306h.136a10.694,10.694,0,0,1,8.185,4.491,9.6,9.6,0,0,0-.819.564,11.688,11.688,0,0,0-4.149,7.268,5.179,5.179,0,0,0,1.089,4.049,3.472,3.472,0,0,0,2.683,1.36c2.367,0,4.635-2.491,5.082-4.718a11.722,11.722,0,0,0-1.3-7.749,8.768,8.768,0,0,1,2.627-.389,11.878,11.878,0,0,1,9.391,4.995c4.075,5.786,4.075,14.908,0,21.692a.383.383,0,0,0,0,.389.424.424,0,0,0,.358.216.359.359,0,0,0,.278-.134c3.18-3.875,4.628-9.793,3.776-15.445C-608.8,2045.786-611.182,2041.733-614.761,2039.365Zm-13.228,10.786a2.234,2.234,0,0,1-2.265-2.267,8.106,8.106,0,0,1,1.194-4.747,8.408,8.408,0,0,1,2.955-2.97c1.334,2.447,2.205,5.9.732,8.417A3.077,3.077,0,0,1-627.989,2050.151Zm-10.914-15.039a5.956,5.956,0,0,1-.108,2.88l-.012.04a2.345,2.345,0,0,1-.766,1.367l-.018.011-.014.015-.2.207-.125.133-.641-.351-.711-.388c-.217-.546.6-1.95,1.078-2.566A5.545,5.545,0,0,1-638.9,2035.112Z" transform="translate(0 -29.658)" fill="#9044e2"/>
    <path id="Path_2360" data-name="Path 2360" d="M-606.445,2017.722a2.914,2.914,0,0,0,.335-.019,2.792,2.792,0,0,0,1.894-1.066,2.527,2.527,0,0,0,.492-1.935,2.83,2.83,0,0,0-2.495-2.429,1.92,1.92,0,0,0-.619.1.57.57,0,0,0-.333.3.6.6,0,0,0-.059.264,2.6,2.6,0,0,0-1.768,2.491A2.4,2.4,0,0,0-606.445,2017.722Zm-.134-4.079a.368.368,0,0,0,.153-.057,1.934,1.934,0,0,1,1.175,1.189,1.284,1.284,0,0,1-.071,1.063,1.25,1.25,0,0,1-.887.57,1.639,1.639,0,0,1-.31.029,1.275,1.275,0,0,1-1.342-1.084A1.56,1.56,0,0,1-606.579,2013.643Z" transform="translate(-13.933 -24.643)" fill="#9044e2"/>
    <path id="Path_2361" data-name="Path 2361" d="M-500.086,1959.692a.639.639,0,0,0,.228-.042,67.154,67.154,0,0,0,9.957-4.755q1.424,3.97,2.846,7.943a.843.843,0,0,0,.792.559.749.749,0,0,0,.739-.571,47.821,47.821,0,0,0,1.595-8.533,15.394,15.394,0,0,0,5.8,1.134,16.406,16.406,0,0,0,2.558-.2.685.685,0,0,0,.587-.531.994.994,0,0,0-.353-.988,37.679,37.679,0,0,0-4.923-3.045,49.4,49.4,0,0,0,6.987-5.591.779.779,0,0,0,.168-.86.764.764,0,0,0-.711-.5,26.735,26.735,0,0,0-9.575,2.007,66.7,66.7,0,0,0-1.941-10.411.742.742,0,0,0-.734-.536.669.669,0,0,0-.614.366,59.636,59.636,0,0,0-3,7.046c-.117.334-.253.694-.4,1.071a17.779,17.779,0,0,0-1.125,3.826,12.846,12.846,0,0,0-7.17-4.727.791.791,0,0,0-.211-.029h0a.845.845,0,0,0-.731.443.783.783,0,0,0,.01.8,57.559,57.559,0,0,0,5.765,7.75,29.5,29.5,0,0,0-7.187,7.209.7.7,0,0,0-.025.732A.779.779,0,0,0-500.086,1959.692Zm8.966-10.7a.333.333,0,0,0,.233.2c-.391.466-.784.934-1.177,1.412a57.565,57.565,0,0,1-4.5-5.848,16.31,16.31,0,0,1,5.128,4.073A.524.524,0,0,0-491.12,1948.995Zm-.614,2.006-.014-.019c.183-.22.367-.44.55-.656C-491.378,1950.548-491.558,1950.769-491.733,1951Zm-3.17,3.35c0,.005,0,.012,0,.016a.221.221,0,0,0,.2.126.21.21,0,0,0,.165-.082c.276-.349.55-.683.826-1.026.229-.176.466-.342.7-.511-.088.142-.181.276-.267.42a.25.25,0,0,0,0,.254.271.271,0,0,0,.23.133.247.247,0,0,0,.216-.126c.346-.57.724-1.119,1.117-1.657.006-.009.014-.017.02-.027a23.144,23.144,0,0,1,2.216-2.615,32.348,32.348,0,0,1,4.243-3.453.212.212,0,0,0,.078-.238.208.208,0,0,0-.2-.146h-.04l-.057.024a18.472,18.472,0,0,0-5.095,4.115c.653-.761,1.306-1.521,1.969-2.273.349-.395.7-.789,1.054-1.181.054-.06.107-.122.16-.183.117-.135.237-.274.361-.394a1.4,1.4,0,0,1,.128-.126.286.286,0,0,0,.282.231.473.473,0,0,0,.4-.3.4.4,0,0,0-.079-.449.46.46,0,0,0-.337-.143,1.136,1.136,0,0,0-.7.367c-.408.4-.786.836-1.151,1.263-.143.166-.286.333-.429.5-.346.391-.693.8-1.041,1.2a14.379,14.379,0,0,0,.913-2.944c.153-.653.3-1.271.485-1.831a55.587,55.587,0,0,1,2.241-5.6c.576,2.766.948,5.587,1.307,8.322.04.306.083.614.123.92-1.342,1-2.622,2.111-3.822,3.19-.413.372-.8.732-1.181,1.089l.038-.06-.158.156-.053-.091-.051-.074-.1-.008h-.1l-.06.1a9.3,9.3,0,0,1-.512.948c-.875.867-1.691,1.736-2.426,2.583a.244.244,0,0,0-.034.261c.007.016.022.025.032.038-1.448.757-2.931,1.466-4.448,2.11A27.252,27.252,0,0,1-494.9,1954.351Zm12.565-4.307a.868.868,0,0,0-.4.782.724.724,0,0,0,.413.637,38.511,38.511,0,0,1,4.2,2.348h-.192a12.976,12.976,0,0,1-5.862-1.424c.288-.3.565-.6.821-.917a.261.261,0,0,0,.034-.28.26.26,0,0,0-.232-.151.253.253,0,0,0-.184.082c-.39.422-.784.812-1.179,1.189a.817.817,0,0,0-.472.432,21.086,21.086,0,0,1-2.438,1.914,52.474,52.474,0,0,0,4.077-5.595.774.774,0,0,0,.31-.179.646.646,0,0,0,.192-.467c0-.315-.021-.632-.033-.949a24.205,24.205,0,0,1,7.224-2.016A47.461,47.461,0,0,1-482.339,1950.044Zm-4.476.392c.484-.537.964-1.1,1.428-1.634.22-.256.446-.516.671-.775.025.186.048.369.074.555a.615.615,0,0,0,.1.257c-1.011.773-2.011,1.575-2.99,2.386Q-487.167,1950.827-486.815,1950.436Zm-1.844,2.47c1.291-1.009,2.619-2.047,3.9-3.118a32.421,32.421,0,0,1-3.652,4.8q-.186-.506-.374-1.012a.852.852,0,0,0-.263-.364Zm-2.351.2c.947-.945,1.812-1.766,2.642-2.508,1.009-.9,2.076-1.76,3.126-2.59-.574.67-1.168,1.325-1.751,1.965l-.212.234c-.984,1.078-1.966,2.1-2.935,3.084q-1.05.633-2.135,1.226A9.691,9.691,0,0,0-491.01,1953.106Zm5.484.534a49.768,49.768,0,0,1-.927,6.254q-.822-2.223-1.642-4.448A18.97,18.97,0,0,0-485.525,1953.64Z" transform="translate(-48.321)" fill="#9044e2"/>
    <path id="Path_2362" data-name="Path 2362" d="M-456.892,1956.291a2.225,2.225,0,0,0,2.045,1.264,2.656,2.656,0,0,0,1.5-.473,2.856,2.856,0,0,0,1.234-1.923,2.364,2.364,0,0,0-.51-1.85,2.846,2.846,0,0,0-2.178-1.059,2.442,2.442,0,0,0-1.548.544.494.494,0,0,0-.15.589A2.572,2.572,0,0,0-456.892,1956.291Zm1.346-2.3a.563.563,0,0,0,.2-.286,1.936,1.936,0,0,1,1.689,1.029,1.019,1.019,0,0,1-.394,1.153,1.2,1.2,0,0,1-.8.347,1.236,1.236,0,0,1-1.095-.9A1.156,1.156,0,0,1-455.545,1953.986Z" transform="translate(-62.207 -5.559)" fill="#9044e2"/>
    <path id="Path_2363" data-name="Path 2363" d="M-606.992,1996.9a28.9,28.9,0,0,0,6.841.834c.708,0,1.427-.027,2.14-.081-.034.647-.05,1.29-.057,1.93l-.269.406.267-.225a40.851,40.851,0,0,0,.775,8.34.862.862,0,0,0,.857.642.753.753,0,0,0,.591-.263,16.727,16.727,0,0,0,3.735-8.038l.363-.32a18.372,18.372,0,0,0,8.886,2.576h0a.854.854,0,0,0,.693-.366.768.768,0,0,0,.114-.7,14.774,14.774,0,0,0-5.254-7.3,72.157,72.157,0,0,0,9.572-8,.771.771,0,0,0,.179-.864.858.858,0,0,0-.782-.531.884.884,0,0,0-.188.021,53.655,53.655,0,0,0-12.141,4.354c-1.184-6.276-2.56-9.457-4.089-9.457a1.27,1.27,0,0,0-.623.173,2.149,2.149,0,0,0-.824,1.778c-.014.105-.026.206-.04.3-.142.913-.267,1.844-.388,2.744q-.1.762-.209,1.524c-.07.51-.153,1.026-.237,1.545-.15.928-.3,1.886-.39,2.837a40.436,40.436,0,0,0-9.744,4.53.935.935,0,0,0-.4.933A.81.81,0,0,0-606.992,1996.9Zm11.266-6.147c.3-1.469.453-3.005.6-4.5.091-.905.178-1.76.293-2.586a6.649,6.649,0,0,0,.038-.681,3.758,3.758,0,0,1,.1-.992,1.7,1.7,0,0,1,.395.507,7.785,7.785,0,0,1,.712,1.9c.062.219.122.434.186.635a49.478,49.478,0,0,1,1.39,5.656c0,.015.012.024.016.039a.27.27,0,0,0-.123-.032.253.253,0,0,0-.153.051,16.535,16.535,0,0,0-4.407,5.149.746.746,0,0,0-.344-.1.593.593,0,0,0-.069,0c-.254.027-.507.041-.76.062l.413-.451q.36-.4.723-.792c.22-.24.443-.478.666-.716.628-.672,1.278-1.365,1.855-2.1a.225.225,0,0,0,.027-.239.223.223,0,0,0-.2-.127.223.223,0,0,0-.153.062c-.69.645-1.332,1.359-1.953,2.05l-.164.181a11.987,11.987,0,0,0,.455-1.2l0,.149.209-.874a.848.848,0,0,0,.1-.379l.2-.773Zm-.535,7.417c.362-.4.709-.8,1.033-1.211l.035-.045c.387-.487.755-.988,1.093-1.49.825-.913,1.629-1.741,2.44-2.515a30.428,30.428,0,0,1-2.1,3.526,39.284,39.284,0,0,0-2.533,3.055C-596.29,1999.046-596.277,1998.6-596.261,1998.167Zm8.385-2.155c-1.018.863-2.02,1.737-2.973,2.577l-.074-.044a35.621,35.621,0,0,0,2.179-3.215q.478.315.919.662C-587.841,1996-587.861,1996-587.876,1996.012Zm-8.362,4.208a35.878,35.878,0,0,0,2.486-2.963,42.958,42.958,0,0,1,3.972-3.8,48.149,48.149,0,0,1-2.693,4.1.739.739,0,0,0-.282-.063.978.978,0,0,0-.911.9c-.013.27-.036.537-.062.8-.036.045-.07.093-.107.138-.8.859-1.6,1.768-2.4,2.7q-.045-.9-.055-1.781A.24.24,0,0,0-596.238,2000.219Zm4.491-2.2c.615-.621,1.245-1.245,1.9-1.88-.467.737-.98,1.447-1.513,2.145C-591.488,1998.2-591.616,1998.111-591.746,1998.023Zm-4.52-1.685a18.745,18.745,0,0,1,3.536-4.451,19.352,19.352,0,0,1-1.084,2.331c-.87.91-1.663,1.831-2.389,2.756.006-.093.007-.186.014-.278A.745.745,0,0,0-596.266,1996.339Zm6.905-1.446c-.566.516-1.134,1.046-1.7,1.6.53-.767,1.028-1.544,1.507-2.328a.846.846,0,0,0-.022.212A.784.784,0,0,0-589.361,1994.893Zm-6.745,7.817h0l0,0,.111-.117h0c.6-.644,1.2-1.307,1.763-1.974.121-.132.248-.263.37-.395q-.1.61-.248,1.2c-.188.188-.368.382-.561.565l-.038.036a.25.25,0,0,0-.065.279.273.273,0,0,0,.25.171.266.266,0,0,0,.123-.047,14.678,14.678,0,0,1-1.524,3.26c-.126-.99-.209-1.957-.273-2.917A.262.262,0,0,0-596.107,2002.71Zm8.545-6.352a.223.223,0,0,0,.066-.108,11.93,11.93,0,0,1,3.427,4.654,17.607,17.607,0,0,1-6.281-2.022C-589.414,1998.046-588.478,1997.206-587.562,1996.358Zm-1.625-2.718a.864.864,0,0,0-.118.1c.265-.442.534-.883.782-1.328a.3.3,0,0,0-.012-.294.284.284,0,0,0-.242-.145h0a.263.263,0,0,0-.164.058,38.7,38.7,0,0,0-3.039,2.6,27.419,27.419,0,0,0,1.5-2.83.3.3,0,0,0-.016-.286.287.287,0,0,0-.243-.135h0a.293.293,0,0,0-.2.078c-.638.565-1.251,1.136-1.831,1.7a20.022,20.022,0,0,0,.921-2.094.277.277,0,0,0,.006-.054.8.8,0,0,0,.594.259.848.848,0,0,0,.389-.091,53.22,53.22,0,0,1,9.7-3.849A69.851,69.851,0,0,1-589.187,1993.64Zm-8.329-.285-.031.028a.967.967,0,0,0-.252.365.349.349,0,0,0,.015.34.327.327,0,0,0,.276.15.344.344,0,0,0,.15-.034c.02-.009.037-.019.056-.028a.32.32,0,0,0,.192.084c-.24.262-.482.522-.724.783q-.41.441-.816.887c-.5.027-.991.041-1.479.041a26.926,26.926,0,0,1-4.261-.34,37.222,37.222,0,0,1,6.857-3.093c.007.274.025.537.05.793C-597.494,1993.339-597.508,1993.346-597.517,1993.354Z" transform="translate(-14.37 -14.337)" fill="#9044e2"/>
    <path id="Path_2364" data-name="Path 2364" d="M-575.894,1979.939a1.384,1.384,0,0,0,.765.228,2.9,2.9,0,0,0,2.014-1.184,2.631,2.631,0,0,0,.619-1.865,1.463,1.463,0,0,0-.613-1.009,1.649,1.649,0,0,0-.945-.289,1.033,1.033,0,0,0-1.157,1.034.559.559,0,0,0,.538.538.449.449,0,0,0,.273-.091.433.433,0,0,1,.25-.094.276.276,0,0,1,.18.067c.239.194,0,.674-.117.871a2.1,2.1,0,0,1-.943.941.362.362,0,0,1-.118.019.525.525,0,0,1-.462-.273c-.018-.048-.028-.124.087-.22a.4.4,0,0,0,.114-.457.466.466,0,0,0-.419-.314.394.394,0,0,0-.233.078,1.084,1.084,0,0,0-.454.93A1.368,1.368,0,0,0-575.894,1979.939Z" transform="translate(-24.261 -13.053)" fill="#9044e2"/>
    <path id="Path_2365" data-name="Path 2365" d="M-583.539,2062.7l.151-.018v-.341l-.188-.007-.474.051c-.327.035-.654.07-.981.1l.207-.158c.645-.49,1.411-1.07,2.2-1.65.988-.727,2.011-1.443,3-2.134q.83-.58,1.656-1.164l.1-.072-.029-.146a.193.193,0,0,0-.183-.136h-.047l-.053.028a80.447,80.447,0,0,0-7.684,5.542.2.2,0,0,0-.065.226.22.22,0,0,0,.2.144c.567-.084,1.119-.146,1.651-.206Z" transform="translate(-21.265 -38.87)" fill="#9044e2"/>
    <path id="Path_2366" data-name="Path 2366" d="M-578.184,2005.661a.23.23,0,0,0-.186.093c-.12.156-.245.312-.369.469a14.77,14.77,0,0,0-.891,1.2.219.219,0,0,0-.006.225.227.227,0,0,0,.2.119.217.217,0,0,0,.162-.072c.329-.369.625-.778.911-1.172.123-.169.245-.338.37-.5a.219.219,0,0,0,.022-.23A.238.238,0,0,0-578.184,2005.661Z" transform="translate(-23.26 -22.54)" fill="#9044e2"/>
    <path id="Path_2367" data-name="Path 2367" d="M-525.349,2007.785a2.212,2.212,0,0,0-.953.22c-.049,0-.1,0-.149,0-1.7,0-3.281,1.591-3.908,3.088-.817,1.949-1.384,4.625-.524,6.292a2.918,2.918,0,0,0,2.067,1.523,3.524,3.524,0,0,0,.771.085c3.1,0,5.791-3.936,6.092-6.588a4.841,4.841,0,0,0-1.246-3.5A2.968,2.968,0,0,0-525.349,2007.785Zm-1.617,1.959a.776.776,0,0,0,.342.079.79.79,0,0,0,.112-.008,2.561,2.561,0,0,1,.37-.027,1.787,1.787,0,0,1,1.048.309c.014.011.028.021.042.031a2.8,2.8,0,0,1,.546,3.254c-.484,1.122-2.045,3.582-3.533,3.582a1.314,1.314,0,0,1-.656-.177,2.048,2.048,0,0,1-.768-1.882C-529.436,2012.958-528.234,2010.492-526.965,2009.744Z" transform="translate(-38.634 -23.216)" fill="#9044e2"/>
    <path id="Path_2368" data-name="Path 2368" d="M-506.912,2037.379h0a3.247,3.247,0,0,0-1.222.245.979.979,0,0,0-.577.627c-2.782.778-4.5,4.809-4.136,7.823.242,1.972,1.307,3.1,2.925,3.1a3.909,3.909,0,0,0,.594-.047c2.931-.445,6.36-3.4,6.562-6.695a5.281,5.281,0,0,0-1.462-3.777A3.734,3.734,0,0,0-506.912,2037.379Zm1.747,5.536c-.449,1.958-2.451,3.2-3.291,3.648a2.692,2.692,0,0,1-1.224.351c-.718,0-1.153-.459-1.258-1.327a5.7,5.7,0,0,1,.3-1.958c.031-.114.061-.225.088-.331.428-1.677,1.345-3.7,3.29-3.815A2.846,2.846,0,0,1-505.164,2042.915Z" transform="translate(-44.489 -32.625)" fill="#9044e2"/>
    <path id="Path_2369" data-name="Path 2369" d="M-531.621,2057.435a3.249,3.249,0,0,0-1.554.4.827.827,0,0,0-.449.928,1.032,1.032,0,0,0,.9.812,2.72,2.72,0,0,1,2.381,1.441,4.486,4.486,0,0,1-.561,4.176,6.31,6.31,0,0,1-1.023,1.287l-.019.016-.014.021a1.22,1.22,0,0,1-1.1.606,1.9,1.9,0,0,1-.207-.012l-.063-.007-.052.036a1.22,1.22,0,0,1-.642.277c-.073,0-.267,0-.375-.43l-.01-.042-.029-.032a1.144,1.144,0,0,1-.321-.958c.157-1.239,2.011-2.514,2.38-2.757a.618.618,0,0,0,.271-.713.644.644,0,0,0-.606-.469.676.676,0,0,0-.311.08c-1.312.686-4.249,2.591-3.212,5.485a2.742,2.742,0,0,0,2.635,2.045,4.3,4.3,0,0,0,2.736-1.15c1.311-1.153,4.258-4.2,3.3-7.587A4.578,4.578,0,0,0-531.621,2057.435Z" transform="translate(-36.998 -39.002)" fill="#9044e2"/>
    <path id="Path_2370" data-name="Path 2370" d="M-552.072,2097.622a1,1,0,0,0-1.02,1.049,1.089,1.089,0,0,0,.254.714.975.975,0,0,0,.766.333,1,1,0,0,0,1.02-1.049,1.089,1.089,0,0,0-.254-.714A.975.975,0,0,0-552.072,2097.622Z" transform="translate(-31.709 -51.779)" fill="#9044e2"/>
    <path id="Path_2371" data-name="Path 2371" d="M-545.473,2096.819a.833.833,0,0,0-.887.7l-.561,3.814-.045.3a5.472,5.472,0,0,0,.091,2.946.636.636,0,0,0,.587.423.653.653,0,0,0,.524-.282,5.457,5.457,0,0,0,.834-2.827l.03-.287.074-.668.348-3.166a.786.786,0,0,0-.2-.625A1.076,1.076,0,0,0-545.473,2096.819Z" transform="translate(-33.606 -51.524)" fill="#9044e2"/>
    <path id="Path_2372" data-name="Path 2372" d="M-530.482,2100.306c0-.792-.013-1.586-.024-2.38l-.014-1.211a1.031,1.031,0,0,0-1.073-1.039,1.031,1.031,0,0,0-1.073,1.039l-.015,1.175c-.01.805-.021,1.612-.024,2.416,0,.156,0,.314-.006.473a7.309,7.309,0,0,0,.327,2.845.858.858,0,0,0,.791.571.86.86,0,0,0,.791-.571,7.522,7.522,0,0,0,.326-2.862C-530.479,2100.607-530.481,2100.455-530.482,2100.306Z" transform="translate(-38.187 -51.16)" fill="#9044e2"/>
    <path id="Path_2373" data-name="Path 2373" d="M-506.34,2096.4a13.191,13.191,0,0,1-.6-3.624,1.111,1.111,0,0,0-1.155-1.094,1.141,1.141,0,0,0-.817.325,1.048,1.048,0,0,0-.288.778c.085,3.938.975,6.5,2.578,7.417a.793.793,0,0,0,.395.106.827.827,0,0,0,.816-.8,5.119,5.119,0,0,0-.562-2.158C-506.1,2097.044-506.237,2096.725-506.34,2096.4Z" transform="translate(-45.665 -49.891)" fill="#9044e2"/>
    <path id="Path_2374" data-name="Path 2374" d="M-489.439,2090.885a7.252,7.252,0,0,1-.677-.727,6.317,6.317,0,0,1-1.171-2.627,1.043,1.043,0,0,0-1.049-.879,1.358,1.358,0,0,0-1.021.479,1.209,1.209,0,0,0-.253,1.012,8.489,8.489,0,0,0,1.442,3.422c.77,1.061,1.647,2.042,2.839,2.042l.087,0a1.07,1.07,0,0,0,.814-.465.828.828,0,0,0,.1-.757A4.033,4.033,0,0,0-489.439,2090.885Z" transform="translate(-50.613 -48.291)" fill="#9044e2"/>
    <path id="Path_2375" data-name="Path 2375" d="M-494.438,2030.639a5.967,5.967,0,0,0-2.651-.543,20.873,20.873,0,0,0-6.564,1.51,5.64,5.64,0,0,0-1.75-2.7,4.872,4.872,0,0,0-3.2-1.209,8.04,8.04,0,0,0-5.846,3.289c-2.533-7.337-5.725-14.618-8.826-21.671-1.357-3.088-2.761-6.28-4.081-9.415l-1.622-3.855q-2.315-5.5-4.637-11.006c-.576-1.364-1.13-2.809-1.666-4.207a56.439,56.439,0,0,0-4.687-10.173c-1.814-2.839-4.423-4.534-6.979-4.534a6.181,6.181,0,0,0-.975.078c-3.649.587-5.149,4.3-6.354,7.284-.351.868-.684,1.743-1.011,2.62a.2.2,0,0,0-.033-.09.214.214,0,0,0-.156-.066.217.217,0,0,0-.22.208c-.021.417-.048.834-.07,1.252a186.218,186.218,0,0,0-6.969,27.068q-.664,3.4-1.347,6.8c-1.977,9.918-4.02,20.173-5.3,30.315a.766.766,0,0,0,.01.138c-1.968.091-4.558.742-6.038,2.374a4.241,4.241,0,0,0-1.1,3.391c.012.123.035.244.059.365a16.2,16.2,0,0,0-3.208,2.83c-.266.281-.531.56-.8.831-1.182,1.2-2.344,2.458-3.468,3.674l-.969,1.046a.853.853,0,0,0-.177.942.925.925,0,0,0,.829.559.879.879,0,0,0,.6-.246l1.018-.944c1.224-1.132,2.491-2.3,3.7-3.5.265-.261.539-.521.814-.781a19.452,19.452,0,0,0,2.465-2.646,6.222,6.222,0,0,0,.907.966c-.488.538-.937,1.127-1.361,1.689-.2.262-.389.516-.577.753a59.53,59.53,0,0,0-3.729,5.357.958.958,0,0,0-.057,1.006,1.169,1.169,0,0,0,1,.573,1.07,1.07,0,0,0,.9-.481c1.148-1.649,2.474-3.37,4.055-5.26.3-.356.637-.708,1-1.08s.7-.724,1.02-1.1a19.039,19.039,0,0,0,1.927.831c-.43.511-.825,1.055-1.21,1.593-.113.157-.224.313-.337.468-.913,1.264-1.8,2.574-2.656,3.839l-.533.788a.988.988,0,0,0-.1,1.051,1.245,1.245,0,0,0,1.089.613,1.2,1.2,0,0,0,.965-.478l.715-.926c.836-1.08,1.7-2.2,2.514-3.318.133-.184.268-.366.4-.55a17.723,17.723,0,0,0,1.531-2.327c.156.043.307.087.467.129.5.131,1.014.246,1.537.352a.943.943,0,0,0-.107.063,7.448,7.448,0,0,0-1.695,2.66c-.078.173-.156.344-.236.514l-.645,1.371q-.53,1.126-1.06,2.25a1.091,1.091,0,0,0,.059,1.068,1.161,1.161,0,0,0,.949.543.953.953,0,0,0,.855-.549q1.007-1.868,2.013-3.74l.181-.337a7.977,7.977,0,0,0,1.16-3.1.8.8,0,0,0-.132-.5,42.105,42.105,0,0,0,6.627.481c1.648,0,3.311-.074,4.891-.175q-.191.656-.388,1.313c-.28.937-.569,1.906-.825,2.868-.055.2-.113.411-.171.62a9.748,9.748,0,0,0-.534,3.363.81.81,0,0,0,.807.776.831.831,0,0,0,.683-.371,9.952,9.952,0,0,0,1.251-3.232c.049-.187.1-.375.147-.557.258-.952.5-1.928.726-2.871q.176-.721.355-1.441a1.044,1.044,0,0,0-.027-.612c.33-.026.655-.053.973-.079q3.254-.27,6.465-.731a1.049,1.049,0,0,0-.123.486l-.026,1.538c-.018,1.127-.038,2.256-.051,3.382,0,.158-.006.315-.01.471a4.316,4.316,0,0,0,.672,3.05.592.592,0,0,0,.465.2.592.592,0,0,0,.464-.2,4.321,4.321,0,0,0,.672-3.052c0-.156-.009-.312-.01-.469q-.02-1.635-.05-3.272l-.027-1.649a.994.994,0,0,0-.318-.74q1.95-.311,3.871-.693a1.05,1.05,0,0,0-.11.111,1.053,1.053,0,0,0-.169.93,17.758,17.758,0,0,1,.582,3.884c.012.344,0,.7-.01,1.044a7.234,7.234,0,0,0,.188,2.374.937.937,0,0,0,.906.662.884.884,0,0,0,.773-.445c1.247-2.134.492-5.456-.306-8.11a1.06,1.06,0,0,0-.631-.7q1.845-.388,3.657-.835,2.922-.728,5.826-1.651a1.277,1.277,0,0,0-.13.123,1.213,1.213,0,0,0-.269,1,13.693,13.693,0,0,0,1.638,4.708c.557.954,1.592,2.726,3.167,2.769h0a.808.808,0,0,0,.58-.25.78.78,0,0,0,.224-.56,4.337,4.337,0,0,0-1.152-2.393,10,10,0,0,1-.609-.858,12.454,12.454,0,0,1-1.573-4.016,1,1,0,0,0-.889-.843q4.295-1.409,8.491-3.219a1.189,1.189,0,0,0,.3,1.288c.735.751,1.466,1.5,2.2,2.244l.183.187a4.238,4.238,0,0,0,2.315,1.513,1.224,1.224,0,0,0,.183.014.9.9,0,0,0,.7-.3.957.957,0,0,0,.2-.785,4.315,4.315,0,0,0-1.548-2.35l-.153-.148-1.126-1.107-1.117-1.1a1.384,1.384,0,0,0-.328-.235l.437-.19c.37-.16.75-.325,1.134-.493a1.129,1.129,0,0,0,.589.848c1.857,1.054,4.552,2.309,6.843,2.309a4.554,4.554,0,0,0,2.191-.5.852.852,0,0,0,.445-.758.89.89,0,0,0-.443-.794,6.731,6.731,0,0,0-2.51-.651c-.4-.049-.807-.1-1.2-.183a14.9,14.9,0,0,1-3.637-1.309c.949-.455,1.9-.946,2.8-1.488a1.01,1.01,0,0,0,.161.1q1.253.529,2.505,1.063l1.267.538c.244.1.49.22.741.339a6.229,6.229,0,0,0,2.58.8c.045,0,.089,0,.134,0a1.054,1.054,0,0,0,.939-.651,1.049,1.049,0,0,0-.206-1.116,5.837,5.837,0,0,0-2.481-1.34c-.259-.09-.516-.18-.762-.277l-1.9-.751-.683-.27a14.986,14.986,0,0,0,1.262-1.121,1.045,1.045,0,0,0,.25.077l1.26.224c1.273.228,2.59.463,3.891.662.209.032.415.071.621.11a7.625,7.625,0,0,0,1.379.175,2.35,2.35,0,0,0,1.594-.551.778.778,0,0,0,.132-.949c-.661-1.04-1.836-1.158-2.973-1.272-.244-.025-.487-.048-.722-.083-1.154-.166-2.331-.314-3.469-.458l-.3-.038a7.583,7.583,0,0,0,.57-1.188l.02.005c.466.072.934.148,1.4.224a49.591,49.591,0,0,0,5.624.694h.057a1.193,1.193,0,0,0,1.147-1.145,1.1,1.1,0,0,0-.881-1.26,51.507,51.507,0,0,0-5.778-.645l-1.084-.082c.006-.069.008-.139.012-.208.042-.01.082-.007.124-.021a23.605,23.605,0,0,1,4.878-1.087c.332-.035.664-.057,1-.077a8.142,8.142,0,0,0,2.93-.557.9.9,0,0,0,.5-.835A.957.957,0,0,0-494.438,2030.639ZM-573,2048.549l-.471-3.621a5.854,5.854,0,0,1,3.122-1.239c.045-.011.1-.023.149-.034a.586.586,0,0,0-.036.083.491.491,0,0,0,.265.57,30.131,30.131,0,0,0,2.755,1.276,24.885,24.885,0,0,0,.035,2.658c-.088.007-.176.018-.264.027a.228.228,0,0,0-.134-.222,1.954,1.954,0,0,0-.735-.146,1.841,1.841,0,0,0-1.456.743c-.325.073-.651.146-.973.235a.281.281,0,0,0-.206.218.315.315,0,0,0,.119.306,18.2,18.2,0,0,0,2.35,1.515c-.076.04-.147.087-.222.128q-1.363-.3-2.695-.709a3.931,3.931,0,0,0,.142-.408.883.883,0,0,0-.156-.765.862.862,0,0,0-.676-.351.79.79,0,0,0-.25.041,3.941,3.941,0,0,0-.591.25Zm5.448-6.048a.885.885,0,0,0-.212-.505.767.767,0,0,0,.071-.16c1.458-5.778,2.647-11.7,3.742-17.567a4.693,4.693,0,0,0,.423.515c.068.07.142.133.214.2-.674,3.073-1.344,6.128-2,9.146l-.262,1.186a70.675,70.675,0,0,0-1.516,8.486c-.621-.132-1.247-.256-1.874-.378.328-.057.635-.111.85-.159A.7.7,0,0,0-567.548,2042.5Zm53.576-10.068c.008,0,.014,0,.023,0a.816.816,0,0,0,.322-.064c.321-.14.64-.3.955-.458-4.122,6.546-12.149,10.916-24.473,13.324a63.434,63.434,0,0,1-12.113,1.133c-1.185,0-2.4-.031-3.612-.091-.622-.031-1.233-.083-1.842-.142a473.259,473.259,0,0,0,6.027-52c.239-3.813.436-7.7.592-11.6a3.5,3.5,0,0,0,1.28.3c.046,0,.093,0,.14,0a4.1,4.1,0,0,0,4.118-3.836,3.827,3.827,0,0,0-2.964-3.619.61.61,0,0,0-.516-.539,4.182,4.182,0,0,0-.569-.039,3.932,3.932,0,0,0-3.408,1.906,1.549,1.549,0,0,0-.085-.481,1.613,1.613,0,0,0-.913-.938l-.031-.013-.051,0a.227.227,0,0,0-.219.207c-1.487,13.328-3.344,26.619-5.536,39.722a3.661,3.661,0,0,0-1.816-.493c-.072,0-.144,0-.216.006a.865.865,0,0,0-.235.05q.578-3.682,1.076-7.358,1.215-7.121,2.425-14.241l.447-2.647q1.548-7.143,3.087-14.29a.218.218,0,0,0-.043-.184.229.229,0,0,0-.178-.085.211.211,0,0,0-.209.167c-.316,1.416-.628,2.822-.942,4.234l.46-2.727a.227.227,0,0,0-.05-.186.239.239,0,0,0-.18-.084.214.214,0,0,0-.214.181q-1.02,5.838-2.043,11.675c-.074.421-.148.846-.222,1.267l-.314,1.419c.332-2.57.644-5.162.926-7.758a.251.251,0,0,0-.06-.2.258.258,0,0,0-.192-.083.259.259,0,0,0-.1.036c.016-.166.034-.334.05-.5,1.138-4.281,2.505-8.778,4.653-12.4,1.034-1.741,2.312-2.624,3.8-2.624,2.427,0,4.746,2.4,5.873,4.624a63.2,63.2,0,0,1,2.544,6.046c.326.857.664,1.742,1.009,2.6q3.446,8.57,6.913,17.134c1.37,3.392,2.719,6.892,4.023,10.277,3.107,8.066,6.321,16.407,10.174,24.192a1.139,1.139,0,0,0,1.056.651,1.493,1.493,0,0,0,1.181-.595A1.132,1.132,0,0,0-513.972,2032.433Zm-48.69-10.557a3.393,3.393,0,0,1,.5-2.124l-.482,2.2C-562.649,2021.924-562.658,2021.9-562.662,2021.876Zm-7.081,27.35a25.379,25.379,0,0,0,2.447,1.146c-.166.068-.331.135-.494.208a17.686,17.686,0,0,1-2.2-1.3C-569.907,2049.26-569.825,2049.247-569.743,2049.226Zm2.71.462a.241.241,0,0,0,.245.209.269.269,0,0,0,.194-.082.241.241,0,0,0,.065-.181c-.02-.306-.02-.61-.03-.915q.589-.044,1.18-.052a2.462,2.462,0,0,0,.979.838.277.277,0,0,0,.08.018,14.193,14.193,0,0,0-2.153.54c-.762-.278-1.494-.58-2.173-.9-.048-.023-.1-.044-.147-.066l-.124-.056c.591-.117,1.185-.2,1.78-.265Q-567.095,2049.232-567.033,2049.688Zm.494-3.839c.189.072.381.143.573.212a4.706,4.706,0,0,0,.308,2.1c-.306,0-.612.013-.917.031C-566.588,2047.408-566.579,2046.627-566.539,2045.849Zm3.14,5.773c.387.091.776.182,1.165.256-.4-.016-.808-.041-1.21-.07Zm-2.234-1.267a13.556,13.556,0,0,1,2.078-.449c-.07.329-.136.658-.205.988Q-564.712,2050.659-565.633,2050.355Zm-.9.317a26.182,26.182,0,0,0,2.641.839c-.018.087-.036.174-.054.261q-.576-.048-1.148-.114a18.064,18.064,0,0,1-2.032-.761C-566.929,2050.812-566.727,2050.748-566.53,2050.672Zm1.473-2.511a3.509,3.509,0,0,1-.316-1.7c.014-.061.028-.121.042-.181.216.073.432.146.651.216-.025.555-.048,1.111-.059,1.668C-564.845,2048.164-564.951,2048.162-565.056,2048.161Zm3.593-24.483c-.028-.016-.057-.03-.085-.047.13-.589.267-1.178.394-1.765Q-561.31,2022.772-561.463,2023.678Zm-3.412,20.61q.3-1.33.584-2.654c-.1.9-.187,1.809-.258,2.726Zm2.838-18.459c.064.03.127.062.192.089q-.191,1.12-.381,2.24c-.241,1.305-.477,2.614-.728,3.914q-.208,1.081-.424,2.166c-.218,1.005-.437,2.011-.664,3.012-.208.921-.451,1.863-.687,2.774-.346,1.338-.7,2.712-.959,4.085l-.029-.006a11.458,11.458,0,0,1,.36-4.74c.263-1.084.552-2.185.831-3.249.225-.858.45-1.716.665-2.575C-563.224,2030.987-562.622,2028.408-562.038,2025.828Zm6.194-9.847a4.958,4.958,0,0,0-.49-.439c1.329-7.962,2.521-15.941,3.547-23.806.376-2.882.741-5.826,1.084-8.752.027-.235.053-.47.08-.7C-552.67,1993.439-554.077,2004.717-555.843,2015.981Zm-.627,3.853c-.162.99-.321,1.981-.489,2.972a3.136,3.136,0,0,1-.748.7c.063-.355.13-.721.192-1.073.212-1.194.411-2.393.616-3.59A4.213,4.213,0,0,1-556.47,2019.833Zm-1.876,4a3.93,3.93,0,0,1-.537.179,3.9,3.9,0,0,1-.9.1,3.64,3.64,0,0,1-.914-.119c.113-.608.228-1.218.336-1.824q.354-1.978.683-3.957a.735.735,0,0,0,.774-.716.84.84,0,0,0-.525-.814c.018-.115.037-.229.056-.343.2.181.409.359.61.531a11.934,11.934,0,0,1,1.4,1.325Q-557.842,2021.022-558.346,2023.833Zm-2.371-7.2-.124.021q.567-2.6,1.132-5.209Q-560.2,2014.046-560.717,2016.635Zm-.423,2.051q-.467,2.241-.958,4.474c-.044-.05-.084-.1-.123-.157q.153-.707.308-1.413l.132-.6q.239-1.1.478-2.2C-561.252,2018.748-561.195,2018.722-561.14,2018.686Zm-1.484,6.823q-.856,3.764-1.781,7.5.829-3.791,1.653-7.583C-562.71,2025.458-562.667,2025.483-562.624,2025.51Zm-3.738,18.449-.032-.007c0-.033.008-.066.012-.1C-566.378,2043.889-566.369,2043.923-566.362,2043.959Zm10.8,7.575c-.75.054-1.481.088-2.19.088a24.6,24.6,0,0,1-4.152-.338c-.452-.076-.9-.169-1.346-.269.095-.4.193-.79.286-1.186.415-.039.831-.065,1.247-.065.132,0,.263,0,.4.005a13.41,13.41,0,0,1,3.922.68,12.045,12.045,0,0,1,2.043.893c.064.035.141.073.224.114l.031.016C-555.257,2051.495-555.411,2051.512-555.564,2051.534Zm-7.885-2.133q-.387.042-.769.1a.254.254,0,0,0,.179-.172.242.242,0,0,0-.125-.274,2.124,2.124,0,0,1-.52-.382c.459.01.916.035,1.372.078C-563.358,2048.972-563.4,2049.184-563.449,2049.4Zm-.743-1.208c.024-.5.063-1.009.095-1.515q.572.172,1.158.329l-.271,1.268C-563.536,2048.24-563.863,2048.212-564.192,2048.193Zm.257-3.7c.352-4.085.941-8.166,1.612-12.2q.639-3.057,1.228-6.13a5.657,5.657,0,0,0,1.406.182c.059,0,.119,0,.179,0a6.362,6.362,0,0,0,.72-.068q-.936,5.1-1.932,10.155c-.557,2.8-1.159,5.628-1.75,8.388Q-563.2,2044.659-563.936,2044.5Zm6.239,7.822h.024c.3,0,.587-.016.879-.028a19.406,19.406,0,0,1-2.483.2c-.148-.009-.295-.021-.442-.029Q-558.7,2052.42-557.7,2052.317Zm9.67-73.629a.247.247,0,0,0-.176-.074.243.243,0,0,0-.247.237c0,.134-.012.269-.017.4a2.366,2.366,0,0,1-.1-.645,2.229,2.229,0,0,1,1.117-1.87.666.666,0,0,0,.372.258c.709.2,2.349.8,2.27,2.189a1.889,1.889,0,0,1-1.9,1.584,1.613,1.613,0,0,1-.278-.024,1.7,1.7,0,0,1-1.013-.629c.015-.417.032-.835.046-1.254A.236.236,0,0,0-548.026,1978.689Zm-2.522-.081a4.285,4.285,0,0,0,1.959,3.666c-.683,16.564-2.2,33.438-4.53,50.22-.555,3.987-1.2,8.236-2.058,13.6a65.364,65.364,0,0,1-6.688-1.14c1.408-6.463,2.616-12.864,3.685-18.8a5.936,5.936,0,0,0,.674-.209c-.158.9-.309,1.8-.471,2.7-.859,4.769-1.8,9.594-2.693,14.128l-.016.079.059.093a.213.213,0,0,0,.164.077.2.2,0,0,0,.2-.16c1.24-5.6,2.376-11.325,3.418-17.218a5.5,5.5,0,0,0,2.94-4.329,7.215,7.215,0,0,0-1.431-4.749c1.2-7.683,2.252-15.669,3.172-24.055.524-4.783.99-9.6,1.385-14.316a.225.225,0,0,0-.057-.171.23.23,0,0,0-.168-.072.234.234,0,0,0-.129.049q.084-.755.166-1.511a2.028,2.028,0,0,0,.008-.2c0-.1,0-.331.049-.37a.42.42,0,0,1,.2.073c.407.231.353,1.015.188,1.364l-.065.138.129.08.031.019.035.022A3.848,3.848,0,0,0-550.548,1978.607Zm-18.083,69.818a1.352,1.352,0,0,1,.184-.031C-568.509,2048.4-568.57,2048.416-568.632,2048.425Zm5.9.4a19.252,19.252,0,0,1,3.323.7,14.893,14.893,0,0,0-2.485-.208c-.32,0-.639.014-.958.036C-562.813,2049.175-562.775,2049-562.735,2048.82Zm5.477-52.78c-.144,1.149-.284,2.3-.436,3.444q-1.943,8.786-3.828,17.354a4.567,4.567,0,0,0-1.187.65c.044-.241.087-.484.131-.725.691-3.834,1.405-7.8,2.163-11.675,1.308-6.691,2.509-12.06,3.781-16.9.059-.225.119-.46.179-.689Q-556.806,1991.781-557.258,1996.041Zm3.387,56.149a.266.266,0,0,0,.176-.221c0-.006,0-.01,0-.016.546-.1,1.084-.216,1.611-.359a.229.229,0,0,0,.17-.254.241.241,0,0,0-.237-.207h-.012l-.024,0c-.737.119-1.44.208-2.129.284a14.611,14.611,0,0,0-3.821-1.623.216.216,0,0,0,.038-.095.219.219,0,0,0-.15-.246,20.017,20.017,0,0,0-4.374-1.114q.135-.592.267-1.183a51.717,51.717,0,0,0,12.59,1.456,70.657,70.657,0,0,0,14.3-1.51c14.008-2.948,22.657-8.3,25.708-15.916a.944.944,0,0,0,.061-.476,3.536,3.536,0,0,1,.575-.053,3.038,3.038,0,0,1,1.521.406,3.082,3.082,0,0,1,1.53,1.934,4.515,4.515,0,0,1-.645,3.433c-1.508,2.468-4.482,3.937-7.106,5.233-.31.153-.614.3-.91.452a97.461,97.461,0,0,1-21.092,7.645,102.574,102.574,0,0,1-19.029,2.726C-554.524,2052.393-554.191,2052.3-553.871,2052.189Z" transform="translate(-21.518 -9.969)" fill="#9044e2"/>
    <path id="Path_2376" data-name="Path 2376" d="M-424.085,1950.612a4.907,4.907,0,0,0-.622-1.049.342.342,0,0,0-.057-.185.368.368,0,0,0-.2-.129c-1.3-1.461-3.539-2.21-6.7-2.21a29.133,29.133,0,0,0-3.754.275,27.635,27.635,0,0,0-13.25,5.518c-4.2,3.236-6.095,6.83-5.779,10.984a13.585,13.585,0,0,0,2.858,7.263l-.342.19-.035-.04-.11.12-.061.035-.083.046h0a13.994,13.994,0,0,0-3.425,3.164,14.048,14.048,0,0,0-2.547,4.332.215.215,0,0,0,.031.2.238.238,0,0,0,.191.1.218.218,0,0,0,.194-.119,22.511,22.511,0,0,1,2.444-4.05,16.656,16.656,0,0,1,1.717-1.842c.08-.074.162-.146.245-.216a.2.2,0,0,0,.1-.046c.139-.118.281-.244.424-.37l.1-.089.175-.136c.224-.173.454-.351.677-.537l.012.013.109-.114.007-.006.132-.113-.055-.061a.247.247,0,0,0-.016-.094l.214-.239c.153.2.308.391.467.578a40.221,40.221,0,0,0-4.051,4.171,27.481,27.481,0,0,0-3.685,5.313.24.24,0,0,0,.01.235.243.243,0,0,0,.205.116.236.236,0,0,0,.2-.106c.348-.5.687-1,1.026-1.507.8-1.192,1.629-2.425,2.567-3.562a39.076,39.076,0,0,1,4.09-4.247c.091.1.182.2.274.3a40.6,40.6,0,0,0-3.7,3.917,26.049,26.049,0,0,0-3.417,4.966.252.252,0,0,0,.011.245.247.247,0,0,0,.207.116.242.242,0,0,0,.2-.106c.41-.574.808-1.166,1.193-1.739.671-1,1.366-2.033,2.14-2.992a39.635,39.635,0,0,1,3.751-4.009,20.485,20.485,0,0,0,1.628,1.46,8.943,8.943,0,0,0-4.088,4.562,14.73,14.73,0,0,0-2.883,6.141.262.262,0,0,0,.056.216.266.266,0,0,0,.2.094.24.24,0,0,0,.233-.179,19.071,19.071,0,0,1,1.717-4.1,11.212,11.212,0,0,0-.115,3.91c.014.088.037.175.053.262-.188.016-.375.025-.563.046a.237.237,0,0,0-.219.2.275.275,0,0,0,.155.3l.788.345.05.022a10.508,10.508,0,0,0,.461,1.312.267.267,0,0,0-.259.241.241.241,0,0,0,.063.188l-.01.055.173.025h0l.021,0h0l.279.058a13.5,13.5,0,0,0,9.326,7.013,9.413,9.413,0,0,0,1.822.188,6.99,6.99,0,0,0,1.252-.115,10.657,10.657,0,0,1-3.691,1.419c-.375-.021-.75-.04-1.117-.057-1.051-.051-2.069-.1-3.087-.207a9.873,9.873,0,0,1-2.023-.894.574.574,0,0,0-.173-.132,17.969,17.969,0,0,1-7.734-6.656c.11-.059.216-.125.327-.182a.241.241,0,0,0,.129-.276.25.25,0,0,0-.241-.2.249.249,0,0,0-.111.027c-.119.058-.229.127-.346.188-.091-.168-.183-.335-.267-.51q.407-.285.828-.562a.231.231,0,0,0,.1-.262.229.229,0,0,0-.217-.17h-.048l-.07.033c-.271.169-.533.342-.794.516a12.882,12.882,0,0,1-1-3.6c-.638-5.039,1.743-10.06,6.37-13.432a.526.526,0,0,0,.188-.606.638.638,0,0,0-.576-.449.536.536,0,0,0-.27.074,15.182,15.182,0,0,0-7.276,14.083,14.841,14.841,0,0,0,1.238,4.865,19.748,19.748,0,0,0-4.211,4.184.22.22,0,0,0-.018.23.238.238,0,0,0,.209.133.216.216,0,0,0,.162-.073c.22-.237.437-.476.655-.715.687-.754,1.4-1.533,2.174-2.232.4-.355.816-.7,1.247-1.043.057.119.117.237.177.354a15.732,15.732,0,0,0-2.558,2.072,13.421,13.421,0,0,0-2.633,3.483,5.925,5.925,0,0,0-.724,1.606.224.224,0,0,0,.04.194.228.228,0,0,0,.176.086.215.215,0,0,0,.185-.105c.143-.232.28-.464.417-.7a13.015,13.015,0,0,1,1.874-2.634,10.828,10.828,0,0,1,3.308-2.283.249.249,0,0,0,.148-.284.268.268,0,0,0-.26-.216.269.269,0,0,0-.112.024,11.14,11.14,0,0,0-1.842,1.01,15.888,15.888,0,0,1,2.228-1.8,15.543,15.543,0,0,0,.895,1.432s-.005,0-.009,0a.279.279,0,0,0-.167.055,27.464,27.464,0,0,0-5.437,5.31.268.268,0,0,0-.026.284.289.289,0,0,0,.254.164.261.261,0,0,0,.145-.045c.79-.515,1.518-1.017,2.2-1.518q-.6.742-1.118,1.478a.275.275,0,0,0-.016.287.288.288,0,0,0,.25.158.267.267,0,0,0,.14-.041c.646-.394,1.287-.822,1.917-1.277-.274.372-.535.753-.781,1.138a.271.271,0,0,0-.01.28.288.288,0,0,0,.248.151.265.265,0,0,0,.186-.077q.637-.609,1.307-1.175a18.507,18.507,0,0,0-2.767,3.573.236.236,0,0,0,0,.237.24.24,0,0,0,.2.116.242.242,0,0,0,.188-.093c.3-.369.587-.743.877-1.118.358-.462.728-.929,1.108-1.391-1.065,1.63-2.018,3.281-2.876,4.835-.053-.565-.109-1.129-.171-1.691-.011-.1-.019-.2-.028-.3a2.261,2.261,0,0,0-.764-1.853,1.861,1.861,0,0,0-1.106-.319c-1.386,0-3.179,1.052-4.365,1.748l-.254.149c.226-.407.45-.815.668-1.216a44.47,44.47,0,0,1,2.421-4.1,43.048,43.048,0,0,1,4.874-5.781c.283-.135.559-.294.858-.473a.458.458,0,0,0,.22-.526.46.46,0,0,0-.215-.278v0a.5.5,0,0,0-.458-.314.5.5,0,0,0-.316.115c-4.992,3.964-8.662,9.125-9.817,13.807a.468.468,0,0,0,.085.4.486.486,0,0,0,.377.189.433.433,0,0,0,.372-.217c.085-.138.162-.282.245-.422a.8.8,0,0,0,.716.46.876.876,0,0,0,.3-.053,10.055,10.055,0,0,0,.932-.437,8.788,8.788,0,0,1,3.045-1.118.664.664,0,0,1,.555.205,7.144,7.144,0,0,1,.158,1.609c.006.2.012.359.02.441q.147,1.43.291,2.852a.8.8,0,0,0,.825.663.732.732,0,0,0,.67-.381c1.389-2.695,3.022-5.271,4.6-7.763.763-1.2,1.543-2.444,2.3-3.695a12.261,12.261,0,0,0,4.854,2.4.252.252,0,0,0,.166.14q.878.225,1.745.432a10.255,10.255,0,0,0,4.077.835,10.483,10.483,0,0,0,1.083-.058c.147,0,.295.013.441.013.445,0,.88-.021,1.292-.062a.416.416,0,0,0,.382-.415,8.185,8.185,0,0,0,3.75-2.54.43.43,0,0,0,.063-.471.517.517,0,0,0-.157-.183,3.171,3.171,0,0,0,.343-.421c.943-1.406.63-3.281-.881-5.281a13.971,13.971,0,0,0-11.144-5.374,14.668,14.668,0,0,0-2.189.165.913.913,0,0,0-.183.048,9.578,9.578,0,0,1,4.261-8.062c.125.09.248.176.37.26a15.451,15.451,0,0,0,12.323,6.236,12.272,12.272,0,0,0,1.665-.111,6.164,6.164,0,0,0,5.093-3.528,7.948,7.948,0,0,0-1.123-7.585,16.809,16.809,0,0,0-13.313-6.711,12.846,12.846,0,0,0-3.8.552,10.783,10.783,0,0,1,1.369-2.178,12.279,12.279,0,0,1,9.766-4.492,16.466,16.466,0,0,1,6.793,1.524.584.584,0,0,0,.246.055.757.757,0,0,0,.685-.661,32.784,32.784,0,0,1,1.842-6.5c.161-.448.322-.915.483-1.378a5.176,5.176,0,0,1,.341.419.318.318,0,0,0,.262.143.369.369,0,0,0,.3-.17A.36.36,0,0,0-424.085,1950.612Zm-18.22,25.108c.269.021.533.032.785.032,2.006,0,3.238-.663,3.564-1.919.447-1.724-.87-3.556-2.4-4.332a8.714,8.714,0,0,0-3.812-.86,6.4,6.4,0,0,0-2.6.5.548.548,0,0,0-.343.585.694.694,0,0,0,.559.583,7.126,7.126,0,0,0,1.267.094c.2,0,.411,0,.616-.009s.407-.009.611-.009a7.852,7.852,0,0,1,.983.052c1.427.177,3.611.965,3.785,2.405a1.4,1.4,0,0,1-.292,1.143,3.046,3.046,0,0,1-2.194.664,8.522,8.522,0,0,1-1.835-.209,8.053,8.053,0,0,1-2.6-1.16,10.457,10.457,0,0,1-.535-7.7.853.853,0,0,0,.571.232c.023,0,.046,0,.07,0,1.025-.091,2.232-.185,3.409-.185a15.264,15.264,0,0,1,5.364.872,13.816,13.816,0,0,1,7.041,5.344,5.921,5.921,0,0,1,.745,5.289,4.3,4.3,0,0,1-3.219,2.472,7.983,7.983,0,0,1-1.783.189,16.792,16.792,0,0,1-7.441-2.107,9.831,9.831,0,0,1-3.24-2.793A7.615,7.615,0,0,0-442.3,1975.72Zm-6.149-3.352a15.463,15.463,0,0,1-4.144-7.656c-.682-3.993.911-7.375,5.012-10.645a26.066,26.066,0,0,1,10.512-5,26.833,26.833,0,0,1,5.795-.741,8.74,8.74,0,0,1,5.564,1.556,22.466,22.466,0,0,0-2.831,7.481,16.243,16.243,0,0,0-6.657-1.456,14.112,14.112,0,0,0-8.3,2.61A12.582,12.582,0,0,0-448.454,1972.368Zm5.085,20.934a11.032,11.032,0,0,0-5.765-3.629,10.635,10.635,0,0,1-.879-1.165c1.683.35,3.4.7,5.108.988l.014,0h.025a.236.236,0,0,0,.233-.218.233.233,0,0,0-.177-.259c-.892-.206-1.792-.4-2.683-.579l.044,0c.226.012.451.021.677.027.84.029,1.76.045,2.8.052l.02.005.039,0c.007,0,.012-.006.018-.007h.149a.236.236,0,0,0,.237-.194.238.238,0,0,0-.153-.269c-.579-.226-1.187-.43-1.814-.611.523-.072,1.05-.165,1.577-.28a.243.243,0,0,0,.181-.167.237.237,0,0,0-.057-.235,7.324,7.324,0,0,0-2.955-1.889,12.318,12.318,0,0,1,5.9,2.989c.958.881,2.676,2.922,2.324,4.345-.15.606-.684,1.034-1.589,1.273a4.7,4.7,0,0,1-1.193.147A7.538,7.538,0,0,1-443.368,1993.3Zm-7.475-8.108c0-.121,0-.125.166-.143l.1-.012a7.106,7.106,0,0,1,1.028-.079h.042a7.6,7.6,0,0,1,1.952.25,7.8,7.8,0,0,1,2.406,1.1A15.955,15.955,0,0,0-450.844,1985.195Zm.225.89.028.01.052,0a.23.23,0,0,0,.226-.191.234.234,0,0,0-.018-.126c.3.021.594.042.885.074a30.472,30.472,0,0,1,3.978.814l.2.05.02,0,.035,0a.216.216,0,0,0,.211-.177.205.205,0,0,0-.1-.209c.222.152.443.311.657.487a12.174,12.174,0,0,1-2.011.365c-.638-.154-1.3-.278-1.977-.386-.836-.187-1.741-.377-2.67-.515-.064-.183-.128-.365-.181-.551l.2,0A1.1,1.1,0,0,0-450.619,1986.085Zm2.637,1.541q.288,0,.574-.01c.669.166,1.334.34,1.988.518-.185,0-.369.008-.555.008-.262,0-.524,0-.786-.011-.224-.007-.447-.016-.67-.026-.963-.048-1.967-.151-2.995-.293-.074-.136-.147-.273-.216-.411A16,16,0,0,0-447.982,1987.626Zm-3.355-2.823a1.217,1.217,0,0,0-.009.371l-.067,0h-.012c-.033-.147-.08-.29-.106-.439a.836.836,0,0,0,.216.027C-451.32,1984.775-451.334,1984.787-451.337,1984.8Zm-6.945,7.9c.3-.277.585-.56.865-.844.143.171.289.34.439.5a22.4,22.4,0,0,0-1.86,1.856,23.116,23.116,0,0,1-2.1,1.511C-460.03,1994.611-459.156,1993.615-458.282,1992.705Zm1.717.087c.092.093.185.185.279.275-.2.231-.4.461-.591.7-.746.521-1.471,1.046-2.16,1.589.4-.495.812-.971,1.239-1.425C-457.387,1993.57-456.975,1993.186-456.565,1992.793Zm-1.205-1.37c-.63.595-1.235,1.194-1.79,1.787a23.247,23.247,0,0,1-2.716,2.09,28.305,28.305,0,0,1,4.269-3.932.271.271,0,0,0,.1-.131C-457.863,1991.3-457.818,1991.361-457.771,1991.422Z" transform="translate(-57.864 -3.902)" fill="#9044e2"/>
    <path id="Path_2377" data-name="Path 2377" d="M-450.285,1996.086a20.74,20.74,0,0,1,2.693-5.019,17.248,17.248,0,0,1,4.255-3.986.28.28,0,0,0,.114-.317.261.261,0,0,0-.246-.193.262.262,0,0,0-.143.044,16.829,16.829,0,0,0-7.115,9.336.231.231,0,0,0,.04.2.236.236,0,0,0,.186.091A.229.229,0,0,0-450.285,1996.086Z" transform="translate(-64.253 -16.471)" fill="#9044e2"/>
  </g>
</svg>
