<svg width="36" height="36" viewBox="0 0 36 36" fill="none" xmlns="http://www.w3.org/2000/svg">
<g clip-path="url(#clip0_108_3977)">
<mask id="mask0_108_3977" style="mask-type:luminance" maskUnits="userSpaceOnUse" x="0" y="0" width="36" height="36">
<path d="M0 0H36V36H0V0Z" fill="white"/>
</mask>
<g mask="url(#mask0_108_3977)">
<path d="M12 15V21M9 18H15" stroke="#FFCC41" stroke-width="2.25" stroke-linecap="round"/>
<path d="M24 15.75C24 16.1478 23.842 16.5294 23.5607 16.8107C23.2794 17.092 22.8978 17.25 22.5 17.25C22.1022 17.25 21.7206 17.092 21.4393 16.8107C21.158 16.5294 21 16.1478 21 15.75C21 15.3522 21.158 14.9706 21.4393 14.6893C21.7206 14.408 22.1022 14.25 22.5 14.25C22.8978 14.25 23.2794 14.408 23.5607 14.6893C23.842 14.9706 24 15.3522 24 15.75ZM27 20.25C27 20.6478 26.842 21.0294 26.5607 21.3107C26.2794 21.592 25.8978 21.75 25.5 21.75C25.1022 21.75 24.7206 21.592 24.4393 21.3107C24.158 21.0294 24 20.6478 24 20.25C24 19.8522 24.158 19.4706 24.4393 19.1893C24.7206 18.908 25.1022 18.75 25.5 18.75C25.8978 18.75 26.2794 18.908 26.5607 19.1893C26.842 19.4706 27 19.8522 27 20.25Z" fill="#FFCC41"/>
<path d="M18 6V4.5C18 4.10218 18.158 3.72064 18.4393 3.43934C18.7206 3.15804 19.1022 3 19.5 3H21C21.3978 3 21.7794 2.84196 22.0607 2.56066C22.342 2.27936 22.5 1.89782 22.5 1.5V0" stroke="#FFCC41" stroke-width="2.25" stroke-linecap="round"/>
<path d="M3 18C3 13.8 3 11.7 3.8175 10.095C4.53654 8.68385 5.68385 7.53654 7.095 6.8175C8.7 6 10.8 6 15 6H21C25.2 6 27.3 6 28.905 6.8175C30.3162 7.53654 31.4635 8.68385 32.1825 10.095C33 11.7 33 13.8 33 18C33 22.2 33 24.3 32.1825 25.905C31.4635 27.3162 30.3162 28.4635 28.905 29.1825C27.3 30 25.2 30 21 30H15C10.8 30 8.7 30 7.095 29.1825C5.68385 28.4635 4.53654 27.3162 3.8175 25.905C3 24.3 3 22.2 3 18Z" stroke="#FFCC41" stroke-width="2.25"/>
</g>
</g>
<defs>
<clipPath id="clip0_108_3977">
<rect width="36" height="36" fill="white"/>
</clipPath>
</defs>
</svg>
