<svg width="36" height="36" viewBox="0 0 36 36" fill="none" xmlns="http://www.w3.org/2000/svg">
<path fill-rule="evenodd" clip-rule="evenodd" d="M3.37533 17.82C3.36033 18.0855 3.39783 18.405 3.47283 19.047L4.07433 24.189C4.30996 26.2026 5.27682 28.0596 6.79131 29.4073C8.30581 30.7551 10.2625 31.4998 12.2898 31.5H17.7108C19.3039 31.4999 20.863 31.0398 22.2009 30.175C23.5388 29.3102 24.5986 28.0775 25.2528 26.625H28.5003C29.9922 26.625 31.4229 26.0324 32.4778 24.9775C33.5327 23.9226 34.1253 22.4918 34.1253 21C34.1253 19.5081 33.5327 18.0774 32.4778 17.0225C31.4229 15.9676 29.9922 15.375 28.5003 15.375H25.0818C24.7931 15.2146 24.4799 15.1031 24.1548 15.045C23.8938 15 23.5698 15 22.9248 15H7.07583C6.43083 15 6.10833 15 5.84733 15.045C5.18394 15.1631 4.57961 15.501 4.13172 16.0044C3.68382 16.5078 3.41844 17.1474 3.37833 17.82H3.37533ZM26.6058 17.625C26.6133 17.6895 26.6208 17.7555 26.6238 17.82C26.6388 18.0855 26.6028 18.405 26.5278 19.047L25.9263 24.189L25.9023 24.375H28.5003C29.3954 24.375 30.2539 24.0194 30.8868 23.3865C31.5197 22.7535 31.8753 21.8951 31.8753 21C31.8753 20.1049 31.5197 19.2464 30.8868 18.6135C30.2539 17.9806 29.3954 17.625 28.5003 17.625H26.6058ZM15.7953 2.20499C16.006 2.41592 16.1243 2.70186 16.1243 2.99999C16.1243 3.29811 16.006 3.58405 15.7953 3.79499C15.6088 3.98222 15.5041 4.23572 15.5041 4.49999C15.5041 4.76425 15.6088 5.01775 15.7953 5.20499C16.4039 5.81371 16.7458 6.63923 16.7458 7.49999C16.7458 8.36075 16.4039 9.18627 15.7953 9.79499C15.5821 9.99371 15.3 10.1019 15.0085 10.0967C14.7171 10.0916 14.439 9.97354 14.2329 9.76742C14.0268 9.5613 13.9087 9.28322 13.9036 8.99177C13.8984 8.70032 14.0066 8.41825 14.2053 8.20499C14.5953 7.81499 14.5953 7.18499 14.2053 6.79499C13.5968 6.18627 13.2549 5.36075 13.2549 4.49999C13.2549 3.63923 13.5968 2.81371 14.2053 2.20499C14.4163 1.99431 14.7022 1.87598 15.0003 1.87598C15.2985 1.87598 15.5844 1.99431 15.7953 2.20499ZM9.04533 4.45499C9.25601 4.66592 9.37434 4.95186 9.37434 5.24999C9.37434 5.54811 9.25601 5.83405 9.04533 6.04499L8.87133 6.21899C8.69464 6.39551 8.58763 6.62991 8.56999 6.87905C8.55235 7.12819 8.62527 7.37533 8.77533 7.57499C9.24996 8.20797 9.48032 8.99093 9.4241 9.7801C9.36789 10.5693 9.02888 11.3117 8.46933 11.871L8.29533 12.045C8.08207 12.2437 7.8 12.3519 7.50855 12.3467C7.21709 12.3416 6.93902 12.2235 6.7329 12.0174C6.52678 11.8113 6.40871 11.5332 6.40357 11.2418C6.39842 10.9503 6.50661 10.6682 6.70533 10.455L6.87933 10.281C7.05602 10.1045 7.16303 9.87006 7.18067 9.62092C7.19831 9.37178 7.12539 9.12465 6.97533 8.92499C6.5007 8.292 6.27034 7.50904 6.32655 6.71988C6.38277 5.93071 6.72177 5.18831 7.28133 4.62899L7.45533 4.45499C7.66627 4.24431 7.9522 4.12598 8.25033 4.12598C8.54846 4.12598 8.83439 4.24431 9.04533 4.45499ZM23.2953 4.45499C23.506 4.66592 23.6243 4.95186 23.6243 5.24999C23.6243 5.54811 23.506 5.83405 23.2953 6.04499L23.1213 6.21899C22.9446 6.39551 22.8376 6.62991 22.82 6.87905C22.8023 7.12819 22.8753 7.37533 23.0253 7.57499C23.5 8.20797 23.7303 8.99093 23.6741 9.7801C23.6179 10.5693 23.2789 11.3117 22.7193 11.871L22.5453 12.045C22.4423 12.1555 22.3181 12.2442 22.1801 12.3057C22.0421 12.3671 21.8932 12.4002 21.7421 12.4029C21.5911 12.4055 21.441 12.3778 21.3009 12.3212C21.1608 12.2646 21.0336 12.1804 20.9268 12.0735C20.8199 11.9667 20.7357 11.8395 20.6791 11.6994C20.6226 11.5593 20.5948 11.4093 20.5974 11.2582C20.6001 11.1071 20.6332 10.9582 20.6947 10.8202C20.7561 10.6822 20.8448 10.558 20.9553 10.455L21.1293 10.281C21.306 10.1045 21.413 9.87006 21.4307 9.62092C21.4483 9.37178 21.3754 9.12465 21.2253 8.92499C20.7507 8.292 20.5203 7.50904 20.5766 6.71988C20.6328 5.93071 20.9718 5.18831 21.5313 4.62899L21.7053 4.45499C21.9163 4.24431 22.2022 4.12598 22.5003 4.12598C22.7985 4.12598 23.0844 4.24431 23.2953 4.45499Z" fill="#7BBDFF"/>
</svg>
