<svg width="36" height="36" viewBox="0 0 36 36" fill="none" xmlns="http://www.w3.org/2000/svg">
<path d="M3.75 30.7559H2.25V33.7559H3.75V30.7559ZM5.25 27.7559H3.75V30.7559H5.25V27.7559ZM6.75 24.7544H5.25V27.7559L6.75 27.7544V24.7544ZM8.25 23.2544H6.75V24.7544H8.25V23.2544ZM9.7515 21.7544H8.2515L8.25 23.2544H9.7515V21.7544ZM11.2515 20.2544H9.7515V21.7544H11.2515V20.2544ZM12.753 18.7529H11.253V20.2529H12.753V18.7529ZM23.2545 18.7529H21.7545V20.2529H23.2545V18.7529ZM24.7545 20.2544H23.2545V21.7544H24.7545V20.2544ZM26.256 21.7544H24.7545L24.756 23.2544H26.256V21.7544ZM27.756 23.2544H26.256V24.7544H27.756V23.2544ZM29.256 24.7544H27.756V27.7544H29.256V24.7544ZM30.756 27.7559L29.256 27.7544V30.7559H30.756V27.7559ZM32.2575 30.7559H30.756L30.7575 33.7559H32.2575V30.7559ZM30.756 33.7574L3.75 33.7559V35.2574H30.756V33.7574Z" fill="#46D48A"/>
<path d="M27.756 30.7575V27.7575H26.256V24.756H24.756V23.256H23.256V21.756H21.7545V20.2545H17.2545V21.7545H15.7545V23.2545H9.75V24.7545H8.25V27.756H6.75V30.756H5.25V32.256H29.2545V30.756L27.756 30.7575ZM11.25 26.256H14.25V29.256H11.25V26.256ZM17.2515 24.756H18.7515V26.256H17.2515V24.756ZM21.7545 5.25H20.2545V18.753H21.7545V5.25ZM14.253 5.25H12.753V18.753H14.253V5.25ZM23.2545 3.75H21.7545V5.25H23.2545V3.75ZM12.753 3.75H11.253V5.25H12.753V3.75ZM21.7545 2.25H12.753V3.75H21.7545V2.25Z" fill="#46D48A"/>
</svg>
