<svg width="36" height="36" viewBox="0 0 36 36" fill="none" xmlns="http://www.w3.org/2000/svg">
<path fill-rule="evenodd" clip-rule="evenodd" d="M18.6233 6.93891C18.4386 6.81604 18.2218 6.75049 18 6.75049C17.7782 6.75049 17.5614 6.81604 17.3768 6.93891L10.9102 11.2499H2.25V13.4999H4.6485L6.76125 28.2824C6.7992 28.5508 6.93277 28.7965 7.13739 28.9742C7.34202 29.152 7.60395 29.2499 7.875 29.2499H28.125C28.3961 29.2499 28.658 29.152 28.8626 28.9742C29.0672 28.7965 29.2008 28.5508 29.2387 28.2824L31.3515 13.4999H33.75V11.2499H25.0898L18.6233 6.93891ZM18 9.22716L21.0352 11.2499H14.9625L18 9.22716ZM12.375 23.6249V16.8749H14.625V23.6249H12.375ZM16.875 23.6249V16.8749H19.125V23.6249H16.875ZM21.375 16.8749V23.6249H23.625V16.8749H21.375Z" fill="#B7B7B7"/>
</svg>
