<svg width="30" height="31" viewBox="0 0 30 31" fill="none" xmlns="http://www.w3.org/2000/svg">
<path fill-rule="evenodd" clip-rule="evenodd" d="M6.83333 14.521C6.38026 14.521 5.94573 14.701 5.62536 15.0214C5.30498 15.3417 5.125 15.7763 5.125 16.2293V17.9377C5.125 18.3907 5.30498 18.8253 5.62536 19.1456C5.94573 19.466 6.38026 19.646 6.83333 19.646H8.54167C8.99474 19.646 9.42927 19.466 9.74964 19.1456C10.07 18.8253 10.25 18.3907 10.25 17.9377V16.2293C10.25 15.7763 10.07 15.3417 9.74964 15.0214C9.42927 14.701 8.99474 14.521 8.54167 14.521H6.83333ZM6.83333 16.2293V17.9377H8.54167V16.2293H6.83333ZM11.9583 16.2293C11.9583 15.7763 12.1383 15.3417 12.4587 15.0214C12.7791 14.701 13.2136 14.521 13.6667 14.521H15.375C15.8281 14.521 16.2626 14.701 16.583 15.0214C16.9033 15.3417 17.0833 15.7763 17.0833 16.2293V17.9377C17.0833 18.3907 16.9033 18.8253 16.583 19.1456C16.2626 19.466 15.8281 19.646 15.375 19.646H13.6667C13.2136 19.646 12.7791 19.466 12.4587 19.1456C12.1383 18.8253 11.9583 18.3907 11.9583 17.9377V16.2293ZM13.6667 16.2293H15.375V17.9377H13.6667V16.2293ZM20.5 14.521C20.0469 14.521 19.6124 14.701 19.292 15.0214C18.9717 15.3417 18.7917 15.7763 18.7917 16.2293V17.9377C18.7917 18.3907 18.9717 18.8253 19.292 19.1456C19.6124 19.466 20.0469 19.646 20.5 19.646H22.2083C22.6614 19.646 23.0959 19.466 23.4163 19.1456C23.7367 18.8253 23.9167 18.3907 23.9167 17.9377V16.2293C23.9167 15.7763 23.7367 15.3417 23.4163 15.0214C23.0959 14.701 22.6614 14.521 22.2083 14.521H20.5ZM20.5 16.2293V17.9377H22.2083V16.2293H20.5ZM5.125 23.0627C5.125 22.6096 5.30498 22.1751 5.62536 21.8547C5.94573 21.5343 6.38026 21.3543 6.83333 21.3543H8.54167C8.99474 21.3543 9.42927 21.5343 9.74964 21.8547C10.07 22.1751 10.25 22.6096 10.25 23.0627V24.771C10.25 25.2241 10.07 25.6586 9.74964 25.979C9.42927 26.2993 8.99474 26.4793 8.54167 26.4793H6.83333C6.38026 26.4793 5.94573 26.2993 5.62536 25.979C5.30498 25.6586 5.125 25.2241 5.125 24.771V23.0627ZM6.83333 24.771V23.0627H8.54167V24.771H6.83333ZM13.6667 21.3543C13.2136 21.3543 12.7791 21.5343 12.4587 21.8547C12.1383 22.1751 11.9583 22.6096 11.9583 23.0627V24.771C11.9583 25.2241 12.1383 25.6586 12.4587 25.979C12.7791 26.2993 13.2136 26.4793 13.6667 26.4793H15.375C15.8281 26.4793 16.2626 26.2993 16.583 25.979C16.9033 25.6586 17.0833 25.2241 17.0833 24.771V23.0627C17.0833 22.6096 16.9033 22.1751 16.583 21.8547C16.2626 21.5343 15.8281 21.3543 15.375 21.3543H13.6667ZM15.375 23.0627H13.6667V24.771H15.375V23.0627ZM18.7917 23.0627C18.7917 22.6096 18.9717 22.1751 19.292 21.8547C19.6124 21.5343 20.0469 21.3543 20.5 21.3543H22.2083C22.6614 21.3543 23.0959 21.5343 23.4163 21.8547C23.7367 22.1751 23.9167 22.6096 23.9167 23.0627V24.771C23.9167 25.2241 23.7367 25.6586 23.4163 25.979C23.0959 26.2993 22.6614 26.4793 22.2083 26.4793H20.5C20.0469 26.4793 19.6124 26.2993 19.292 25.979C18.9717 25.6586 18.7917 25.2241 18.7917 24.771V23.0627ZM20.5 24.771V23.0627H22.2083V24.771H20.5Z" fill="#8F44E1"/>
<path fill-rule="evenodd" clip-rule="evenodd" d="M7.6875 0C7.46096 0 7.2437 0.0899925 7.08351 0.25018C6.92332 0.410367 6.83333 0.627628 6.83333 0.854167V3.41667H3.41667C2.51051 3.41667 1.64147 3.77664 1.00072 4.41739C0.359969 5.05813 0 5.92718 0 6.83333V27.3333C0 28.2395 0.359969 29.1085 1.00072 29.7493C1.64147 30.39 2.51051 30.75 3.41667 30.75H25.625C26.5312 30.75 27.4002 30.39 28.0409 29.7493C28.6817 29.1085 29.0417 28.2395 29.0417 27.3333V6.83333C29.0417 5.92718 28.6817 5.05813 28.0409 4.41739C27.4002 3.77664 26.5312 3.41667 25.625 3.41667H23.9167V5.97917C23.9167 6.20571 23.8267 6.42297 23.6665 6.58315C23.5063 6.74334 23.289 6.83333 23.0625 6.83333C22.836 6.83333 22.6187 6.74334 22.4585 6.58315C22.2983 6.42297 22.2083 6.20571 22.2083 5.97917V0.854167C22.2083 0.627628 22.1183 0.410367 21.9582 0.25018C21.798 0.0899925 21.5807 0 21.3542 0C21.1276 0 20.9104 0.0899925 20.7502 0.25018C20.59 0.410367 20.5 0.627628 20.5 0.854167V3.41667H10.25V5.97917C10.25 6.20571 10.16 6.42297 9.99982 6.58315C9.83963 6.74334 9.62237 6.83333 9.39583 6.83333C9.16929 6.83333 8.95203 6.74334 8.79184 6.58315C8.63166 6.42297 8.54167 6.20571 8.54167 5.97917V0.854167C8.54167 0.627628 8.45167 0.410367 8.29149 0.25018C8.1313 0.0899925 7.91404 0 7.6875 0ZM1.70833 27.3333V12.8125H27.3333V27.3333C27.3333 27.7864 27.1533 28.2209 26.833 28.5413C26.5126 28.8617 26.0781 29.0417 25.625 29.0417H3.41667C2.96359 29.0417 2.52907 28.8617 2.20869 28.5413C1.88832 28.2209 1.70833 27.7864 1.70833 27.3333Z" fill="#8F44E1"/>
</svg>
