<svg xmlns="http://www.w3.org/2000/svg" width="148.356" height="142.568" viewBox="0 0 148.356 142.568">
  <g id="_4_science_2" data-name="4_science_2" transform="translate(2454.768 -1883.693)">
    <path id="Path_2008" data-name="Path 2008" d="M-2375.017,1991.354c1.623-1.393,3.155-2.635,3.543-4.75.1-.524.243-1.087,1.165-.851a6.531,6.531,0,0,1-1.581,4.156c-1.435,1.532-2.969,2.972-4.438,4.473a.865.865,0,0,0-.165.643c.091.654.242,1.3.393,2.064l2.318-.709.208.393a10.864,10.864,0,0,1-1.434.972c-.557.267-.99.483-.819,1.233.052.23-.171.523-.269.788-.234-.218-.62-.4-.674-.66-.268-1.277-.447-2.569-.657-3.856-.117-.718-.2-1.42-1.249-1.335-.175.014-.47-.578-.588-.931a37.314,37.314,0,0,0-1.505-4.574,2.888,2.888,0,0,0-4.036-1.153,1.9,1.9,0,0,0-1.156,1.965c.177,1.722.363,3.43,1.775,4.714.286.259.3.812.443,1.228,1.211-.18,1.959-1.556,3.252-1.553l.257.5-3.588,2.219,1.579,4.526,2.125-1.322.241.218-1.058,1.51c1.708,0,2.239-.657,1.98-2.255-.207-1.287-.352-2.584-.469-3.882-.022-.248.215-.518.333-.778.162.229.421.439.469.69.255,1.311.476,2.63.672,3.952a2.633,2.633,0,0,1-2.3,3.277c-.377.085-.759.157-1.14.221-1.382.235-1.594.021-1.9-1.338-.284-1.267-.724-2.5-1.1-3.748l-.256.071c.126.788.236,1.581.386,2.366.117.607.465,1.226-.323,1.674-.1.058-.137.427-.061.58.662,1.3.233,2.66.272,4a1.4,1.4,0,0,0,.568,1.068,33.361,33.361,0,0,0,3.56,1.287c.235.074.557-.126.838-.2l-.017-.275a4.553,4.553,0,0,0-.613-.274,2.171,2.171,0,0,1-1.651-1.474,4.561,4.561,0,0,0-.566-1.13c-.645-.963-.647-1.031.514-1.36,1.418-.4,2.847-.763,4.29-1.146a4.994,4.994,0,0,1-.206,5.166l1.292,1.1c.907-1.546,1.972-2.849,1.151-4.806a5.3,5.3,0,0,1,1.068-5.888,20.574,20.574,0,0,0,2.321-4.021c.793-1.526,1.642-2.916,3.4-3.573,1.871-.7,1.852-1.92,1.626-3.636-.068-.522-.276-1.026-.326-1.548-.02-.222.2-.468.312-.7.224.135.553.218.66.416a4.914,4.914,0,0,1-1.985,6.556,8.354,8.354,0,0,0-2.4,2.574c-.96,1.422-1.745,2.962-2.569,4.47a1.217,1.217,0,0,0-.01.786c.365,1.5.814,2.988,1.112,4.5a3.694,3.694,0,0,1-.114,2.045,2.137,2.137,0,0,0,.208,2.167,42.5,42.5,0,0,1,4.8,11.461,2.247,2.247,0,0,0,.361.758,3.818,3.818,0,0,1-.19,4.585,3.294,3.294,0,0,1-3.7,1.117c-.982-.251-1.256-.971-1.546-1.81-1.028-2.988-2.111-5.956-3.2-8.922-.3-.827-.666-1.632-1.042-2.428a6.459,6.459,0,0,0-.629-.9l-.3.11a25.361,25.361,0,0,0-.578,2.636,37.108,37.108,0,0,1-2.384,9.938c-.515,1.26-.948,1.566-2.321,1.52a7.005,7.005,0,0,1-.846-.044c-2.085-.334-3.6-1.371-2.384-3.991a18.628,18.628,0,0,0,1.282-6.164c.205-2.409.038-4.851.021-7.278,0-.207-.014-.5-.143-.6-1.017-.833-.565-1.913-.584-2.937a11.544,11.544,0,0,0-.347-2.382c-.141-.617-.3-1.152.341-1.607a.878.878,0,0,0,.214-.712c-.189-1.468-.39-2.937-.659-4.392a1.3,1.3,0,0,0-.634-.867c-2.164-.838-3.612-2.555-5.176-4.127-.846-.851-1.647-1.748-2.445-2.645a1.811,1.811,0,0,1-.442-1.039c2.577,1.647,4.409,4.152,7.052,6.064-.546-3.381-.984-6.527-1.608-9.635a3.349,3.349,0,0,0-1.447-1.856c-2.879-1.835-5.824-3.57-8.763-5.312-2.906-1.722-5.835-3.408-8.749-5.118a2.006,2.006,0,0,1-.707-.7c1.255-.427,1.956.612,2.877,1.016.96.421,1.88.935,2.816,1.409l.146-.234c-1.363-.865-2.711-1.754-4.093-2.587-2.716-1.636-5.477-3.2-8.168-4.87-2.873-1.787-5.737-3.595-8.51-5.529a64.44,64.44,0,0,1-6.858-5.314,6.15,6.15,0,0,0-3.905-1.7c-1.43-.128-2.842-.459-4.365-.526a10.079,10.079,0,0,0,.94.713c3.221,1.9,6.456,3.781,9.675,5.687,3.489,2.065,6.949,4.181,10.455,6.22,2.254,1.311,4.564,2.524,6.853,3.779.491.269.832.576.253,1.278-.614-.285-1.3-.537-1.915-.9q-12.568-7.33-25.113-14.7c-1.081-.64-2.35-1.2-2.591-2.716-.024-.146-.39-.245-.6-.356-2.027-1.065-4.145-1.992-6.048-3.245a14.305,14.305,0,0,1-2.738-3c-.142-.17-.033-.546-.039-.825.232.1.548.135.685.311a17.069,17.069,0,0,0,4.98,3.869,27.545,27.545,0,0,0,11.22,3.493c3.959.478,7.909,1.16,11.883,1.355,6.273.309,12.562.387,18.844.363,3.631-.015,7.265-.356,10.888-.66a148.813,148.813,0,0,0,43.463-10.391,92.816,92.816,0,0,0,13.065-6.493,69.837,69.837,0,0,0,14.767-11.978,1.447,1.447,0,0,0,.328-1.213c-2.125-5.521-3.679-11.358-7.416-16.077a56.327,56.327,0,0,0-18.593-15.471,44.5,44.5,0,0,0-7.158-2.53,63.546,63.546,0,0,0-7.554-2.023c-4.645-.824-9.332-1.418-14.006-2.07-5.017-.7-10.012.1-15.007.364a56.968,56.968,0,0,0-16.489,3.429c-3.47,1.264-7,2.407-10.362,3.909a50.672,50.672,0,0,0-21.3,17.237,61,61,0,0,0-6.447,10.775c-2.794,6.473-4.9,13.146-5.291,20.252a10.657,10.657,0,0,0,.189,1.727c-.8.258-.865-.354-.842-.837a46.149,46.149,0,0,1,.386-5.591c2.346-13.827,8.347-25.78,18.672-35.373a52.148,52.148,0,0,1,15.7-9.89,90.733,90.733,0,0,1,15.212-5.031,98.868,98.868,0,0,1,16.754-2.038,55.559,55.559,0,0,1,7.507-.149c4.348.4,8.7.924,12.99,1.741,7.565,1.443,15.013,3.375,21.646,7.513a67,67,0,0,1,12.676,10.861c4.075,4.252,6.212,9.531,8.334,14.847.521,1.309,1.07,2.612,1.513,3.95a1.94,1.94,0,0,1-.04,1.453,12.994,12.994,0,0,1-1.872,2.222c-1.2,1.179-2.414,2.347-3.7,3.421-1.918,1.6-3.9,3.122-5.867,4.658a23.065,23.065,0,0,0-3.671,2.843c-3.757,4.467-8.114,8.347-12.058,12.634-4.894,5.319-10.329,10.137-15.417,15.283-4.094,4.141-8.048,8.424-12,12.7a26.423,26.423,0,0,0-2.343,3.388,1.1,1.1,0,0,0-.135.587c.014,2.814.029,5.63.078,8.444A3.779,3.779,0,0,0-2375.017,1991.354Zm-55.437-37.691c.48.416.743.686,1.046.9,3.361,2.388,6.689,4.825,10.107,7.13,3.154,2.127,6.394,4.127,9.614,6.152,2.859,1.8,5.776,3.5,8.6,5.34,2.06,1.344,4,2.869,6.033,4.263.885.609,1.858,1.092,2.791,1.633-.8-.989-1.666-1.864-2.526-2.74-4.666-4.757-9.359-9.487-13.984-14.283-1.91-1.979-3.687-4.086-5.5-6.157a2.669,2.669,0,0,0-2.152-1.089c-1.62.007-3.247-.073-4.862-.216C-2424.25,1954.334-2427.212,1954-2430.454,1953.663Zm60.5-2.578c-2.534.529-4.953,1.126-7.407,1.51-1.44.226-2.18.681-2.472,2.277-.448,2.446-1.325,4.812-1.988,7.22a2.546,2.546,0,0,0-.058,1.24q1.944,7.682,3.95,15.348a7.184,7.184,0,0,0,.407.979,39.552,39.552,0,0,0,.229-4.792q.182-10.422.4-20.847a7.029,7.029,0,0,1,.241-1.235c.4.188.573.333.57.476q-.224,11.627-.476,23.254c1.067-4.213,1.9-8.45,2.963-12.628C-2372.525,1959.664-2371.224,1955.5-2369.958,1951.085Zm33.01-11.53-.219-.268c-.152.064-.307.123-.456.19q-5.773,2.628-11.545,5.267a1.542,1.542,0,0,0-.621.508,25.061,25.061,0,0,1-1.632,2.57c-1.805,2.124-3.817,4.079-5.532,6.268-3.069,3.913-6.013,7.926-8.946,11.943-2.023,2.774-3.939,5.626-5.9,8.445l.131.1Zm-51.484,40.24.23-.071c-.847-3.043-1.651-6.1-2.551-9.125-.893-3-1.9-5.969-2.826-8.957-.6-1.914-1.2-3.829-1.7-5.768-.265-1.022-.835-1.188-1.771-1.114-2.6.207-5.207.329-7.81.492-.223.014-.444.08-1.047.194C-2399.989,1963.7-2394.21,1971.744-2388.433,1979.795Zm29.321-31.511a2.833,2.833,0,0,0-.625.006c-2.781.775-5.565,1.541-8.328,2.372a1.478,1.478,0,0,0-.783.867q-1.209,3.595-2.318,7.222a114.338,114.338,0,0,0-3.851,15.9c-.077.494-.125.991-.187,1.488C-2369.556,1967.031-2365.234,1957.233-2359.112,1948.284Zm-24.407,60.435c0,.822-.05,1.508.008,2.185a25.569,25.569,0,0,1-1.542,12.442c-.113.267-.133.843-.027.89a16.278,16.278,0,0,0,2.484.891c.66.175,1.066-.248,1.254-.852.574-1.849,1.218-3.683,1.679-5.561.536-2.187.9-4.416,1.354-6.624.1-.467.261-.884.9-.759a4.583,4.583,0,0,0,3.108-.738,5.4,5.4,0,0,1,.811-.286l.194.325c-.5.372-1,.752-1.509,1.111-.614.432-.779.87-.094,1.375l1.715-.829.211.307-1.646,1.7.207.181,2.03-.844.189.37c-.289.222-.563.467-.869.661-1.08.684-1.115.93-.266,1.987l1.7-.706.241.41a4.254,4.254,0,0,1-1.038.855c-.623.235-.7.469-.469,1.092.727,1.974,1.327,4,2.073,5.962a1.71,1.71,0,0,0,1.127.869c1.274.231,2.268-.661,2.538-2.243a3.05,3.05,0,0,0-.2-1.539c-.222-.559-.744-1.007-.93-1.57-1-3.033-1.572-6.225-3.437-8.932a22.371,22.371,0,0,1-1.432-2.462c-.253-.494-.466-1.093-1.113-.758-.383.2-.588.741-1.015,1.322l1.688-.164a10.5,10.5,0,0,1-2.183,2.03c-.171.12-.834-.093-.834-.159-.012-1.242-1.3-1.347-1.635-2-.669.385-1.219.735-1.8,1.027a19.181,19.181,0,0,1-1.888.827.626.626,0,0,1-.564-.143.577.577,0,0,1,.057-.546,3.1,3.1,0,0,1,.765-.463Zm-2.622-21.883c.514-.249.732-.349.947-.46a3.388,3.388,0,0,1,4.288.478c.605.557.982,1.355,1.547,1.968a2.688,2.688,0,0,0,1.125.574.984.984,0,0,0,.378-.6,23.676,23.676,0,0,0-.157-3.483c-.251-1.595-.776-3.151-.349-4.8a1.555,1.555,0,0,0-.066-.729q-1.6-6.131-3.218-12.257c-.218-.821-.489-1.627-.737-2.44a27.084,27.084,0,0,0-1.128,4.145c-.947,4.325-1.993,8.633-2.8,12.984A21.233,21.233,0,0,0-2386.141,1986.836Zm-1.182-7.983.1,0c.142-8.222.284-16.445.427-24.835l-7.807.682C-2392.139,1962.862-2389.731,1970.857-2387.323,1978.853Zm-26.37-23.647c7.358,8.166,15.029,15.7,22.708,23.239a1.2,1.2,0,0,0-.235-.672c-2.825-3.937-5.681-7.855-8.48-11.812-2.339-3.31-4.6-6.674-6.932-9.992a1.658,1.658,0,0,0-1.035-.729C-2409.525,1955.166-2411.39,1955.206-2413.693,1955.206Zm43.13,15.276c6.688-8.143,12.121-17.2,19.488-24.808-2.1.556-4.088,1.238-6.072,1.932a.773.773,0,0,0-.3.291,33.415,33.415,0,0,0-2.052,2.8c-2.383,4-4.756,8-7.04,12.053C-2367.963,1965.277-2369.227,1967.9-2370.562,1970.481Zm-15.38,4.792c.694-2.94,1.41-5.877,2.076-8.824.317-1.4.942-2.9.72-4.23a81.578,81.578,0,0,0-2.132-8.132c-.011-.04-.117-.054-.307-.135A135.564,135.564,0,0,0-2385.943,1975.273Zm3.347-15.395.276-.042,2.094-6.623-4.077.59Zm8.393,40.638c-.931,2.037.649,3.727.406,5.637C-2372.745,2005.554-2372.984,2002.509-2374.2,2000.517Zm-13.036-18.376a1.03,1.03,0,0,0-1.691-.182C-2388.468,1983.067-2388.336,1983.085-2387.238,1982.141Zm7.8,22.249-.191-.324a15.686,15.686,0,0,0-1.4.718,3.765,3.765,0,0,0,.26.8Zm1.9-22.127.514.3a7.489,7.489,0,0,0,.606-1.021c.024-.055-.362-.284-.557-.432Z" transform="translate(1.389)" fill="#42d4f3"/>
    <path id="Path_2009" data-name="Path 2009" d="M-2403.831,1938.9c-.465-.048-.876-.1-1.289-.132-5.169-.4-10.369-.487-15.479-1.5-2.729-.541-5.458-1.089-8.176-1.679-.7-.153-1.024-.058-1.32.7a45.759,45.759,0,0,0-2.448,11.868,11,11,0,0,1-.573,1.922l-.491-.04c0-.643-.041-1.287.007-1.925a51.413,51.413,0,0,1,2.44-12.106c.1-.3.145-.606.227-.969a8.578,8.578,0,0,0-1.007-.4,41.5,41.5,0,0,1-9.3-3.939c-.76-.415-1.211-.346-1.543.507a34.829,34.829,0,0,0-2.832,11.968c-.016.783-.154,1.565-.236,2.349l-.41.076c-.151-.413-.464-.84-.426-1.235a38.439,38.439,0,0,1,.772-6.057c.7-2.717,1.724-5.352,2.682-8a1.532,1.532,0,0,0-.245-1.644,10.625,10.625,0,0,1-.774-1.408l.55-.437.839,1.69,8.241-14.169c-.453-.882-1.05-1.941-1.528-3.053-.122-.285.126-.73.2-1.1a5.731,5.731,0,0,1,.681.8c.483.825.926,1.678,1.419,2.585a3.248,3.248,0,0,0,.549-.393c4.125-5.661,9.4-10.1,14.989-14.222.313-.231.588-.513.913-.722.574-.367.872-.746.441-1.454-.138-.226.022-.633.047-.962.211.028.312.012.338.05.912,1.275.951,1.333,2.327.387a21.6,21.6,0,0,1,6.1-3.1,10.086,10.086,0,0,1,1.053-.2l.176.356c-.4.25-.775.535-1.191.745-2.215,1.122-4.441,2.225-6.663,3.336l.015.556q2.119.816,4.234,1.632a3.433,3.433,0,0,0,3.831-.768,28.6,28.6,0,0,1,7.7-5.175,1.644,1.644,0,0,1,1.186.109,54.222,54.222,0,0,0-9.052,6.462c1.711.161,3.1.313,4.486.417,1.865.141,3.734.231,5.6.37.729.055,1.051-.27,1.291-.942.438-1.224.971-2.416,1.52-3.594.129-.279.48-.457.73-.681l.207.183L-2395,1900.8a5.591,5.591,0,0,0,1.17.154q2.94-.335,5.872-.739a1.225,1.225,0,0,0,.678-.385c.517-.572.858-1.255,1.754-.272.262.288,1.336-.165,2.277-.316-.578-.931-1.02-1.631-1.446-2.339a3.668,3.668,0,0,1-.478-.939,2.471,2.471,0,0,1,.094-.837c.266.106.643.137.779.334.621.9,1.143,1.866,1.772,2.758a1.145,1.145,0,0,0,.9.463,16.984,16.984,0,0,0,6.541-3.264l.009-.325-5.4-1.082v-.447a4.986,4.986,0,0,1,1.37-.165c1.461.232,2.9.593,4.365.809a1.582,1.582,0,0,0,1.253-.364,3.759,3.759,0,0,0,1.084-3.381,1.216,1.216,0,0,0-1.413-1.109c-1.718.175-3.438.332-5.156.5-.21.021-.435.134-.624.088a4.76,4.76,0,0,1-.837-.368c.238-.162.46-.429.716-.468,1.31-.2,2.629-.339,3.944-.627a5.6,5.6,0,0,0-6.312-.364c.764-1.907,4.128-2.877,5.967-2.469l-.736,1.134c.73.232,1.438.433,2.126.679,3.881,1.381,7.965,1.246,11.974,1.721a77.758,77.758,0,0,1,7.806,1.867,54.436,54.436,0,0,1,10.506,3.705,30.872,30.872,0,0,1,8.281,5.424c.1.1.273.194.281.3a10.739,10.739,0,0,1,0,1.086,3.4,3.4,0,0,1-.809-.3c-2.287-1.583-4.462-3.355-6.867-4.731a50.01,50.01,0,0,0-7-2.986c1.9,4.113-.847,6.738-3,9.713a60.14,60.14,0,0,1,15.517,14.353c2.238-1.906,4.278-3.791,5.508-6.379a5.987,5.987,0,0,0,.1-5.69,4.387,4.387,0,0,1-.409-.857,1.849,1.849,0,0,1,.061-.656c.21.078.5.091.621.241a6.191,6.191,0,0,1,1.4,4.734c-.373,2.8-2.119,4.871-3.971,6.838-.818.872-1.736,1.654-2.67,2.535,1.122,1.732,2.253,3.422,3.329,5.147a29.349,29.349,0,0,1,3.235,7.9c.073.274-.181.639-.285.961-.24-.223-.628-.407-.7-.675a33.92,33.92,0,0,0-5.366-11.085c-.3-.429-.612-.852-.965-1.345-.621.521-1.182.993-1.745,1.46a66.653,66.653,0,0,1-16.893,10.384c-3.948,1.65-8.021,3.006-12.051,4.462-.553.2-.764.378-.667,1.036.454,3.066.829,6.142,1.229,9.216.028.21.131.46.053.621a4.223,4.223,0,0,1-.589.75,2.312,2.312,0,0,1-.416-.731c-.374-2.656-.685-5.319-1.073-7.971-.357-2.431-.373-2.305-2.8-1.966-5.238.731-10.483,1.471-15.75,1.929-4.248.371-8.533.356-12.8.46-.781.019-1.13.305-1.113,1.038.049,2.288.1,4.576.19,6.863.047,1.248.193,2.494.216,3.741.007.317-.284.639-.634.932C-2404.106,1947.375-2403.748,1943.164-2403.831,1938.9Zm34.269-4.157c.379-.112.547-.166.717-.211a71.528,71.528,0,0,0,16.786-6.773,67.937,67.937,0,0,0,12.5-8.487c.717-.642.76-1.049.157-1.8a58.506,58.506,0,0,0-12.931-12.266c-1.723-1.156-1.7-1.2-3.119.216-.126.125-.253.245-.387.361a51.981,51.981,0,0,1-11.263,7.645c-1.961.961-3.963,1.844-5.981,2.683-.945.392-1.142.882-.866,1.866.806,2.88,1.525,5.785,2.227,8.692.585,2.425,1.085,4.872,1.658,7.3A2.622,2.622,0,0,0-2369.562,1934.74Zm-33.325,3.077c.63.038.977.086,1.321.075,4.83-.164,9.677-.138,14.484-.56,4.9-.431,9.775-1.267,14.65-2,1.519-.228,1.544-.353,1.177-1.885-1.122-4.678-2.277-9.348-3.425-14.019-.173-.7-.378-1.4-.589-2.167-.5.162-.868.262-1.223.4a63.846,63.846,0,0,1-23.371,4.782c-.6,0-.85.237-.956.853-.429,2.494-1.006,4.966-1.37,7.469C-2402.523,1933.056-2402.653,1935.375-2402.887,1937.817Zm1.131-15.311c-2.142-.1-4.177-.162-6.207-.3a61.561,61.561,0,0,1-14.245-2.45,1.1,1.1,0,0,0-1.484.582c-.608,1.112-1.253,2.211-1.75,3.373-1.31,3.066-2.545,6.164-3.821,9.246-.445,1.074-.312,1.439.871,1.688,2.925.616,5.84,1.353,8.8,1.718,4.72.583,9.47.917,14.209,1.329,1.716.15,1.622.1,1.782-1.643.265-2.876.641-5.742,1.021-8.6C-2402.361,1925.813-2402.041,1924.2-2401.756,1922.507Zm-20.82-4.208c.182.161.247.258.336.29.43.156.86.322,1.3.435A77.98,77.98,0,0,0-2404,1921.34c2.421.082,2.418.039,3.01-2.36.094-.375.237-.739.338-1.112.986-3.739,1.942-7.487,2.965-11.216.417-1.515.974-2.99,1.45-4.427-3.75-.336-7.462-.676-11.177-.984a1.506,1.506,0,0,0-.976.277c-1.04.816-2.073,1.647-3.035,2.55a67.581,67.581,0,0,0-10.181,12.529C-2421.967,1917.146-2422.26,1917.738-2422.576,1918.3Zm21.935,3.149c1.813-.107,3.348-.182,4.877-.291a64.563,64.563,0,0,0,19.165-4.5c.775-.3,1.031-.662.739-1.484a75.313,75.313,0,0,0-6.656-14.576c-.348-.564-.7-.35-1.157-.263a76.234,76.234,0,0,1-9.354,1.6,2.83,2.83,0,0,0-2.915,2.153c-.1.263-.195.528-.274.8-.785,2.663-1.617,5.315-2.333,8C-2399.284,1915.625-2399.9,1918.4-2400.642,1921.447Zm26.385-5.9c7.07-2.8,13.788-6.4,19.42-12.122a23.586,23.586,0,0,0-3.559-2.149c-4.894-1.875-9.835-3.63-14.774-5.388a1.537,1.537,0,0,0-1.126.2c-.971.565-1.857,1.285-2.847,1.809-1.411.747-2.886,1.375-4.156,1.969Zm-50.029,3.843c-2.938-1.395-5.858-2.765-8.761-4.169-.655-.316-.919.108-1.183.516-1.247,1.92-2.544,3.813-3.686,5.795-1.282,2.222-2.429,4.523-3.6,6.8-.205.4-.527.892.177,1.244a52.528,52.528,0,0,0,9.765,4.181c.786.211,1.019.011,1.3-.683q1.716-4.312,3.56-8.577C-2425.939,1922.7-2425.037,1920.956-2424.285,1919.388Zm-8.554-5.329a20.477,20.477,0,0,0,2.748,1.726c1.874.805,3.821,1.449,5.734,2.163.563.211.889.021,1.192-.5a63.46,63.46,0,0,1,13.044-15.734,6.232,6.232,0,0,0,.545-.592c-1.827-.748-3.606-1.338-5.241-2.2a1.637,1.637,0,0,0-2.145.084c-3.274,2.724-6.646,5.339-9.838,8.159A26.452,26.452,0,0,0-2432.84,1914.059Zm59.844-19.193c2.332.861,4.551,1.743,6.814,2.5,3.65,1.218,7.327,2.353,10.578,4.495,1.282.843,1.266.861,2.192-.421.269-.371.592-.706.844-1.087,1.34-2.03,2.143-4.156.946-6.541a1.782,1.782,0,0,0-.876-.919c-3.335-.894-6.66-1.854-10.043-2.515a65.47,65.47,0,0,0-6.95-.625c-.652-.056-1.3-.144-2.148-.24C-2371.024,1891.622-2371.848,1893.228-2373,1894.866Z" transform="translate(2.23 0.516)" fill="#42d4f3"/>
    <path id="Path_2010" data-name="Path 2010" d="M-2404.6,1887.639a28.437,28.437,0,0,0-3.539,1.615c-1.247.782-1.1,1.658.24,2.336a6.888,6.888,0,0,0,4.57.919c1.86-.374,3.739-.671,5.588-1.1a6.984,6.984,0,0,0,2.012-.908c1.535-.939,1.556-1.5.2-2.6-.072-.057-.091-.181-.132-.273a1.327,1.327,0,0,1,2.127,1.124,2.5,2.5,0,0,1-1.292,2.39,9.725,9.725,0,0,1-2.648,1.285c-2.586.683-5.22,1.492-7.9,1.052a11.724,11.724,0,0,1-3.994-1.735,1.705,1.705,0,0,1-.208-2.615,5.173,5.173,0,0,1,4.553-1.743C-2404.863,1887.414-2404.708,1887.577-2404.6,1887.639Z" transform="translate(12.335 1.007)" fill="#42d4f3"/>
    <path id="Path_2011" data-name="Path 2011" d="M-2356.187,1916.036a28.28,28.28,0,0,1-1.968,3.071c-4.6,5.533-10.276,9.922-15.675,14.6-.168.147-.469.142-.709.207.021-.278-.058-.631.08-.821a6.992,6.992,0,0,1,1.109-1.128c2.924-2.494,6.01-4.823,8.746-7.506,2.576-2.525,4.786-5.423,7.169-8.147a6.055,6.055,0,0,1,.83-.668Z" transform="translate(22.155 8.824)" fill="#42d4f3"/>
    <path id="Path_2012" data-name="Path 2012" d="M-2357.712,1914.784a32.849,32.849,0,0,1-2.348,2.738c-4.553,4.306-8.731,9.016-13.766,12.805-.392.293-.682.717-1.066,1.025-.148.119-.419.087-.635.122-.009-.245-.12-.562-.009-.723a4.594,4.594,0,0,1,1.008-1.076c4.033-2.95,7.443-6.578,10.969-10.076,1.475-1.466,2.889-2.992,4.352-4.468a8.5,8.5,0,0,1,1.07-.8Z" transform="translate(21.867 8.463)" fill="#42d4f3"/>
    <path id="Path_2013" data-name="Path 2013" d="M-2404.823,1965.256c-.739-.582-1.2-1.254-1.721-1.3a10.711,10.711,0,0,0-3.48.291,1.69,1.69,0,0,0-.756,1.5,2.451,2.451,0,0,0,1.515,1.371,2.071,2.071,0,0,1,1.688,1.306,19.346,19.346,0,0,0,4.653,5.7,6.8,6.8,0,0,1,1.061,1.027,3.749,3.749,0,0,1,.372,1.048c-.364-.089-.835-.065-1.076-.289a32.474,32.474,0,0,1-3.063-3.069c-1.054-1.268-1.929-2.682-2.925-4a1.972,1.972,0,0,0-.955-.688c-1.367-.387-2.516-1.7-2.394-2.842a2.782,2.782,0,0,1,2.8-2.385c.63-.04,1.265-.063,1.89-.152,1.145-.165,1.692.725,2.364,1.348C-2404.689,1964.271-2404.823,1964.73-2404.823,1965.256Z" transform="translate(11.835 21.835)" fill="#42d4f3"/>
    <path id="Path_2014" data-name="Path 2014" d="M-2384.972,1927.762c-.356.369-.647.87-1.08,1.084-2.113,1.046-4.264,2.017-6.4,3.009q-5.128,2.377-10.26,4.745a9.236,9.236,0,0,1-1.46.606c-.235.063-.534-.122-.807-.2.161-.223.271-.555.487-.653,4.712-2.145,9.443-4.248,14.151-6.4,1.439-.657,2.82-1.439,4.231-2.15.29-.147.6-.244.907-.362Z" transform="translate(13.749 12.083)" fill="#42d4f3"/>
    <path id="Path_2015" data-name="Path 2015" d="M-2384,1929.5a5.754,5.754,0,0,1-1.258,1.112q-8.034,3.656-16.111,7.212c-.308.135-.75-.032-1.131-.057.277-.289.5-.695.839-.846,5.146-2.3,10.307-4.568,15.461-6.856.647-.288,1.259-.654,1.888-.985Z" transform="translate(14.435 12.533)" fill="#42d4f3"/>
    <path id="Path_2016" data-name="Path 2016" d="M-2356.444,1918.6a17.354,17.354,0,0,1-1.688,2.384c-1.981,2.01-4.035,3.949-6.089,5.887-1.462,1.381-2.959,2.728-4.469,4.058a3.136,3.136,0,0,1-.932.383c.111-.347.116-.8.346-1.028,3.047-2.944,6.153-5.828,9.183-8.79.974-.952,1.766-2.091,2.657-3.131a1.124,1.124,0,0,1,.556-.36C-2356.807,1917.984-2356.659,1918.292-2356.444,1918.6Z" transform="translate(23.514 9.475)" fill="#42d4f3"/>
    <path id="Path_2017" data-name="Path 2017" d="M-2389.845,1927.854a4.616,4.616,0,0,1-1.008.931c-4.43,2.092-8.877,4.145-13.32,6.209a1.531,1.531,0,0,1-.48.213,3.9,3.9,0,0,1-.733-.082c.121-.252.175-.625.375-.737,1.322-.742,2.648-1.491,4.027-2.121,3.334-1.526,6.7-2.991,10.052-4.47a6.394,6.394,0,0,1,.863-.24Z" transform="translate(13.637 12.114)" fill="#42d4f3"/>
    <path id="Path_2018" data-name="Path 2018" d="M-2412.036,1934.714c-.437.174-.892.529-1.312.493a59.111,59.111,0,0,0-11.18.43,4.382,4.382,0,0,1-1.377-.321c.417-.222.825-.616,1.253-.639,3.8-.2,7.608-.335,11.411-.479a9.268,9.268,0,0,1,1.041.07Z" transform="translate(7.97 13.947)" fill="#42d4f3"/>
    <path id="Path_2019" data-name="Path 2019" d="M-2411.75,1930.32a3.655,3.655,0,0,1-1.094.459c-2.528.162-5.062.241-7.59.4-1.686.11-3.365.336-5.05.459-.228.017-.476-.265-.716-.409.193-.163.374-.448.58-.469,4.552-.452,9.09-1.2,13.69-.826Z" transform="translate(7.889 12.744)" fill="#42d4f3"/>
    <path id="Path_2020" data-name="Path 2020" d="M-2412.217,1932.254l-.514,1-.078-.325c-3.631.308-7.26.625-10.892.915-.742.06-1.566.526-2.433-.51A54.45,54.45,0,0,1-2412.217,1932.254Z" transform="translate(7.907 13.402)" fill="#42d4f3"/>
    <path id="Path_2021" data-name="Path 2021" d="M-2342.875,1919.578a3.255,3.255,0,0,1-.085-.9c.663-3.407-.97-6-2.977-8.459a5.313,5.313,0,0,1-.708-.916c-.1-.195.011-.491.028-.743.219.046.529.016.645.151,2.505,2.95,4.766,6.007,3.938,10.234-.055.279-.336.516-.511.772Z" transform="translate(29.848 6.867)" fill="#42d4f3"/>
    <path id="Path_2022" data-name="Path 2022" d="M-2338.819,1920.653a10.674,10.674,0,0,0-1.419-6.694,23.782,23.782,0,0,1-1.327-3.1c-.092-.26.169-.648.27-.977a3.026,3.026,0,0,1,.618.685c.725,1.605,1.478,3.2,2.092,4.852.522,1.406,1.2,2.828.79,4.4a4.119,4.119,0,0,1-.69,1.066Z" transform="translate(31.257 7.231)" fill="#42d4f3"/>
    <path id="Path_2023" data-name="Path 2023" d="M-2386.64,1931.717c-.435.51-.62.927-.928,1.059q-3.969,1.707-7.987,3.305c-.231.093-.592-.137-.894-.217.19-.218.339-.533.578-.635,2.752-1.166,5.519-2.3,8.285-3.433A4.544,4.544,0,0,1-2386.64,1931.717Z" transform="translate(16.106 13.263)" fill="#42d4f3"/>
    <path id="Path_2024" data-name="Path 2024" d="M-2413.97,1936.767c-.363.275-.6.609-.834.612q-4.068.063-8.139.016c-.2,0-.4-.294-.6-.453.179-.168.36-.483.542-.483,2.811,0,5.624.038,8.437.076A2.767,2.767,0,0,1-2413.97,1936.767Z" transform="translate(8.623 14.572)" fill="#42d4f3"/>
    <path id="Path_2025" data-name="Path 2025" d="M-2414.795,1928.195c-.282.192-.554.538-.848.556-2.566.167-5.136.3-7.707.375a4.1,4.1,0,0,1-1.366-.5,4.654,4.654,0,0,1,1.33-.5c2.572-.121,5.147-.178,7.722-.25a6.746,6.746,0,0,1,.723.055Z" transform="translate(8.299 12.203)" fill="#42d4f3"/>
    <path id="Path_2026" data-name="Path 2026" d="M-2357.473,1920.409c.67.822.074,1.575-.389,2.053-1.537,1.587-3.19,3.065-4.82,4.558-.182.169-.515.172-.778.251.06-.328,0-.769.2-.967,1.23-1.253,2.531-2.437,3.776-3.676C-2358.825,1921.971-2358.229,1921.248-2357.473,1920.409Z" transform="translate(25.216 10.14)" fill="#42d4f3"/>
    <path id="Path_2027" data-name="Path 2027" d="M-2379.908,1985.311a6.459,6.459,0,0,0-.542-1.65c-.869-1.3-1.832-2.539-2.775-3.792-.143-.191-.425-.285-.549-.483-.254-.409-.443-.856-.659-1.287a4.125,4.125,0,0,1,1.335.473c1.818,1.538,3.506,3.19,3.733,5.762a4.479,4.479,0,0,1-.133.979Z" transform="translate(19.424 26.071)" fill="#42d4f3"/>
    <path id="Path_2028" data-name="Path 2028" d="M-2396.9,1928.014a5.846,5.846,0,0,1-.91.6c-2.2.938-4.393,1.865-6.61,2.749a3.12,3.12,0,0,1-1.128,0c.259-.3.455-.744.78-.884,2.229-.95,4.478-1.844,6.733-2.728a4,4,0,0,1,1.018-.117Z" transform="translate(13.594 12.134)" fill="#42d4f3"/>
    <path id="Path_2029" data-name="Path 2029" d="M-2353.583,1903.883a8.092,8.092,0,0,1-1.085,6.174c-.363.684-.653,1.408-1.035,2.08-.125.22-.436.332-.661.494-.067-.3-.258-.652-.173-.906a15.613,15.613,0,0,1,.838-1.822c.821-1.671,1.808-3.283,1.632-5.275C-2354.088,1904.4-2353.754,1904.132-2353.583,1903.883Z" transform="translate(27.122 5.576)" fill="#42d4f3"/>
    <path id="Path_2030" data-name="Path 2030" d="M-2360.584,1901.06c-.367,1.862-.716,3.728-1.122,5.583-.05.226-.393.386-.6.577-.1-.264-.321-.551-.278-.788.142-.76.473-1.489.564-2.25.2-1.605.265-3.226.43-4.836a4.464,4.464,0,0,1,.384-1.043,3.975,3.975,0,0,1,.473,1.032,11.845,11.845,0,0,1,.021,1.692Z" transform="translate(25.457 4.035)" fill="#42d4f3"/>
    <path id="Path_2031" data-name="Path 2031" d="M-2351.61,1906.557c-.229,2.768-1.427,4.976-2.552,7.2-.1.2-.5.25-.76.37a2.43,2.43,0,0,1,0-.908c.67-1.586,1.421-3.139,2.072-4.733a17.873,17.873,0,0,0,.41-1.847,2.416,2.416,0,0,1,.485-.663Z" transform="translate(27.56 6.155)" fill="#42d4f3"/>
    <path id="Path_2032" data-name="Path 2032" d="M-2350.052,1909.4c-.459,1.3-.856,2.563-1.359,3.783a18.973,18.973,0,0,1-1.325,2.524c-.158.263-.527.4-.8.594-.021-.308-.155-.67-.041-.917.412-.894.992-1.719,1.345-2.632.413-1.063.656-2.192.969-3.294.009-.032-.01-.076.007-.1.178-.307.36-.612.542-.918Z" transform="translate(27.932 6.833)" fill="#42d4f3"/>
    <path id="Path_2033" data-name="Path 2033" d="M-2362.6,1898.223c-.266,1.132-.61,2.53-.921,3.935-.151.684-.2,1.394-.377,2.068-.071.263-.382.461-.583.688-.135-.274-.428-.582-.378-.818.345-1.65.777-3.28,1.146-4.926.114-.5.1-1.032.18-1.545a8.021,8.021,0,0,1,.235-.882,10.225,10.225,0,0,1,.688.782C-2362.541,1897.617-2362.6,1897.8-2362.6,1898.223Z" transform="translate(24.829 3.604)" fill="#42d4f3"/>
    <path id="Path_2034" data-name="Path 2034" d="M-2358.3,1902.212c-.559,1.831-1.1,3.669-1.7,5.486-.076.227-.491.343-.749.512a2.576,2.576,0,0,1-.062-.921,18.37,18.37,0,0,0,.842-2.264c.227-1.3.248-2.625.4-3.935a4.1,4.1,0,0,1,.371-.962,3.106,3.106,0,0,1,.567.84,4.456,4.456,0,0,1,.023,1.153Z" transform="translate(25.938 4.539)" fill="#42d4f3"/>
    <path id="Path_2035" data-name="Path 2035" d="M-2454.2,1931.3c.35,3.475,2.263,5.649,5.265,7.073-1.455.542-3.418-.756-4.838-3.03C-2454.889,1933.567-2455.113,1932.161-2454.2,1931.3Z" transform="translate(0 13.148)" fill="#42d4f3"/>
    <path id="Path_2036" data-name="Path 2036" d="M-2384.678,1963.483l-1.152-.553a7.3,7.3,0,0,0,.223,3.658,5.4,5.4,0,0,1,.1,1.538l-.348.058c-.128-.1-.312-.168-.375-.3a6.808,6.808,0,0,1-.5-5.194,1.3,1.3,0,0,1,1.016-.731C-2385.123,1962.065-2384.641,1962.52-2384.678,1963.483Z" transform="translate(18.703 21.614)" fill="#42d4f3"/>
    <path id="Path_2037" data-name="Path 2037" d="M-2378.015,1966.883a13.829,13.829,0,0,0-.551-2.639,30.061,30.061,0,0,0-1.661-2.975,5.78,5.78,0,0,1-.316-.862c.316.029.721-.06.928.1,1.825,1.437,2.1,3.572,2.413,5.664.034.236-.331.53-.513.8Z" transform="translate(20.498 21.185)" fill="#42d4f3"/>
    <path id="Path_2038" data-name="Path 2038" d="M-2364.677,1896.656c-.5,2.088-.992,4.209-1.526,6.321-.039.159-.344.251-.527.375-.1-.225-.325-.477-.283-.671.365-1.683.784-3.355,1.178-5.032.1-.441.156-.9.283-1.331a5.087,5.087,0,0,1,.39-.8c.162.262.334.522.478.794C-2364.642,1896.393-2364.677,1896.518-2364.677,1896.656Z" transform="translate(24.233 3.265)" fill="#42d4f3"/>
    <path id="Path_2039" data-name="Path 2039" d="M-2369.592,1920.318a2.175,2.175,0,0,1-.346.692c-1.543,1.388-3.095,2.772-4.689,4.1-.24.2-.715.121-1.081.172a3.876,3.876,0,0,1,.55-.886q1.822-1.673,3.7-3.277a18.308,18.308,0,0,1,1.579-1.1Z" transform="translate(21.833 10.034)" fill="#42d4f3"/>
    <path id="Path_2040" data-name="Path 2040" d="M-2448.583,1935.975c-2.189.277-4.776-4.832-4.019-7.808.213.329.424.5.439.7a8.794,8.794,0,0,0,2.881,6.167A6.558,6.558,0,0,1-2448.583,1935.975Z" transform="translate(0.561 12.282)" fill="#42d4f3"/>
    <path id="Path_2041" data-name="Path 2041" d="M-2348.844,1911.346a3.813,3.813,0,0,1-.126,1.387c-.8,1.549-1.678,3.059-2.577,4.554-.106.177-.518.17-.788.247.005-.269-.1-.648.032-.791a12.323,12.323,0,0,0,2.734-4.947,2.233,2.233,0,0,1,.394-.543Z" transform="translate(28.278 7.611)" fill="#42d4f3"/>
    <path id="Path_2042" data-name="Path 2042" d="M-2403.106,1973.114c1.6-.235,1.817,1.95,3.285,1.945l1.042-.922.422.374a6.3,6.3,0,0,1-1.259,1.56c-.258.171-1-.139-1.366-.427-.838-.659-1.582-1.438-2.365-2.166Z" transform="translate(14.2 24.69)" fill="#42d4f3"/>
    <path id="Path_2043" data-name="Path 2043" d="M-2366.847,1895.112c-.228,1.63-.4,3.062-.651,4.478-.059.333-.4.614-.617.919a3.883,3.883,0,0,1-.235-1.16c.155-1.357.364-2.711.608-4.057a4.656,4.656,0,0,1,.5-1.082Z" transform="translate(23.864 2.905)" fill="#42d4f3"/>
    <path id="Path_2044" data-name="Path 2044" d="M-2383.624,1961.259a3.261,3.261,0,0,1,3.452,2.662c.132.638.585,1.518-.77,2.022C-2380.767,1963.806-2381.93,1962.461-2383.624,1961.259Z" transform="translate(19.647 21.412)" fill="#42d4f3"/>
    <path id="Path_2045" data-name="Path 2045" d="M-2386.837,1980.329c1.327-.165,4,1.873,4.6,3.225.317.722.311.751-.438,1.378C-2383.044,1982.588-2385.21,1981.863-2386.837,1980.329Z" transform="translate(18.76 26.684)" fill="#42d4f3"/>
    <path id="Path_2046" data-name="Path 2046" d="M-2368.649,1894.743c-.245,1.475-.443,2.8-.7,4.1-.051.25-.323.456-.492.682-.123-.282-.375-.579-.347-.846.158-1.429.368-2.855.6-4.274.033-.2.317-.349.487-.521Z" transform="translate(23.358 2.815)" fill="#42d4f3"/>
    <path id="Path_2047" data-name="Path 2047" d="M-2357.393,1902.15a2.957,2.957,0,0,1,.14.917,31.209,31.209,0,0,1-.69,3.191c-.073.261-.508.423-.776.63a2.661,2.661,0,0,1-.134-.931c.3-1.281.663-2.548,1-3.821Z" transform="translate(26.483 5.094)" fill="#42d4f3"/>
    <path id="Path_2048" data-name="Path 2048" d="M-2397.87,1895.373a6.959,6.959,0,0,1-1.2.824c-.914.34-1.852.625-2.793.883-.167.047-.4-.144-.6-.224.074-.179.105-.47.23-.519q1.7-.678,3.436-1.266C-2398.647,1895.019-2398.423,1895.184-2397.87,1895.373Z" transform="translate(14.444 3.139)" fill="#42d4f3"/>
    <path id="Path_2049" data-name="Path 2049" d="M-2420.853,1891.5c.593-1.135,3.07-1.775,4.893-1.244C-2417.654,1891.141-2419.292,1891.166-2420.853,1891.5Z" transform="translate(9.366 1.76)" fill="#42d4f3"/>
    <path id="Path_2050" data-name="Path 2050" d="M-2387.2,1934.073c-1.3.59-2.358,1.089-3.439,1.533-.141.058-.428-.139-.587-.286a.505.505,0,0,1,.111-.443c1.1-.435,2.207-.84,3.318-1.237C-2387.748,1933.621-2387.639,1933.753-2387.2,1934.073Z" transform="translate(17.541 13.793)" fill="#42d4f3"/>
    <path id="Path_2051" data-name="Path 2051" d="M-2348.384,1914.222a1.332,1.332,0,0,1-.153,1.752c-.609.672-1.183,1.491-2.6,1.229Z" transform="translate(28.62 8.431)" fill="#42d4f3"/>
    <path id="Path_2052" data-name="Path 2052" d="M-2394.378,1971.679c-.822.591-1.637,1.194-2.479,1.754-.115.077-.407-.015-.548-.121a.471.471,0,0,1-.007-.456c.869-.629,1.609-1.517,2.769-1.6Z" transform="translate(15.824 24.182)" fill="#42d4f3"/>
    <path id="Path_2053" data-name="Path 2053" d="M-2436.558,1935.058a2.492,2.492,0,0,1-3.77,0Z" transform="translate(3.988 14.185)" fill="#42d4f3"/>
    <path id="Path_2054" data-name="Path 2054" d="M-2398.527,1893.794a3.953,3.953,0,0,1-.648.555c-.835.365-1.673.723-2.527,1.035-.16.058-.4-.1-.608-.167.113-.148.195-.362.344-.437.85-.414,1.708-.814,2.584-1.171C-2399.217,1893.541-2398.963,1893.692-2398.527,1893.794Z" transform="translate(14.487 2.734)" fill="#42d4f3"/>
    <path id="Path_2055" data-name="Path 2055" d="M-2394.482,1973.335c-.727.554-1.447,1.117-2.192,1.648-.068.048-.355-.082-.423-.2a.489.489,0,0,1,.039-.469c.729-.52,1.481-1.006,2.228-1.5Z" transform="translate(15.915 24.613)" fill="#42d4f3"/>
    <path id="Path_2056" data-name="Path 2056" d="M-2409.836,1896.238l3.214-.359A2.059,2.059,0,0,1-2409.836,1896.238Z" transform="translate(12.408 3.366)" fill="#42d4f3"/>
    <path id="Path_2057" data-name="Path 2057" d="M-2393.9,1893.441c-.986.06-1.227,1.7-2.6,1.224C-2395.57,1893.1-2394.885,1892.763-2393.9,1893.441Z" transform="translate(16.091 2.601)" fill="#42d4f3"/>
    <path id="Path_2058" data-name="Path 2058" d="M-2403.6,1972.272c.756-.592,1.344-1.439,2.571-1.4C-2401.632,1972.3-2402.895,1972.977-2403.6,1972.272Z" transform="translate(14.129 24.075)" fill="#42d4f3"/>
    <path id="Path_2059" data-name="Path 2059" d="M-2402.232,1970.587a5.266,5.266,0,0,1-.991.662c-.446.175-.811,1.021-1.361.289-.059-.078.575-.8.99-1.075a3.721,3.721,0,0,1,1.242-.289Z" transform="translate(13.857 23.883)" fill="#42d4f3"/>
    <path id="Path_2060" data-name="Path 2060" d="M-2405.292,1971.394c-.061-.321-.234-.663-.13-.808a8.271,8.271,0,0,1,1.245-1.387c.129-.114.473.012.719.028-.054.219-.036.509-.173.647C-2404.109,1970.365-2404.64,1970.806-2405.292,1971.394Z" transform="translate(13.619 23.6)" fill="#42d4f3"/>
    <path id="Path_2061" data-name="Path 2061" d="M-2400.343,1971.416c-.089.98-1.175,2.218-1.63,2.13-.155-.031-.381-.565-.342-.6C-2401.75,1972.462-2401.145,1972.023-2400.343,1971.416Z" transform="translate(14.485 24.226)" fill="#42d4f3"/>
    <path id="Path_2062" data-name="Path 2062" d="M-2395.751,1968.893a2.068,2.068,0,0,1-2.556,1.373l2.312-1.711Z" transform="translate(15.592 23.436)" fill="#42d4f3"/>
    <path id="Path_2063" data-name="Path 2063" d="M-2392.33,1893.509c-.537.453-.937.84-1.389,1.149a1.966,1.966,0,0,1-.746.136c.022-.246-.05-.579.083-.724C-2393.862,1893.5-2393.274,1893.006-2392.33,1893.509Z" transform="translate(16.653 2.653)" fill="#42d4f3"/>
    <path id="Path_2064" data-name="Path 2064" d="M-2406.012,1894.693a1.6,1.6,0,0,1-2,.745c-.177-.062-.271-.356-.4-.544.18-.11.357-.313.539-.314C-2407.306,1894.572-2406.733,1894.642-2406.012,1894.693Z" transform="translate(12.801 3.006)" fill="#42d4f3"/>
    <path id="Path_2065" data-name="Path 2065" d="M-2357.569,1922.7c-.353.539-.688,1.089-1.078,1.6-.07.091-.427.073-.55-.024s-.212-.436-.139-.527c.393-.493.842-.945,1.272-1.409Z" transform="translate(26.347 10.672)" fill="#42d4f3"/>
    <path id="Path_2066" data-name="Path 2066" d="M-2435.981,1929.472a14.423,14.423,0,0,1-1.771-.2c-.161-.036-.244-.412-.365-.633.206-.075.443-.259.607-.207.559.177,1.088.436,1.63.662Z" transform="translate(4.599 12.353)" fill="#42d4f3"/>
    <path id="Path_2067" data-name="Path 2067" d="M-2401.1,1974.177a2.947,2.947,0,0,1,.3-.945c.353-.455.776-.928,1.651-.448l-1.552,1.6Z" transform="translate(14.822 24.548)" fill="#42d4f3"/>
    <path id="Path_2068" data-name="Path 2068" d="M-2436.653,1932.3a1.386,1.386,0,0,1-2,.545.639.639,0,0,1-.215-.522.554.554,0,0,1,.456-.274C-2437.86,1932.086-2437.313,1932.194-2436.653,1932.3Z" transform="translate(4.389 13.352)" fill="#42d4f3"/>
    <path id="Path_2069" data-name="Path 2069" d="M-2389.534,1971.381c-.642.269-1.277.56-1.932.788-.125.043-.338-.167-.51-.261.1-.164.173-.427.312-.472.651-.208,1.321-.354,1.984-.522Z" transform="translate(17.341 24.087)" fill="#42d4f3"/>
    <path id="Path_2070" data-name="Path 2070" d="M-2407.3,1893.513h1.762l.109.311c-.286.174-.566.48-.855.489a3.627,3.627,0,0,1-1.133-.34Z" transform="translate(13.077 2.712)" fill="#42d4f3"/>
    <path id="Path_2071" data-name="Path 2071" d="M-2398.036,1886.915c-.509-1.115.044-1.726,1.45-1.63Z" transform="translate(15.616 0.437)" fill="#42d4f3"/>
    <path id="Path_2072" data-name="Path 2072" d="M-2435.775,1927.422c-.611.8-1.21.383-1.75.168-.132-.052-.141-.409-.207-.625.209-.062.451-.219.621-.163A12.192,12.192,0,0,1-2435.775,1927.422Z" transform="translate(4.705 11.903)" fill="#42d4f3"/>
    <path id="Path_2073" data-name="Path 2073" d="M-2415.084,1888.058c.681.075,1.286.123,1.878.232a.631.631,0,0,1,.118.522C-2413.469,1889.227-2414.763,1888.809-2415.084,1888.058Z" transform="translate(10.959 1.206)" fill="#42d4f3"/>
    <path id="Path_2074" data-name="Path 2074" d="M-2437.169,1933.893a2.9,2.9,0,0,1-.115.4c-.578.031-1.152.057-1.729.085l.012-.571Z" transform="translate(4.35 13.839)" fill="#42d4f3"/>
    <path id="Path_2075" data-name="Path 2075" d="M-2436.678,1931.425c-.526-.091-1.057-.156-1.569-.295-.1-.026-.208-.387-.148-.517a.552.552,0,0,1,.5-.2,12.787,12.787,0,0,1,1.3.532Z" transform="translate(4.517 12.9)" fill="#42d4f3"/>
    <path id="Path_2076" data-name="Path 2076" d="M-2418.268,1895.041l2.113.885C-2417.378,1896.495-2417.78,1896.324-2418.268,1895.041Z" transform="translate(10.08 3.134)" fill="#42d4f3"/>
    <path id="Path_2077" data-name="Path 2077" d="M-2388.793,1969.815l-1.914.47C-2390.107,1969.083-2389.7,1968.972-2388.793,1969.815Z" transform="translate(17.691 23.632)" fill="#42d4f3"/>
    <path id="Path_2078" data-name="Path 2078" d="M-2408.735,1887.211c-.09.048-.188.149-.267.137-.521-.084-1.037-.193-1.555-.293a2.041,2.041,0,0,1,.076-.363c.6.03,1.2.08,1.8.128Z" transform="translate(12.209 0.828)" fill="#42d4f3"/>
    <path id="Path_2079" data-name="Path 2079" d="M-2416.683,1894.09l1.515.632c-.768.64-1.014.571-1.635-.306Z" transform="translate(10.484 2.872)" fill="#42d4f3"/>
    <path id="Path_2080" data-name="Path 2080" d="M-2436.379,1926.732c-.419-.178-.84-.349-1.244-.556a4.121,4.121,0,0,1,.185-.506l1.287.546Z" transform="translate(4.734 11.593)" fill="#42d4f3"/>
    <path id="Path_2081" data-name="Path 2081" d="M-2394.056,1982.861a2.622,2.622,0,0,1-3.448,1.825Z" transform="translate(15.813 27.387)" fill="#42d4f3"/>
    <path id="Path_2082" data-name="Path 2082" d="M-2397.352,1986.306c.991-.61,1.914-1.189,2.861-1.728.044-.026.441.327.416.451C-2394.214,1985.728-2396.565,1986.71-2397.352,1986.306Z" transform="translate(15.856 27.86)" fill="#42d4f3"/>
    <path id="Path_2083" data-name="Path 2083" d="M-2397.115,1987.272l2.691-1.18C-2395.013,1987.45-2396.1,1987.933-2397.115,1987.272Z" transform="translate(15.921 28.278)" fill="#42d4f3"/>
    <path id="Path_2084" data-name="Path 2084" d="M-2394.992,1988.474l-1.557,1.015-.3-.449,1.5-1.071Z" transform="translate(15.994 28.797)" fill="#42d4f3"/>
    <path id="Path_2085" data-name="Path 2085" d="M-2395.851,1989.678a1.251,1.251,0,0,1-.782,1.664c-.072.037-.294-.217-.447-.337Z" transform="translate(15.931 29.269)" fill="#42d4f3"/>
    <path id="Path_2086" data-name="Path 2086" d="M-2364.53,1906.694a8.794,8.794,0,0,1-1.12,1.594c-4.223,3.779-8.476,7.523-12.722,11.276-.134.117-.251.28-.406.333-.349.121-.717.188-1.078.276.13-.327.174-.745.406-.964.9-.84,1.865-1.6,2.783-2.419q5.25-4.678,10.472-9.385c.239-.218.285-.638.5-.9a1.037,1.037,0,0,1,.661-.345C-2364.9,1906.156-2364.754,1906.446-2364.53,1906.694Z" transform="translate(20.688 6.206)" fill="#42d4f3"/>
    <path id="Path_2087" data-name="Path 2087" d="M-2363.469,1908.793a11.014,11.014,0,0,1-.957,1.551,28.938,28.938,0,0,1-5.908,5.4c-2.351,1.539-4.512,3.372-6.762,5.07-.329.246-.671.836-1.085.2-.1-.151.211-.727.47-.926,2.848-2.189,5.8-4.252,8.56-6.54,1.724-1.427,3.179-3.179,4.761-4.778a1.7,1.7,0,0,1,.571-.374C-2363.768,1908.381-2363.619,1908.62-2363.469,1908.793Z" transform="translate(21.146 6.823)" fill="#42d4f3"/>
    <path id="Path_2088" data-name="Path 2088" d="M-2366.609,1904.848c-.744,1.933-2.392,3.111-3.872,4.375-2.518,2.151-5.163,4.154-7.749,6.224-.384.307-.726.672-1.13.952a3.01,3.01,0,0,1-.8.263c.033-.307-.051-.741.119-.9,1.056-.982,2.152-1.924,3.267-2.84,2.45-2.012,4.937-3.98,7.371-6.012.643-.536,1.129-1.256,1.723-1.855a4.79,4.79,0,0,1,.859-.559Z" transform="translate(20.604 5.745)" fill="#42d4f3"/>
    <path id="Path_2089" data-name="Path 2089" d="M-2362.2,1910.176c.724.86.206,1.468-.224,1.92a22.3,22.3,0,0,1-2.6,2.333c-2.416,1.833-4.876,3.606-7.317,5.405a2.912,2.912,0,0,1-.6.437,5.629,5.629,0,0,1-.946.188c.117-.328.135-.772.365-.963,1.625-1.356,3.247-2.729,4.963-3.965C-2366.332,1913.932-2363.863,1912.65-2362.2,1910.176Z" transform="translate(22.337 7.314)" fill="#42d4f3"/>
    <path id="Path_2090" data-name="Path 2090" d="M-2370.282,1903.507a7.608,7.608,0,0,1-1.014,1.743c-2.588,2.538-5.233,5.017-7.863,7.513a1,1,0,0,1-.433.291,4.894,4.894,0,0,1-.837.025c.082-.271.082-.632.262-.8,1.344-1.243,2.772-2.4,4.078-3.677,1.651-1.617,3.207-3.335,4.823-4.989a2.382,2.382,0,0,1,.737-.348Z" transform="translate(20.53 5.406)" fill="#42d4f3"/>
    <path id="Path_2091" data-name="Path 2091" d="M-2372.261,1902.649a9.655,9.655,0,0,1-.6.964,35.739,35.739,0,0,1-8.179,7.093c-.172.11-.482,0-.727,0,.058-.249.035-.591.191-.733.6-.539,1.288-.984,1.893-1.519,2.025-1.792,4.028-3.608,6.041-5.415a3.439,3.439,0,0,1,.715-.607C-2372.789,1902.364-2372.534,1902.551-2372.261,1902.649Z" transform="translate(20.16 5.17)" fill="#42d4f3"/>
    <path id="Path_2092" data-name="Path 2092" d="M-2385.639,1918.327a8,8,0,0,1-1.386.869c-2.3.869-4.64,1.649-6.941,2.524-2.859,1.084-5.693,2.231-8.54,3.349-1.081.424-2.156.865-3.252,1.236a4.059,4.059,0,0,1-1.154.048c.288-.286.527-.689.874-.838,1.516-.655,3.057-1.26,4.605-1.839,3.656-1.363,7.326-2.688,10.981-4.053,1.087-.407,2.137-.907,3.217-1.336.438-.174.907-.27,1.362-.4Z" transform="translate(13.216 9.443)" fill="#42d4f3"/>
    <path id="Path_2093" data-name="Path 2093" d="M-2385.778,1916.1a5.665,5.665,0,0,1-3.079,1.63c-4.984,1.457-10.02,2.771-14.624,5.281a1.9,1.9,0,0,1-.654.323.7.7,0,0,1-.573-.282.615.615,0,0,1,.234-.559c2.408-1.072,4.787-2.227,7.259-3.133,3.354-1.23,6.779-2.269,10.18-3.374a7.629,7.629,0,0,1,1.165-.187Z" transform="translate(13.821 8.868)" fill="#42d4f3"/>
    <path id="Path_2094" data-name="Path 2094" d="M-2386.126,1919.848c.1,1.081-.528,1.229-1.082,1.432q-6.051,2.217-12.108,4.424c-1.225.447-2.44.921-3.676,1.338a5.107,5.107,0,0,1-1.143.115l-.139-.392a9.742,9.742,0,0,1,1.17-.614q7.38-2.712,14.771-5.4C-2387.615,1920.485-2386.913,1920.171-2386.126,1919.848Z" transform="translate(13.944 9.985)" fill="#42d4f3"/>
    <path id="Path_2095" data-name="Path 2095" d="M-2387.431,1914.556a5.513,5.513,0,0,1-1.037.706c-2.094.825-4.2,1.612-6.312,2.407q-4.4,1.66-8.8,3.307a6.707,6.707,0,0,1-1.317.383,2.507,2.507,0,0,1-.824-.16c.171-.221.3-.562.52-.643,2.742-1.016,5.508-1.969,8.25-2.988s5.45-2.094,8.18-3.128a9.427,9.427,0,0,1,1.17-.288Z" transform="translate(13.545 8.412)" fill="#42d4f3"/>
    <path id="Path_2096" data-name="Path 2096" d="M-2388.73,1913a5.07,5.07,0,0,1-1.023.709q-5.181,1.934-10.387,3.809c-1.122.406-2.266.76-3.4,1.128a2.127,2.127,0,0,1-.813.177c-.2-.019-.381-.238-.57-.368.128-.178.22-.453.391-.52.654-.253,1.338-.429,2.006-.652q5.748-1.929,11.493-3.876c.7-.24,1.37-.573,2.054-.863Z" transform="translate(13.764 7.968)" fill="#42d4f3"/>
    <path id="Path_2097" data-name="Path 2097" d="M-2385.527,1922.227a3.794,3.794,0,0,1-.921.711c-1.185.427-2.395.788-3.6,1.154-2.116.642-4.23,1.285-6.359,1.883a2.767,2.767,0,0,1-1.022-.133c.232-.249.421-.637.7-.722,2.687-.811,5.391-1.561,8.086-2.348.669-.2,1.313-.483,1.979-.695a7.661,7.661,0,0,1,.98-.179Z" transform="translate(15.834 10.551)" fill="#42d4f3"/>
    <path id="Path_2098" data-name="Path 2098" d="M-2388.452,1923.5c-.112.967-.818,1.52-1.488,1.291a.625.625,0,0,1-.378-.416.608.608,0,0,1,.329-.459C-2389.535,1923.747-2389.055,1923.655-2388.452,1923.5Z" transform="translate(17.799 10.993)" fill="#42d4f3"/>
    <path id="Path_2099" data-name="Path 2099" d="M-2411.278,1922.072a3.846,3.846,0,0,1-1.206.519c-2.281.116-4.565.143-6.847.235-1.336.053-2.67.176-4.006.255a2.508,2.508,0,0,1-.943-.041c-.211-.073-.351-.355-.523-.545.2-.107.4-.3.6-.307q4.8-.255,9.614-.459c1.044-.043,2.09-.007,3.135-.007Z" transform="translate(8.275 10.498)" fill="#42d4f3"/>
    <path id="Path_2100" data-name="Path 2100" d="M-2410.48,1919.854c-.334,1.151-1.27.73-1.943.744-3.3.077-6.592.093-9.888.087a2.976,2.976,0,0,1-1.008-.417c.287-.179.573-.509.862-.515,3.8-.062,7.6-.079,11.4-.094A2,2,0,0,1-2410.48,1919.854Z" transform="translate(8.684 9.933)" fill="#42d4f3"/>
    <path id="Path_2101" data-name="Path 2101" d="M-2411.092,1918.326a6.36,6.36,0,0,1-1.486.43q-4.649.179-9.3.254c-.524.009-1.261.407-1.464-.454a2.814,2.814,0,0,1,1.35-.545c3.344-.119,6.691-.173,10.038-.238a3.69,3.69,0,0,1,.705.124Z" transform="translate(8.68 9.411)" fill="#42d4f3"/>
    <path id="Path_2102" data-name="Path 2102" d="M-2411.976,1916.2a4.474,4.474,0,0,1-1.281.461c-2.46.085-4.923.109-7.384.145a2.026,2.026,0,0,1-.729-.081,9.162,9.162,0,0,1-.983-.508,3.105,3.105,0,0,1,.979-.406c2.711-.081,5.423-.122,8.135-.157a8.958,8.958,0,0,1,1.132.125Z" transform="translate(8.952 8.827)" fill="#42d4f3"/>
    <path id="Path_2103" data-name="Path 2103" d="M-2412.887,1923.874c-.37.244-.647.585-.927.589-2.674.03-5.347.013-8.02-.028-.2,0-.385-.3-.579-.469.183-.172.368-.5.551-.5,2.88.023,5.761.088,8.64.146C-2413.192,1923.618-2413.166,1923.657-2412.887,1923.874Z" transform="translate(8.936 10.985)" fill="#42d4f3"/>
    <path id="Path_2104" data-name="Path 2104" d="M-2409.162,1907.807c-.313.173-.625.493-.938.494-2.044.006-4.09-.056-6.135-.1a4.039,4.039,0,0,1-1.153-.1c-.2-.065-.354-.373-.444-.6-.024-.059.269-.355.413-.353,2.7.049,5.4.125,8.1.2Z" transform="translate(10.199 6.475)" fill="#42d4f3"/>
    <path id="Path_2105" data-name="Path 2105" d="M-2410.5,1911.408c-.479.293-.775.633-1.067.628-2.386-.032-4.771-.118-7.155-.231-.176-.008-.337-.354-.5-.542.2-.139.411-.405.608-.4,2.5.085,5,.209,7.5.33A3.411,3.411,0,0,1-2410.5,1911.408Z" transform="translate(9.816 7.504)" fill="#42d4f3"/>
    <path id="Path_2106" data-name="Path 2106" d="M-2409.966,1909.922c-.325.205-.649.584-.98.588-2.318.03-4.638,0-6.957-.062-.52-.014-1.318.092-1.127-.928h8.893Z" transform="translate(9.862 7.133)" fill="#42d4f3"/>
    <path id="Path_2107" data-name="Path 2107" d="M-2409.2,1905.664c-.365.194-.731.554-1.094.553-1.934-.007-3.867-.086-5.8-.189-.228-.011-.437-.316-.657-.486.224-.172.43-.465.672-.5a10.486,10.486,0,0,1,1.572.022c1.4.045,2.806.086,4.208.137.327.013.652.059.978.089Z" transform="translate(10.498 5.89)" fill="#42d4f3"/>
    <path id="Path_2108" data-name="Path 2108" d="M-2408.274,1903.463c-.462.269-.7.517-.959.542-1.719.167-3.441.305-5.167.4-.234.013-.485-.26-.73-.4.2-.192.393-.539.609-.555,1.828-.134,3.66-.213,5.491-.29C-2408.876,1903.152-2408.716,1903.281-2408.274,1903.463Z" transform="translate(10.946 5.376)" fill="#42d4f3"/>
    <path id="Path_2109" data-name="Path 2109" d="M-2407.477,1899.831c-.337.254-.576.584-.849.616-1.332.15-2.672.24-4.009.3-.19.009-.393-.262-.59-.4.145-.162.276-.449.436-.466,1.471-.156,2.948-.275,4.424-.378C-2407.924,1899.492-2407.773,1899.659-2407.477,1899.831Z" transform="translate(11.556 4.366)" fill="#42d4f3"/>
    <path id="Path_2110" data-name="Path 2110" d="M-2408.215,1901.7a2.771,2.771,0,0,1-.934.391,34.036,34.036,0,0,1-3.482-.1c-.306-.025-.583-.383-.875-.587.313-.139.625-.4.936-.4,1.231.006,2.461.083,3.691.156a2.14,2.14,0,0,1,.561.2Z" transform="translate(11.395 4.781)" fill="#42d4f3"/>
    <path id="Path_2111" data-name="Path 2111" d="M-2389.64,1907.327a4.46,4.46,0,0,1-.869.542c-3.291,1.134-6.6,2.206-9.88,3.379-1.687.6-3.307,1.393-4.975,2.055a2.481,2.481,0,0,1-.945-.029c.187-.28.312-.706.571-.818,2.292-.989,4.583-1.992,6.924-2.854,2.673-.984,5.395-1.837,8.1-2.719a3.323,3.323,0,0,1,.975-.013Z" transform="translate(13.383 6.392)" fill="#42d4f3"/>
    <path id="Path_2112" data-name="Path 2112" d="M-2405.291,1910.7c-.138-.125-.374-.249-.438-.433a.574.574,0,0,1,.225-.508,12.772,12.772,0,0,1,1.451-.619c3.852-1.45,7.7-2.9,11.562-4.319.268-.1.642.091.966.145-.206.274-.359.68-.634.8-1.2.513-2.424.946-3.644,1.4q-4.248,1.588-8.494,3.172C-2404.595,1910.451-2404.892,1910.555-2405.291,1910.7Z" transform="translate(13.54 5.827)" fill="#42d4f3"/>
    <path id="Path_2113" data-name="Path 2113" d="M-2392.678,1902.939a4.764,4.764,0,0,1-1,.766c-3.391,1.357-6.8,2.679-10.2,4.011a.9.9,0,0,1-.293.11c-.416,0-.829-.022-1.244-.035.282-.294.509-.719.852-.86,3.544-1.451,7.1-2.863,10.664-4.263a4.223,4.223,0,0,1,1.039-.135Z" transform="translate(13.63 5.203)" fill="#42d4f3"/>
    <path id="Path_2114" data-name="Path 2114" d="M-2394.12,1900.667a5.506,5.506,0,0,1-1.08.878c-2.881,1.321-5.781,2.6-8.673,3.891a1.108,1.108,0,0,1-.391.155c-.343,0-.686-.045-1.031-.071.207-.268.356-.654.628-.783q4.006-1.9,8.052-3.728c.725-.328,1.494-.566,2.24-.844Z" transform="translate(13.663 4.549)" fill="#42d4f3"/>
    <path id="Path_2115" data-name="Path 2115" d="M-2395.85,1898.638a6.713,6.713,0,0,1-1.237.93c-2.081.937-4.186,1.829-6.3,2.7a3.384,3.384,0,0,1-1.036.082c.191-.314.308-.789.585-.916,2.232-1.031,4.491-2.007,6.754-2.968a4.166,4.166,0,0,1,1.063-.157Z" transform="translate(13.904 4.037)" fill="#42d4f3"/>
    <path id="Path_2116" data-name="Path 2116" d="M-2392.076,1908.736c-.33.412-.482.8-.74.891q-2.627.91-5.3,1.686c-.2.06-.509-.232-.767-.362.131-.177.228-.462.4-.518,1.9-.621,3.8-1.209,5.71-1.793C-2392.652,1908.6-2392.5,1908.673-2392.076,1908.736Z" transform="translate(15.434 6.886)" fill="#42d4f3"/>
    <path id="Path_2117" data-name="Path 2117" d="M-2384.953,1907.814a1.249,1.249,0,0,1-.185-.45.857.857,0,0,1,.175-.562,8.562,8.562,0,0,1,1.353-1.175,41.947,41.947,0,0,0,7.762-6.636,2.786,2.786,0,0,1,.552-.487c.128-.079.417-.125.462-.063a.647.647,0,0,1,.106.531,3.24,3.24,0,0,1-.557.876,53.085,53.085,0,0,1-9.01,7.6C-2384.435,1907.544-2384.594,1907.615-2384.953,1907.814Z" transform="translate(19.229 4.065)" fill="#42d4f3"/>
    <path id="Path_2118" data-name="Path 2118" d="M-2385.476,1906.106c-.237-.188-.476-.3-.473-.393a.946.946,0,0,1,.236-.614c2.116-1.905,4.264-3.776,6.366-5.7.417-.382.629-.98,1.024-1.395a4.724,4.724,0,0,1,1.063-.655c.035.356.2.766.074,1.057a3.815,3.815,0,0,1-.89,1.279q-2.686,2.54-5.439,5.007A22.151,22.151,0,0,1-2385.476,1906.106Z" transform="translate(19.006 3.773)" fill="#42d4f3"/>
    <path id="Path_2119" data-name="Path 2119" d="M-2379.957,1896.951a6.3,6.3,0,0,1-.846,1.455c-1.936,1.9-3.914,3.751-5.914,5.578-.213.2-.667.126-1.01.179a4.366,4.366,0,0,1,.542-.881c1.98-1.959,3.98-3.9,5.977-5.842.281-.271.585-.518.878-.777Z" transform="translate(18.514 3.582)" fill="#42d4f3"/>
    <path id="Path_2120" data-name="Path 2120" d="M-2382.383,1896.124a7.374,7.374,0,0,1-.9,1.347c-1.7,1.629-3.443,3.219-5.194,4.795-.176.159-.519.129-.787.187.08-.3.062-.7.253-.891q2.778-2.744,5.624-5.421a2.573,2.573,0,0,1,.744-.342Z" transform="translate(18.09 3.343)" fill="#42d4f3"/>
    <path id="Path_2121" data-name="Path 2121" d="M-2389.924,1900.491c-.1-.068-.354-.205-.339-.253a1.75,1.75,0,0,1,.355-.669c1.033-1.089,2.1-2.149,3.13-3.246.256-.273.369-.681.616-.967.124-.142.4-.148.61-.216.044.179.182.409.119.531a11.631,11.631,0,0,1-4.221,4.734A1.46,1.46,0,0,1-2389.924,1900.491Z" transform="translate(17.814 3.162)" fill="#42d4f3"/>
    <path id="Path_2122" data-name="Path 2122" d="M-2387.825,1894.5c-.473,1.951-2.731,3.969-3.746,3.308C-2390.173,1896.821-2389.421,1895.19-2387.825,1894.5Z" transform="translate(17.452 2.985)" fill="#42d4f3"/>
    <path id="Path_2123" data-name="Path 2123" d="M-2436.505,1920.441l2.948.26c-.367,1.024-1.174.834-1.861.767C-2435.946,1921.416-2436.582,1921.329-2436.505,1920.441Z" transform="translate(5.041 10.148)" fill="#42d4f3"/>
    <path id="Path_2124" data-name="Path 2124" d="M-2432.28,1917.93c-1.424.591-2.26.288-2.6-.955Z" transform="translate(5.491 9.191)" fill="#42d4f3"/>
    <path id="Path_2125" data-name="Path 2125" d="M-2434.054,1915.2l2.36.735C-2432.714,1916.563-2433.41,1916.362-2434.054,1915.2Z" transform="translate(5.72 8.7)" fill="#42d4f3"/>
    <path id="Path_2126" data-name="Path 2126" d="M-2435.284,1918.885l1.913.192c-.419.947-1.074.964-1.943.176Z" transform="translate(5.372 9.719)" fill="#42d4f3"/>
    <path id="Path_2127" data-name="Path 2127" d="M-2432.365,1913.846l1.3.931-.137.359a4.351,4.351,0,0,1-1.119-.327c-.211-.125-.283-.486-.417-.739Z" transform="translate(6.084 8.327)" fill="#42d4f3"/>
    <path id="Path_2128" data-name="Path 2128" d="M-2428.671,1909.348c-.69-.14-1.383-.264-2.068-.435a.487.487,0,0,1-.268-.385c.006-.116.215-.328.323-.319.78.061,1.642-.041,2.119.794Z" transform="translate(6.562 6.77)" fill="#42d4f3"/>
    <path id="Path_2129" data-name="Path 2129" d="M-2429.688,1906.914l2.346.787c-.332.767-.917.6-1.429.392a7.909,7.909,0,0,1-1.215-.76Z" transform="translate(6.844 6.413)" fill="#42d4f3"/>
    <path id="Path_2130" data-name="Path 2130" d="M-2425.856,1905.94a2.321,2.321,0,0,1-2.459.153.469.469,0,0,1-.157-.428.483.483,0,0,1,.395-.25C-2427.417,1905.543-2426.768,1905.718-2425.856,1905.94Z" transform="translate(7.259 5.998)" fill="#42d4f3"/>
    <path id="Path_2131" data-name="Path 2131" d="M-2424.814,1904.911a13.123,13.123,0,0,1-1.646-.381c-.173-.062-.239-.42-.354-.643.212-.039.455-.163.63-.1.521.192,1.015.456,1.521.692Z" transform="translate(7.72 5.545)" fill="#42d4f3"/>
    <path id="Path_2132" data-name="Path 2132" d="M-2425.354,1902.077l2.556.565C-2424.124,1903.281-2424.751,1903.159-2425.354,1902.077Z" transform="translate(8.123 5.077)" fill="#42d4f3"/>
    <path id="Path_2133" data-name="Path 2133" d="M-2420.924,1900.049l-1.487-.554.17-.5,1.489.479Z" transform="translate(8.936 4.226)" fill="#42d4f3"/>
    <path id="Path_2134" data-name="Path 2134" d="M-2422.952,1902.288l-1.161-.93c.137-.124.357-.376.4-.351.39.256.749.555,1.117.842Z" transform="translate(8.466 4.781)" fill="#42d4f3"/>
    <path id="Path_2135" data-name="Path 2135" d="M-2377.739,1890.453c-.1,1.449-.2,2.9-.333,4.348-.015.157-.288.343-.477.4-.076.023-.368-.266-.359-.4.088-1.329.2-2.656.359-3.976.023-.185.35-.331.536-.5Z" transform="translate(20.95 1.834)" fill="#42d4f3"/>
    <path id="Path_2136" data-name="Path 2136" d="M-2379.8,1892.049c.032.524.094,1.049.081,1.572a2.187,2.187,0,0,1-.264.679c-.2-.152-.576-.294-.585-.457-.069-1.191-.079-2.387-.066-3.58,0-.135.256-.365.4-.373a.552.552,0,0,1,.394.369c.085.588.1,1.188.146,1.782Z" transform="translate(20.473 1.712)" fill="#42d4f3"/>
    <path id="Path_2137" data-name="Path 2137" d="M-2375.512,1891c-.186,1.517-.348,2.934-.547,4.346-.021.142-.268.306-.437.354-.1.025-.38-.186-.369-.256.246-1.461.521-2.917.8-4.372A2.452,2.452,0,0,1-2375.512,1891Z" transform="translate(21.514 2.017)" fill="#42d4f3"/>
    <path id="Path_2138" data-name="Path 2138" d="M-2373.968,1892.157c-.174,1.2-.29,2.207-.487,3.2-.044.227-.365.4-.559.6-.106-.263-.328-.54-.3-.787a29.121,29.121,0,0,1,.49-2.895c.053-.232.361-.405.55-.606Z" transform="translate(21.941 2.202)" fill="#42d4f3"/>
    <path id="Path_2139" data-name="Path 2139" d="M-2382.461,1889.72a3.636,3.636,0,0,1,.32,1.062c-.012.985-.1,1.97-.2,2.951-.017.18-.25.34-.385.507-.149-.164-.432-.335-.426-.493.056-1.313.167-2.624.259-3.935Z" transform="translate(19.777 1.665)" fill="#42d4f3"/>
    <path id="Path_2140" data-name="Path 2140" d="M-2384.19,1889.646l-.418,4.751C-2385.556,1893.629-2385.3,1890.29-2384.19,1889.646Z" transform="translate(19.214 1.644)" fill="#42d4f3"/>
    <path id="Path_2141" data-name="Path 2141" d="M-2372.531,1892.291c-.141,1.077-.269,2.156-.443,3.226a.546.546,0,0,1-.461.276c-.156-.028-.4-.268-.391-.4a5.846,5.846,0,0,1,.843-3.2Z" transform="translate(22.353 2.348)" fill="#42d4f3"/>
    <path id="Path_2142" data-name="Path 2142" d="M-2385.748,1890.015c-.121.948-.19,1.643-.314,2.329-.029.154-.252.271-.386.4-.133-.162-.385-.329-.378-.485a24.766,24.766,0,0,1,.234-2.5c.024-.173.3-.309.454-.462Z" transform="translate(18.763 1.549)" fill="#42d4f3"/>
  </g>
</svg>
