<svg xmlns="http://www.w3.org/2000/svg" width="491.008" height="505.942" viewBox="0 0 491.008 505.942">
  <g id="_2_science_6" data-name="2_science_6" transform="matrix(-0.985, -0.174, 0.174, -0.985, 435.561, 544.561)">
    <path id="Path_2695" data-name="Path 2695" d="M16.561.2A19.291,19.291,0,1,1,.2,22.026,19.291,19.291,0,0,1,16.561.2Z" transform="translate(379.845 440.594)" fill="#9044e2"/>
    <path id="Path_2696" data-name="Path 2696" d="M354.081,150.033a33.736,33.736,0,0,1,7.738,17.163,34.118,34.118,0,0,1,.337,4.652c.322-.06.644-.118.971-.165a23.036,23.036,0,1,1-.226,45.577A28.8,28.8,0,0,1,355,239.083a58.793,58.793,0,0,1-31.953,56.382,33.911,33.911,0,0,1-43.037,16.595,28.692,28.692,0,0,1-36.53,15.189,16.857,16.857,0,1,1-31.766,5.074A19.334,19.334,0,0,1,197.6,322.265q-.485.095-.982.166a19.251,19.251,0,0,1-15.694-4.81,31.581,31.581,0,0,1-21.129-6.211,24.967,24.967,0,0,1-16.629,17.439,13.541,13.541,0,1,1-25.232-6.259,24.923,24.923,0,0,1-6.982-20.761,26.276,26.276,0,0,1-24.524-14.711c-.47.434-.949.858-1.442,1.265a26.249,26.249,0,0,1-51.842,4.69,20,20,0,1,1-4.15-32.916,34.291,34.291,0,0,1,23.038-30.617,48.722,48.722,0,0,1-5.4-16.352,49.362,49.362,0,0,1-.476-6.087,48.823,48.823,0,0,1-1.574-72.792A32.592,32.592,0,0,1,53.722,110.8,32.636,32.636,0,0,1,69.413,54.527,28.548,28.548,0,0,1,85.519,36.376,15.8,15.8,0,0,1,84.607,15.8,7.939,7.939,0,1,1,93.1,10.225a16.269,16.269,0,0,1,1.726-.35,15.825,15.825,0,0,1,13.591,26.707,28.613,28.613,0,0,1,9.164,6.565,40.321,40.321,0,0,1,21.649-9.973A42.881,42.881,0,0,1,150.137,33c3.776-10.972,15.2-19.948,29.742-22.028,13.055-1.867,25.257,2.309,32.465,10.037a28.485,28.485,0,0,1,14.622,6.547,28.484,28.484,0,0,1,50.958-2.616,28.488,28.488,0,0,1,14.484,52.779,20.22,20.22,0,0,1,8.369,10.708,24.225,24.225,0,0,1,27.286,8.76,24.26,24.26,0,0,1,32.72,11.766,24.25,24.25,0,0,1-6.7,41.077Zm-128.837,147.1c.082-.7.193-1.4.325-2.085q-1.562.292-3.11.565A19.339,19.339,0,0,1,225.245,297.135Z" transform="translate(63.364 59.616)" fill="#9044e2"/>
    <path id="Path_2697" data-name="Path 2697" d="M13.945.166A16.245,16.245,0,1,1,.166,18.548,16.246,16.246,0,0,1,13.945.166Z" transform="translate(126.576 389.773)" fill="#9044e2"/>
    <path id="Path_2698" data-name="Path 2698" d="M7.9.094A9.2,9.2,0,1,1,.094,10.5,9.2,9.2,0,0,1,7.9.094Z" transform="translate(93.17 385.103)" fill="#9044e2"/>
    <path id="Path_2699" data-name="Path 2699" d="M7.521,13.109a6.587,6.587,0,1,1,5.587-7.454A6.59,6.59,0,0,1,7.521,13.109Z" transform="translate(383.674 408.674)" fill="#9044e2"/>
    <path id="Path_2700" data-name="Path 2700" d="M5.655.067A6.587,6.587,0,1,1,.067,7.521,6.586,6.586,0,0,1,5.655.067Z" transform="translate(442.569 354.516)" fill="#9044e2"/>
    <path id="Path_2701" data-name="Path 2701" d="M13.107,5.655A6.587,6.587,0,1,1,5.655.067,6.586,6.586,0,0,1,13.107,5.655Z" transform="translate(88.862 101.53)" fill="#9044e2"/>
    <path id="Path_2702" data-name="Path 2702" d="M12.864,22.422A11.267,11.267,0,1,1,22.42,9.673,11.267,11.267,0,0,1,12.864,22.422Z" transform="translate(0 296.769)" fill="#9044e2"/>
    <path id="Path_2703" data-name="Path 2703" d="M7.521,13.108a6.587,6.587,0,1,1,5.587-7.453A6.588,6.588,0,0,1,7.521,13.108Z" transform="translate(19.251 282.031)" fill="#9044e2"/>
    <path id="Path_2704" data-name="Path 2704" d="M5.654.067A6.587,6.587,0,1,1,.067,7.52,6.588,6.588,0,0,1,5.654.067Z" transform="translate(434.952 329.9)" fill="#9044e2"/>
    <path id="Path_2705" data-name="Path 2705" d="M11.965,20.859A10.482,10.482,0,1,1,20.856,9,10.482,10.482,0,0,1,11.965,20.859Z" transform="translate(438.389 168.084)" fill="#9044e2"/>
    <path id="Path_2706" data-name="Path 2706" d="M17.984,31.349A15.753,15.753,0,1,1,31.346,13.524,15.756,15.756,0,0,1,17.984,31.349Z" transform="translate(319.204 0)" fill="#9044e2"/>
    <path id="Path_2707" data-name="Path 2707" d="M21.791,15.527a6.575,6.575,0,0,1-2.113-.043A10.481,10.481,0,1,1,17.906,3.1a6.594,6.594,0,1,1,3.884,12.425Z" transform="translate(336.185 58.891)" fill="#9044e2"/>
    <path id="Path_2708" data-name="Path 2708" d="M3.365,5.864a2.947,2.947,0,1,1,2.5-3.333A2.946,2.946,0,0,1,3.365,5.864Z" transform="translate(367.771 62.985)" fill="#9044e2"/>
    <path id="Path_2709" data-name="Path 2709" d="M3.365,5.863a2.946,2.946,0,1,1,2.5-3.334A2.948,2.948,0,0,1,3.365,5.863Z" transform="translate(70.712 146.481)" fill="#9044e2"/>
    <path id="Path_2710" data-name="Path 2710" d="M3.364,5.863a2.946,2.946,0,1,1,2.5-3.333A2.946,2.946,0,0,1,3.364,5.863Z" transform="translate(39.679 254.559)" fill="#9044e2"/>
    <path id="Path_2711" data-name="Path 2711" d="M3.365,5.862a2.946,2.946,0,1,1,2.5-3.334A2.947,2.947,0,0,1,3.365,5.862Z" transform="translate(75.315 287.803)" fill="#9044e2"/>
    <path id="Path_2712" data-name="Path 2712" d="M3.364,5.864a2.947,2.947,0,1,1,2.5-3.334A2.946,2.946,0,0,1,3.364,5.864Z" transform="translate(192.76 57.901)" fill="#9044e2"/>
    <path id="Path_2713" data-name="Path 2713" d="M5.865,2.53A2.947,2.947,0,1,1,2.53.03,2.947,2.947,0,0,1,5.865,2.53Z" transform="translate(316.895 30.882)" fill="#9044e2"/>
    <path id="Path_2714" data-name="Path 2714" d="M3.981.047A4.637,4.637,0,1,1,.047,5.294,4.637,4.637,0,0,1,3.981.047Z" transform="translate(425.723 404.492)" fill="#9044e2"/>
    <path id="Path_2715" data-name="Path 2715" d="M5.294,9.229A4.638,4.638,0,1,1,9.228,3.982,4.639,4.639,0,0,1,5.294,9.229Z" transform="translate(462.312 346.804)" fill="#9044e2"/>
    <path id="Path_2716" data-name="Path 2716" d="M16.694,29.1A14.621,14.621,0,1,1,29.1,12.552,14.619,14.619,0,0,1,16.694,29.1Z" transform="translate(97.736 21.982)" fill="#9044e2"/>
  </g>
</svg>
