<svg xmlns="http://www.w3.org/2000/svg" width="79.669" height="138.914" viewBox="0 0 79.669 138.914">
  <g id="_4_science_3" data-name="4_science_3" transform="translate(2308.357 -2023.089)">
    <path id="Path_2143" data-name="Path 2143" d="M-2229.063,2057.971a8.723,8.723,0,0,0-7.129-5.187c2.835-1.58,5.762-4.048,4.715-7.194-.968-2.911-4.411-5.216-8.842-5.95a7.851,7.851,0,0,0,3.583-3.464.52.52,0,0,0,.47-.439,5.728,5.728,0,0,0-.12-1.872c-.022-.158-.047-.329-.089-.5a.417.417,0,0,0-.129-.21c-1.559-4.149-7.709-6.364-11.244-7.314a86.15,86.15,0,0,0-24.525-2.709,88.445,88.445,0,0,0-11.856,1.151c-3.314.551-7.068,1.177-9.866,2.756-1.961,1.106-3.826,3.067-3.182,5.25a3.944,3.944,0,0,0,1.848,2.2c-.346.017-.669.037-.981.059-3.329.252-7.655,1.092-9.373,3.659a3.216,3.216,0,0,0-.485,2.61,5.44,5.44,0,0,0,2.829,3.255,14.278,14.278,0,0,0,4.1,1.368,2.558,2.558,0,0,0-1.176,2.2,2.723,2.723,0,0,0,1.3,2.048,18.151,18.151,0,0,0-3.295.211c-2.534.4-4.693,1.684-5.5,3.272a3.1,3.1,0,0,0,.029,2.923,6.341,6.341,0,0,0,2.9,2.659.353.353,0,0,0,.262.131c.31.148.644.287,1.015.422a.33.33,0,0,0,.129.14.365.365,0,0,0,.337.021,22.813,22.813,0,0,0,6.812.955h.045l.34,0a1.755,1.755,0,0,0,.027,2.193,6.915,6.915,0,0,0,3.26,1.873c.123.046.246.091.367.135-.157,0-.316,0-.474,0-.7,0-1.387-.023-1.918-.042a.45.45,0,0,0-.253-.011l-.634-.028c-1.369-.059-2.786-.118-4.178-.044-2.321.13-4.019.813-4.78,1.929a2.8,2.8,0,0,0-.258,2.56,5.759,5.759,0,0,0,2.783,3.068.234.234,0,0,0,.054.1.349.349,0,0,0,.314.109,13.072,13.072,0,0,0,2.041.851.527.527,0,0,0,.263.266c.2.1.4.207.6.314a.37.37,0,0,0,.191.109,10.3,10.3,0,0,1,4.637,4.951.964.964,0,0,0-.109,0c-1.979.14-4.222.3-5.867,1.278a3.336,3.336,0,0,0-1.761,2.306.459.459,0,0,0-.254.362,3.342,3.342,0,0,0,.007.658.848.848,0,0,0-.38.049.511.511,0,0,0-.287.274c-3.89,9.238-1.082,19.166,7.511,26.563a.309.309,0,0,0,.129.107,36.812,36.812,0,0,0,5.106,3.631.409.409,0,0,0-.007.263,32.14,32.14,0,0,1,1.434,9.935.4.4,0,0,0,.114.289.452.452,0,0,0-.028.306.509.509,0,0,0,.354.328.351.351,0,0,0,.044.1,16.065,16.065,0,0,1,1.943,5.789l-.372,0a.564.564,0,0,0-.574.341l-1.019.238a.577.577,0,0,0-.46.428.4.4,0,0,0,.207.413,4.3,4.3,0,0,0,2.072.629.739.739,0,0,0,.376-.074c.083,1.009.126,2.036.167,3.145l-.491.054a.573.573,0,0,0-.242-.237.672.672,0,0,0-.608,0,1.671,1.671,0,0,0-.506.384.478.478,0,0,0-.406.3.432.432,0,0,0,.1.416.991.991,0,0,0,.249.681,1.492,1.492,0,0,0,.6.416,1.465,1.465,0,0,0-.068.258.242.242,0,0,0,.085.235.414.414,0,0,0,.389.047.3.3,0,0,0,.2-.229.977.977,0,0,1,.043-.165,2.546,2.546,0,0,0,.68-.039v.208c-.044.042-.086.086-.129.129a.237.237,0,0,0-.063.268.3.3,0,0,0,.185.162c-.007.435-.018.872-.031,1.312-.015.542-.03,1.086-.037,1.63l-.322.065c-.275.059-.552.115-.829.172a.545.545,0,0,0-.408.277.45.45,0,0,0-.041.158.532.532,0,0,0-.587.49c0,.243.209.49.608.49h1.229l-.456,1.088a.26.26,0,0,0,.162.348.373.373,0,0,0,.484-.158l.212-.5a16.112,16.112,0,0,0,.379,2.651l-.277.051a.551.551,0,0,0-.388.227.4.4,0,0,0-.061.157.636.636,0,0,0-.467.339.369.369,0,0,0,.1.4,1.365,1.365,0,0,0,1.259.3l.29.032a10.343,10.343,0,0,0,.449,1.01l-.482.79a.273.273,0,0,0,.108.382.35.35,0,0,0,.48-.084l.256-.42q.169.285.334.522a.666.666,0,0,0,.92.105.427.427,0,0,0,.143-.62,9.153,9.153,0,0,1-.682-1.181l.664-1.087a.254.254,0,0,0,.008-.261.322.322,0,0,0-.12-.122c.87-.162,1.7-.319,2.5-.475l-2.272,3.744a.267.267,0,0,0-.018.037l-2.462.52a.538.538,0,0,0-.4.281.415.415,0,0,0-.042.2.5.5,0,0,0-.341.414c-.011.175.1.4.442.488l.627.172a.636.636,0,0,0,.588-.11,8.347,8.347,0,0,0,2.693-.465,7.484,7.484,0,0,0,4.48,4.6.383.383,0,0,0,.027.234,7.765,7.765,0,0,0,2.6,3.672c-.05.042-.1.084-.149.125a.268.268,0,0,0-.1.251.324.324,0,0,0,.211.234.359.359,0,0,0,.352-.056c.083-.069.163-.138.244-.207l.032.016a5.313,5.313,0,0,0,.722.3.276.276,0,0,0,.106.13.419.419,0,0,0,.419.023,13.539,13.539,0,0,0,3.205.3c.416,0,.832-.009,1.248-.016.552-.009,1.073-.018,1.571-.01,2.043.041,4.366-.082,6.129-1.244a8.068,8.068,0,0,0,2.669-3.476c.124-.25.248-.5.376-.736a.373.373,0,0,0,.015-.344.481.481,0,0,0-.266-.227.415.415,0,0,0-.017-.134c3.186-2.674,4.823-5.9,4.76-9.359a.625.625,0,0,0,.623.143,3.886,3.886,0,0,0,2.234-1.389.394.394,0,0,0,.07-.351.5.5,0,0,0-.249-.294.489.489,0,0,0-.174-.268.536.536,0,0,0-.109-.05c.016,0,.034.009.049.009a.38.38,0,0,0,.064-.006.309.309,0,0,0,.251-.187l1.575-4.031a.251.251,0,0,0-.023-.232l-.011-.009.033-.014a.448.448,0,0,0,.3-.485.513.513,0,0,0-.238-.333.362.362,0,0,0,.036-.307.709.709,0,0,0-.9-.363l-.007,0a5.079,5.079,0,0,0,.068-1.733.316.316,0,0,0-.285-.257l.872-2.106,0-.01a2.634,2.634,0,0,0,.863-1.145.4.4,0,0,0-.069-.4.8.8,0,0,0-.7-.209.563.563,0,0,0-.353.193.8.8,0,0,0-.5,0l-.149.044a8.552,8.552,0,0,0,1.545-2.854,7.944,7.944,0,0,0,.925-.59.413.413,0,0,0,.188-.4.533.533,0,0,0-.326-.388.752.752,0,0,0-.81-.213c-.546.173-1.094.339-1.645.506.1-.572.177-1.042.239-1.485a2.892,2.892,0,0,0,1.871-1.213l.058-.076,0-.011.006-.012a.358.358,0,0,0-.059-.452.845.845,0,0,0-.844-.116.769.769,0,0,0-.491-.006c-.094.03-.19.057-.285.086l-.064.019c.031-.4.046-.763.052-1.1l.017,0c.057-.017.115-.031.173-.046a.647.647,0,0,0,.283-.16.629.629,0,0,0,.438-.175.384.384,0,0,0,.1-.315,68.157,68.157,0,0,1-.414-8.52l.092-.08.033-.029q.831-.2,1.653-.412a.494.494,0,0,0,.428-.531.484.484,0,0,0-.234-.35c9.925-8.569,13.794-20.137,10.351-31a.47.47,0,0,0-.292-.294,3.623,3.623,0,0,0-.423-2.672,6.332,6.332,0,0,0-3.957-2.69.245.245,0,0,0,.051-.258.307.307,0,0,0-.169-.162,9.325,9.325,0,0,1,1.2-5.4l.035-.034a.249.249,0,0,0,.086-.18,14.544,14.544,0,0,1,6.207-5.442.52.52,0,0,0,.268-.274C-2229.491,2063.783-2227.9,2061.034-2229.063,2057.971Zm-1.431,2.862a.242.242,0,0,0-.023-.248.393.393,0,0,0-.343-.134.326.326,0,0,0-.277.182l-1.4,3.08a12.937,12.937,0,0,1-1.944.872l2.256-3.811a.276.276,0,0,0-.117-.384.34.34,0,0,0-.474.091l-2.371,4.007a.257.257,0,0,0,0,.264.3.3,0,0,0,.072.069,26.644,26.644,0,0,1-3.466.848c-.235.042-.471.08-.707.122.013-.017.033-.028.043-.046l2.065-4.009a.248.248,0,0,0-.122-.345.388.388,0,0,0-.515.132l-2.064,4.007a.239.239,0,0,0,.007.245.285.285,0,0,0,.115.1c-.724.125-1.448.252-2.173.373a15.856,15.856,0,0,0,2.307-3.652.257.257,0,0,0-.149-.346.374.374,0,0,0-.5.148,15.444,15.444,0,0,1-2.4,3.739.231.231,0,0,0-.036.244c-.48.08-.958.16-1.437.243l2.061-4.011a.248.248,0,0,0-.122-.345.388.388,0,0,0-.515.133l-2.179,4.243a.242.242,0,0,0-.029.118l-2.082.362-2.391.414,1.875-3.809a.238.238,0,0,0-.011-.246.371.371,0,0,0-.335-.138.337.337,0,0,0-.292.174l-1.917,3.9a.241.241,0,0,0,.011.24c-.547.094-1.093.185-1.644.277l2.179-4.082a.241.241,0,0,0,0-.245.384.384,0,0,0-.324-.145.35.35,0,0,0-.306.173l-2.2,4.124a.226.226,0,0,0,.053.276c-.565.095-1.129.192-1.693.283l1.706-3.458a.239.239,0,0,0-.013-.246.413.413,0,0,0-.333-.14.34.34,0,0,0-.292.177l-1.873,3.8c-.4.063-.792.123-1.188.185q.9-2.175,1.814-4.348a.24.24,0,0,0-.014-.226.3.3,0,0,0-.146-.121.368.368,0,0,0-.485.157l-1.865,4.467a.241.241,0,0,0,0,.18l-1.54.24,1.876-3.333a.234.234,0,0,0,0-.242.354.354,0,0,0-.31-.15h0a.357.357,0,0,0-.32.167l-1.96,3.48a.231.231,0,0,0,0,.19c-.484.075-.966.153-1.449.226l-.027-.016,1.647-2.517a.252.252,0,0,0,.017-.259.371.371,0,0,0-.307-.184.328.328,0,0,0-.292.139l-1.944,2.971c-1.585.238-3.133.463-4.658.681a.3.3,0,0,0,.162-.112l2.277-3.315a.25.25,0,0,0,.024-.258.368.368,0,0,0-.3-.188.346.346,0,0,0-.3.136l-2.277,3.315a.263.263,0,0,0,.083.377.4.4,0,0,0,.207.062c-.941.134-1.882.268-2.792.392a12.951,12.951,0,0,0,2.21-3.013.246.246,0,0,0-.118-.344.394.394,0,0,0-.517.129,12.657,12.657,0,0,1-2.6,3.369q-.936.126-1.87.248l-.1.014,2.218-2.8a.259.259,0,0,0,.054-.21.273.273,0,0,0-.1-.158.376.376,0,0,0-.518.041l-2.477,3.132a.281.281,0,0,0-.056.115l-.108.015c-.19.027-.379.051-.569.075l-.759.1a12.15,12.15,0,0,1,1.967-3.023.247.247,0,0,0-.026-.364.4.4,0,0,0-.531.025,12.74,12.74,0,0,0-2.136,3.348.268.268,0,0,0-.021.11q-.694.09-1.391.177a12.485,12.485,0,0,1,1.975-2.594.247.247,0,0,0,.071-.24.316.316,0,0,0-.237-.205.4.4,0,0,0-.377.092,12.985,12.985,0,0,0-2.245,3.052q-1.076.136-2.155.265l1.874-2.4a.25.25,0,0,0,.039-.253.343.343,0,0,0-.28-.2.331.331,0,0,0-.327.122l-2.177,2.794a.4.4,0,0,0-.027.042c-.785.093-1.525.178-2.237.254l2.521-3.552a.257.257,0,0,0,.028-.258.36.36,0,0,0-.3-.189.34.34,0,0,0-.309.132l-2.588,3.649a.253.253,0,0,0-.028.258c.005.011.019.017.025.028-.439.046-.886.094-1.3.135l1.832-2.409a.258.258,0,0,0-.057-.371.376.376,0,0,0-.514.049l-2.138,2.815q-1.169.109-2.342.2l2.526-3.037a.251.251,0,0,0,.048-.251.338.338,0,0,0-.268-.2.361.361,0,0,0-.342.116l-2.861,3.439q-1.02.076-2.043.134l2.341-2.912a.261.261,0,0,0,.057-.208.272.272,0,0,0-.1-.16.379.379,0,0,0-.522.038l-2.573,3.2a.293.293,0,0,0-.05.089l-.073,0c-.536.025-1.088.035-1.648.031a5.766,5.766,0,0,1,1.771-2.267.261.261,0,0,0,.045-.377.368.368,0,0,0-.505-.054,6.312,6.312,0,0,0-2.029,2.682c-.588-.021-1.175-.061-1.751-.117a6.87,6.87,0,0,1,1.46-1.677.262.262,0,0,0,.1-.25.314.314,0,0,0-.212-.234.346.346,0,0,0-.35.058,7.358,7.358,0,0,0-1.711,2.021c-.432-.054-.854-.119-1.258-.2a18.05,18.05,0,0,1,1.88-1.962.265.265,0,0,0,.09-.256.324.324,0,0,0-.223-.23.341.341,0,0,0-.338.067,18.524,18.524,0,0,0-2.124,2.237c-.322-.073-.633-.15-.927-.232a9.918,9.918,0,0,1,2.243-2.375.259.259,0,0,0,.054-.373.372.372,0,0,0-.509-.062,10.5,10.5,0,0,0-2.434,2.608,10.314,10.314,0,0,1-1.316-.536,7.208,7.208,0,0,1,1.57-1.627.258.258,0,0,0,.056-.372.371.371,0,0,0-.509-.064,7.911,7.911,0,0,0-1.694,1.752,6.487,6.487,0,0,1-.57-.385l0-.02a2.446,2.446,0,0,1,1.01-1.692.266.266,0,0,0,.106-.246.312.312,0,0,0-.2-.235.355.355,0,0,0-.36.05,3.141,3.141,0,0,0-1.145,1.622,3.541,3.541,0,0,1-.858-1.458.392.392,0,0,0,.076.017.367.367,0,0,0,.216-.068l1.391-1.012a.264.264,0,0,0,.118-.239.3.3,0,0,0-.188-.237.373.373,0,0,0-.377.037l-1.346.978a3.24,3.24,0,0,1-.043-.337c-.039-1.214.788-1.975,2.522-2.313l-.676.556a.267.267,0,0,0-.1.25.318.318,0,0,0,.209.236.36.36,0,0,0,.354-.056l1.086-.9a.267.267,0,0,0,.1-.227,19.968,19.968,0,0,1,2.19-.07l-.577.414a.259.259,0,0,0-.119.238.3.3,0,0,0,.186.238.385.385,0,0,0,.376-.035l1.09-.781a.276.276,0,0,0,.049-.046c.349.016.689.033,1.018.049l-1.1,1.039a.236.236,0,0,0-.019.347.422.422,0,0,0,.555.014l1.439-1.357c.256.011.5.022.724.028.443.012.887.017,1.331.018l-1.927,1.5a.261.261,0,0,0-.11.244.314.314,0,0,0,.2.236.365.365,0,0,0,.363-.047l2.493-1.935c.364,0,.728-.009,1.093-.018a13.071,13.071,0,0,0-1.637,1.9.263.263,0,0,0,.075.376.363.363,0,0,0,.5-.062,13.077,13.077,0,0,1,1.944-2.173.768.768,0,0,0,.553-.091q.536-.02,1.072-.048l-1.179,1.548a.259.259,0,0,0,.059.373.376.376,0,0,0,.511-.05l1.463-1.924q.7-.043,1.4-.1a7.2,7.2,0,0,1-1.518,1.869.268.268,0,0,0-.022.389.355.355,0,0,0,.493.032,7.8,7.8,0,0,0,1.828-2.353l.21-.017.787-.065a.432.432,0,0,0,.277.05.36.36,0,0,0,.2-.1l.235-.022.84-.081-1.519,2.088a.26.26,0,0,0,.067.374.367.367,0,0,0,.508-.058l1.816-2.5,1.437-.155-1.588,1.9a.248.248,0,0,0,.035.366.383.383,0,0,0,.525-.032l1.865-2.233a.245.245,0,0,0,.056-.106l.989-.113-1.416,1.8a.256.256,0,0,0-.054.21.273.273,0,0,0,.1.16.378.378,0,0,0,.517-.042l1.757-2.236,1.4-.161-1.411,1.6a.243.243,0,0,0,.024.361.392.392,0,0,0,.531-.021l1.8-2.052,2.765-.31a6.075,6.075,0,0,0-1.29,1.868.258.258,0,0,0,.156.346.374.374,0,0,0,.49-.154,5.688,5.688,0,0,1,1.622-2.116.346.346,0,0,0,.053-.06l1.742-.195a7.733,7.733,0,0,0-1.57,2.172.245.245,0,0,0,.02.248.362.362,0,0,0,.34.137.334.334,0,0,0,.283-.18,7.458,7.458,0,0,1,1.981-2.5c.3-.033.6-.068.9-.1l-1.148,1.441a.254.254,0,0,0,.047.368.378.378,0,0,0,.519-.04l1.493-1.876c.377-.044.752-.089,1.128-.135a3.36,3.36,0,0,0-.88,1.316.269.269,0,0,0,.191.348.356.356,0,0,0,.463-.175,3.167,3.167,0,0,1,1.464-1.639c.354-.044.711-.09,1.066-.137l.174-.021-.71.983a.256.256,0,0,0-.03.256.35.35,0,0,0,.292.189.338.338,0,0,0,.312-.128l1.021-1.414c.4-.054.809-.109,1.211-.165l-.792,1.028a.257.257,0,0,0,.055.371.378.378,0,0,0,.516-.045l1.138-1.479.423-.06c.312-.045.622-.095.932-.146l.086-.013a10.138,10.138,0,0,0-.8,1.572.244.244,0,0,0,.036.25.378.378,0,0,0,.359.122.308.308,0,0,0,.254-.188,9.841,9.841,0,0,1,1.018-1.9q.624-.1,1.246-.214l-.913,1.284a.255.255,0,0,0-.029.256.355.355,0,0,0,.3.189.354.354,0,0,0,.309-.13l1.255-1.767.064-.012.182-.032,0,.007a.357.357,0,0,0,.206.159l-.417.837a.242.242,0,0,0,.012.247.372.372,0,0,0,.333.139.338.338,0,0,0,.292-.178l.713-1.431q1.14-.226,2.274-.471l-.4,1.146a.25.25,0,0,0,.048.252.4.4,0,0,0,.367.114.3.3,0,0,0,.238-.191l.434-1.232a.329.329,0,0,0,.3-.184l.06-.133q.805-.179,1.611-.363l-.8,1.233a.255.255,0,0,0-.016.26.371.371,0,0,0,.306.183.341.341,0,0,0,.293-.139l1.089-1.675a.293.293,0,0,0,.033-.071c1.523-.356,3.025-.719,4.443-1.065l-1.176,1.243a.247.247,0,0,0-.064.244.317.317,0,0,0,.245.2.394.394,0,0,0,.369-.1l1.766-1.87,1.125-.272-.8,1.773a.245.245,0,0,0,.007.224.29.29,0,0,0,.139.123.377.377,0,0,0,.5-.147l.975-2.171.8-.195-.9,1.7a.235.235,0,0,0,0,.243.356.356,0,0,0,.308.145h.016a.349.349,0,0,0,.306-.173l1.068-2.017a.244.244,0,0,0-.115-.343.439.439,0,0,0-.22-.029.452.452,0,0,0-.117-.333.64.64,0,0,0-.63-.152c-.557.133-1.117.269-1.676.4a2,2,0,0,0,.185-.871.308.308,0,0,0-.344-.283h0a.3.3,0,0,0-.337.286,1.625,1.625,0,0,1-.424,1.093l-.966.235.367-1.479a.3.3,0,0,0-.251-.345.321.321,0,0,0-.412.2l-.447,1.805-1.158.279,1-2.25a.244.244,0,0,0-.025-.248.4.4,0,0,0-.347-.133.319.319,0,0,0-.272.184l-1.09,2.457a.24.24,0,0,0,.006.166c-.532.127-1.075.256-1.638.388l2.246-3.545a.27.27,0,0,0,.042-.162l.233-.029c.479-.057.959-.106,1.436-.158,1.029-.107,2.089-.22,3.109-.394l-.446,1.289a.253.253,0,0,0,.048.254.411.411,0,0,0,.369.112.3.3,0,0,0,.235-.192l.555-1.606c.455-.095.879-.2,1.285-.325a5.537,5.537,0,0,0-.342,1.381.277.277,0,0,0,.28.3c.17.014.383-.074.4-.264a4.987,4.987,0,0,1,.518-1.7c.192-.073.383-.149.573-.233l.185-.084h.026c.192-.009.386-.012.579-.007l-.715,1.8a.262.262,0,0,0,.17.346.36.36,0,0,0,.479-.161l.769-1.941a8.766,8.766,0,0,1,1.1.178l-.772,2.032a.249.249,0,0,0,.025.232.315.315,0,0,0,.153.116.357.357,0,0,0,.471-.167l.778-2.043a8.26,8.26,0,0,1,1.086.434l-1.1,1.581a.253.253,0,0,0-.024.257.363.363,0,0,0,.3.187.305.305,0,0,0,.3-.132l1.1-1.581a6.762,6.762,0,0,1,3.222,4.146,3.825,3.825,0,0,1-1.435,4.006Zm-7.062,5.671-.819.629c.231-.194.455-.4.674-.6Zm-4.022,3.421a.372.372,0,0,0,.51.065l.374-.288-3.375,2.723a.266.266,0,0,0-.1.189.261.261,0,0,0,.062.189.363.363,0,0,0,.241.127c-.073.077-.144.153-.211.229a.244.244,0,0,0,.019.36.4.4,0,0,0,.535-.019,9.8,9.8,0,0,1,.992-.96l-1.51,1.519a.246.246,0,0,0-.072.241.31.31,0,0,0,.234.2.387.387,0,0,0,.38-.09l.611-.613-.027.038c-.029.043-.057.082-.082.122a.263.263,0,0,0-.04.172l-1.039,1.147a.248.248,0,0,0-.06.246.324.324,0,0,0,.253.2.377.377,0,0,0,.359-.1l.533-.587a.442.442,0,0,0,.176.037.454.454,0,0,0,.069-.006l-1.474,1.436a.238.238,0,0,0-.01.35.41.41,0,0,0,.55.008l1.308-1.275v.064l-1.365,1.657a.252.252,0,0,0,.036.366.383.383,0,0,0,.525-.034l.832-1.008.008.079-.986,1.25a.253.253,0,0,0,.047.368.477.477,0,0,0,.265.082l-.519.59a.246.246,0,0,0-.057.246.329.329,0,0,0,.258.2.368.368,0,0,0,.354-.1l.915-1.04.012.047a4.024,4.024,0,0,0-.832,1.49.259.259,0,0,0,.063.254.415.415,0,0,0,.38.1.291.291,0,0,0,.214-.2,3.332,3.332,0,0,1,.407-.878c.045.135.093.263.14.388l-.843,1.147a.251.251,0,0,0-.046.219.276.276,0,0,0,.11.155.367.367,0,0,0,.508-.053l.533-.726-.377,1.148a.255.255,0,0,0,.04.236,24.605,24.605,0,0,1-3.776.493l.492-.987a.237.237,0,0,0,0-.215.271.271,0,0,0-.132-.129.388.388,0,0,0-.511.134l-.622,1.249-.575.04q-1.1.078-2.2.154l.862-.951a.243.243,0,0,0-.016-.36.394.394,0,0,0-.536.016l-1.231,1.357-.315.023c-.057-.035-.116-.07-.174-.1l1.765-1.844a.245.245,0,0,0,.068-.241.315.315,0,0,0-.242-.2.391.391,0,0,0-.372.094l-1.781,1.862,1.135-1.5a.256.256,0,0,0,.036-.254.353.353,0,0,0-.286-.192.32.32,0,0,0-.32.125l-1.187,1.57a1.718,1.718,0,0,0-.191-.172,5.284,5.284,0,0,1,1.914-2.341.261.261,0,0,0,.118-.241.3.3,0,0,0-.187-.234.38.38,0,0,0-.376.033,5.964,5.964,0,0,0-2.017,2.369c-.115-.155-.205-.315-.308-.473l.005,0a.413.413,0,0,0,.192.045.356.356,0,0,0,.325-.174,7.561,7.561,0,0,1,1.936-2.349.262.262,0,0,0,.1-.252.315.315,0,0,0-.212-.235.352.352,0,0,0-.349.056,8.251,8.251,0,0,0-2.11,2.564.231.231,0,0,0-.013.143,7.2,7.2,0,0,1-1.1-3.228l.03-.012a8.294,8.294,0,0,0,2.287-1.528.245.245,0,0,0,.078-.237.307.307,0,0,0-.226-.206.4.4,0,0,0-.388.085,7.4,7.4,0,0,1-1.8,1.243c0-.1.007-.2.014-.292q1.063-.777,2.126-1.557a.261.261,0,0,0,.117-.241.3.3,0,0,0-.192-.234.37.37,0,0,0-.371.037l-1.57,1.147a7.294,7.294,0,0,1,.248-.9.4.4,0,0,0,.161.039.387.387,0,0,0,.206-.058l3.409-2.134a.247.247,0,0,0,.094-.352.4.4,0,0,0-.524-.1l-3.072,1.925a8.115,8.115,0,0,1,.969-1.578l4.547-2.918a.245.245,0,0,0,.089-.353.31.31,0,0,0-.1-.093,15.782,15.782,0,0,1,1.939-.694.13.13,0,0,0,0,.031.285.285,0,0,0,.169.236.4.4,0,0,0,.393-.016l1.392-.892a.3.3,0,0,0,.075-.063l.974-.165c.5-.084,1-.164,1.5-.245a12.828,12.828,0,0,1-2.833,1.091.286.286,0,0,0-.238.344.315.315,0,0,0,.314.228.408.408,0,0,0,.1-.012,14.657,14.657,0,0,0,1.642-.53l-.228.132a.244.244,0,0,0-.105.344.4.4,0,0,0,.527.115l2.45-1.44a20.265,20.265,0,0,1-2.125,1.4.255.255,0,0,0-.143.22.273.273,0,0,0,.149.234.421.421,0,0,0,.411.005q.8-.458,1.543-.976l-1.613,1.241A.259.259,0,0,0-2241.578,2069.925Zm-54.224,4.386a1.572,1.572,0,0,1-.026.237c-.3-.253-.611-.5-.942-.737.312.044.629.081.955.113v.3A.254.254,0,0,0-2295.8,2074.312Zm55.586-7.307c0-.009,0-.022-.005-.031l.08-.012Zm-.569,14.341c-.1.04-.211.075-.323.11l.14-.427C-2240.9,2081.138-2240.843,2081.244-2240.784,2081.346Zm-52.223-6.011a1.588,1.588,0,0,0,1.168-.357.264.264,0,0,0,.086-.256.32.32,0,0,0-.227-.231.323.323,0,0,0-.333.071.8.8,0,0,1-.258.152.281.281,0,0,0-.073-.061.357.357,0,0,0-.342-.013c-.077.034-.151.074-.224.114a.336.336,0,0,0-.222.129,3.193,3.193,0,0,0-1.052,1.02c-.135-.164-.267-.314-.4-.455q.753-.491,1.505-.988a.256.256,0,0,0,.127-.232.261.261,0,0,0-.1-.192h.06c1.092,0,2.189-.054,3.282-.133l-1.22,1.264a.24.24,0,0,0,0,.355.4.4,0,0,0,.275.1.369.369,0,0,0,.268-.107l1.4-1.452a.23.23,0,0,0,.057-.225c.984-.081,1.966-.177,2.934-.272l.47-.046-1.036.925a.265.265,0,0,0-.023.386.355.355,0,0,0,.494.033l1.386-1.235a.293.293,0,0,0,.091-.154.465.465,0,0,0,.158.241c.027.021.052.044.078.067a3.629,3.629,0,0,0-1.307,1.336.237.237,0,0,0,0,.243.358.358,0,0,0,.309.146h.012a.348.348,0,0,0,.309-.17,3.045,3.045,0,0,1,1.148-1.137l.1.091-.725.772a.242.242,0,0,0-.065.243.316.316,0,0,0,.246.2.378.378,0,0,0,.366-.1l.637-.678.119.124a3.018,3.018,0,0,1-1.107,1.15.255.255,0,0,0-.133.227.286.286,0,0,0,.165.238.406.406,0,0,0,.4-.014,3.669,3.669,0,0,0,1.14-1.1c.046.053.085.11.131.164a.285.285,0,0,0-.268.182,2.075,2.075,0,0,1-1.061,1.184.274.274,0,0,0-.126.381.333.333,0,0,0,.292.169.365.365,0,0,0,.17-.044,2.743,2.743,0,0,0,1.345-1.439c.066.086.141.169.206.256a.311.311,0,0,0-.182.139,4.5,4.5,0,0,1-1.46,1.56.25.25,0,0,0-.078.36.376.376,0,0,0,.305.151.379.379,0,0,0,.212-.066,5.084,5.084,0,0,0,1.546-1.64c.11.163.226.323.327.487l-1.4,1.672a.249.249,0,0,0,.034.366.385.385,0,0,0,.527-.031l1.18-1.409c.157.3.3.616.436.94a3.722,3.722,0,0,1-1.365,1.284.257.257,0,0,0-.143.222.278.278,0,0,0,.152.233.418.418,0,0,0,.41,0c.048-.029.086-.064.134-.094l-.931,1.034a.243.243,0,0,0,.019.36.4.4,0,0,0,.264.1.355.355,0,0,0,.27-.114l1.523-1.691a.254.254,0,0,0,.048-.137,10.167,10.167,0,0,1,.276,1.155.384.384,0,0,0-.413.086l-1.355,1.472a.249.249,0,0,0-.064.245.323.323,0,0,0,.251.2.369.369,0,0,0,.362-.1l.58-.63a3.03,3.03,0,0,1-.616.695.266.266,0,0,0-.1.251.319.319,0,0,0,.215.234.354.354,0,0,0,.348-.058,3.676,3.676,0,0,0,.879-1.053.354.354,0,0,0,.006.078l.023.138-1.1,1.137q-1.972.039-3.94.063l-.662.01c-.176,0-.37,0-.551,0q.573-.669,1.144-1.341a.251.251,0,0,0,.051-.249.337.337,0,0,0-.263-.2.359.359,0,0,0-.346.112l-1.24,1.453a.247.247,0,0,0-.054.229c-.916.009-1.859.008-2.8-.042a.254.254,0,0,0-.051-.15.377.377,0,0,0-.514-.077l-.24.173c-.128-.01-.256-.023-.382-.036a.253.253,0,0,0-.07-.1.381.381,0,0,0-.475-.034l-.092.066c-.139-.018-.275-.039-.413-.059l.484-.347a.252.252,0,0,0,.069-.365.375.375,0,0,0-.514-.076l-.874.627c-.167-.037-.329-.076-.486-.117l.874-.626a.261.261,0,0,0,.118-.239.3.3,0,0,0-.186-.237l-.012,0q.571-.441,1.146-.881a.258.258,0,0,0,.056-.371.373.373,0,0,0-.51-.065l-.331.255c-.006-.126-.018-.255-.031-.391l1.135-1a.265.265,0,0,0,.025-.387.356.356,0,0,0-.495-.036l-.733.644.466-.794.01,0a.377.377,0,0,1,.054-.027.265.265,0,0,0,.163-.354.366.366,0,0,0-.474-.164l-.035.019a.365.365,0,0,0-.232.115c-.095.049-.187.1-.277.156q-.062-.185-.132-.365a1.372,1.372,0,0,1,.771-.493.288.288,0,0,0,.231-.354.319.319,0,0,0-.412-.2,2.383,2.383,0,0,0-.858.42c-.051-.107-.1-.209-.155-.307a4.321,4.321,0,0,1,1.713-1.152.28.28,0,0,0,.188-.213.276.276,0,0,0-.109-.254.379.379,0,0,0-.38-.051,5.042,5.042,0,0,0-1.747,1.1c-.138-.228-.267-.421-.4-.6A2.4,2.4,0,0,1-2293.007,2075.335Zm1.422,4.139Zm11.615,4.29-.383.006.327-.336Zm25.044-9a7.653,7.653,0,0,0,1.238,6.641.676.676,0,0,0-.211.171.5.5,0,0,0-.091.5.852.852,0,0,0,.615.467c.016.034.035.069.055.1l-.927.058c-5.167.316-10.446.574-15.692.765-2.8.1-5.755.191-8.786.26l-.214-1.27a.41.41,0,0,0-.089-.2.392.392,0,0,0,.1-.292,12.542,12.542,0,0,0-4.632-8.678c2.835-.285,5.728-.61,8.607-.969,6.294-.786,13.1-1.783,21.43-3.14q2.2-.36,4.4-.726A10.674,10.674,0,0,0-2254.926,2074.765Zm-25.9,4.875c.052-.056.116-.1.164-.163.031.094.041.193.068.287-.011-.016-.01-.035-.024-.047A.4.4,0,0,0-2280.824,2079.64Zm-13.2,3.254a.452.452,0,0,0,.051.036l-.027.019a.341.341,0,0,0-.057-.036Zm-1.1-8.914q.638.037,1.282.049l-1.365.9A2.614,2.614,0,0,0-2295.123,2073.98Zm52.883.222c-.024.144-.046.287-.063.43l-.193.188.163-.514Zm-51.681-13.825-1.237,1.458a.782.782,0,0,1-.172-.645c.073-.267.376-.491.9-.672a.516.516,0,0,0,.22-.133Zm-.577-3.71a.261.261,0,0,0,.045-.377.367.367,0,0,0-.505-.056l-3.933,3.164c-.6-.061-1.181-.143-1.73-.246l3.788-2.816a.256.256,0,0,0,.062-.369.373.373,0,0,0-.512-.069q-2.074,1.541-4.145,3.083c-.3-.072-.607-.156-.911-.25l3.328-2.508a.259.259,0,0,0,.113-.241.315.315,0,0,0-.2-.238.359.359,0,0,0-.367.044q-1.8,1.351-3.6,2.707l-.025-.007c-.032-.011-.066-.021-.1-.033-.21-.078-.424-.168-.635-.265a20.68,20.68,0,0,1,2.752-1.8.28.28,0,0,0,.158-.241.3.3,0,0,0-.147-.257.344.344,0,0,0-.349,0,21.4,21.4,0,0,0-3.026,2c-.266-.146-.514-.3-.739-.449l4.3-2.976a.263.263,0,0,0,.123-.237.3.3,0,0,0-.18-.237.388.388,0,0,0-.384.028l-4.375,3.029a5.787,5.787,0,0,1-.524-.489,11.67,11.67,0,0,1,3.127-2.15.271.271,0,0,0,.147-.366.348.348,0,0,0-.469-.144,12.531,12.531,0,0,0-3.2,2.169,3.308,3.308,0,0,1-.313-.545l2.485-1.6a.247.247,0,0,0,.089-.353.39.39,0,0,0-.523-.1l-2.232,1.438a2.249,2.249,0,0,1,.224-1.4c1-2.016,3.919-2.943,8.643-2.765,5.575.213,11.094.155,16.87-.179a.4.4,0,0,0,.238.057.326.326,0,0,0,.2-.083c6.25-.376,12.547-1.061,19.247-2.094,3.033-.469,6.248-1.006,10.12-1.688.778-.137,1.577-.256,2.423-.381a37.672,37.672,0,0,0,6.094-1.243,4.67,4.67,0,0,0,1.984-1.155.415.415,0,0,0,.374.026.3.3,0,0,0,.193-.231l.43-3.068c.563.122,1.113.254,1.465.344l-.671,3.2a.262.262,0,0,0,.089.257.411.411,0,0,0,.387.081.272.272,0,0,0,.188-.2l.656-3.123c.343.126.683.272,1.019.432l-.72,4.041a.262.262,0,0,0,.241.3.365.365,0,0,0,.439-.249l.67-3.772a10.222,10.222,0,0,1,1.121.71c.137.1.249.212.375.318a.411.411,0,0,0-.178,0,.279.279,0,0,0-.2.2l-.813,3.455a.26.26,0,0,0,.08.257.416.416,0,0,0,.276.1.335.335,0,0,0,.109-.015.274.274,0,0,0,.2-.2l.814-3.456a.28.28,0,0,0,0-.106,7.494,7.494,0,0,1,1.011,1.076.243.243,0,0,0-.063.187,5.17,5.17,0,0,1-.263,2.081.385.385,0,0,0-.142-.032.318.318,0,0,0-.371.277,7.4,7.4,0,0,1-1.065,3.465.24.24,0,0,0,.095.342.407.407,0,0,0,.534-.112,8.1,8.1,0,0,0,1.066-3.071.328.328,0,0,0,.115-.007.312.312,0,0,0,.229-.175,5.786,5.786,0,0,0,.48-1.914,3.514,3.514,0,0,1-.252,3.5,9.334,9.334,0,0,1-3.14,2.729l.935-3.551a.288.288,0,0,0-.238-.347.326.326,0,0,0-.424.2l-1.1,4.164c-.374.2-.746.39-1.108.565-.272.131-.556.252-.864.371l1.221-3.827a.255.255,0,0,0-.056-.253.4.4,0,0,0-.375-.107.29.29,0,0,0-.225.194l-1.362,4.27a16.35,16.35,0,0,1-1.784.441,29.15,29.15,0,0,0,1.378-4.121.26.26,0,0,0-.077-.255.416.416,0,0,0-.385-.091.277.277,0,0,0-.2.2,29.113,29.113,0,0,1-1.5,4.4c-.619.1-1.252.175-1.98.258l1.9-3.5a.236.236,0,0,0,0-.245.358.358,0,0,0-.309-.146h-.011a.352.352,0,0,0-.311.17l-2.073,3.806-.036,0c-.405.044-.812.089-1.225.137l-.443.053,1.208-2.255a.3.3,0,0,0,.228-.244l.036-.292a.261.261,0,0,0-.2-.281.406.406,0,0,0-.464.155l-1.615,3.015-2.181.262a28.066,28.066,0,0,1,1.92-2.758.253.253,0,0,0,.056-.209.275.275,0,0,0-.1-.16.376.376,0,0,0-.52.041,28.124,28.124,0,0,0-2.182,3.187l-1.589.192,1.681-3.174a.245.245,0,0,0-.113-.344.4.4,0,0,0-.521.126l-1.847,3.492-2.013.246a10.557,10.557,0,0,0,2.146-2.973.237.237,0,0,0-.016-.247.375.375,0,0,0-.34-.137.328.328,0,0,0-.283.179,10.093,10.093,0,0,1-2.076,2.852.246.246,0,0,0-.076.238.282.282,0,0,0,.127.151q-.95.117-1.9.233a8.176,8.176,0,0,0,2.847-3.5.253.253,0,0,0-.019-.23.314.314,0,0,0-.15-.118.364.364,0,0,0-.479.16,7.677,7.677,0,0,1-2.794,3.37.26.26,0,0,0-.119.238.257.257,0,0,0,.084.159l-1.766.216,2.45-2.69a.246.246,0,0,0,.061-.245.328.328,0,0,0-.252-.2.392.392,0,0,0-.36.1l-2.645,2.9a.247.247,0,0,0-.061.23q-.719.086-1.437.176l2.61-2.539a.24.24,0,0,0,.075-.237.3.3,0,0,0-.226-.2.405.405,0,0,0-.388.084l-3.1,3.015-.007.006-1.634.2,3.016-2.818a.236.236,0,0,0,.02-.347.42.42,0,0,0-.555-.017l-3.539,3.307q-.48.057-.957.112l-.341.041,2.4-2.446a.248.248,0,0,0,.069-.242.315.315,0,0,0-.237-.2.408.408,0,0,0-.377.093l-2.859,2.915-1.083.126,2.678-2.623a.239.239,0,0,0,.009-.352.414.414,0,0,0-.549-.005l-3.163,3.1c-.4.046-.81.089-1.215.134h-.013l2.63-2.639a.236.236,0,0,0,.006-.351.409.409,0,0,0-.548,0l-2.989,3a.289.289,0,0,0-.066.1c-.664.073-1.329.141-1.994.212l3.421-3.011a.265.265,0,0,0,.024-.387.357.357,0,0,0-.494-.036q-1.713,1.51-3.424,3.015a.264.264,0,0,0-.025.387c.037.043.1.049.157.07l-1.663.178,1.092-1.5a.249.249,0,0,0,.031-.255.356.356,0,0,0-.291-.191.349.349,0,0,0-.312.13l-1.39,1.909-.954.1a19.58,19.58,0,0,1,2.4-2.646.264.264,0,0,0,.087-.258.326.326,0,0,0-.227-.23.329.329,0,0,0-.332.071,19.936,19.936,0,0,0-2.8,3.149c-.341.034-.683.064-1.027.1l-.219.019,2.229-2.2a.238.238,0,0,0,.008-.351.411.411,0,0,0-.549,0l-2.489,2.456a.254.254,0,0,0-.081.182l-.434.041c-.517.049-1.031.1-1.548.144l1.664-2.614a.27.27,0,0,0-.1-.381.356.356,0,0,0-.486.077l-1.9,2.991-.374.033c-.2.019-.394.036-.592.052q-.449.037-.911.081l2.646-3.06a.259.259,0,0,0,.064-.2.276.276,0,0,0-.091-.164.4.4,0,0,0-.531.026l-2.912,3.37a.273.273,0,0,0-.061.115l-1.057.108a.58.58,0,0,0-.1.007c-.4.042-.811.083-1.225.123a15.194,15.194,0,0,1,3.071-3.1.263.263,0,0,0,.11-.243.309.309,0,0,0-.2-.237.367.367,0,0,0-.365.044,15.645,15.645,0,0,0-3.479,3.623l-.092.009a.419.419,0,0,0-.219-.072.371.371,0,0,0-.284.116l0,0c-.592.052-1.167.1-1.717.137.653-.628,1.348-1.234,2.066-1.8a.263.263,0,0,0,.106-.247.31.31,0,0,0-.2-.235.353.353,0,0,0-.359.05,28.865,28.865,0,0,0-2.572,2.295c-.622.033-1.2.056-1.747.066a13.3,13.3,0,0,1,2.864-2.155.26.26,0,0,0,.143-.22.274.274,0,0,0-.148-.233.408.408,0,0,0-.412,0,13.632,13.632,0,0,0-3.336,2.616c-.659,0-1.3-.022-1.924-.063Zm-7.83-16.278a.244.244,0,0,0-.111-.342.4.4,0,0,0-.523.124,3.6,3.6,0,0,1-1.637,1.469,2.571,2.571,0,0,1-.477-2.135c.553-2.044,3.49-3.045,5.193-3.459,3.506-.852,7.281-.647,10.928-.45.8.043,1.591.086,2.378.119.57.023,1.143.041,1.716.058l-.271.347a.251.251,0,0,0-.039.253.341.341,0,0,0,.279.194.329.329,0,0,0,.328-.12l.508-.653c4.135.1,8.243.032,12.2-.205a135.869,135.869,0,0,0,15.973-1.9l.354-.065c3.674-.662,7.473-1.347,9.789-3.624a.363.363,0,0,0,.018-.547.8.8,0,0,0-1.044-.011c-1.649,1.624-4.265,2.271-6.806,2.795-.709.145-1.468.292-2.3.444l1.35-.847a.261.261,0,0,0,.132-.229.287.287,0,0,0-.167-.236.391.391,0,0,0-.4.014l-2.115,1.328a.26.26,0,0,0-.132.207l-.183.03.016-.022a2.054,2.054,0,0,0,.224-1.729,2.39,2.39,0,0,0-.626-.9l.013.01a.4.4,0,0,0,.186.046.384.384,0,0,0,.208-.06l2.1-1.34a.247.247,0,0,0,.091-.353.391.391,0,0,0-.522-.1l-2.1,1.339a.263.263,0,0,0-.132.231.264.264,0,0,0,.035.094,5.652,5.652,0,0,0-1.46-.876,5.441,5.441,0,0,1,1.94-1.65.273.273,0,0,0,.13-.378.34.34,0,0,0-.463-.126,6.113,6.113,0,0,0-2.23,1.912,12.582,12.582,0,0,0-1.621-.451l1.213-.994a.262.262,0,0,0,.044-.38.363.363,0,0,0-.5-.051l-1.559,1.278-.027,0c-.6-.091-1.2-.145-1.794-.2a3.779,3.779,0,0,1,1.718-1.805.249.249,0,0,0,.144-.218.273.273,0,0,0-.146-.235.412.412,0,0,0-.413-.006,4.312,4.312,0,0,0-1.985,2.146.309.309,0,0,0-.006.056c-.837-.052-1.68-.069-2.536-.06.018-.008.037-.005.053-.016l1.869-1.341a.251.251,0,0,0,.07-.365.378.378,0,0,0-.515-.077l-1.866,1.339a.252.252,0,0,0-.071.365.328.328,0,0,0,.127.1c-1.345.025-2.723.1-4.2.229l1.74-1.293a.254.254,0,0,0,.064-.37.381.381,0,0,0-.512-.071l-2.292,1.7a.286.286,0,0,0-.1.132q-.735.069-1.472.143l-.432.041a.3.3,0,0,0,.132-.05l2.1-1.842a.267.267,0,0,0,.026-.387.354.354,0,0,0-.5-.035l-2.1,1.841a.267.267,0,0,0-.026.387.374.374,0,0,0,.225.1c-.61.059-1.221.119-1.838.175l-.6.047a1.918,1.918,0,0,1,1.407-1.207.292.292,0,0,0,.226-.359.32.32,0,0,0-.412-.2,2.469,2.469,0,0,0-1.927,1.816c-.5.037-1.052.083-1.623.149l1.955-1.511a.258.258,0,0,0,.056-.373.371.371,0,0,0-.508-.062l-2.751,2.122a8.857,8.857,0,0,0-2.314.679,3.619,3.619,0,0,1,1.759-1.628.271.271,0,0,0,.145-.368.344.344,0,0,0-.468-.142,3.984,3.984,0,0,0-2.295,2.519.248.248,0,0,0,.021.182,1.976,1.976,0,0,0-.47.639c-.261.582.056.936.483,1.22a5.463,5.463,0,0,0-2.626,2.248c-1.5-.077-3.1-.152-4.661-.18a.633.633,0,0,0-.416-.111,6.753,6.753,0,0,1-1.249-.053l1.175-1.34a.253.253,0,0,0,.066-.2.248.248,0,0,0-.089-.163.39.39,0,0,0-.532.021l-1.341,1.531a3.6,3.6,0,0,1-.535-.206.235.235,0,0,0,.047-.246,1.418,1.418,0,0,1,.866-1.813.272.272,0,0,0,.135-.374.342.342,0,0,0-.466-.134,2.08,2.08,0,0,0-1.3,2.08,2.258,2.258,0,0,1-.517-.677.264.264,0,0,0,.056-.118,3.741,3.741,0,0,1,1.666-2.329.26.26,0,0,0,.124-.235.3.3,0,0,0-.179-.237.387.387,0,0,0-.384.028,4.809,4.809,0,0,0-1.521,1.628,3.908,3.908,0,0,1,.453-1.577c.008.025.016.051.026.076a.362.362,0,0,0,.473.166.265.265,0,0,0,.177-.349c-.1-.253.024-.5.332-.685a.244.244,0,0,0,.1-.344.33.33,0,0,0-.149-.13,4.6,4.6,0,0,1,.447-.371c2.085-1.52,5.27-2.131,8.111-2.679a86.757,86.757,0,0,1,18.677-1.5,84.574,84.574,0,0,1,18.031,2.4c3.9.969,8.956,2.773,10.938,5.87a.218.218,0,0,0,0,.063,10.253,10.253,0,0,1-.4,4.59.252.252,0,0,0,0,.148,6.512,6.512,0,0,1-.66.592l.174-5.012a.258.258,0,0,0-.126-.233.414.414,0,0,0-.4-.01.268.268,0,0,0-.151.232l-.193,5.517a13.811,13.811,0,0,1-2.332,1.157.671.671,0,0,0-.467.176c-.705.258-1.481.489-2.292.7l.014-.007a4.4,4.4,0,0,0,1.243-3.709.349.349,0,0,0-.427-.255.267.267,0,0,0-.253.3,3.9,3.9,0,0,1-1.113,3.319.251.251,0,0,0-.061.245.316.316,0,0,0,.247.2l-.074.02a.4.4,0,0,0-.155-.073.381.381,0,0,0-.363.1l-.12.123c-.439.1-.876.185-1.3.26-.6.108-1.2.209-1.8.312,0-.007.011-.009.016-.016l2.1-3.181a.267.267,0,0,0-.091-.38.354.354,0,0,0-.491.072l-2.1,3.183a.252.252,0,0,0-.02.261.326.326,0,0,0,.146.135c-2.252.38-4.47.719-6.542,1.024,0-.011.015-.016.017-.028a5.993,5.993,0,0,1,1.575-2.744.24.24,0,0,0,.07-.239.312.312,0,0,0-.237-.2.386.386,0,0,0-.378.094,6.426,6.426,0,0,0-1.692,2.95.254.254,0,0,0,.1.25l-1.3.19a3.3,3.3,0,0,1,1.306-2.158.264.264,0,0,0,.1-.248.315.315,0,0,0-.207-.234.36.36,0,0,0-.357.053,3.879,3.879,0,0,0-1.541,2.684l-1.813.258,1.285-1.566a.251.251,0,0,0-.038-.365.382.382,0,0,0-.525.033l-1.667,2.03-.462.066,1.3-1.595a.251.251,0,0,0,.057-.206.264.264,0,0,0-.1-.162.385.385,0,0,0-.523.036l-1.635,2.011a.228.228,0,0,0-.029.044l-1.128.155,1.431-2.078a.257.257,0,0,0,.025-.257.361.361,0,0,0-.3-.188.326.326,0,0,0-.3.134l-1.619,2.349a.279.279,0,0,0-.049.149q-1.28.172-2.563.334l1.381-1.991a.251.251,0,0,0,.026-.258.357.357,0,0,0-.3-.187.319.319,0,0,0-.3.133l-1.63,2.346a.3.3,0,0,0-.032.062c-.573.07-1.13.13-1.7.2l2.287-2.959a.254.254,0,0,0-.052-.37.412.412,0,0,0-.156-.048c7.389-.493,13.019-1.545,17.883-3.33a25.772,25.772,0,0,0,8.941-5.267.235.235,0,0,0,.018-.347.419.419,0,0,0-.554-.012c-3.78,3.583-9.786,6.083-17.853,7.428a113.538,113.538,0,0,1-24.411,1.086,135.989,135.989,0,0,1-15.116-1.615.362.362,0,0,0-.349.117.266.266,0,0,0-.049.266.3.3,0,0,0,.248.181,137.274,137.274,0,0,0,22.15,1.8q2.629,0,5.256-.1c1.26-.049,2.462-.113,3.63-.188-.054.021-.115.027-.153.077h0q-1.164,1.508-2.331,3.015a.249.249,0,0,0,.031.335c-.483.054-.964.107-1.439.159l1.735-2.178a.246.246,0,0,0,.043-.251.343.343,0,0,0-.275-.2.347.347,0,0,0-.333.119l-1.868,2.346a.24.24,0,0,0-.033.235c-.613.064-1.234.13-1.831.187l1.709-3.179a.241.241,0,0,0,0-.244.4.4,0,0,0-.324-.146.345.345,0,0,0-.306.17l-1.868,3.472q-1.117.1-2.239.185a4.1,4.1,0,0,1,1.655-2.145.25.25,0,0,0,.074-.363.378.378,0,0,0-.516-.08,4.565,4.565,0,0,0-1.921,2.64q-.965.07-1.928.128a4.5,4.5,0,0,1,1.521-2.491.264.264,0,0,0,.024-.386.355.355,0,0,0-.495-.036,5.091,5.091,0,0,0-1.75,2.954q-1.118.063-2.24.1l1.42-2.045a.254.254,0,0,0,.039-.221.281.281,0,0,0-.116-.154.361.361,0,0,0-.5.063l-1.657,2.388q-.732.022-1.46.04l1.376-2.113a.256.256,0,0,0,.018-.26.373.373,0,0,0-.31-.185.326.326,0,0,0-.289.14l-1.587,2.435q-.674.009-1.345.012l1.38-2.363a.237.237,0,0,0-.094-.339.408.408,0,0,0-.534.112l-1.514,2.592c-.586,0-1.172-.005-1.757-.016a8.7,8.7,0,0,1,1.806-1.882.265.265,0,0,0,.108-.246.321.321,0,0,0-.2-.237.365.365,0,0,0-.361.049,9.3,9.3,0,0,0-2.124,2.3q-.927-.022-1.851-.061a5.2,5.2,0,0,1,1.63-2.143.266.266,0,0,0,.1-.25.313.313,0,0,0-.207-.234.362.362,0,0,0-.356.052,5.7,5.7,0,0,0-1.875,2.542c-.536-.028-1.145-.066-1.791-.12a.3.3,0,0,0,.109-.132,5.723,5.723,0,0,1,1.928-2.517.258.258,0,0,0,.052-.372.369.369,0,0,0-.508-.062h0a6.3,6.3,0,0,0-2.123,2.771.253.253,0,0,0,.043.253c.007.008.018.012.027.02-.684-.064-1.4-.151-2.122-.265a3.9,3.9,0,0,1,2.221-2.479.271.271,0,0,0,.142-.369.346.346,0,0,0-.467-.142h0a4.485,4.485,0,0,0-2.56,2.854c0,.009.006.016.005.025-.54-.1-1.077-.214-1.595-.353a6.643,6.643,0,0,1,2.207-2.719.254.254,0,0,0,.059-.37.371.371,0,0,0-.511-.067,7.223,7.223,0,0,0-2.4,2.969,11.261,11.261,0,0,1-1.532-.607c.01-.015.029-.021.038-.038a6.467,6.467,0,0,1,2.234-2.558.253.253,0,0,0,.076-.363.379.379,0,0,0-.517-.082h0a7.081,7.081,0,0,0-2.4,2.733,5.913,5.913,0,0,1-1.3-1.011A4.207,4.207,0,0,0-2302.328,2040.389Zm27.374-11.9h0Zm-6.359,5.671a.493.493,0,0,0-.42.592.45.45,0,0,0,.034.088c-.491-.011-1.013-.029-1.575-.049l1.052-1.355a.26.26,0,0,0,.059-.168c1.014.466,1.143.674,1.139.753C-2281.025,2034.019-2281.046,2034.089-2281.314,2034.159Zm-1.475-1.052-1.283,1.648q-1.042-.044-2.084-.1a5.187,5.187,0,0,1,2.65-1.946c.3.117.569.225.8.323A.314.314,0,0,0-2282.789,2033.107Zm2.929,1.75h-.513a1.1,1.1,0,0,0,.564-.729,1.388,1.388,0,0,0-.691-1.321,5.172,5.172,0,0,0-1.53-.659c-.2-.063-.4-.125-.587-.193-.12-.045-.228-.079-.323-.11-.424-.137-.457-.154-.426-.429.045-.39,1.049-.854,2.56-1.183,2.936-.635,20.006-2.311,22.3.787a1.35,1.35,0,0,1-.031,1.571.368.368,0,0,0,.143.524c-1.307.214-2.618.407-3.911.578A138.675,138.675,0,0,1-2279.859,2034.857Zm-15.4,11.223a.3.3,0,0,0,.088-.1c.328.029.654.052.973.075a25.918,25.918,0,0,0-2.888,3.4h0a3.644,3.644,0,0,1-1.227-.45A14.382,14.382,0,0,1-2295.26,2046.081Zm27.019-5.193h0Zm-24.459,9.088c-.089,0-.18,0-.268,0-.662-.014-1.342-.047-2.018-.085l3.873-3.668c.581.019,1.163.035,1.746.045a30.167,30.167,0,0,0-3.293,3.453.249.249,0,0,0-.057.206A.184.184,0,0,0-2292.7,2049.975Zm-2.879-.126-.247-.013-.7-.043a25.9,25.9,0,0,1,3.18-3.684c.45.027.9.053,1.355.073l-3.541,3.355A.234.234,0,0,0-2295.58,2049.848Zm7.032-3.475a.384.384,0,0,0,.247-.1l.714,0h.005l-2.531,3.581a.283.283,0,0,0-.048.135c-.687,0-1.306,0-1.889-.008A29.855,29.855,0,0,1-2288.547,2046.373Zm3.129,3.471a.257.257,0,0,0,.029.053c-.391.014-.791.027-1.2.039l2.719-3.724q.578-.021,1.157-.046l-2.661,3.424A.255.255,0,0,0-2285.418,2049.844Zm3.552-3.717c.454-.021.905-.047,1.358-.074l-2.617,3a.249.249,0,0,0-.054.247.333.333,0,0,0,.258.2.376.376,0,0,0,.353-.11l2.96-3.4c.5-.032,1-.069,1.5-.106l-2.952,3.785-.178.013c-.485.031-.969.063-1.453.09-.669.036-1.359.068-2.081.1Zm17.585,1.7q-.873.128-1.746.252l2.7-3.868.986-.136a.291.291,0,0,0,.078.089.408.408,0,0,0,.38.059l-2.416,3.275a.257.257,0,0,0-.046.219A.284.284,0,0,0-2264.28,2047.832Zm-5.645.206a.25.25,0,0,0-.053.249.333.333,0,0,0,.26.2.376.376,0,0,0,.352-.109l3.278-3.782q.943-.125,1.885-.255l-2.6,3.719a.264.264,0,0,0-.05.141c-1.51.208-3.005.4-4.474.571a25.471,25.471,0,0,1,2.977-3.884c.435-.054.868-.109,1.3-.165Zm-2.024.738a.312.312,0,0,0,.044.063c-.49.056-.977.11-1.462.162a.288.288,0,0,0,.091-.114,12.608,12.608,0,0,1,2.537-3.687.3.3,0,0,0,.026-.027q.7-.082,1.394-.167a25.427,25.427,0,0,0-2.622,3.507A.256.256,0,0,0-2271.949,2048.776Zm-1.97-.086a.245.245,0,0,0,.024.25.329.329,0,0,0,.142.1c-.74.078-1.473.152-2.2.221l2.93-3.715a.284.284,0,0,0,.057-.129c.428-.045.859-.092,1.287-.139A12.876,12.876,0,0,0-2273.919,2048.689Zm.106-3.181-3.028,3.839c-.295.027-.592.053-.888.078l2.752-3.8C-2274.59,2045.586-2274.2,2045.548-2273.813,2045.508Zm-2.024.193-2.746,3.793c-.537.042-1.076.086-1.615.123l2.962-3.794Q-2276.537,2045.766-2275.838,2045.7Zm17.278.759a1.183,1.183,0,0,0,.6.141l-.146.229a.248.248,0,0,0-.022.04l-.861.14Zm1.678-.1-.277.347,0,0-.095.016.236-.371Zm1.175.107c-.168.029-.335.058-.5.086l.109-.137C-2255.967,2046.429-2255.836,2046.445-2255.706,2046.465Zm11.128-3.615h0Zm-40.118,3.385-2.7,3.7-.017.024c-.664.016-1.328.025-1.992.031l2.627-3.716C-2286.1,2046.268-2285.4,2046.255-2284.7,2046.236Zm43.773-4.244a2.487,2.487,0,0,0-2.475-.9.526.526,0,0,0-.418.24.383.383,0,0,0-.05.246l-1.08.976a.267.267,0,0,0-.019.389.349.349,0,0,0,.492.03l1.047-.946a.807.807,0,0,0,.252.025l1.272.927a2.836,2.836,0,0,1-2.18,1.408c-.5.129-1.027.22-1.541.309l-.548.095q-1.19.219-2.382.427l-.208.037.585-.781a.254.254,0,0,0,.049-.215.28.28,0,0,0-.108-.156.372.372,0,0,0-.511.051l-.925,1.232a.193.193,0,0,0-.021.036l-.606.109a1.4,1.4,0,0,1,.643-.886.257.257,0,0,0,.126-.232.294.294,0,0,0-.177-.239.391.391,0,0,0-.387.025,1.953,1.953,0,0,0-.9,1.315.237.237,0,0,0,.019.136l-.919.164.926-1.616a.237.237,0,0,0,.005-.242.349.349,0,0,0-.31-.15.365.365,0,0,0-.324.166l-1.089,1.9a.276.276,0,0,0-.032.089l-.638.111c-.1-.041-.208-.078-.314-.113l.818-1.273a.269.269,0,0,0-.1-.379.353.353,0,0,0-.486.077l-.886,1.379c-.171-.045-.334-.088-.494-.123l1.177-1.5a.247.247,0,0,0,.053-.211.263.263,0,0,0-.1-.159.38.38,0,0,0-.517.042l-1.33,1.7c-.278-.041-.543-.069-.8-.088l.373-1.027a.267.267,0,0,0-.187-.348.355.355,0,0,0-.465.17l-.381,1.046a.3.3,0,0,0-.17.126l0,0c-.29,0-.588.016-.91.044a.4.4,0,0,0-.212-.09.35.35,0,0,0-.317.127l-.037.047a.454.454,0,0,0-.263.344l-.98,1.268-.022.035-.828.134a10.735,10.735,0,0,1,1.88-3.083.247.247,0,0,0-.029-.364.386.386,0,0,0-.529.027,11.172,11.172,0,0,0-2.089,3.541l-.018,0q-1.062.164-2.135.324l2.741-3.713a.269.269,0,0,0,.052-.159l.6-.084c1.287-.186,2.64-.36,3.948-.529,1.623-.209,3.3-.425,4.946-.673l-.067.111a.257.257,0,0,0-.009.263.374.374,0,0,0,.315.177h.01a.308.308,0,0,0,.271-.144l.327-.538c.421-.066.838-.137,1.255-.209l-.417.562a.252.252,0,0,0-.035.255.356.356,0,0,0,.289.191.313.313,0,0,0,.317-.127l.781-1.049c.259-.049.516-.1.771-.149l-.279.288a.246.246,0,0,0-.068.241.312.312,0,0,0,.239.2.382.382,0,0,0,.374-.093l.848-.877c.291-.063.58-.13.867-.2a2.881,2.881,0,0,0-.6,1.341.266.266,0,0,0,.251.3.352.352,0,0,0,.429-.253,2.587,2.587,0,0,1,1-1.594.266.266,0,0,0,.078-.094c.541-.146,1.026-.288,1.48-.433.054-.016.109-.036.163-.056l.044-.015a.839.839,0,0,0,.735-.009.439.439,0,0,0,.217-.272,7.357,7.357,0,0,1,1.071.161Zm-38.254.212,0,0,0,0Zm-16.884,3.7a14.652,14.652,0,0,0-2.76,2.7,1.6,1.6,0,0,1-.437-.836,4.018,4.018,0,0,1,1.75-2.031C-2297.047,2045.8-2296.562,2045.854-2296.062,2045.9Zm21.434,11.677Zm3.16-3.205h0Zm22.1,4.826c-.512.118-1.033.237-1.557.357l1.751-3.876q.985-.125,1.972-.245l-2.186,3.452A.259.259,0,0,0-2249.369,2059.2Zm-24.148-.61a28.009,28.009,0,0,1-2.919,4.735l-2.339.263,3.282-4.792Q-2274.5,2058.7-2273.517,2058.593Zm3.222-.346-3.242,4.744q-.786.093-1.572.183l-.442.052a28.523,28.523,0,0,0,2.608-4.3l.023.008a.347.347,0,0,0,.4-.105.518.518,0,0,0,.124-.352l1.383-.15a.4.4,0,0,0,.193.071.417.417,0,0,0,.311-.1l.031-.032Zm-6.049.643-3.278,4.781-.008.012-.659.072-1.195.129,3.2-4.8c.487-.051.975-.1,1.461-.149Zm-5.786,5.064-.783.081-.7.069a33.366,33.366,0,0,1,2.9-4.624.264.264,0,0,0,.055-.146q.766-.08,1.528-.159l-3,4.494A.259.259,0,0,0-2282.131,2063.953Zm.662-4.538a33.915,33.915,0,0,0-2.926,4.76c-.364.034-.729.066-1.093.1a.44.44,0,0,0-.26-.041.358.358,0,0,0-.161.073l-.153.012c.994-1.614,2.036-3.209,3.1-4.748Zm-2.345.238c-1.069,1.564-2.1,3.153-3.056,4.726-.76.054-1.508.1-2.228.137l3.267-4.671Q-2284.822,2059.753-2283.814,2059.654Zm16.8-1.773-3.222,4.714-2.435.294,3.235-4.738.429-.047C-2268.346,2058.029-2267.681,2057.957-2267.018,2057.881Zm9.873-1.184-2.693,4.587q-.708.108-1.416.2l2.47-4.59Zm-4.814.59c-.325.469-.616.952-.9,1.423-.137.226-.271.451-.41.673l-1.593,2.557-1.691.206a.276.276,0,0,0,.07-.1,15.537,15.537,0,0,1,2.8-4.553l.841-.1Zm-5.133,4.822a.312.312,0,0,0,.115.089l-2.4.292,3.219-4.708,1.54-.183a15.84,15.84,0,0,0-2.511,4.258A.249.249,0,0,0-2267.093,2062.109Zm7.5-5.113-2.472,4.6-.07.01-.146.019a.378.378,0,0,0-.211-.091.34.34,0,0,0-.333.147l-1.205.159,1.342-2.156c.142-.227.28-.458.419-.687a19.086,19.086,0,0,1,1.188-1.815C-2260.581,2057.121-2260.085,2057.058-2259.589,2057Zm9.637-1.213-1.79,3.958c-.893.2-1.818.394-2.756.583l2.545-4.212h0a.283.283,0,0,0,.032-.077C-2251.265,2055.948-2250.609,2055.867-2249.952,2055.784Zm-5.3.678c-.9,1.365-1.779,2.765-2.606,4.167a.365.365,0,0,0-.287.118c-.066.077-.127.157-.188.236l-.053.07-.61.1,2.675-4.554Zm2.518-.32-2.634,4.357c-.619.121-1.239.239-1.861.351.887-1.5,1.837-3.01,2.831-4.5l1.234-.159a.513.513,0,0,0,.122-.014Zm-37.895,3.221-.049-.015,0-.029.051.044Zm-.98.916-2.246,2.65a5.673,5.673,0,0,1-.863-.616l1.669-1.968C-2292.57,2060.326-2292.09,2060.3-2291.61,2060.278Zm-1.41,2.64c.056-.056.107-.108.143-.15l2.156-2.542q.745-.046,1.5-.1a24.358,24.358,0,0,0-2.7,3.621l-.4-.149c-.228-.084-.456-.167-.683-.256-.087-.033-.18-.073-.277-.117A2.19,2.19,0,0,1-2293.02,2062.918Zm4.724-2.862q.808-.063,1.615-.133l-3.18,4.549a.365.365,0,0,0-.086.049l-.044.037-.094,0a9.956,9.956,0,0,0-1.218-.573A24.1,24.1,0,0,1-2288.3,2060.056Zm-5.354,20.325.017.123a.335.335,0,0,0-.233.12l-1.424,1.777-.235.131-.024-.014-.026-.015a.309.309,0,0,0-.245-.147,5.607,5.607,0,0,1-.629-.47l1.524-1.366a.265.265,0,0,0,.09-.256.323.323,0,0,0-.225-.232.333.333,0,0,0-.336.068l-1.505,1.349a.615.615,0,0,1-.044-.044.689.689,0,0,0-.662-.194.6.6,0,0,0-.47.346.388.388,0,0,0,.092.39,5.925,5.925,0,0,0,1.008.907,1.631,1.631,0,0,0-.6.9.264.264,0,0,0,.084.257.41.41,0,0,0,.387.083.27.27,0,0,0,.191-.2,1.163,1.163,0,0,1,.482-.677,8.522,8.522,0,0,0,1.23.592.368.368,0,0,0,.126.085.9.9,0,0,1-.508,1,.273.273,0,0,0-.126.38.338.338,0,0,0,.463.123,1.514,1.514,0,0,0,.867-1.3,14.725,14.725,0,0,0,1.531.369l-.666.479a.258.258,0,0,0-.12.237.3.3,0,0,0,.186.238.387.387,0,0,0,.377-.035l1.086-.778.09.011-.22.159a.261.261,0,0,0-.119.238.3.3,0,0,0,.187.238.387.387,0,0,0,.376-.035l.7-.5c.969.089,2.055.134,3.31.136,7.1.01,14.3-.254,20.51-.51,5.191-.213,10.436-.49,15.65-.832l.038.076-.015-.077c1.545-.1,3.091-.208,4.628-.318l.292-.023a28.77,28.77,0,0,0,5.917-.856l-.063.365a.247.247,0,0,0,.083.234.428.428,0,0,0,.389.049.3.3,0,0,0,.206-.229l.121-.675a3.284,3.284,0,0,0,1.9-1.554,2.887,2.887,0,0,1,.151,1.823.72.72,0,0,0-.067.057c-2.466,2.478-7.968,3.057-12.39,3.522-.8.083-1.554.164-2.253.25-.883.11-1.776.2-2.666.3,3.505-.467,6.97-1.072,10.366-1.813a.31.31,0,0,0,.241-.2.268.268,0,0,0-.062-.267.344.344,0,0,0-.344-.1,133.207,133.207,0,0,1-40.733,2.365.354.354,0,0,0-.351.145.258.258,0,0,0-.032.26.286.286,0,0,0,.253.16c4.19.408,8.428.611,12.67.617-4.274.086-8.573.044-12.82-.139-.478-.02-1.02-.035-1.61-.052-4.547-.128-12.116-.344-13.093-3.675a.506.506,0,0,0,.27-.226.379.379,0,0,0,0-.341,1.463,1.463,0,0,1,.013-1.427c.9-1.5,4.688-1.923,6.275-2.035a.689.689,0,0,0,.37-.125c.025.091.049.181.068.272-.021.027-.044.057-.063.087a.257.257,0,0,0-.01.255A.336.336,0,0,0-2293.65,2080.382Zm47.425,30.806a10.138,10.138,0,0,1-.957,1.534c-.337.3-.68.594-1.032.886a.431.431,0,0,0-.174.368q-.443.111-.888.216a11.3,11.3,0,0,0,2.514-3.3.238.238,0,0,0-.012-.246.328.328,0,0,0-.334-.139.338.338,0,0,0-.292.177,10.983,10.983,0,0,1-2.918,3.588.265.265,0,0,0-.1.176c-.92.2-1.849.381-2.781.551l4.8-6.214a.257.257,0,0,0-.052-.37.376.376,0,0,0-.516.044l-4.913,6.359a.255.255,0,0,0-.041.254c.009.02.029.032.043.051a85.07,85.07,0,0,1-9.379,1.106l6.882-8.121a.245.245,0,0,0-.029-.363.39.39,0,0,0-.529.025l-7.209,8.507c-.216.012-.432.024-.647.032a.372.372,0,0,0-.138-.1.37.37,0,0,0-.361.048c-.025.02-.05.037-.074.054l-.026.02a87.147,87.147,0,0,1-12.078-.394,43.336,43.336,0,0,0,6.36-6.675.252.252,0,0,0,.039-.254.35.35,0,0,0-.284-.193.324.324,0,0,0-.323.125,42.842,42.842,0,0,1-6.648,6.9c-.554-.062-1.108-.13-1.661-.2l7.293-7.848a.246.246,0,0,0,.063-.244.317.317,0,0,0-.249-.2.375.375,0,0,0-.363.1l-7.472,8.038a.514.514,0,0,0-.037.05c-1.594-.227-3.2-.505-4.779-.824a24.168,24.168,0,0,1,5.3-6.052.264.264,0,0,0,.1-.251.315.315,0,0,0-.21-.233.35.35,0,0,0-.351.056,24.829,24.829,0,0,0-5.518,6.337q-.688-.145-1.377-.3l6.475-7.49a.249.249,0,0,0,.055-.248.335.335,0,0,0-.262-.2.39.39,0,0,0-.35.109l-6.429,7.438c-.508-.277-1.009-.567-1.5-.863.024-.014.056-.01.077-.029l6.56-6.519a.238.238,0,0,0,.005-.353.411.411,0,0,0-.547,0l-6.559,6.519c-.021.021-.02.047-.032.071-.353-.221-.708-.441-1.049-.67l7.852-7.622a.239.239,0,0,0,.011-.35.41.41,0,0,0-.551-.008l-7.844,7.616c-.338-.237-.681-.487-1.041-.76a51.964,51.964,0,0,1,5.557-5.893.268.268,0,0,0,.018-.39.353.353,0,0,0-.492-.029,52.74,52.74,0,0,0-5.593,5.918c-.311-.245-.616-.491-.908-.738l5.606-5.635a.246.246,0,0,0,.072-.24.313.313,0,0,0-.234-.2.4.4,0,0,0-.381.091l-5.547,5.576c-.446-.4-.881-.8-1.3-1.212a.363.363,0,0,0,.051-.044l5.188-5.334a.24.24,0,0,0,0-.354.408.408,0,0,0-.546,0l-5.137,5.282c-.259-.266-.528-.559-.83-.9l2.294-1.97a.265.265,0,0,0,.1-.253.322.322,0,0,0-.217-.233.341.341,0,0,0-.346.061l-2.238,1.922a24.808,24.808,0,0,1-3.752-5.851,10.952,10.952,0,0,1,2.445-2.527.255.255,0,0,0,.115-.242.309.309,0,0,0-.195-.236.371.371,0,0,0-.368.042,11.618,11.618,0,0,0-2.293,2.261c-.271-.661-.508-1.325-.705-1.983l3.264-3.743a.246.246,0,0,0-.024-.363.392.392,0,0,0-.531.022l-2.916,3.348c-.148-.57-.274-1.156-.373-1.746a.279.279,0,0,0,.164-.171,4.363,4.363,0,0,1,1.533-2.045.26.26,0,0,0,.111-.245.312.312,0,0,0-.2-.235.369.369,0,0,0-.365.045,5.26,5.26,0,0,0-1.4,1.564c-.069-.595-.11-1.178-.125-1.741a.3.3,0,0,0,.169-.118,8.511,8.511,0,0,1,2.042-1.965.341.341,0,0,0,.074.045.361.361,0,0,0,.373-.044l3.248-2.525a.263.263,0,0,0,.109-.245.308.308,0,0,0-.2-.234.355.355,0,0,0-.364.046l-2.813,2.186a.46.46,0,0,0-.088-.034.388.388,0,0,0-.314.042,9.492,9.492,0,0,0-2.229,1.9,20.111,20.111,0,0,1,.515-4.08.387.387,0,0,0,.272-.042l2.1-1.173a.3.3,0,0,0,.121-.119,12.73,12.73,0,0,0,4.417,1.56,11.1,11.1,0,0,0-3.847,2.507.247.247,0,0,0-.069.242.313.313,0,0,0,.238.2.472.472,0,0,0,.108.013.37.37,0,0,0,.267-.107,10.481,10.481,0,0,1,3.834-2.439.282.282,0,0,0,.19-.213.3.3,0,0,0-.011-.085c.388.062.775.118,1.152.161l-2.622,2.019a.26.26,0,0,0-.053.374.368.368,0,0,0,.508.062l3.04-2.34.025-.022.274.023q.832.066,1.673.124l-3.893,3.083a.266.266,0,0,0-.107.246.313.313,0,0,0,.2.236.361.361,0,0,0,.36-.049l4.359-3.449c.658.042,1.33.073,2,.109a.332.332,0,0,0-.078.038l-5.1,4.043a.257.257,0,0,0-.051.373.371.371,0,0,0,.288.133.348.348,0,0,0,.219-.074l5.1-4.044a.257.257,0,0,0,.05-.373.337.337,0,0,0-.093-.078c.647.033,1.292.068,1.946.1a14.671,14.671,0,0,0-3.718,3.045.255.255,0,0,0-.065.2.263.263,0,0,0,.093.163.4.4,0,0,0,.259.092.354.354,0,0,0,.27-.118,14.227,14.227,0,0,1,3.787-3.051.234.234,0,0,0,.116-.3c.652.025,1.3.051,1.959.068l-4.043,3.063a.257.257,0,0,0-.06.37.378.378,0,0,0,.294.139.355.355,0,0,0,.218-.071l4.2-3.184a.243.243,0,0,0,.078-.3c.7.017,1.41.024,2.118.033a25.144,25.144,0,0,0-5.509,4.9.249.249,0,0,0,.038.366.415.415,0,0,0,.254.087.341.341,0,0,0,.271-.122,24.715,24.715,0,0,1,5.711-5.017.254.254,0,0,0,.116-.2c.589,0,1.182,0,1.775,0a49.046,49.046,0,0,0-5.336,4.884.245.245,0,0,0-.066.242.318.318,0,0,0,.245.2.481.481,0,0,0,.1.012.371.371,0,0,0,.269-.109h0a48.184,48.184,0,0,1,5.392-4.92.265.265,0,0,0,.109-.245.277.277,0,0,0-.034-.071c.639,0,1.274,0,1.915-.006l-5.817,5.348a.261.261,0,0,0-.087.257.328.328,0,0,0,.228.231.34.34,0,0,0,.332-.071l6.285-5.777q.929-.013,1.858-.039l-5.846,5.594a.235.235,0,0,0-.015.349.413.413,0,0,0,.551.011q3.126-2.988,6.25-5.979c.386-.011.779-.031,1.168-.045l-3.078,3.489a.247.247,0,0,0-.055.247.323.323,0,0,0,.258.2.346.346,0,0,0,.083.009.35.35,0,0,0,.27-.117l3.256-3.687a.261.261,0,0,0,.063-.171c1.736-.069,3.483-.15,5.234-.265a20.817,20.817,0,0,0-3.725,4.319.252.252,0,0,0-.015.26.37.37,0,0,0,.311.181.371.371,0,0,0,.287-.14,20.434,20.434,0,0,1,3.91-4.461.267.267,0,0,0,.1-.217c.518-.036,1.01-.073,1.5-.111a16.637,16.637,0,0,0-3.347,4.012.236.236,0,0,0-.006.242.348.348,0,0,0,.309.152h0a.366.366,0,0,0,.324-.165,15.989,15.989,0,0,1,3.461-4.071.266.266,0,0,0,.1-.234c.456-.036.913-.072,1.354-.11l-3.185,3.961a.254.254,0,0,0,.044.368.383.383,0,0,0,.521-.038l3.5-4.36.011-.016c.733-.066,1.469-.138,2.2-.213a37.272,37.272,0,0,0-2.994,4.291.274.274,0,0,0,.115.382.343.343,0,0,0,.475-.089,37.248,37.248,0,0,1,3.314-4.681q.7-.074,1.4-.154l-3.54,4.475a.252.252,0,0,0-.042.252.341.341,0,0,0,.279.2.326.326,0,0,0,.329-.119l3.814-4.822a.267.267,0,0,0,.048-.083l.322-.039c.389-.046.777-.091,1.166-.141.671-.085,1.378-.164,2.108-.245l.433-.05-3.666,4.768a.263.263,0,0,0-.051.214.281.281,0,0,0,.105.157.4.4,0,0,0,.244.079.336.336,0,0,0,.271-.126l3.733-4.857a.251.251,0,0,0,.038-.253c-.009-.022-.03-.035-.045-.053.93-.106,1.871-.225,2.81-.364-.019.015-.046.011-.061.032l-3.278,4.518a.252.252,0,0,0-.043.218.279.279,0,0,0,.111.155.4.4,0,0,0,.236.075.326.326,0,0,0,.271-.131l3.277-4.519a.261.261,0,0,0-.066-.374c-.027-.02-.067-.015-.1-.027.71-.111,1.415-.231,2.1-.377,0,.007-.01.01-.012.018a19.659,19.659,0,0,1-3,5.451.253.253,0,0,0-.051.211.28.28,0,0,0,.1.157.4.4,0,0,0,.244.083.333.333,0,0,0,.271-.127,20.259,20.259,0,0,0,3.082-5.6.257.257,0,0,0-.047-.253.348.348,0,0,0-.1-.059,14.552,14.552,0,0,0,4.992-2,.872.872,0,0,0,.617-.017c2.676,9.423-.4,19.617-8.263,27.444a.265.265,0,0,0-.142-.153A.384.384,0,0,0-2246.225,2111.188Zm-4.277,21.53c.04-.2.079-.408.121-.612l.876-1.637c.212-.076.407-.151.587-.226A8.518,8.518,0,0,1-2250.5,2132.718Zm-8.593,24.146a.249.249,0,0,0,.036-.253.258.258,0,0,0-.027-.051l.361-.061c-.076.149-.15.3-.225.45a7.616,7.616,0,0,1-1.942,2.774,4.633,4.633,0,0,1-.729.479Zm-6.949,4.139c-.177,0-.35,0-.52-.006-.111,0-.225,0-.34,0l-.4,0,3.3-3.833c.382-.031.765-.065,1.148-.105A33.649,33.649,0,0,1-2266,2160.7a.245.245,0,0,0-.073.238A.256.256,0,0,0-2266.044,2161Zm-1.868,0-.144,0c-.142,0-.285.006-.429.009l3.283-3.764.294-.022-2.983,3.463a.258.258,0,0,0-.065.2A.244.244,0,0,0-2267.912,2161.008Zm-1.15.02c-.45,0-.9,0-1.336-.02l3.262-3.659c.346-.011.691-.027,1.038-.044l-2.958,3.392A.244.244,0,0,0-2269.062,2161.028Zm-.293-5.435h0Zm-6.139,1.48c.451.044.922.085,1.4.123l-1.059.936a.35.35,0,0,0-.154-.034h0c-.147-.29-.277-.58-.4-.858A.588.588,0,0,0-2275.494,2157.073Zm2.028.408a.337.337,0,0,0,.371-.115l.071-.1.33.019a2.881,2.881,0,0,0-.324.429c-.038.057-.072.117-.108.177a2.568,2.568,0,0,1-.346.486,1.361,1.361,0,0,1-.879.384h-.038a.532.532,0,0,1-.363-.149Zm.012,1.661a2.289,2.289,0,0,0,.94-.986,2.076,2.076,0,0,1,.743-.825q.284.012.57.022a16.915,16.915,0,0,1-2.411,2.8,4.437,4.437,0,0,1-.916-.84A1.938,1.938,0,0,0-2273.454,2159.141Zm3.494-1.762a23.3,23.3,0,0,1-2.552,3.316c-.082-.025-.161-.053-.238-.082-.1-.038-.193-.081-.292-.129a17.124,17.124,0,0,0,2.611-3.114h.079Zm1.946-.01-3.191,3.58c-.218-.023-.415-.051-.6-.084a23.5,23.5,0,0,0,2.61-3.483C-2268.8,2157.381-2268.406,2157.376-2268.013,2157.368Zm6.035-.406c.254-.03.508-.062.761-.093l-2.49,3.328a.257.257,0,0,0,.061.372.373.373,0,0,0,.511-.051l2.818-3.77c.185-.026.369-.053.557-.082l-3.021,3.992a10.937,10.937,0,0,1-2.629.337A33.7,33.7,0,0,0-2261.978,2156.963Zm3.276-1.471c-.467.082-.934.158-1.4.228a.341.341,0,0,0-.239.038c-.3.044-.6.085-.9.125a.253.253,0,0,0-.045-.181,8.13,8.13,0,0,0,2.395-2.6.242.242,0,0,0-.1-.341.4.4,0,0,0-.531.116h0a7.444,7.444,0,0,1-2.241,2.4.252.252,0,0,0-.071.365l.008.006c-.011.011-.028.008-.037.021-.051.077-.1.151-.158.226l-.061.086c-.449.053-.9.1-1.353.144a.4.4,0,0,0-.184-.09.376.376,0,0,0-.351.109l-.028.033c-1.364.119-2.769.183-4.182.206l.858-1.233a.249.249,0,0,0,.039-.222.286.286,0,0,0-.116-.153.359.359,0,0,0-.5.063l-.933,1.339a.32.32,0,0,0-.026.07.31.31,0,0,0-.181-.032.349.349,0,0,0-.312.167l-.012.02h-.171l.555-.512a.269.269,0,0,0,.015-.392.351.351,0,0,0-.49-.026l-.918.848a.321.321,0,0,0-.057.071q-.317-.005-.631-.017l.7-.879a.245.245,0,0,0,.043-.251.342.342,0,0,0-.275-.2.337.337,0,0,0-.333.119l-.935,1.172-.005.008-.461-.024.6-.82a.254.254,0,0,0,.032-.257.357.357,0,0,0-.29-.191.325.325,0,0,0-.314.126l-.807,1.1c-.258-.016-.517-.034-.776-.054a3.036,3.036,0,0,0,.991-1.707.243.243,0,0,0-.083-.233.418.418,0,0,0-.386-.05.3.3,0,0,0-.209.228,2.663,2.663,0,0,1-1.208,1.687c-.182-.016-.362-.033-.543-.051l1.032-1.612a.255.255,0,0,0,.014-.261.372.372,0,0,0-.311-.182.336.336,0,0,0-.287.142q-.567.882-1.132,1.767l-.046.07-.246-.026a.794.794,0,0,0-.327.031c-.263-.122-.52-.254-.765-.4l1.2-2.548a.24.24,0,0,0-.018-.247.37.37,0,0,0-.34-.136.33.33,0,0,0-.284.179l-1.127,2.393a6.231,6.231,0,0,1-1.936-2.074l.617-1.02a.267.267,0,0,0,.07-.083l.251-.448a.244.244,0,0,0-.11-.341.367.367,0,0,0-.5.083l-.657,1.083a4.451,4.451,0,0,1-.24-1.048l4.147-.875.039-.009-1.138,1.469a.247.247,0,0,0-.04.253.344.344,0,0,0,.281.2.35.35,0,0,0,.325-.123l1.552-2,.969-.207-1.316,2.24a.237.237,0,0,0,.094.34.4.4,0,0,0,.533-.11l1.559-2.651,2.3-.485-1.682,3.081a.243.243,0,0,0,.108.341.4.4,0,0,0,.525-.123l1.9-3.478,1.3-.276-.564,1.721a.278.278,0,0,0,.206.349.351.351,0,0,0,.449-.182l.672-2.049,1.867-.394-.619,1.6a.25.25,0,0,0,.022.231.31.31,0,0,0,.152.116.36.36,0,0,0,.476-.165l.756-1.947,2.415-.51-.556,1.437a.242.242,0,0,0,.038.251.384.384,0,0,0,.359.122.31.31,0,0,0,.252-.19l.691-1.786,1.118-.236-.583,1.851a.283.283,0,0,0,.217.35.341.341,0,0,0,.44-.186l.685-2.175,1.95-.41-.646,1.76a.268.268,0,0,0,.186.349.36.36,0,0,0,.466-.172l.771-2.1,1.233-.261-.415,1.683a.3.3,0,0,0,.25.348.324.324,0,0,0,.412-.2l.488-1.983.715-.152-.47,3.382a.245.245,0,0,0,.018.133l-.637,1.305a.242.242,0,0,0,.015.249.357.357,0,0,0,.338.137.332.332,0,0,0,.287-.178l1.194-2.45a11.8,11.8,0,0,1-4.163,6.462A.437.437,0,0,0-2258.7,2155.491Zm-23.928-21.835Zm-1.783,1.871a.369.369,0,0,0,.211-.064,19.632,19.632,0,0,0,1.941-1.5.265.265,0,0,0,.026-.386.358.358,0,0,0-.5-.036,19.59,19.59,0,0,1-1.832,1.422c-.045-1.015-.1-2.019-.208-3l.164,0a.391.391,0,0,0,.361,0c.829-.018,1.693-.042,2.57-.08l-.393.313a.266.266,0,0,0-.106.247.312.312,0,0,0,.2.233.37.37,0,0,0,.3-.013.274.274,0,0,0,.081.136.4.4,0,0,0,.537-.017c.284-.312.557-.636.813-.965l1.039-.055a.255.255,0,0,0-.088.232.317.317,0,0,0,.207.237.352.352,0,0,0,.3-.027c-.227.167-.459.325-.68.5a.262.262,0,0,0-.047.377.372.372,0,0,0,.286.133.356.356,0,0,0,.22-.077h0c.42-.338.877-.675,1.355-1a.257.257,0,0,0,.125-.234.292.292,0,0,0-.18-.236l-.009,0c.439-.03.879-.061,1.317-.1-.367.322-.7.63-1.021.936a.237.237,0,0,0-.012.351.407.407,0,0,0,.549.008c.484-.466,1-.931,1.545-1.381.15-.013.3-.034.455-.048l-.828.954a.246.246,0,0,0,.026.363.4.4,0,0,0,.26.091.352.352,0,0,0,.271-.115l1.015-1.17a.243.243,0,0,0,.057-.206c1.155-.111,2.311-.22,3.463-.363l-.527.52a.239.239,0,0,0-.008.352.411.411,0,0,0,.549,0l.953-.942a.3.3,0,0,0,.046-.062,129.373,129.373,0,0,0,15.372-2.965l-1.756,1.995a.246.246,0,0,0,.022.362.4.4,0,0,0,.534-.021l2.309-2.623c.779-.208,1.594-.435,2.422-.674-.088.682-.2,1.406-.352,2.2-1.474.438-2.98.865-4.48,1.271a.338.338,0,0,0-.3.078c-6.232,1.674-12.68,3.07-19.171,4.147a.252.252,0,0,0-.078-.138.4.4,0,0,0-.542.008l-.259.273c-1.12.181-2.165.342-3.177.49.093-.124.189-.244.289-.365a.249.249,0,0,0,.047-.249.335.335,0,0,0-.27-.2.361.361,0,0,0-.339.115c-.226.275-.442.552-.653.832q-.775.109-1.552.212c.275-.329.552-.638.842-.939a.242.242,0,0,0,.067-.24.313.313,0,0,0-.238-.2.38.38,0,0,0-.375.094,17.893,17.893,0,0,0-1.225,1.415q-1.022.13-2.048.252c-.006-.162-.016-.32-.022-.481A.388.388,0,0,0-2284.414,2135.528Zm-.933-7.99-.29.244c-.046-.141-.095-.281-.144-.419a.615.615,0,0,0,.365.111A.719.719,0,0,0-2285.347,2127.538Zm1.866-.744c.467.085.967.171,1.523.26a.231.231,0,0,0-.009.124.321.321,0,0,0,.218.233.347.347,0,0,0,.344-.062l.206-.179c.723.108,1.462.206,2.2.293l-.361.257a.261.261,0,0,0-.119.238.3.3,0,0,0,.186.236.38.38,0,0,0,.377-.033l.842-.6c.557.057,1.111.107,1.653.148l-.193.152a.261.261,0,0,0-.048.377.365.365,0,0,0,.5.056l.654-.517q.648.041,1.3.071l0,.033a.313.313,0,0,0,.206.236.357.357,0,0,0,.359-.052l.229-.185a71.086,71.086,0,0,0,10.226-.372l-1.955,1.407a.261.261,0,0,0-.117.241.352.352,0,0,0,.008.047c-.866.146-1.744.25-2.615.379a11.609,11.609,0,0,0,1.045-.825.266.266,0,0,0,.021-.389.355.355,0,0,0-.492-.032,11.45,11.45,0,0,1-1.495,1.137.237.237,0,0,0-.106.258c-.655.089-1.3.2-1.961.283l.864-.711a.263.263,0,0,0,.039-.38.365.365,0,0,0-.5-.05l-1.484,1.222a.262.262,0,0,0-.052.056q-.947.105-1.9.2l.543-.436a.261.261,0,0,0,.046-.378.366.366,0,0,0-.506-.053l-1.055.846a.284.284,0,0,0-.09.121q-.925.083-1.852.153c.132-.1.265-.212.4-.319a.262.262,0,0,0,.044-.377.372.372,0,0,0-.506-.054l-1.025.826q-.7.05-1.409.091l.73-.577a.259.259,0,0,0,.049-.375.363.363,0,0,0-.506-.058l-1.349,1.067c-.856.044-1.66.076-2.442.1l1.586-1.129a.263.263,0,0,0,.119-.239.293.293,0,0,0-.184-.236.373.373,0,0,0-.379.032l-2.255,1.6q-.288.007-.583.011a.428.428,0,0,0-.374.006h-.026c-.026-.18-.054-.359-.086-.537l1.918-1.657a.264.264,0,0,0,.03-.385.359.359,0,0,0-.5-.041l-1.585,1.372c-.1-.46-.2-.89-.318-1.3Zm21.523,1.393a.251.251,0,0,0-.067.366.276.276,0,0,0,.06.06q-1.132.222-2.272.42l2.324-1.673c.463-.061.919-.123,1.361-.189Zm2.993-.535a.259.259,0,0,0-.12.238.27.27,0,0,0,.044.122q-1.133.248-2.276.475l2.114-1.526c.533-.09,1.071-.187,1.605-.291Zm4.47-1.3a.255.255,0,0,0,.017-.26.3.3,0,0,0-.09-.093c1.377-.333,2.736-.689,4.046-1.1-.014.327-.036.646-.063.95-1.6.47-3.219.9-4.851,1.307A2.525,2.525,0,0,0-2254.495,2126.346Zm-2,.582a.287.287,0,0,0-.244.338.3.3,0,0,0,.13.173c-.506.122-1.008.254-1.517.37l1.7-1.222a.267.267,0,0,0,.115-.18c.389-.083.768-.184,1.153-.273A2.293,2.293,0,0,1-2256.492,2126.928Zm-21.6,4.754c-.127.088-.252.189-.38.28l.345-.278.036,0Zm10.908-3.228h0Zm-8.089,4.16Zm23.412.653c-.005.031-.011.061-.017.093l-.1.031C-2251.938,2133.35-2251.9,2133.309-2251.858,2133.266Zm-27.527,7.319q-1.152.256-2.309.5l4.533-5.015a.262.262,0,0,0,.063-.116c.173-.026.346-.055.52-.082l.208-.032a.4.4,0,0,0,.4-.065l.221-.034.312-.051a29.56,29.56,0,0,0-3.979,4.557.26.26,0,0,0-.039.223A.271.271,0,0,0-2279.385,2140.585Zm-3.073.575a.27.27,0,0,0,.046.084q-.746.159-1.493.315l4.7-5.286,1.158-.17q-2.176,2.407-4.347,4.813A.243.243,0,0,0-2282.458,2141.16Zm21.532-5.16,2.078-3.715q1.07-.268,2.137-.548l-2.644,3.828Q-2260.139,2135.784-2260.927,2136Zm-9.407,1.469a.237.237,0,0,0-.018.348.416.416,0,0,0,.552.014,16.339,16.339,0,0,0,2.934-3.62.269.269,0,0,0,.036-.1c.595-.122,1.186-.247,1.779-.375l-3.011,3.206a.244.244,0,0,0,.007.358.4.4,0,0,0,.543-.009l3.568-3.8c1.422-.315,2.838-.644,4.219-.981l-2.091,3.741c-3.708,1.01-7.439,1.97-11.094,2.847a.308.308,0,0,0-.049-.047.328.328,0,0,0,.259-.125l3.334-4.3c.563-.11,1.125-.221,1.689-.335A16.183,16.183,0,0,1-2270.334,2137.469Zm-3.963-1.962c.494-.083.987-.169,1.48-.255l-3.782,3.963a.247.247,0,0,0-.067.244.315.315,0,0,0,.242.2.387.387,0,0,0,.372-.1l4.3-4.5c.476-.086.951-.175,1.426-.264l-2.94,3.8a.253.253,0,0,0,.052.369l.017.013a.336.336,0,0,0-.345.26v.005q-2.58.613-5.206,1.2A29.375,29.375,0,0,1-2274.3,2135.507Zm-9.09,1.323.244-.03a.263.263,0,0,0,.014.041.363.363,0,0,0,.3.188.315.315,0,0,0,.3-.134l.135-.188.168-.023-2.287,2.737c.011-.408.02-.854.021-1.3.344-.343.69-.682,1.036-1.024A.238.238,0,0,0-2283.387,2136.83Zm-1.153,3.538a.322.322,0,0,0,.163-.1l2.8-3.35a.244.244,0,0,0,.05-.249.262.262,0,0,0-.037-.07l.79-.106c-.017.025-.036.052-.052.078a.253.253,0,0,0-.02.261.343.343,0,0,0,.157.145l-3.881,4.365C-2284.561,2141.015-2284.55,2140.691-2284.54,2140.368Zm.352-3.439-.311.306c0-.089-.006-.179-.009-.268Zm1.038,5.487c.548-.115,1.116-.235,1.715-.364l-1.382,3.828a.252.252,0,0,0,.031.236.313.313,0,0,0,.157.115.447.447,0,0,0,.147.025.321.321,0,0,0,.317-.2l1.391-3.852a.25.25,0,0,0-.044-.254c-.01-.012-.029-.015-.039-.025l1.561-.342-.443,1.18a.251.251,0,0,0,.027.233.32.32,0,0,0,.155.115.433.433,0,0,0,.246.017.3.3,0,0,0,.221-.186l.577-1.535.787-.177-.456,1.256a.247.247,0,0,0,.043.252.392.392,0,0,0,.365.117.307.307,0,0,0,.244-.19l.585-1.611.938-.214a9.828,9.828,0,0,1-.16,1.153.266.266,0,0,0,.089.259.429.429,0,0,0,.389.078.27.27,0,0,0,.185-.2,11.53,11.53,0,0,0,.192-1.45q.777-.181,1.554-.364c-.1.419-.2.782-.313,1.125a.277.277,0,0,0,.2.35.345.345,0,0,0,.45-.181,13.324,13.324,0,0,0,.4-1.47c.451-.107.9-.218,1.353-.327a4.189,4.189,0,0,1-.082,1.039.269.269,0,0,0,.09.258.41.41,0,0,0,.388.079.267.267,0,0,0,.187-.2,4.755,4.755,0,0,0,.093-1.34q.827-.2,1.653-.4l-.637,1.04a.272.272,0,0,0,.109.381.344.344,0,0,0,.479-.084l.917-1.5a.291.291,0,0,0,.029-.063c3.291-.831,6.528-1.693,9.627-2.563a.512.512,0,0,0,.423-.48.47.47,0,0,0-.195-.376q1.423-2.056,2.844-4.115c.466-.125.912-.247,1.356-.368l-2.279,3.487a.255.255,0,0,0-.017.261.375.375,0,0,0,.307.182h.022a.313.313,0,0,0,.27-.139l2.306-3.526a.267.267,0,0,0-.093-.38c-.014-.009-.033,0-.049-.011.53-.147,1.047-.293,1.557-.439l-1.734,3.091a.24.24,0,0,0,0,.244.289.289,0,0,0,.137.115q-.422.13-.846.254a.555.555,0,0,0-.409.384.472.472,0,0,0,.138.445.614.614,0,0,0,.608.114l.028-.009a14.517,14.517,0,0,1-2.265,4.582.253.253,0,0,0-.031.256.357.357,0,0,0,.292.19.324.324,0,0,0,.313-.129,14.929,14.929,0,0,0,2.448-5.1l.006-.031,1.578-.474a.407.407,0,0,0-.01.1l-2.716,5.246a.273.273,0,0,0-.029.1l-.325.092c.052-.094.1-.192.152-.287a.242.242,0,0,0-.01-.247.371.371,0,0,0-.332-.141.345.345,0,0,0-.294.175c-.106.208-.217.413-.329.62l-.073.133c-.829.235-1.658.469-2.49.7l.4-.757a.239.239,0,0,0-.011-.253.311.311,0,0,0-.083-.076l1.5-2.188a.255.255,0,0,0,.023-.259.365.365,0,0,0-.3-.187.348.348,0,0,0-.3.136l-2.434,3.55a.254.254,0,0,0-.036.224.268.268,0,0,0,.082.125c-.37.1-.74.2-1.11.3l1.525-2.833a.243.243,0,0,0-.111-.342.4.4,0,0,0-.522.124l-1.768,3.283c-.717.187-1.435.374-2.155.555l1.576-2.257a.264.264,0,0,0-.077-.376.361.361,0,0,0-.5.063l-1.885,2.7a.274.274,0,0,0-.043.1l-.791.2.2-.417a.253.253,0,0,0-.143-.345.383.383,0,0,0-.5.144l-.384.825-.29.073c.013-.015.033-.022.045-.041l.993-1.708a.234.234,0,0,0,.006-.241.352.352,0,0,0-.31-.15.36.36,0,0,0-.323.167l-.993,1.706a.238.238,0,0,0,.094.34.372.372,0,0,0,.092.023l-.673.164a.292.292,0,0,0-.248-.177.354.354,0,0,0-.418.259c0,.025-.008.051-.012.075-.271.065-.55.125-.822.19.305-.439.607-.89.88-1.365a.237.237,0,0,0,.007-.241.356.356,0,0,0-.311-.152h0a.36.36,0,0,0-.323.167c-.293.506-.625,1.019-.988,1.524a.237.237,0,0,0-.018.24c-.531.124-1.059.246-1.593.367l.527-.865a.272.272,0,0,0-.109-.382.348.348,0,0,0-.479.084l-.656,1.072a.247.247,0,0,0,.008.254c-.143.031-.281.065-.425.1l.052-.115a.243.243,0,0,0-.024-.25.4.4,0,0,0-.347-.132.323.323,0,0,0-.273.183l-.22.493-.745.163a.256.256,0,0,0-.025-.16.371.371,0,0,0-.309-.184.355.355,0,0,0-.289.141l-.253.393c-2.969.635-6,1.235-9.005,1.785-.048-.2-.091-.408-.131-.617A12.283,12.283,0,0,0-2283.15,2142.416Zm29.251-1.373.247-.421.866-.256-.113.228-.984.44Zm1.448-3.361c-.053.531-.106,1.061-.167,1.59-.461.139-.92.276-1.383.411l1.677-3.239C-2252.368,2136.861-2252.41,2137.275-2252.45,2137.683Zm1.451-1.915c.012-.1.024-.19.036-.284.014-.115.031-.227.05-.34l.016-.109c.086-.01.17-.02.253-.035Zm-.589-3.9a6.638,6.638,0,0,1-1.12,1.352.24.24,0,0,0-.081.235.258.258,0,0,0,.109.154c-.258.078-.515.159-.773.237l2-3.558.2-.057c-.067.334-.132.667-.2,1Zm-31.844-3.385Zm-1.123,14.492.665-.251a11.666,11.666,0,0,1-.6,2.192c-.057-.59-.088-1.229-.1-1.93Zm5.084,3.946c.429-.084.855-.172,1.283-.259l-1.36,2.556a.243.243,0,0,0,.115.343.4.4,0,0,0,.52-.125l1.566-2.944.448-.091q.48-.1.959-.2l-1.79,2.784a.259.259,0,0,0-.029.23.3.3,0,0,0,.125.15.352.352,0,0,0,.487-.077l2.11-3.28.821-.178.152-.035-.149.332a.255.255,0,0,0,.149.345.373.373,0,0,0,.5-.148l.315-.706c1.611-.354,3.112-.7,4.576-1.041a.288.288,0,0,0,.232.334.328.328,0,0,0,.43-.191c.03-.105.055-.212.079-.319l.446-.1c.184-.042.367-.085.551-.128a.24.24,0,0,0,.035.2.374.374,0,0,0,.34.135.342.342,0,0,0,.3-.208l.154-.333c.334-.083.667-.167,1-.252l.266-.065c-.007.019-.013.042-.021.062a.283.283,0,0,0,.216.35.334.334,0,0,0,.441-.187c.043-.138.082-.275.118-.416,1.342-.338,2.7-.69,4.04-1.05l-.179.341a.238.238,0,0,0,0,.244.365.365,0,0,0,.327.145.351.351,0,0,0,.3-.173l.414-.791q1.21-.329,2.416-.664c-.115.193-.232.389-.356.581a.268.268,0,0,0,.1.378.353.353,0,0,0,.487-.077c.217-.341.445-.716.691-1.143l.064-.019c.406-.112.812-.228,1.217-.344l-2.318,3.937a.277.277,0,0,0,.119.386.338.338,0,0,0,.471-.093l2.112-3.585a.4.4,0,0,0,.029.095.623.623,0,0,0,.57.338h0l-1.37,2.755a.24.24,0,0,0,.053.294l-.743.158a.351.351,0,0,0-.223-.157.318.318,0,0,0-.412.2l-.023.092q-1.949.412-3.9.825a.3.3,0,0,0-.225-.262.339.339,0,0,0-.443.184l-.073.233-1.034.218.049-.122a.266.266,0,0,0-.176-.349.362.362,0,0,0-.475.165l-.181.47-1.045.222a10.149,10.149,0,0,1,.46-1.044.247.247,0,0,0-.122-.344.387.387,0,0,0-.515.132,10.96,10.96,0,0,0-.6,1.42l-.594.124a.267.267,0,0,0-.188-.308.361.361,0,0,0-.475.165l-.119.308-2.1.445a.362.362,0,0,0-.218-.105.322.322,0,0,0-.379.214l-.007.018-4.169.879a.229.229,0,0,0-.028-.108.351.351,0,0,0-.307-.151h0a.361.361,0,0,0-.323.165l-.159.268-.81.171a.255.255,0,0,0-.018-.072.342.342,0,0,0-.28-.195.329.329,0,0,0-.325.122l-.257.331-5.6,1.183a.8.8,0,0,0-.632.134l-.192.041Zm24.993-.446a.758.758,0,0,0,.332.136l0,.07-.507,1.04Zm.188-1.586,1.081-2.176a15.109,15.109,0,0,1-.69,2.092Zm-6.625-20.258a.262.262,0,0,0,.168-.348.362.362,0,0,0-.473-.172l-4.75,1.932a80.021,80.021,0,0,1-13.474-.433.266.266,0,0,0,.008-.128.324.324,0,0,0-.219-.233.345.345,0,0,0-.343.062l-.237.205-.385-.052a7.72,7.72,0,0,0,1.068-.557.246.246,0,0,0,.095-.349.39.39,0,0,0-.525-.1,7.541,7.541,0,0,1-1.881.831c-.317-.048-.63-.106-.946-.157l3.921-2.43a.244.244,0,0,0,.094-.349.391.391,0,0,0-.522-.1l-4.007,2.482a.258.258,0,0,0-.134.226.279.279,0,0,0,.024.073c-1.154-.2-2.3-.408-3.422-.651l.208-1.339a.38.38,0,0,0-.151-.375.746.746,0,0,0-.56-.107,33.163,33.163,0,0,0-1.153-7.493.985.985,0,0,0,.12.04c1.235.291,2.515.561,3.812.8a6.448,6.448,0,0,0-2.221,1.584.246.246,0,0,0,.021.363.4.4,0,0,0,.534-.022,6.212,6.212,0,0,1,2.8-1.721c.272.047.545.093.817.138l-3.749,2.8a.264.264,0,0,0-.113.244.306.306,0,0,0,.194.235.371.371,0,0,0,.368-.041l4.154-3.1a86.516,86.516,0,0,0,14.759.981,13.675,13.675,0,0,1-3.468,1.221.3.3,0,0,0-.242.2.266.266,0,0,0,.062.265.338.338,0,0,0,.344.1,13.867,13.867,0,0,0,4.574-1.814c.344-.011.685-.039,1.029-.053l-5.367,2.152a.277.277,0,0,0-.186.216.277.277,0,0,0,.111.256.377.377,0,0,0,.229.075.394.394,0,0,0,.15-.029l5.839-2.34a.261.261,0,0,0,.17-.346c-.005-.015-.025-.018-.033-.032q1.4-.075,2.8-.2a42.011,42.011,0,0,0-8.084,4.182.265.265,0,0,0-.12.165.244.244,0,0,0,.037.192.375.375,0,0,0,.31.153.368.368,0,0,0,.21-.063,41.633,41.633,0,0,1,8.668-4.4.3.3,0,0,0,.165-.132.248.248,0,0,0,.013-.205c2.508-.25,4.993-.6,7.434-1.061l-3.236,1.967a.244.244,0,0,0-.1.348.391.391,0,0,0,.525.107l4.307-2.619a.278.278,0,0,0,.114-.124q.434-.091.866-.186c0,.293,0,.6,0,.916a.377.377,0,0,0-.086-.072.4.4,0,0,0-.392.021l-4.522,2.961a.247.247,0,0,0-.088.355.383.383,0,0,0,.314.155.386.386,0,0,0,.209-.062l4.523-2.962c.02-.012.028-.03.045-.047,0,.331.009.665.016,1.024l-4.4,2.979a.25.25,0,0,0-.081.36.392.392,0,0,0,.52.086l3.986-2.7c.036,1.1.107,2.194.194,3.273a.386.386,0,0,0-.472.03h0a9.646,9.646,0,0,1-3.619,2.253.28.28,0,0,0-.195.206.274.274,0,0,0,.1.254c.026.022.065.021.1.035a78.324,78.324,0,0,1-10.318,1.491Zm12.07-16.073h0Zm-.785,13.5c.038.45.07.9.118,1.346q-1.77.487-3.581.887A10.16,10.16,0,0,0-2249.63,2122.056Zm3.652-30.458Zm-34.588,2.7Zm-8.909-2.663Zm-11.224-5.878-.037.018-1.791,1a21.409,21.409,0,0,1,.761-2.294A3.923,3.923,0,0,0-2300.7,2085.757Zm5.439,18.76h0Zm43.889,36.52-.458,1.195c.074-.344.142-.7.2-1.08Zm11.635-60.232a10.551,10.551,0,0,1-.825-1.722l.005-.007a.252.252,0,0,0,.031-.255.333.333,0,0,0-.186-.167c-.05-.148-.094-.3-.137-.466a5.918,5.918,0,0,1,1.6.823A1.394,1.394,0,0,1-2239.736,2080.8Zm-46.827,56.393.168-.017c-.028.023-.056.047-.082.073A.468.468,0,0,1-2286.563,2137.2Zm2.845,11.114c-.029-.074-.058-.15-.085-.226a.448.448,0,0,0-.095-.253.708.708,0,0,1-.021-.068c.2-.036.4-.073.6-.111Zm33.686-10.154a.418.418,0,0,0-.142.028.3.3,0,0,0-.162.164l-.1.268c-.272.082-.543.165-.817.246l-.073.023c.037-.343.072-.689.108-1.054l1.413-3.046c.052-.021.1-.039.154-.06l-1.429,3.446a.261.261,0,0,0,.162.348.372.372,0,0,0,.486-.158l.5-1.2A4.6,4.6,0,0,1-2250.033,2138.157Zm9.006-60.153Zm-9.943,66.18-.969.2,1.44-3.742,1.179-.53-1.471,3.762a.252.252,0,0,0,.038.252.337.337,0,0,0,.069.05A.8.8,0,0,0-2250.97,2144.184Z" transform="translate(0 0)" fill="#9044e2"/>
    <path id="Path_2144" data-name="Path 2144" d="M-2270.454,2057.858a.3.3,0,0,0-.24.192,9.048,9.048,0,0,1-1.665,2.822.246.246,0,0,0,.03.363.4.4,0,0,0,.259.091.349.349,0,0,0,.27-.117,9.534,9.534,0,0,0,1.759-2.985.246.246,0,0,0-.046-.251A.4.4,0,0,0-2270.454,2057.858Z" transform="translate(8.666 8.384)" fill="#9044e2"/>
    <path id="Path_2145" data-name="Path 2145" d="M-2256.924,2055.533a.407.407,0,0,0-.382.09,7.622,7.622,0,0,0-1.978,3.213.258.258,0,0,0,.06.254.4.4,0,0,0,.286.113.453.453,0,0,0,.091-.01.289.289,0,0,0,.22-.2,7.171,7.171,0,0,1,1.862-3.02.245.245,0,0,0,.073-.239A.313.313,0,0,0-2256.924,2055.533Z" transform="translate(11.833 7.822)" fill="#9044e2"/>
    <path id="Path_2146" data-name="Path 2146" d="M-2248.956,2053.655a.365.365,0,0,0-.48.16l-1.4,3.462a.264.264,0,0,0,.169.349.463.463,0,0,0,.164.031.326.326,0,0,0,.316-.191l1.4-3.462A.262.262,0,0,0-2248.956,2053.655Z" transform="translate(13.868 7.364)" fill="#9044e2"/>
    <path id="Path_2147" data-name="Path 2147" d="M-2247.243,2049.41l-.9,2.02a.255.255,0,0,0,.147.345.437.437,0,0,0,.177.037.333.333,0,0,0,.319-.185l.9-2.019a.256.256,0,0,0-.148-.347A.375.375,0,0,0-2247.243,2049.41Z" transform="translate(14.517 6.303)" fill="#9044e2"/>
    <path id="Path_2148" data-name="Path 2148" d="M-2273.067,2037.64l-1.415,2.005a.253.253,0,0,0-.038.223.275.275,0,0,0,.115.154.4.4,0,0,0,.23.072.323.323,0,0,0,.27-.134l1.413-2a.262.262,0,0,0-.073-.376A.366.366,0,0,0-2273.067,2037.64Z" transform="translate(8.158 3.477)" fill="#9044e2"/>
    <path id="Path_2149" data-name="Path 2149" d="M-2262.118,2035.315a.383.383,0,0,0-.521.037l-2.561,3.185a.251.251,0,0,0-.046.252.344.344,0,0,0,.275.2.366.366,0,0,0,.063,0,.335.335,0,0,0,.271-.124l2.563-3.182A.255.255,0,0,0-2262.118,2035.315Zm-.4.135Z" transform="translate(10.394 2.928)" fill="#9044e2"/>
    <path id="Path_2150" data-name="Path 2150" d="M-2261.109,2035.648a.373.373,0,0,0-.34.115l-1.815,2.2a.257.257,0,0,0-.06.2.271.271,0,0,0,.1.163.4.4,0,0,0,.254.087.346.346,0,0,0,.272-.123l1.813-2.2a.253.253,0,0,0,.049-.25A.344.344,0,0,0-2261.109,2035.648Z" transform="translate(10.86 3.028)" fill="#9044e2"/>
    <path id="Path_2151" data-name="Path 2151" d="M-2257.8,2034.451l-1.627,2.85a.241.241,0,0,0,.1.34.4.4,0,0,0,.208.052.362.362,0,0,0,.323-.167l1.625-2.85a.241.241,0,0,0-.1-.341A.4.4,0,0,0-2257.8,2034.451Z" transform="translate(11.792 2.699)" fill="#9044e2"/>
    <path id="Path_2152" data-name="Path 2152" d="M-2254.631,2032.683a.345.345,0,0,0-.446.183l-1.164,3.687a.279.279,0,0,0,.21.346.415.415,0,0,0,.132.021.313.313,0,0,0,.314-.2l1.164-3.685A.28.28,0,0,0-2254.631,2032.683Z" transform="translate(12.566 2.309)" fill="#9044e2"/>
    <path id="Path_2153" data-name="Path 2153" d="M-2255.034,2036.1a.263.263,0,0,0,.08.258.415.415,0,0,0,.277.1.348.348,0,0,0,.109-.015.274.274,0,0,0,.2-.2l.95-4.018a.3.3,0,0,0-.257-.346.314.314,0,0,0-.406.205Z" transform="translate(12.858 2.116)" fill="#9044e2"/>
    <path id="Path_2154" data-name="Path 2154" d="M-2289.671,2028.946a4.187,4.187,0,0,0-1.734,2.331.256.256,0,0,0,.073.255.409.409,0,0,0,.28.107.365.365,0,0,0,.1-.015.277.277,0,0,0,.2-.2,3.609,3.609,0,0,1,1.516-2.035.252.252,0,0,0,.074-.364A.385.385,0,0,0-2289.671,2028.946Z" transform="translate(4.086 1.397)" fill="#9044e2"/>
    <path id="Path_2155" data-name="Path 2155" d="M-2275.309,2025.515a.375.375,0,0,0-.367.1l-1.415,1.5a.242.242,0,0,0,.006.356.407.407,0,0,0,.273.1.361.361,0,0,0,.268-.108l1.416-1.5a.241.241,0,0,0,.064-.242A.317.317,0,0,0-2275.309,2025.515Z" transform="translate(7.522 0.582)" fill="#9044e2"/>
    <path id="Path_2156" data-name="Path 2156" d="M-2265,2028.424l-1.867,1.676a.264.264,0,0,0-.091.256.322.322,0,0,0,.224.231.365.365,0,0,0,.113.019.331.331,0,0,0,.225-.086l1.868-1.676a.266.266,0,0,0,.023-.386A.354.354,0,0,0-2265,2028.424Z" transform="translate(9.984 1.266)" fill="#9044e2"/>
    <path id="Path_2157" data-name="Path 2157" d="M-2282.141,2091.212a.389.389,0,0,0-.366.1l-6.093,6.519a.248.248,0,0,0-.064.243.316.316,0,0,0,.245.2.447.447,0,0,0,.1.011.361.361,0,0,0,.268-.111q3.049-3.257,6.094-6.519a.243.243,0,0,0,.064-.242A.318.318,0,0,0-2282.141,2091.212Z" transform="translate(4.747 16.427)" fill="#9044e2"/>
    <path id="Path_2158" data-name="Path 2158" d="M-2273.478,2091.966a.243.243,0,0,0,.08-.235.3.3,0,0,0-.219-.206.413.413,0,0,0-.395.08,73.636,73.636,0,0,0-6.865,7.348.247.247,0,0,0-.044.25.336.336,0,0,0,.272.2.364.364,0,0,0,.065,0,.342.342,0,0,0,.271-.123A73.552,73.552,0,0,1-2273.478,2091.966Z" transform="translate(6.613 16.501)" fill="#9044e2"/>
    <path id="Path_2159" data-name="Path 2159" d="M-2271.52,2091.961a.332.332,0,0,0-.264-.2.356.356,0,0,0-.346.111l-6.121,7.179a.248.248,0,0,0-.052.248.331.331,0,0,0,.263.2.384.384,0,0,0,.078.008.35.35,0,0,0,.27-.119l6.119-7.178A.247.247,0,0,0-2271.52,2091.961Z" transform="translate(7.245 16.56)" fill="#9044e2"/>
    <path id="Path_2160" data-name="Path 2160" d="M-2269.314,2091a.373.373,0,0,0-.309-.185.312.312,0,0,0-.292.14,53.232,53.232,0,0,1-6.767,8.342.251.251,0,0,0-.071.241.314.314,0,0,0,.235.2.412.412,0,0,0,.113.015.377.377,0,0,0,.267-.1,53.82,53.82,0,0,0,6.807-8.392A.257.257,0,0,0-2269.314,2091Z" transform="translate(7.62 16.334)" fill="#9044e2"/>
    <path id="Path_2161" data-name="Path 2161" d="M-2267.935,2091.1a.337.337,0,0,0-.333.118l-6.468,8.068a.249.249,0,0,0-.042.25.339.339,0,0,0,.276.2.338.338,0,0,0,.062,0,.335.335,0,0,0,.269-.124l6.469-8.067a.248.248,0,0,0,.044-.25A.342.342,0,0,0-2267.935,2091.1Z" transform="translate(8.094 16.401)" fill="#9044e2"/>
    <path id="Path_2162" data-name="Path 2162" d="M-2263.661,2091.985a.383.383,0,0,0-.524.031l-5.307,6.393a.242.242,0,0,0-.05.248.336.336,0,0,0,.269.2.477.477,0,0,0,.072.006.339.339,0,0,0,.269-.12l5.308-6.391A.251.251,0,0,0-2263.661,2091.985Z" transform="translate(9.358 16.594)" fill="#9044e2"/>
    <path id="Path_2163" data-name="Path 2163" d="M-2262.368,2092.3l-4.064,5.91a.265.265,0,0,0,.081.378.4.4,0,0,0,.228.07.322.322,0,0,0,.27-.135l4.065-5.911a.261.261,0,0,0-.082-.376A.362.362,0,0,0-2262.368,2092.3Z" transform="translate(10.1 16.659)" fill="#9044e2"/>
    <path id="Path_2164" data-name="Path 2164" d="M-2301.339,2074.428l-2.568,2.01a.262.262,0,0,0-.108.245.312.312,0,0,0,.2.237.391.391,0,0,0,.143.027.352.352,0,0,0,.22-.074l2.568-2.01a.262.262,0,0,0,.052-.376A.372.372,0,0,0-2301.339,2074.428Z" transform="translate(1.047 12.363)" fill="#9044e2"/>
    <path id="Path_2165" data-name="Path 2165" d="M-2278.646,2080.283a.358.358,0,0,0,.324-.172,9.106,9.106,0,0,1,4.192-3.778.27.27,0,0,0,.144-.367.347.347,0,0,0-.468-.145,9.8,9.8,0,0,0-4.5,4.073.244.244,0,0,0,.114.343A.42.42,0,0,0-2278.646,2080.283Z" transform="translate(7.083 12.708)" fill="#9044e2"/>
    <path id="Path_2166" data-name="Path 2166" d="M-2265.145,2080.155a.326.326,0,0,0,.27-.13l3.447-4.71a.254.254,0,0,0,.032-.257.358.358,0,0,0-.291-.192.326.326,0,0,0-.315.128l-3.446,4.711a.258.258,0,0,0,.066.373A.4.4,0,0,0-2265.145,2080.155Z" transform="translate(10.336 12.486)" fill="#9044e2"/>
    <path id="Path_2167" data-name="Path 2167" d="M-2256.619,2079.868h.012a.311.311,0,0,0,.271-.144l3.641-5.891a.271.271,0,0,0-.106-.381.35.35,0,0,0-.482.083l-3.641,5.891a.254.254,0,0,0-.011.262A.376.376,0,0,0-2256.619,2079.868Z" transform="translate(12.394 12.132)" fill="#9044e2"/>
    <path id="Path_2168" data-name="Path 2168" d="M-2255.469,2081.528a.247.247,0,0,0,.12.342.434.434,0,0,0,.192.045.358.358,0,0,0,.326-.174l4.612-8.89a.237.237,0,0,0-.007-.246.355.355,0,0,0-.328-.143.34.34,0,0,0-.3.174l-4.615,8.891Z" transform="translate(12.748 11.907)" fill="#9044e2"/>
    <path id="Path_2169" data-name="Path 2169" d="M-2250.92,2076.279l-4.2,7.7a.233.233,0,0,0,0,.244.353.353,0,0,0,.308.147h.01a.355.355,0,0,0,.313-.172l4.2-7.7a.244.244,0,0,0-.108-.344A.4.4,0,0,0-2250.92,2076.279Z" transform="translate(12.831 12.787)" fill="#9044e2"/>
    <path id="Path_2170" data-name="Path 2170" d="M-2250.912,2079.608l-3.256,5.363a.256.256,0,0,0-.007.263.375.375,0,0,0,.316.18h.01a.307.307,0,0,0,.268-.145l3.255-5.364a.272.272,0,0,0-.109-.382A.35.35,0,0,0-2250.912,2079.608Z" transform="translate(13.06 13.597)" fill="#9044e2"/>
    <path id="Path_2171" data-name="Path 2171" d="M-2296.194,2084.626a.284.284,0,0,0-.165-.234.391.391,0,0,0-.4.012l-1.867,1.171a.257.257,0,0,0-.135.228.287.287,0,0,0,.167.236.4.4,0,0,0,.188.046.39.39,0,0,0,.207-.058l1.868-1.173A.256.256,0,0,0-2296.194,2084.626Z" transform="translate(2.315 14.773)" fill="#9044e2"/>
    <path id="Path_2172" data-name="Path 2172" d="M-2294.707,2084.292a.4.4,0,0,0-.54.01l-1.416,1.5a.242.242,0,0,0,.007.356.406.406,0,0,0,.274.1.364.364,0,0,0,.268-.107l1.416-1.5A.245.245,0,0,0-2294.707,2084.292Z" transform="translate(2.802 14.736)" fill="#9044e2"/>
    <path id="Path_2173" data-name="Path 2173" d="M-2291.6,2084.141a.316.316,0,0,0-.212-.234.345.345,0,0,0-.35.057l-2.8,2.343a.26.26,0,0,0-.1.251.318.318,0,0,0,.212.234.373.373,0,0,0,.127.023.344.344,0,0,0,.221-.081l2.8-2.343A.261.261,0,0,0-2291.6,2084.141Z" transform="translate(3.205 14.662)" fill="#9044e2"/>
    <path id="Path_2174" data-name="Path 2174" d="M-2290.24,2084.377a.3.3,0,0,0-.133-.257.352.352,0,0,0-.362-.02,5.984,5.984,0,0,0-2.766,2.485.239.239,0,0,0,0,.244.354.354,0,0,0,.307.146h.013a.352.352,0,0,0,.31-.17,5.39,5.39,0,0,1,2.456-2.2A.282.282,0,0,0-2290.24,2084.377Z" transform="translate(3.575 14.704)" fill="#9044e2"/>
    <path id="Path_2175" data-name="Path 2175" d="M-2288.328,2083.447a.314.314,0,0,0-.238-.2.392.392,0,0,0-.376.094l-3.072,3.162a.246.246,0,0,0-.068.241.312.312,0,0,0,.236.2.471.471,0,0,0,.11.012.37.37,0,0,0,.267-.107l3.073-3.161A.248.248,0,0,0-2288.328,2083.447Z" transform="translate(3.923 14.504)" fill="#9044e2"/>
    <path id="Path_2176" data-name="Path 2176" d="M-2287.688,2084.305a.409.409,0,0,0-.55-.009l-2.589,2.5a.241.241,0,0,0-.077.236.3.3,0,0,0,.226.206.46.46,0,0,0,.123.018.378.378,0,0,0,.266-.1l2.589-2.5A.237.237,0,0,0-2287.688,2084.305Z" transform="translate(4.207 14.737)" fill="#9044e2"/>
    <path id="Path_2177" data-name="Path 2177" d="M-2284.192,2083.889a.326.326,0,0,0-.219-.235.345.345,0,0,0-.343.064l-4.947,4.329a.264.264,0,0,0-.028.385.363.363,0,0,0,.273.121.336.336,0,0,0,.223-.085l4.947-4.327A.265.265,0,0,0-2284.192,2083.889Zm-.46-.054Zm-4.683,4.518Z" transform="translate(4.476 14.602)" fill="#9044e2"/>
    <path id="Path_2178" data-name="Path 2178" d="M-2283.4,2084.446a.26.26,0,0,0,.039-.38.364.364,0,0,0-.5-.051h0a19.905,19.905,0,0,0-3.477,3.685.256.256,0,0,0-.042.219.294.294,0,0,0,.115.156.4.4,0,0,0,.232.073.325.325,0,0,0,.271-.131A19.225,19.225,0,0,1-2283.4,2084.446Zm-.363-.31Z" transform="translate(5.056 14.675)" fill="#9044e2"/>
    <path id="Path_2179" data-name="Path 2179" d="M-2285.241,2088.406l3.771-4.172a.245.245,0,0,0,.058-.246.324.324,0,0,0-.252-.2.379.379,0,0,0-.359.1l-3.77,4.169a.244.244,0,0,0,.017.362.406.406,0,0,0,.265.1A.359.359,0,0,0-2285.241,2088.406Z" transform="translate(5.425 14.637)" fill="#9044e2"/>
    <path id="Path_2180" data-name="Path 2180" d="M-2283.859,2088.125a.368.368,0,0,0,.269.117.327.327,0,0,0,.223-.086l4.46-4a.267.267,0,0,0,.023-.389.357.357,0,0,0-.494-.032q-2.229,2-4.46,4A.268.268,0,0,0-2283.859,2088.125Zm4.585-4.278Z" transform="translate(5.89 14.604)" fill="#9044e2"/>
    <path id="Path_2181" data-name="Path 2181" d="M-2278.855,2084.864h0a.262.262,0,0,0,.037-.381.363.363,0,0,0-.5-.047,16.971,16.971,0,0,0-3.54,4,.255.255,0,0,0-.01.263.368.368,0,0,0,.313.18h.013a.308.308,0,0,0,.269-.143A16.41,16.41,0,0,1-2278.855,2084.864Zm-.1-.119Z" transform="translate(6.14 14.776)" fill="#9044e2"/>
    <path id="Path_2182" data-name="Path 2182" d="M-2276.618,2084.3a.319.319,0,0,0-.249-.2.379.379,0,0,0-.364.1l-3.808,4.153a.249.249,0,0,0-.061.244.327.327,0,0,0,.252.2.509.509,0,0,0,.094.01.364.364,0,0,0,.268-.112q1.9-2.074,3.806-4.153A.246.246,0,0,0-2276.618,2084.3Z" transform="translate(6.571 14.711)" fill="#9044e2"/>
    <path id="Path_2183" data-name="Path 2183" d="M-2275.854,2085a.262.262,0,0,0,.111-.243.312.312,0,0,0-.2-.236.358.358,0,0,0-.365.046,7.686,7.686,0,0,0-2.637,3.428.247.247,0,0,0,.042.252.384.384,0,0,0,.293.122.408.408,0,0,0,.071-.007.3.3,0,0,0,.245-.189A7.156,7.156,0,0,1-2275.854,2085Z" transform="translate(7.09 14.807)" fill="#9044e2"/>
    <path id="Path_2184" data-name="Path 2184" d="M-2277.3,2087.156a.248.248,0,0,0,.048.252.389.389,0,0,0,.291.122.455.455,0,0,0,.078-.007.3.3,0,0,0,.237-.193,4.233,4.233,0,0,1,1.983-2.2.259.259,0,0,0,.142-.22.276.276,0,0,0-.151-.237.416.416,0,0,0-.409,0A4.747,4.747,0,0,0-2277.3,2087.156Z" transform="translate(7.487 14.839)" fill="#9044e2"/>
    <path id="Path_2185" data-name="Path 2185" d="M-2276.07,2088.3a.259.259,0,0,0,.065.245.349.349,0,0,0,.18.1.431.431,0,0,0,.11.015.294.294,0,0,0,.3-.215,4.127,4.127,0,0,1,2.1-2.5.242.242,0,0,0,.112-.339.4.4,0,0,0-.529-.12A4.608,4.608,0,0,0-2276.07,2088.3Z" transform="translate(7.785 15.037)" fill="#9044e2"/>
    <path id="Path_2186" data-name="Path 2186" d="M-2274.7,2088.49a.4.4,0,0,0,.263.094.351.351,0,0,0,.269-.115l2.189-2.472a.25.25,0,0,0,.057-.247.327.327,0,0,0-.257-.2.364.364,0,0,0-.355.106l-2.188,2.472A.245.245,0,0,0-2274.7,2088.49Z" transform="translate(8.095 15.061)" fill="#9044e2"/>
    <path id="Path_2187" data-name="Path 2187" d="M-2272.793,2088.165a.271.271,0,0,0,.1.16.411.411,0,0,0,.247.082.335.335,0,0,0,.27-.124l2.1-2.68a.256.256,0,0,0-.05-.371.379.379,0,0,0-.517.043l-2.1,2.679A.252.252,0,0,0-2272.793,2088.165Zm.5.021h0Z" transform="translate(8.576 14.967)" fill="#9044e2"/>
    <path id="Path_2188" data-name="Path 2188" d="M-2271.286,2089.25a.309.309,0,0,0,.233.2.439.439,0,0,0,.114.016.376.376,0,0,0,.267-.106l4.654-4.7a.242.242,0,0,0,.071-.24.311.311,0,0,0-.235-.2.382.382,0,0,0-.379.091l-4.653,4.7A.24.24,0,0,0-2271.286,2089.25Z" transform="translate(8.938 14.74)" fill="#9044e2"/>
    <path id="Path_2189" data-name="Path 2189" d="M-2265.049,2084.3a.382.382,0,0,0-.52.041l-3.842,4.812a.249.249,0,0,0-.043.251.343.343,0,0,0,.275.2.347.347,0,0,0,.062,0,.34.34,0,0,0,.271-.124l3.844-4.813A.254.254,0,0,0-2265.049,2084.3Z" transform="translate(9.378 14.743)" fill="#9044e2"/>
    <path id="Path_2190" data-name="Path 2190" d="M-2263.478,2084.393a.342.342,0,0,0-.275-.2.341.341,0,0,0-.334.119l-3.083,3.831a.252.252,0,0,0,.044.368.4.4,0,0,0,.25.085.338.338,0,0,0,.271-.122l3.083-3.833A.25.25,0,0,0-2263.478,2084.393Z" transform="translate(9.918 14.736)" fill="#9044e2"/>
    <path id="Path_2191" data-name="Path 2191" d="M-2265.464,2088.59a.353.353,0,0,0,.285.194.318.318,0,0,0,.05,0,.333.333,0,0,0,.27-.129l3.542-4.674a.258.258,0,0,0-.06-.371.371.371,0,0,0-.511.049l-3.541,4.674A.25.25,0,0,0-2265.464,2088.59Z" transform="translate(10.34 14.578)" fill="#9044e2"/>
    <path id="Path_2192" data-name="Path 2192" d="M-2263.721,2088.922a.356.356,0,0,0,.291.19l.043,0a.326.326,0,0,0,.271-.132l3.052-4.179a.254.254,0,0,0,.033-.254.357.357,0,0,0-.291-.192.33.33,0,0,0-.315.129l-3.052,4.18A.254.254,0,0,0-2263.721,2088.922Z" transform="translate(10.76 14.776)" fill="#9044e2"/>
    <path id="Path_2193" data-name="Path 2193" d="M-2263.34,2089.514a.326.326,0,0,0,.255.2.452.452,0,0,0,.087.01.354.354,0,0,0,.268-.114l4.01-4.5a.246.246,0,0,0-.021-.363.39.39,0,0,0-.534.02l-4.009,4.5A.241.241,0,0,0-2263.34,2089.514Z" transform="translate(10.854 14.846)" fill="#9044e2"/>
    <path id="Path_2194" data-name="Path 2194" d="M-2257.839,2086.217a.241.241,0,0,0-.008-.246.351.351,0,0,0-.327-.143.344.344,0,0,0-.3.176,5.356,5.356,0,0,1-2.832,2.392.3.3,0,0,0-.162.142.251.251,0,0,0-.006.208.349.349,0,0,0,.323.2.365.365,0,0,0,.152-.033A5.98,5.98,0,0,0-2257.839,2086.217Z" transform="translate(11.302 15.131)" fill="#9044e2"/>
    <path id="Path_2195" data-name="Path 2195" d="M-2256.084,2085.657a.4.4,0,0,0-.532.023l-3.5,4.019a.248.248,0,0,0-.065.2.267.267,0,0,0,.09.164.407.407,0,0,0,.261.092.353.353,0,0,0,.27-.117l3.505-4.018A.247.247,0,0,0-2256.084,2085.657Z" transform="translate(11.617 15.068)" fill="#9044e2"/>
    <path id="Path_2196" data-name="Path 2196" d="M-2254.34,2086.7a.255.255,0,0,0-.052-.37.378.378,0,0,0-.517.045l-3.419,4.387a.251.251,0,0,0-.052.211.279.279,0,0,0,.1.16.407.407,0,0,0,.244.079.335.335,0,0,0,.271-.125Zm-.447-.229Z" transform="translate(12.052 15.233)" fill="#9044e2"/>
    <path id="Path_2197" data-name="Path 2197" d="M-2252.9,2086.776h-.009a.3.3,0,0,0-.27.147,9.55,9.55,0,0,1-3.674,3.376.274.274,0,0,0-.126.381.335.335,0,0,0,.29.168.37.37,0,0,0,.173-.046,10.134,10.134,0,0,0,3.925-3.583.26.26,0,0,0,.008-.265A.376.376,0,0,0-2252.9,2086.776Z" transform="translate(12.384 15.36)" fill="#9044e2"/>
    <path id="Path_2198" data-name="Path 2198" d="M-2289.892,2102.583a.386.386,0,0,0,.141.027.348.348,0,0,0,.22-.077l4.435-3.518a.267.267,0,0,0,.107-.245.315.315,0,0,0-.205-.236.361.361,0,0,0-.36.05l-4.434,3.518a.262.262,0,0,0-.106.247A.315.315,0,0,0-2289.892,2102.583Z" transform="translate(4.404 18.188)" fill="#9044e2"/>
    <path id="Path_2199" data-name="Path 2199" d="M-2284.683,2100.335a.258.258,0,0,0,.058-.372.367.367,0,0,0-.51-.065l-4.875,3.7a.26.26,0,0,0-.057.373.378.378,0,0,0,.294.138.353.353,0,0,0,.216-.072Z" transform="translate(4.398 18.507)" fill="#9044e2"/>
    <path id="Path_2200" data-name="Path 2200" d="M-2283.939,2100.967a.387.387,0,0,0-.52-.1l-5.13,3.356a.26.26,0,0,0-.129.231.294.294,0,0,0,.172.235.417.417,0,0,0,.181.043.386.386,0,0,0,.211-.062l5.128-3.354A.245.245,0,0,0-2283.939,2100.967Z" transform="translate(4.495 18.744)" fill="#9044e2"/>
    <path id="Path_2201" data-name="Path 2201" d="M-2284.061,2102.013a10.377,10.377,0,0,0-4.832,2.636.241.241,0,0,0,0,.354.408.408,0,0,0,.279.106.365.365,0,0,0,.266-.106,9.732,9.732,0,0,1,4.467-2.431.306.306,0,0,0,.234-.211.278.278,0,0,0-.073-.268A.356.356,0,0,0-2284.061,2102.013Z" transform="translate(4.675 19.032)" fill="#9044e2"/>
    <path id="Path_2202" data-name="Path 2202" d="M-2275.846,2104.32a.378.378,0,0,0,.155-.033,64.825,64.825,0,0,0,7.969-4.071.262.262,0,0,0,.137-.223.282.282,0,0,0-.159-.236.408.408,0,0,0-.4,0,63.723,63.723,0,0,1-7.856,4.008.3.3,0,0,0-.159.147.246.246,0,0,0,0,.208A.345.345,0,0,0-2275.846,2104.32Z" transform="translate(7.759 18.478)" fill="#9044e2"/>
    <path id="Path_2203" data-name="Path 2203" d="M-2267.512,2101.143h0a63.036,63.036,0,0,1-8.685,3.762.259.259,0,0,0-.185.333.354.354,0,0,0,.336.215.4.4,0,0,0,.139-.023,63.585,63.585,0,0,0,8.728-3.782.273.273,0,0,0,.13-.377A.34.34,0,0,0-2267.512,2101.143Z" transform="translate(7.709 18.813)" fill="#9044e2"/>
    <path id="Path_2204" data-name="Path 2204" d="M-2268.341,2103.165a.414.414,0,0,0-.409,0,17.555,17.555,0,0,1-6.414,2.1.274.274,0,0,0-.267.3.338.338,0,0,0,.349.269.541.541,0,0,0,.06,0,18.372,18.372,0,0,0,6.69-2.208.255.255,0,0,0,.143-.219A.284.284,0,0,0-2268.341,2103.165Z" transform="translate(7.941 19.299)" fill="#9044e2"/>
    <path id="Path_2205" data-name="Path 2205" d="M-2264.359,2104.247a.4.4,0,0,0,.158.034.375.375,0,0,0,.216-.069l3.486-2.523a.274.274,0,0,0,.115-.177.254.254,0,0,0-.048-.19.382.382,0,0,0-.514-.077l-3.485,2.526a.263.263,0,0,0-.118.239A.307.307,0,0,0-2264.359,2104.247Z" transform="translate(10.565 18.833)" fill="#9044e2"/>
    <path id="Path_2206" data-name="Path 2206" d="M-2269.437,2110.095a.387.387,0,0,0,.14.028.356.356,0,0,0,.22-.076l1.29-1.01a.275.275,0,0,0,.109-.187.267.267,0,0,0-.057-.188.369.369,0,0,0-.507-.061l-1.289,1.011a.264.264,0,0,0-.109.249A.313.313,0,0,0-2269.437,2110.095Z" transform="translate(9.337 20.605)" fill="#9044e2"/>
    <path id="Path_2207" data-name="Path 2207" d="M-2268.033,2109.662a.369.369,0,0,0,.3.141l.052,0a1.963,1.963,0,0,0,1.632-1.062.252.252,0,0,0-.032-.251.394.394,0,0,0-.358-.124.31.31,0,0,0-.257.188,1.318,1.318,0,0,1-1.121.682.3.3,0,0,0-.251.165A.261.261,0,0,0-2268.033,2109.662Z" transform="translate(9.711 20.564)" fill="#9044e2"/>
    <path id="Path_2208" data-name="Path 2208" d="M-2272.952,2114.818a.349.349,0,0,0,.272-.118l2.032-2.375a.248.248,0,0,0-.029-.364.394.394,0,0,0-.531.028l-2.031,2.375a.246.246,0,0,0,.029.364A.4.4,0,0,0-2272.952,2114.818Zm.152-.219Z" transform="translate(8.454 21.412)" fill="#9044e2"/>
    <path id="Path_2209" data-name="Path 2209" d="M-2272.6,2128.458a.381.381,0,0,0-.354-.126.313.313,0,0,0-.261.185,3.421,3.421,0,0,1-1.573,1.638.284.284,0,0,0-.16.242.3.3,0,0,0,.148.257.324.324,0,0,0,.174.049.366.366,0,0,0,.174-.046,4.037,4.037,0,0,0,1.883-1.95A.244.244,0,0,0-2272.6,2128.458Z" transform="translate(8.057 25.38)" fill="#9044e2"/>
    <path id="Path_2210" data-name="Path 2210" d="M-2271.088,2128.847a.254.254,0,0,0-.142-.345.384.384,0,0,0-.5.144,2.206,2.206,0,0,1-1.4,1.083.256.256,0,0,0-.195.321.364.364,0,0,0,.349.227.435.435,0,0,0,.13-.021A2.8,2.8,0,0,0-2271.088,2128.847Z" transform="translate(8.447 25.414)" fill="#9044e2"/>
    <path id="Path_2211" data-name="Path 2211" d="M-2270.628,2128.716l-1.166,1.34a.249.249,0,0,0-.054.248.335.335,0,0,0,.259.2.541.541,0,0,0,.083.006.351.351,0,0,0,.27-.116l1.167-1.337a.246.246,0,0,0-.024-.363A.392.392,0,0,0-2270.628,2128.716Zm.118.1Z" transform="translate(8.802 25.446)" fill="#9044e2"/>
    <path id="Path_2212" data-name="Path 2212" d="M-2281.11,2074.151a.344.344,0,0,0,.267-.111.309.309,0,0,0,.033-.049c4.938-.356,9.942-.582,14.875-.669a.308.308,0,0,0,.334-.3.3.3,0,0,0-.331-.282h-.007c-5.044.088-10.149.32-15.179.69a.339.339,0,0,0-.291.176.283.283,0,0,0-.024.178.268.268,0,0,0,.019.2A.326.326,0,0,0-2281.11,2074.151Z" transform="translate(6.491 11.975)" fill="#9044e2"/>
    <path id="Path_2213" data-name="Path 2213" d="M-2300.671,2035.534a.365.365,0,0,0,.236-.078.279.279,0,0,0,.1-.212.307.307,0,0,0-.336-.288.357.357,0,0,0-.234.078.272.272,0,0,0-.1.21A.307.307,0,0,0-2300.671,2035.534Z" transform="translate(1.773 2.862)" fill="#9044e2"/>
    <path id="Path_2214" data-name="Path 2214" d="M-2287.266,2037.452h.034c11.137-.837,23.759-1.783,34.268-6.24a.275.275,0,0,0,.182-.22.277.277,0,0,0-.118-.257.381.381,0,0,0-.373-.039c-10.4,4.409-22.928,5.349-33.982,6.178a.316.316,0,0,0-.321.324A.288.288,0,0,0-2287.266,2037.452Z" transform="translate(5.012 1.827)" fill="#9044e2"/>
    <path id="Path_2215" data-name="Path 2215" d="M-2261.234,2065.842a.316.316,0,0,0-.207-.235.354.354,0,0,0-.357.054l-2.486,2.01a.268.268,0,0,0-.1.249.313.313,0,0,0,.208.234.372.372,0,0,0,.134.026.351.351,0,0,0,.221-.078l2.487-2.012A.266.266,0,0,0-2261.234,2065.842Z" transform="translate(10.604 10.248)" fill="#9044e2"/>
    <path id="Path_2216" data-name="Path 2216" d="M-2261.553,2066.2l-2.292,2.255a.239.239,0,0,0-.008.352.4.4,0,0,0,.282.107.379.379,0,0,0,.267-.1l2.292-2.256a.237.237,0,0,0,.007-.351A.408.408,0,0,0-2261.553,2066.2Zm.432.246Z" transform="translate(10.716 10.373)" fill="#9044e2"/>
    <path id="Path_2217" data-name="Path 2217" d="M-2293.907,2067.745a.366.366,0,0,0,.208-.061,2.525,2.525,0,0,0,1.3-2.467.335.335,0,0,0-.359-.258h-.009a.316.316,0,0,0-.273.075l-.935.781a.262.262,0,0,0-.037.381.358.358,0,0,0,.5.046l.4-.337a2.255,2.255,0,0,1-1.03,1.331.248.248,0,0,0-.088.355A.38.38,0,0,0-2293.907,2067.745Z" transform="translate(3.399 10.096)" fill="#9044e2"/>
    <path id="Path_2218" data-name="Path 2218" d="M-2293.733,2068.246a.266.266,0,0,0,.1.16.415.415,0,0,0,.247.082.334.334,0,0,0,.27-.124l1.4-1.787a.259.259,0,0,0,.052-.211.288.288,0,0,0-.1-.159.376.376,0,0,0-.516.045l-1.4,1.785A.249.249,0,0,0-2293.733,2068.246Zm.5.022Z" transform="translate(3.526 10.379)" fill="#9044e2"/>
    <path id="Path_2219" data-name="Path 2219" d="M-2292.61,2069.059l1.246-1.675a.251.251,0,0,0,.034-.256.352.352,0,0,0-.288-.191.323.323,0,0,0-.317.126q-.624.837-1.245,1.674a.254.254,0,0,0-.035.257.356.356,0,0,0,.288.191l.046,0A.333.333,0,0,0-2292.61,2069.059Z" transform="translate(3.647 10.574)" fill="#9044e2"/>
    <path id="Path_2220" data-name="Path 2220" d="M-2291.021,2068.434a.273.273,0,0,0,.116-.174.248.248,0,0,0-.046-.191.377.377,0,0,0-.515-.077,3.933,3.933,0,0,0-1.505,1.921.258.258,0,0,0,.037.237.333.333,0,0,0,.163.112.439.439,0,0,0,.141.023.312.312,0,0,0,.313-.2A3.377,3.377,0,0,1-2291.021,2068.434Z" transform="translate(3.707 10.813)" fill="#9044e2"/>
    <path id="Path_2221" data-name="Path 2221" d="M-2292.249,2071.15a.412.412,0,0,0,.245.082.338.338,0,0,0,.271-.125l1.556-2.012a.251.251,0,0,0,.04-.252.356.356,0,0,0-.282-.2.35.35,0,0,0-.325.124l-1.558,2.008A.258.258,0,0,0-2292.249,2071.15Zm.393-.139h0Z" transform="translate(3.859 10.987)" fill="#9044e2"/>
    <path id="Path_2222" data-name="Path 2222" d="M-2291.749,2071.76h0a.264.264,0,0,0-.034.383.366.366,0,0,0,.277.126.331.331,0,0,0,.221-.083,8.312,8.312,0,0,0,1.953-2.336.241.241,0,0,0-.106-.341.4.4,0,0,0-.526.12A7.588,7.588,0,0,1-2291.749,2071.76Zm.1.118Z" transform="translate(3.981 11.183)" fill="#9044e2"/>
    <path id="Path_2223" data-name="Path 2223" d="M-2256.614,2060.3l-3.119,1.668a.286.286,0,0,0-.163.241.3.3,0,0,0,.147.257.338.338,0,0,0,.178.051.383.383,0,0,0,.172-.045l3.121-1.668a.282.282,0,0,0,.159-.241.292.292,0,0,0-.145-.257A.349.349,0,0,0-2256.614,2060.3Z" transform="translate(11.687 8.964)" fill="#9044e2"/>
    <path id="Path_2224" data-name="Path 2224" d="M-2260.052,2063.621a.354.354,0,0,0,.169-.045l1.045-.55-1.09.891a.263.263,0,0,0-.1.249.32.32,0,0,0,.209.235.381.381,0,0,0,.133.025.346.346,0,0,0,.221-.078q.946-.773,1.89-1.547a.259.259,0,0,0,.1-.25.285.285,0,0,0-.124-.178l.048-.026a.283.283,0,0,0,.164-.238.294.294,0,0,0-.144-.257.339.339,0,0,0-.353-.009l-2.334,1.227a.275.275,0,0,0-.131.379A.338.338,0,0,0-2260.052,2063.621Z" transform="translate(11.571 9.335)" fill="#9044e2"/>
    <path id="Path_2225" data-name="Path 2225" d="M-2256.789,2063.125a.42.42,0,0,0-.411,0l-3.46,1.979a.243.243,0,0,0-.109.341.385.385,0,0,0,.329.168.376.376,0,0,0,.2-.052l3.46-1.978a.255.255,0,0,0,.143-.219A.274.274,0,0,0-2256.789,2063.125Z" transform="translate(11.469 9.642)" fill="#9044e2"/>
    <path id="Path_2226" data-name="Path 2226" d="M-2257.638,2064.555a.262.262,0,0,0,.094-.253.324.324,0,0,0-.22-.235.342.342,0,0,0-.341.065l-2.177,1.9a.262.262,0,0,0-.094.254.321.321,0,0,0,.22.233.354.354,0,0,0,.118.02.334.334,0,0,0,.224-.085Zm-.366-.306Zm-1.913,2.088Z" transform="translate(11.57 9.878)" fill="#9044e2"/>
    <path id="Path_2227" data-name="Path 2227" d="M-2259.663,2067.212a.328.328,0,0,0,.224-.084l1.865-1.676a.268.268,0,0,0,.02-.39.355.355,0,0,0-.491-.031l-1.866,1.676a.268.268,0,0,0-.021.388A.368.368,0,0,0-2259.663,2067.212Zm.119-.2Zm1.6-1.867Z" transform="translate(11.661 10.095)" fill="#9044e2"/>
    <path id="Path_2228" data-name="Path 2228" d="M-2259.349,2068.1a3.922,3.922,0,0,1,1.6-1.552h0a.24.24,0,0,0,.112-.338.405.405,0,0,0-.529-.121,4.464,4.464,0,0,0-1.821,1.8.246.246,0,0,0,.115.344.427.427,0,0,0,.195.046A.355.355,0,0,0-2259.349,2068.1Zm1.527-1.688Z" transform="translate(11.659 10.359)" fill="#9044e2"/>
    <path id="Path_2229" data-name="Path 2229" d="M-2259.394,2069.057a.305.305,0,0,0,.269-.144,4.036,4.036,0,0,1,1.472-1.372h0a.241.241,0,0,0,.11-.34.4.4,0,0,0-.528-.119,4.5,4.5,0,0,0-1.641,1.533.257.257,0,0,0-.009.263.378.378,0,0,0,.315.178Zm1.665-1.65Z" transform="translate(11.722 10.598)" fill="#9044e2"/>
    <path id="Path_2230" data-name="Path 2230" d="M-2257.582,2067.794a.394.394,0,0,0-.4.01,3.4,3.4,0,0,0-1.512,1.821.259.259,0,0,0,.057.255.4.4,0,0,0,.287.116.378.378,0,0,0,.088-.01.29.29,0,0,0,.223-.194,2.849,2.849,0,0,1,1.284-1.534.261.261,0,0,0,.135-.227A.287.287,0,0,0-2257.582,2067.794Z" transform="translate(11.782 10.77)" fill="#9044e2"/>
    <path id="Path_2231" data-name="Path 2231" d="M-2257.983,2069.087a.332.332,0,0,0-.3.134l-.929,1.342a.252.252,0,0,0-.025.256.362.362,0,0,0,.3.189h.032a.322.322,0,0,0,.272-.135l.928-1.342a.255.255,0,0,0,.025-.259A.365.365,0,0,0-2257.983,2069.087Z" transform="translate(11.84 11.093)" fill="#9044e2"/>
    <path id="Path_2232" data-name="Path 2232" d="M-2292.135,2065.785a.377.377,0,0,0,.263-.1l.935-.895a.235.235,0,0,0,.014-.347.413.413,0,0,0-.552-.011q-.465.448-.933.892a.236.236,0,0,0-.016.348A.4.4,0,0,0-2292.135,2065.785Z" transform="translate(3.826 9.947)" fill="#9044e2"/>
  </g>
</svg>
