<svg xmlns="http://www.w3.org/2000/svg" width="84" height="152.613" viewBox="0 0 84 152.613">
  <g id="_4_science_1" data-name="4_science_1" transform="translate(2525.785 -1881.873)">
    <path id="Path_1947" data-name="Path 1947" d="M-2450.313,1965.083c-11.42-15.447-14.279-10.788-16.068-28.455-.679-9.563.013-11.946,2.183-20.627a.645.645,0,0,0-.034-.447,20.426,20.426,0,0,0-.119-2.315,15.8,15.8,0,0,0-.409-4.235.143.143,0,0,0-.257-.033,6.458,6.458,0,0,0-.468,3.244,11.65,11.65,0,0,0-1.63,1.041,11.588,11.588,0,0,0-2.1,1.663c-2.292.169-4.568.735-6.85,1-2.4.276-4.809.44-7.22.488q-.093-.906-.191-1.808,1.4-.051,2.792-.161c-.006.39-.006.776,0,1.161a.205.205,0,0,0,.4.055c.112-.419.205-.844.293-1.273.351-.029.7-.057,1.05-.089a46.4,46.4,0,0,0,10.352-1.806c-.037.055-.078.108-.112.164a.218.218,0,0,0,.3.3,6.883,6.883,0,0,0,1.3-1.022c.07-.03.144-.055.214-.086a.223.223,0,0,0,.115-.254,12.24,12.24,0,0,0,1.05-1.316c.1-.14-.093-.321-.23-.229a11.385,11.385,0,0,0-1.8,1.445c-3.868.585-7.625,1.667-11.551,2.036-.178.018-.354.028-.53.04.213-1.253.35-2.525.488-3.793q2.484-.025,4.964-.124,2.692-.111,5.378-.307a16.224,16.224,0,0,0,4.722-.648c.374-.148.5-.8,0-.892a8.7,8.7,0,0,0-1.932-.089,2.193,2.193,0,0,0-.23-.135.479.479,0,0,0-.183-.8,49.815,49.815,0,0,0-7.887-.37l-4.426-.1c.175-2.085.2-4.541,1.9-5.85.042-.032.04-.129-.033-.118-2.052.27-2.4,2.7-2.621,4.393-.067.511-.138,1.032-.209,1.554-.742-.018-1.484-.037-2.226-.052a6.312,6.312,0,0,1-.034-1.472,5.914,5.914,0,0,1,.047-1.215c.014-.033-.033-.062-.047-.029-.225.472-.593.579-.758,1.141a4.666,4.666,0,0,0-.155,1.549c-.9-.019-1.812-.051-2.723-.081-.222-1.686,1.222-2.644,1.952-4.31a2.012,2.012,0,0,0-.159-2.409.146.146,0,0,0-.246.1c.142,2.432-1.953,3.271-2.485,5.365a2.634,2.634,0,0,0-.027,1.22c-1.394-.048-2.793-.094-4.191-.131a10.385,10.385,0,0,0-3.626-3.042c-.188-.094-.354.182-.167.286a9.126,9.126,0,0,1,3.069,2.739c-2.83-.062-5.66-.052-8.456.165a.278.278,0,0,0,0,.556,90.187,90.187,0,0,0,9.246.607c.153.311.291.629.414.957q-1.949-.088-3.9-.215a25.762,25.762,0,0,1-5.2-.388c-1.742-.485-3.516-1.01-4.949.467-1.039,1.074-.856,2.819-.751,4.179.106,1.4.6,3.379,1.831,4.345a2.426,2.426,0,0,0,.265.174c2.014,8.051,2.644,10.573,1.987,19.842-1.789,17.667-4.649,13.009-16.068,28.455-16.126,21.809-7.725,49.322,11.367,59.151-.071,0-.14-.011-.211-.011a.206.206,0,0,0-.209.229.365.365,0,0,0,.1.607,10.061,10.061,0,0,0,3.531,1.037c1.292.346,2.625.579,3.859.823a62.868,62.868,0,0,0,7.808,1.01,63.806,63.806,0,0,0,8.047.042,24.561,24.561,0,0,0,6.863-.988c1.312-.12,2.621-.255,3.928-.422.673-.089,1.372-.165,2.084-.247a31.778,31.778,0,0,0,8.771-1.517.434.434,0,0,0,.072-.794q1.361-.723,2.646-1.569c-.1.147-.2.295-.292.445-.125.2.156.4.317.245.677-.658,1.32-1.358,1.939-2.08C-2441.238,2009.326-2435.688,1984.862-2450.313,1965.083Zm-18.419-49.671a.3.3,0,0,0,.178-.234,14.394,14.394,0,0,0,2.1-1.439c.314-.243.659-.489.975-.761a22.618,22.618,0,0,0-.044,2.934c-.019.048-.035.094-.053.141-3.087.276-6.1,1.051-9.179,1.413a72.037,72.037,0,0,1-8.394.473q-.018-.283-.041-.566C-2478.549,1917.287-2473.077,1917.129-2468.732,1915.413Zm-11.924-1.79c-.97.062-1.939.09-2.906.1-.017-.167-.034-.335-.049-.5-.021-.22-.359-.227-.348,0,.008.169.013.339.02.507q-1.031.008-2.064,0c-.046-.153-.092-.306-.14-.459.1-.153.2-.3.292-.458a7.418,7.418,0,0,1,.662-.858,3.781,3.781,0,0,0,.747-1.575,2.555,2.555,0,0,0,.006-.637q2.043.041,4.09.03C-2480.5,1911.059-2480.608,1912.349-2480.656,1913.623Zm-1.8-5.194q-.957,0-1.916-.014l-.47-.011c-.166-.35-.354-.691-.527-1.037q1.164.021,2.325.048l.169.005A4.207,4.207,0,0,0-2482.458,1908.429Zm14.681-.657c.056.017.113.031.169.051-.465.049-.928.1-1.387.135q-2.684.2-5.378.316-2.4.1-4.81.139c.035-.3.075-.6.114-.891q2.281.063,4.563.12C-2472.293,1907.7-2470,1907.919-2467.777,1907.771Zm-12.4.651c-.372,0-.741.007-1.112.007-.158-.325-.322-.648-.466-.98q.848.025,1.7.045Q-2480.124,1907.957-2480.182,1908.422Zm-9.937-1.135q1.935.039,3.867.066c.178.337.369.675.532,1.034-1.326-.031-2.649-.071-3.974-.127A8.672,8.672,0,0,0-2490.119,1907.286Zm.061,2.237a14.67,14.67,0,0,1,.4,2.387.2.2,0,0,0,.4,0,7.421,7.421,0,0,0-.071-2.349q1.984.1,3.968.157c.042,1.624-1.571,2.462-1.753,4-1.553-.015-3.11-.033-4.673,0-.169,0-.219.268-.041.306a29.213,29.213,0,0,0,4.787.574,1.453,1.453,0,0,0,1.485,1.093.185.185,0,0,0,.05-.361c-.073-.234-.144-.468-.215-.7.607.008,1.215,0,1.822-.013.019.6.038,1.2.061,1.8q-3.277.041-6.552-.188c-2.538-.18-5.124-.705-7.666-.677a.136.136,0,0,0-.034.265c4.3,1.656,9.706,1.648,14.3,1.566.011.187.022.374.036.56h-.224a92.143,92.143,0,0,1-9.27-.587c-1.687-.19-3.368-.429-5.049-.679a13.647,13.647,0,0,0-3.563-.323c-.089-.232-.174-.466-.268-.691a.683.683,0,0,0-.521-.424c-.033-.07-.069-.139-.1-.208-.707-1.416-1.131-4.01-.488-5.494.468-1.077,1.044-1.052,2.071-.924,2.013.25,4.03.331,6.048.523Q-2492.6,1909.376-2490.059,1909.523Zm-30.945,95.8a.2.2,0,0,0-.011-.065,1.8,1.8,0,0,1,.911-2.492c.353,1,.732,1.984,1.13,2.937a45.628,45.628,0,0,0,3.65,6.984,32.338,32.338,0,0,0,2.77,3.958,38.676,38.676,0,0,0,3.065,3.436c.19.194.379.4.57.614A42.163,42.163,0,0,1-2521,2005.324Zm7.708,2.68a.2.2,0,0,0-.077-.056,4.952,4.952,0,0,0-1.408-.2c1.117-1.157,2.264-2.331,3.3-3.577a6.421,6.421,0,0,0,1.543-.144C-2511.116,2005.3-2512.217,2006.678-2513.3,2008Zm-2.468-.191a5.1,5.1,0,0,0-.943.231q-.83-1.609-1.539-3.277c-.33-.775-.615-1.552-.884-2.335a4.916,4.916,0,0,1,2.051-.006,25.479,25.479,0,0,1,3.026,1.2,8.618,8.618,0,0,0,1.518.419C-2513.663,2005.261-2514.712,2006.565-2515.763,2007.813Zm18.864,14.8.024,0c.917-.1,1.835-.156,2.753-.186-.3.25-.6.5-.9.745a.419.419,0,0,0-.089.108c-.753-.089-1.5-.2-2.257-.307C-2497.212,2022.847-2497.055,2022.729-2496.9,2022.61Zm4.2-.22c.745-.007,1.488,0,2.232,0q-.565.549-1.122,1.089a.316.316,0,0,0-.062.086c-.685-.037-1.368-.082-2.051-.139-.088-.007-.174-.018-.261-.027Q-2493.333,2022.892-2492.7,2022.39Zm10.617-1.357c.256.019.511.041.768.056-.5.506-1.008,1.009-1.515,1.5-.434.421.229,1.082.661.663.729-.711,1.477-1.414,2.23-2.118.728.012,1.46.012,2.193.015-.3.32-.595.635-.893.943-.433.448.25,1.133.684.685.521-.541,1.067-1.077,1.619-1.615.824.013,1.642.049,2.453.12a.5.5,0,0,0,.424.039q1.032.107,2.062.25c-.332.344-.664.689-1,1.021-.893.167-1.784.32-2.665.422-3.1.355-6.2.556-9.315.644-.111,0-.221,0-.332.006C-2483.848,2022.792-2482.949,2021.927-2482.08,2021.033Zm12.05.742q.555.088,1.108.188c-.533.085-1.064.179-1.6.277Zm23.154-21.239c-.435,1.282-.913,2.554-1.426,3.818q.146-.613.263-1.231c0-.013-.021-.022-.024-.005a24.52,24.52,0,0,1-1.04,3.147c-.295.675-.6,1.349-.915,2.015a33.7,33.7,0,0,1-9.13,10.872c-.171.136.048.4.23.3a20.385,20.385,0,0,0,5.009-4.039c-.571.9-1.16,1.779-1.756,2.659a46.945,46.945,0,0,1-6.741,5.362,35.575,35.575,0,0,0-4.85.809q-1.255.223-2.514.415c-1,.131-1.994.254-2.986.335q-4.07.333-8.157.427a21.227,21.227,0,0,0,2.195-.5.4.4,0,0,0,.3-.354c1.369-.1,2.735-.224,4.1-.388,2.751-.329,5.8-.544,8.416-1.57.3.07.606.138.912.2a.437.437,0,0,0,.36.063,10.565,10.565,0,0,0,1.509.163.42.42,0,0,0,.209-.776c-.215-.121-.441-.232-.671-.339a32.29,32.29,0,0,0,4.465-4.908.24.24,0,0,0-.326-.325,35.3,35.3,0,0,0-5.115,4.831c-.411-.148-.836-.279-1.27-.4q1.275-1.3,2.55-2.593a22.733,22.733,0,0,0,3.289-3.713.293.293,0,0,0-.4-.4,22.871,22.871,0,0,0-3.656,3.345q-1.515,1.535-3.028,3.073c-.552-.111-1.114-.2-1.675-.279a44.54,44.54,0,0,0,6.291-6.876.213.213,0,0,0-.29-.288,49.131,49.131,0,0,0-7.506,6.979c-.657-.069-1.3-.13-1.929-.187a44.649,44.649,0,0,0,6.09-6.256c.168-.232-.159-.542-.388-.389-2.642,1.756-4.884,4.276-7.155,6.507-.464-.044-.939-.089-1.419-.13a34.148,34.148,0,0,0,4.558-5.164c.146-.216-.15-.526-.368-.369a38.632,38.632,0,0,0-5.65,5.425c-.642-.04-1.292-.067-1.938-.072a51.481,51.481,0,0,0,5.216-5.546c.122-.157-.04-.453-.238-.306a57.3,57.3,0,0,0-6.527,5.887q-.492.024-.976.076a21.335,21.335,0,0,0,1.586-1.976c.125-.178-.13-.444-.311-.307a24.531,24.531,0,0,0-2.758,2.5,11.724,11.724,0,0,0-1.285.335c-.2.063-.238.4,0,.44.162.028.325.043.487.065-.8.854-1.578,1.724-2.371,2.544a.377.377,0,0,0-.1.231q-.836.01-1.674.01a85.344,85.344,0,0,0,6.934-6.827c.141-.164-.052-.474-.247-.323a95.049,95.049,0,0,0-7.873,7.137q-1.042-.021-2.081-.067c.474-.4.951-.809,1.428-1.219q.418,0,.839,0a.313.313,0,0,0,.082-.612c-.055-.017-.111-.027-.167-.044a34.31,34.31,0,0,0,3.591-3.566c.149-.176-.046-.5-.268-.346a37.076,37.076,0,0,0-4.352,3.655c-.559-.119-1.121-.2-1.687-.271a49.887,49.887,0,0,0,4.978-4.379c.175-.185-.052-.5-.278-.361a56.144,56.144,0,0,0-6.039,4.625,23.506,23.506,0,0,0-2.383,0,56.882,56.882,0,0,0,5.717-4.923.193.193,0,0,0-.232-.3,64.417,64.417,0,0,0-7.157,5.352c-.327.034-.653.07-.979.115-.534.071-1.145.141-1.78.235,1.064-.853,2.126-1.718,3.164-2.609.053.11.107.219.16.331a.009.009,0,0,0,.017,0c.034-.2.073-.385.113-.576l.067-.058c1.188.452,2.883-.031,2.88-1.5a.338.338,0,0,0-.57-.236,3.833,3.833,0,0,1-1.163.7c.846-.779,1.659-1.581,2.42-2.411.172-.188-.051-.523-.286-.37a43.255,43.255,0,0,0-3.625,2.7.431.431,0,0,0-.457.373c-1.538,1.283-3.028,2.644-4.493,3.983a9.508,9.508,0,0,0-1.458.469c-.239-.012-.478-.029-.719-.033-.178,0-.19.237-.04.294.042.016.089.029.131.045a3.919,3.919,0,0,0-1.231,1.025c-.006.006,0,.015.006.018a3.747,3.747,0,0,0,1.517.034.373.373,0,0,0,.59.186c.176-.144.356-.286.535-.428l.227-.053c.188-.044.373-.083.56-.124.54.125,1.091.228,1.643.322a.451.451,0,0,0,.72.3c.067-.052.137-.1.2-.159,1.6.227,3.208.359,4.746.5.419.04.839.071,1.258.107q-2.689-.008-5.375-.1c-1.394-.047-3.1-.414-4.51-.068a5.212,5.212,0,0,0-1.551,0q-.619-.379-1.224-.775a.347.347,0,0,0-.03-.2c-.722-1.575-2.35-2.778-3.559-3.989-.563-.561-1.128-1.123-1.708-1.667a29.679,29.679,0,0,0-3.25-4.584,3.268,3.268,0,0,1,2.678-1.387,18.048,18.048,0,0,0,3.3.218c1.2-.205,2.453-1.018,2.277-2.372a.327.327,0,0,0-.6-.164c-1.531,2.55-4.254.715-6.483,1.622-.644.264-1.469.867-1.548,1.571-.229-.313-.452-.629-.657-.951-.619-.973-1.193-1.975-1.735-2.991a12.2,12.2,0,0,1,1.25-.074,8.086,8.086,0,0,0,1.563-.073c-.181.409.319.88.675.5a62.74,62.74,0,0,0,4.931-5.642,8.574,8.574,0,0,0,4.287-6.265,6.6,6.6,0,0,0,9.24-.3,7.809,7.809,0,0,0,1.374-2.425,3.324,3.324,0,0,1,2.993-2.448c.616-.1,1.214-.18,1.823-.32,1.453-.332,3.666-.662,4.139-2.385a2.463,2.463,0,0,0-.358-1.887c-.231-.444-.817-.908-.909-1.394a4.919,4.919,0,0,1,.7-2.16,4.414,4.414,0,0,1,1.349-.552,3.22,3.22,0,0,0,2.24-3.884c-.572-2.67-3.174-3.679-5.18-5.1-1.925-1.362-3.166-3.863-.816-5.474a21.624,21.624,0,0,0,3.335-2.121c1.768-1.75,1.218-3.5-.438-5.007a3.934,3.934,0,0,1-1.659-2.94c-.074-1.286.825-2.84,1.322-3.963.789-1.779,1.522-3.546,2.18-5.376a.257.257,0,0,0-.245-.322,3.771,3.771,0,0,1-3.187-1.708.11.11,0,0,0-.19.111,3.539,3.539,0,0,0,1.647,1.731,9.165,9.165,0,0,1,1.157.351c.221.369-.858,1.949-1.038,2.334-1.009,2.165-2.877,5.085-2.51,7.587a4.225,4.225,0,0,0,1.5,2.5c.881.827,1.087.816,1.288,2.138.166,1.088.261,1.213-.49,1.9a6.792,6.792,0,0,1-1.621.989c-1.723.841-3.7,1.714-3.854,3.9-.167,2.4,1.84,4.061,3.689,5.193,1.458.892,3.354,1.811,3.736,3.662.417,2.024-1.133,2.6-2.535,3.506-1.377.887-1.526,2.051-.631,3.4a8.074,8.074,0,0,1,.84,1.167c.752,1.753-.6,2.857-2.095,3.106-1.3.217-2.577-.437-3.926-.213-3.178.528-2.786,3.362-4.419,5.423-2.047,2.583-6.309,2.456-8.465.122a.287.287,0,0,0-.485.2,6.313,6.313,0,0,1-2.857,5.331.267.267,0,0,0-.383-.055c-.275.23-.546.469-.813.713-.172.074-.348.142-.527.2a6.245,6.245,0,0,1-1.679.328c.17-.234.339-.471.5-.713.136-.206-.152-.387-.321-.249-.367.3-.718.622-1.062.949a24.362,24.362,0,0,1-4.8-1.366,4.932,4.932,0,0,0-3.294-.027c-.569-1.786-1.019-3.59-1.415-5.414a23.546,23.546,0,0,1,3.255,1.435,15.439,15.439,0,0,0,3.087.6c1.595.193,3.195.23,4.784.5a18.289,18.289,0,0,0,3.825.538.23.23,0,0,0,.061-.45c-1.911-.647-4.032-.5-6.009-.9a34.443,34.443,0,0,1-6.066-1.4c-.372-.149-1.126-.605-1.915-.958a.189.189,0,0,0,.029-.237,1.351,1.351,0,0,1,.308-1.839,1.2,1.2,0,0,1,.25-.142c.966.254,1.95.454,2.909.727a8.162,8.162,0,0,0-1.219,1.259c-.022.03.021.057.046.046a14.71,14.71,0,0,0,2.971-2.059c1.061-.829,2.1-1.678,3.095-2.591.134-.123-.042-.358-.2-.254-1.067.726-2.087,1.509-3.092,2.316-.338.269-.687.535-1.031.81a.351.351,0,0,0-.166-.2c-1.018-.568-2.451-1.249-3.589-.806-.308-.058-.615-.115-.925-.153s-.328.424-.071.523c.1.034.187.076.28.119a.661.661,0,0,0-.06.06,1.816,1.816,0,0,0-.314,2.121,3.357,3.357,0,0,0-.472-.115c-.348-1.683-.672-3.379-1.018-5.09,0-.022-.034-.015-.035,0a24.362,24.362,0,0,0,.147,5.168c-.321.171-.518.544-.5,1.224,0,.2.308.312.4.108a.667.667,0,0,1,.257-.29,38.358,38.358,0,0,0,1.477,5.862,4.087,4.087,0,0,0-.352.288,3.074,3.074,0,0,0-.942,1.5,37.355,37.355,0,0,1-2.556-16.979c1.542-19.255,18.88-31.969,21.34-36.33,1.728-3.064,5.229-20.374,1.6-32.387a4.46,4.46,0,0,0,2.635.691c.371.062.724.111,1.04.161a13.168,13.168,0,0,0,5.882-.068c2.688.287,5.387.459,8.091.482.049.408.1.819.179,1.221.037.2.34.143.348-.049.017-.386.017-.777.011-1.168,5.536.033,11.948-.163,17.138-2.308-4.172,12.029-.517,30.273,1.261,33.425,2.459,4.362,19.8,17.075,21.34,36.33a37.966,37.966,0,0,1-8.391,26.96,63.235,63.235,0,0,0,5.074-13.174A.107.107,0,0,0-2446.876,2000.536Z" transform="translate(0 6.409)" fill="#f6ba33"/>
    <path id="Path_1948" data-name="Path 1948" d="M-2488.274,1940.531c.713,2.175,3.256,4.1,5.576,3.308a.256.256,0,0,0,0-.489c-1.918-.58-3.874-1.247-4.577-3.356a5.029,5.029,0,0,1,1.566-5.238c.995-.081,1.989-.178,2.98-.3a21.41,21.41,0,0,0,6.729-1.512c.357-.175.169-.72-.2-.723-2.412-.024-4.872.7-7.265.976a67.278,67.278,0,0,1-7.36.43,67.876,67.876,0,0,1-7-.343c-.743-.073-1.513-.2-2.292-.344.92-.009,1.819-.03,2.646,0a63.5,63.5,0,0,0,9.511.044c.354-.041.521-.615.093-.69a34.637,34.637,0,0,0-5.163-.429c-.074-.062-.144-.123-.2-.182a1.3,1.3,0,0,0,.655-.1c.892-.009,1.783-.015,2.665-.009,4.882.034,9.885.355,14.737-.243a.261.261,0,0,0,0-.521,81.219,81.219,0,0,0-11.562-.389,3.924,3.924,0,0,1-1.561-3.168c.082-1.671,1.17-3.233,1.471-4.884.415-2.287.257-5.363-1.1-7.324a.181.181,0,0,0-.329.137c.428,1.98,1.095,3.74.878,5.828-.21,2.022-1.287,3.689-1.59,5.639a4.626,4.626,0,0,0,1.206,3.78q-1.074.012-2.145.013-.885,0-1.778-.016a1.921,1.921,0,0,0-.323-1.437,3.452,3.452,0,0,0,1.016-.836,1.922,1.922,0,0,0,.192-1.685,2.759,2.759,0,0,0-1.485-1.584c-1.2-.585-1.755-.035-2.218-1.435a.155.155,0,0,0-.3,0,4.8,4.8,0,0,0-.228,1.356c-.02.242.209.394.415.417a4.013,4.013,0,0,1,2.825,1.169c.936,1.292-.472,1.723-1.134,2.147a2.844,2.844,0,0,0-1.176,1.1,2.181,2.181,0,0,0-.21.744l-.014,0a1.123,1.123,0,0,1-.127-.672.059.059,0,0,0-.113-.031,1.3,1.3,0,0,0-.062.7,72.487,72.487,0,0,0-10.021.3.272.272,0,0,0,0,.544,76.161,76.161,0,0,0,10.569.38,2.126,2.126,0,0,0,.145.245c-1.058-.015-2.112-.02-3.154-.041-2.833-.063-6.45-.7-9.166.187a.139.139,0,0,0,0,.265,7.152,7.152,0,0,0,.712.232.2.2,0,0,0-.026.365c1.856,1.152,4.514,1.322,6.646,1.6a61.939,61.939,0,0,0,8.1.517c1.5,0,2.99-.059,4.482-.166A5.119,5.119,0,0,0-2488.274,1940.531Zm-4.449-10.12a4.467,4.467,0,0,0,.3-.715,1.135,1.135,0,0,1,.072.72C-2492.479,1930.413-2492.6,1930.412-2492.724,1930.411Zm-.615-.458a3.829,3.829,0,0,0-.051.445l-.263-.006A1.544,1.544,0,0,1-2493.338,1929.953Z" transform="translate(7.124 12.126)" fill="#f6ba33"/>
    <path id="Path_1949" data-name="Path 1949" d="M-2510.439,1979.209a.026.026,0,1,0,0-.052A.026.026,0,0,0-2510.439,1979.209Z" transform="translate(5.615 35.65)" fill="#f6ba33"/>
    <path id="Path_1950" data-name="Path 1950" d="M-2458.221,1980.635a51.885,51.885,0,0,0-9.975-5.279c-3.478-1.508-7.035-2.073-10.024-4.586a.307.307,0,0,0-.48.369c.145.337.293.672.433,1.009a1.938,1.938,0,0,0-1.549.373,1.928,1.928,0,0,0-.692,1.026,2.124,2.124,0,0,0-.123-.317,2.27,2.27,0,0,0-1.032-.814,4.9,4.9,0,0,0-1.595-.279,5.674,5.674,0,0,1-1.263-.129,1.217,1.217,0,0,1-.344-.213l.012-.039a.253.253,0,0,0-.24-.316c-.058-.006-.108-.019-.164-.03-.281-.357-.368-.747.379-.8.285-.019.389-.469.073-.529a1.165,1.165,0,0,0-1.365.836,2.7,2.7,0,0,1-.086-3.053,12.442,12.442,0,0,1,2.274-2.257,5.375,5.375,0,0,0,2.037-3.65,2.667,2.667,0,0,0-1.457-2.611c-1.686-.836-5.645.32-4.733-2.881.878-3.084,5.525-4.423,4.192-8.245-.533-1.529-1.95-2.5-3.251-3.333a9.771,9.771,0,0,1-2.8-2.282c-.977-1.332-1.2-4.314,1.316-4.3a.147.147,0,0,0,0-.294,2.58,2.58,0,0,0-2.614,2.494c-.229,2.054,1.576,3.389,3.019,4.489s3.7,2.665,3.247,4.819c-.309,1.447-1.693,2.43-2.677,3.405-1.269,1.26-2.546,3.194-1.974,5.078.687,2.256,2.754,1.753,4.553,1.888,3.721.276,1.99,3.379.482,4.762a12.98,12.98,0,0,0-2.431,2.439,3.266,3.266,0,0,0,.319,4.128,2.47,2.47,0,0,0,.559.243,1.483,1.483,0,0,0,.625.913c-.219.578-.574,1.347-.636,1.526a10.163,10.163,0,0,0-.5,2.022c-.02.169.239.223.313.085a16.458,16.458,0,0,0,1.2-3.426,4.177,4.177,0,0,0,1.406.313,8.764,8.764,0,0,1,1.457.09c.741.167.931.765,1.132,1.419a2.169,2.169,0,0,0,.651,1.225,12.3,12.3,0,0,1,.192,2.879,2.426,2.426,0,0,0-.333.566.246.246,0,0,0,.051.261,1.9,1.9,0,0,1-1.559.812l.2-.227a5.119,5.119,0,0,0,1.349-2.04.251.251,0,0,0-.364-.279,5.581,5.581,0,0,0-1.854,1.877,17.888,17.888,0,0,0-1.55,2.193.282.282,0,0,0,.442.34,17.263,17.263,0,0,0,1.731-1.8,3.535,3.535,0,0,0,2.287-1.222c1.188-.862,2.518-.046,3.741.8-.242.158-.408.406-.648.556a.245.245,0,0,0,.247.422c.227-.1.509-.1.748-.206.156-.064.307-.142.46-.216a6.347,6.347,0,0,0,.839.5,19.14,19.14,0,0,0,4.29,1.28,82.658,82.658,0,0,0,10.441,1.961c.292.021.314-.4.065-.486-4.355-1.537-9.158-1.672-13.5-3.253a8.024,8.024,0,0,1-1.112-.567,1.509,1.509,0,0,0,.377-.4.3.3,0,0,0-.258-.45,2.012,2.012,0,0,0-1.031.316c-1.375-.8-3-1.652-4.175-1.324a3.808,3.808,0,0,0,.068-.89c-.011-.374-.07-.753-.119-1.126.451-.045.836-.3.771-.844-.026-.221-.335-.446-.515-.213-.119.155-.24.172-.358.108,0-.055-.014-.108-.017-.163q-.2-1.369,1.923-1.577a.369.369,0,0,0,.611-.357h.007c-.005-.015-.015-.026-.021-.038a.506.506,0,0,0-.017-.05,12.344,12.344,0,0,1-.549-1.116c2.439,1.76,5.083,2.511,7.968,3.561,3.96,1.439,7.3,4.292,11.264,5.7C-2458.1,1981.339-2457.957,1980.83-2458.221,1980.635Z" transform="translate(12.635 20.572)" fill="#f6ba33"/>
    <path id="Path_1951" data-name="Path 1951" d="M-2507.78,1978.8c.184-.093.1-.433-.11-.406l-.04.006a35.149,35.149,0,0,0,3.314-4.246c.169-.266-.2-.512-.417-.321a41.2,41.2,0,0,0-4.42,4.814,12.923,12.923,0,0,0-2.775.839,34.3,34.3,0,0,0,3.308-4.7.294.294,0,0,0-.46-.355,57.224,57.224,0,0,0-5.156,6.49c-.366.483.451.953.814.476.127-.168.259-.335.388-.5a19.254,19.254,0,0,1,2.92-1.092c-.136.163-.273.329-.413.489-.387.452.268,1.112.657.657.507-.593,1.031-1.18,1.557-1.772C-2508.332,1979.06-2508.054,1978.939-2507.78,1978.8Z" transform="translate(4.088 33.675)" fill="#f6ba33"/>
    <path id="Path_1952" data-name="Path 1952" d="M-2500.6,1967.806a44.4,44.4,0,0,0-7.813-.257,58.141,58.141,0,0,0-6,.1.134.134,0,0,0-.192-.024c-.025.019-.049.04-.075.059a12.413,12.413,0,0,0-1.313.23c-.179.044-.2.353,0,.384.157.023.317.037.476.057-.8.674-1.55,1.394-2.32,2.1-.238.217.116.57.354.354.862-.784,1.747-1.553,2.563-2.384,2.142.188,4.383.052,6.51.081a44.147,44.147,0,0,0,7.813-.2A.26.26,0,0,0-2500.6,1967.806Z" transform="translate(2.884 31.38)" fill="#f6ba33"/>
    <path id="Path_1953" data-name="Path 1953" d="M-2496.706,1921.073a1.528,1.528,0,0,0,1.506-1.4c.232-1.39-.82-2.573-.567-4.021a.175.175,0,0,0-.318-.134,1.991,1.991,0,0,0-.185,1.666c.218.9,1.631,3.506-.436,3.583A.156.156,0,0,0-2496.706,1921.073Z" transform="translate(10.601 12.296)" fill="#f6ba33"/>
    <path id="Path_1954" data-name="Path 1954" d="M-2495.965,1897.16a6.965,6.965,0,0,1,4.175.425c.181.062.254-.189.122-.286-2.2-1.6-5.911-.749-7.6,1.25a3.116,3.116,0,0,0-.682,3.424,2.074,2.074,0,0,0,1.182,1.037c.622.208,2.765-.238,2.309,1.088a.106.106,0,0,0,.075.131l.194.043a.3.3,0,0,0,.329-.134,1.147,1.147,0,0,0-.175-1.443c-.925-.973-3.494.1-3.23-2.193C-2499.084,1898.932-2497.4,1897.565-2495.965,1897.16Z" transform="translate(9.368 5.346)" fill="#f6ba33"/>
    <path id="Path_1955" data-name="Path 1955" d="M-2492.259,1897.033c1.3-.126,2.614-.268,3.914-.335.138-.007.136-.223,0-.213-1.294.1-2.616.12-3.914.157C-2492.512,1896.65-2492.506,1897.057-2492.259,1897.033Z" transform="translate(12.217 5.355)" fill="#f6ba33"/>
    <path id="Path_1956" data-name="Path 1956" d="M-2499.013,1902.394a.183.183,0,0,0,0-.366c-1.367-.066-3.119-.235-4.106-1.315-1.519-1.66-.1-2.9,1.218-3.849,1.008-.727,1.87-1.7,1.562-3-.026-.112-.181-.077-.191.026-.261,2.658-4.993,2.841-4.013,6.031C-2503.8,1902.341-2501.083,1902.391-2499.013,1902.394Z" transform="translate(7.735 4.37)" fill="#f6ba33"/>
    <path id="Path_1957" data-name="Path 1957" d="M-2499.421,1894.525a.254.254,0,0,0,.2-.462c-1.313-.719-.242-2.279.748-2.585a9.729,9.729,0,0,1,2.5-.2c1.061-.042,2.35-.234,2.857-1.285.049-.1-.036-.269-.166-.216a10.836,10.836,0,0,1-3.82.671,4.32,4.32,0,0,0-2.733.835C-2500.838,1892.182-2500.867,1894.114-2499.421,1894.525Z" transform="translate(9.246 2.895)" fill="#f6ba33"/>
    <path id="Path_1958" data-name="Path 1958" d="M-2489.079,1890.852a1.768,1.768,0,0,1,1.662,2.976,5.028,5.028,0,0,0-.681.506c-.4.362.111.962.559.726a2.966,2.966,0,0,0,.961-.8,3.134,3.134,0,0,1,4.057.641c1.109,1.36.75,3.207-.076,4.613-.077.13.087.325.223.221a3.721,3.721,0,0,0,.242-5.471,3.948,3.948,0,0,0-3.95-1.007,2.594,2.594,0,0,0-3-3.166C-2489.553,1890.155-2489.566,1890.907-2489.079,1890.852Z" transform="translate(13.319 3.002)" fill="#f6ba33"/>
    <path id="Path_1959" data-name="Path 1959" d="M-2485.437,1898.263c-2.134,1.6-4.267,2.1-6.765.965a.107.107,0,0,0-.129.167c1.871,1.931,5.886,1.635,7.174-.853C-2485.071,1898.378-2485.26,1898.129-2485.437,1898.263Z" transform="translate(12.247 5.992)" fill="#f6ba33"/>
    <path id="Path_1960" data-name="Path 1960" d="M-2496.4,1894.683a.147.147,0,0,0,.288-.038,1.049,1.049,0,0,1,1.342-1.063c.257.1.369-.314.113-.413C-2495.51,1892.837-2496.794,1893.72-2496.4,1894.683Z" transform="translate(10.741 4.114)" fill="#f6ba33"/>
    <path id="Path_1961" data-name="Path 1961" d="M-2496.807,1932.218c-.065-.283-.447-.19-.473.064a14.586,14.586,0,0,0,.005,2.107,5.605,5.605,0,0,0,.23,1.875.262.262,0,0,0,.5,0,5.9,5.9,0,0,0-.01-2.025A14.746,14.746,0,0,0-2496.807,1932.218Z" transform="translate(10.432 18.386)" fill="#f6ba33"/>
    <path id="Path_1962" data-name="Path 1962" d="M-2494,1949.564a21.4,21.4,0,0,0-1.125,7.087.253.253,0,0,0,.316.239,7.588,7.588,0,0,1,.931-.182.021.021,0,0,0,0-.041c-.884-.216-.525-.8-.4-1.544.11-.626.208-1.256.308-1.886a16.6,16.6,0,0,0,.337-3.623A.189.189,0,0,0-2494,1949.564Z" transform="translate(11.234 24.758)" fill="#f6ba33"/>
    <path id="Path_1963" data-name="Path 1963" d="M-2492.262,1937.023c-.435-.011-.735.421-.816.808a1.365,1.365,0,0,0,.338,1.174c.237.269.7-.085.5-.385-.312-.46.041-.857.219-1.283C-2491.959,1937.182-2492.119,1937.026-2492.262,1937.023Z" transform="translate(11.976 20.21)" fill="#f6ba33"/>
    <path id="Path_1964" data-name="Path 1964" d="M-2491.329,1965.41a2.949,2.949,0,0,0-.079,2.652.259.259,0,0,0,.479-.13c-.107-2.1,1.693-3.453,1.772-5.47a2.28,2.28,0,0,0-1.412-2.351c-.211-.084-.365.278-.156.368,1.285.563,1.027,2.057.487,3.071C-2490.574,1964.186-2491.032,1964.752-2491.329,1965.41Z" transform="translate(12.495 28.667)" fill="#f6ba33"/>
    <path id="Path_1965" data-name="Path 1965" d="M-2515.227,1965.623c-.031,0-.037.046-.007.051a50.494,50.494,0,0,0,7.583.79c.183,0,.236-.3.045-.329A50.491,50.491,0,0,0-2515.227,1965.623Z" transform="translate(3.859 30.691)" fill="#f6ba33"/>
    <path id="Path_1966" data-name="Path 1966" d="M-2513.635,1947.488a.255.255,0,0,0-.4-.307c-2.729,2.285-4.567,6.112-5.941,9.325a30.427,30.427,0,0,0-2.534,10.167.107.107,0,0,0,.209.029,51.679,51.679,0,0,1,3.259-10.4C-2517.573,1953.105-2515.342,1950.514-2513.635,1947.488Z" transform="translate(1.2 23.909)" fill="#f6ba33"/>
    <path id="Path_1967" data-name="Path 1967" d="M-2513.523,1949.53c6.46-3.333,10.493-12.346,9.584-19.393a.079.079,0,0,0-.159,0,26.993,26.993,0,0,1-2.752,10.9c-1.726,3.337-4.2,5.682-6.89,8.214C-2513.89,1949.395-2513.7,1949.62-2513.523,1949.53Z" transform="translate(4.394 17.659)" fill="#f6ba33"/>
    <path id="Path_1968" data-name="Path 1968" d="M-2484.513,1928.789a23.855,23.855,0,0,0,3.215,12.35,27.38,27.38,0,0,0,3.744,5.108c1.278,1.375,2.923,3.188,4.751,3.778.257.083.385-.239.241-.414-1.226-1.494-3.049-2.531-4.394-3.96a26.563,26.563,0,0,1-3.651-4.915,31.046,31.046,0,0,1-3.854-11.947A.026.026,0,0,0-2484.513,1928.789Z" transform="translate(15.123 17.183)" fill="#f6ba33"/>
    <path id="Path_1969" data-name="Path 1969" d="M-2467.116,1960.322c1.541,4.9,1.675,9.744,2.126,14.8.019.216.362.3.409.055.925-4.885-.186-10.425-1.685-15.1a35.873,35.873,0,0,0-7.412-13.234c-.067-.074-.2.024-.138.108A52.186,52.186,0,0,1-2467.116,1960.322Z" transform="translate(19.039 23.803)" fill="#f6ba33"/>
    <path id="Path_1970" data-name="Path 1970" d="M-2506.538,1983.853a.15.15,0,0,0-.212-.212,41.735,41.735,0,0,0-3.11,2.808,20.441,20.441,0,0,0-2.578,2.733c-.023.033.021.074.053.055a20.27,20.27,0,0,0,2.876-2.435A41.13,41.13,0,0,0-2506.538,1983.853Z" transform="translate(4.889 37.28)" fill="#f6ba33"/>
    <path id="Path_1971" data-name="Path 1971" d="M-2501.381,1983.791a57.85,57.85,0,0,0-9.212,7.817c-.189.2.059.567.308.4a57.6,57.6,0,0,0,9.167-7.875C-2500.956,1983.96-2501.17,1983.645-2501.381,1983.791Z" transform="translate(5.543 37.335)" fill="#f6ba33"/>
    <path id="Path_1972" data-name="Path 1972" d="M-2471.187,1974.458c.126-.171-.124-.424-.3-.295-.46.339-.907.7-1.348,1.065a.24.24,0,0,0-.409-.145,5.824,5.824,0,0,1-3.257,1.378c.116-.151.236-.3.347-.45.13-.182-.132-.448-.314-.313-.368.269-.724.558-1.077.854a17.1,17.1,0,0,1-1.793-.034c.119-.128.243-.257.361-.388.16-.18-.055-.515-.273-.356-.306.221-.607.452-.908.682-1.25-.111-2.47-.279-3.535-.338a.387.387,0,0,0-.332.58c.258.455.516.911.765,1.37.213.392.8.047.6-.349-.131-.258-.257-.52-.386-.779.676.056,1.36.122,2.045.183-2.6,2.1-5.014,4.5-7.408,6.8a.278.278,0,0,0-.071.333,3.793,3.793,0,0,1-4.435.992c-1.027-.408-2.215-.973-3.323-.463a1.482,1.482,0,0,0-.22,2.665.091.091,0,0,0,.093-.157q.59-2.437,2-1.685a5.2,5.2,0,0,1,.869.375,10.855,10.855,0,0,0,1.025.451,4.052,4.052,0,0,0,1.9.176,3.3,3.3,0,0,0,2.793-2.4,103.272,103.272,0,0,0,7.8-7c.529.041,1.056.073,1.583.092-1.929,1.776-3.671,3.849-5.452,5.7a.326.326,0,0,0,.13.533,2.7,2.7,0,0,0-.492,1.118.446.446,0,0,0,.42.552c.248.012.488.045.734.078.447.058.556-.716.106-.794-.08-.012-.161-.027-.242-.041a1.672,1.672,0,0,1,1.517-.952,2.9,2.9,0,0,1,1.793,1.029.272.272,0,0,0,.459-.19,2.161,2.161,0,0,0-2.368-1.863,2.61,2.61,0,0,0-.731.16,69.536,69.536,0,0,0,5.331-5.316c.282,0,.563-.012.843-.031a6.527,6.527,0,0,0,1.506-.253c-1.706,1.64-3.311,3.408-4.957,5.063a.514.514,0,0,0,.726.727C-2476.393,1980.131-2473.421,1977.542-2471.187,1974.458Z" transform="translate(10.476 33.808)" fill="#f6ba33"/>
    <path id="Path_1973" data-name="Path 1973" d="M-2473.256,1974.663c.137-.2-.138-.479-.338-.338-3.174,2.245-5.8,5.5-8.521,8.259-.467.474.264,1.207.73.731C-2478.668,1980.551-2475.451,1977.875-2473.256,1974.663Z" transform="translate(15.948 33.866)" fill="#f6ba33"/>
    <path id="Path_1974" data-name="Path 1974" d="M-2472.406,1974.782a55.011,55.011,0,0,0-6.125,6.652.482.482,0,0,0,.007.648,2.483,2.483,0,0,0-2.677.914.362.362,0,0,0,.4.526c.323-.059.694-.1,1.021-.13.013,0,.024-.021.008-.029-.116-.053-.229-.122-.346-.182a2,2,0,0,1,2.047.22.521.521,0,0,0,.624-.081.647.647,0,0,0,.082-.1.528.528,0,0,0-.184-.7,2.542,2.542,0,0,0-.491-.273.457.457,0,0,0,.186-.128,55.611,55.611,0,0,0,5.814-7.044C-2471.889,1974.825-2472.211,1974.621-2472.406,1974.782Z" transform="translate(16.318 34.026)" fill="#f6ba33"/>
    <path id="Path_1975" data-name="Path 1975" d="M-2471.507,1975.23c-2.054,1.589-3.681,3.885-5.378,5.837-.429.495.291,1.22.721.721,1.711-1.979,3.786-3.942,5.079-6.232C-2470.924,1975.271-2471.278,1975.054-2471.507,1975.23Z" transform="translate(17.871 34.188)" fill="#f6ba33"/>
    <path id="Path_1976" data-name="Path 1976" d="M-2469.309,1975.656c-2.122,1.819-3.791,4.276-5.557,6.429-.411.5.3,1.223.717.716,1.79-2.174,3.914-4.323,5.3-6.789A.3.3,0,0,0-2469.309,1975.656Z" transform="translate(18.614 34.34)" fill="#f6ba33"/>
    <path id="Path_1977" data-name="Path 1977" d="M-2484.837,1977.368a.263.263,0,0,0-.372-.373,62.379,62.379,0,0,0-5.669,5.339.15.15,0,0,0-.2-.048,6.5,6.5,0,0,1-3.2,1.15c1.739-1.789,3.572-3.561,5.2-5.474a7.441,7.441,0,0,0,1.86-.468,4.787,4.787,0,0,0,2.565-2.207,16.966,16.966,0,0,0,.84-1.808.469.469,0,0,0,.383.2,3.047,3.047,0,0,0,1.609-.365c.164-.115.226-.418,0-.519a2.427,2.427,0,0,0-1.25-.127,2.131,2.131,0,0,1,.107-1.081c.134-.223.267-.444.4-.666.077-.006.153-.01.23-.012.051.053.1.105.149.164.021.026.054-.008.043-.033-.019-.045-.033-.091-.052-.139l2.162-.108c.992.447,1.13,1.763,2.438,1.8a1.193,1.193,0,0,0,1.311-.888c.059-.171-.174-.234-.268-.114-.48.63-1.88-.01-2.3-.424-.259-.258-.467-.575-.746-.817a2.6,2.6,0,0,0-1.073-.631,2.5,2.5,0,0,0-2.436,1,2.37,2.37,0,0,0-.867,1.675c-.363,1.127-.548,2.322-1.508,3.145a4.917,4.917,0,0,1-2.487,1.044c.236-.309.47-.623.691-.942.155-.221-.167-.41-.346-.266-.512.412-1.007.851-1.494,1.3a13.535,13.535,0,0,1-1.582-.057c-.145-.015-.292-.033-.436-.051.162-.191.331-.38.486-.576.141-.178-.042-.5-.268-.346-.367.256-.724.525-1.077.8-2.989-.485-5.932-1.466-8.9-.216a8.317,8.317,0,0,0-1.538.865c.207-.288.414-.577.612-.87.148-.221-.168-.43-.35-.269a92.529,92.529,0,0,0-8.015,8.676c-.429.489.266,1.2.708.749a1.631,1.631,0,0,0-.214,1.157c-1.755.092-3.442,1.048-3.2,3.095.031.253.408.266.4,0-.031-2.393,1.68-2.535,3.5-2.159a1.094,1.094,0,0,0,.292.066c1.247.291,2.5.779,3.255.92a5.933,5.933,0,0,0,1.627.08,57.116,57.116,0,0,0-6.943,6.179c-.22.22.082.649.344.447a50.982,50.982,0,0,0,7.8-6.882c.1-.034.205-.07.3-.11a5.7,5.7,0,0,0,3.367-5.279c-.007-.122-.192-.161-.221-.029a5.547,5.547,0,0,1-3.236,4.12c-2.169,1-4.113-.11-6.281-.409-.156-.022-.314-.034-.473-.041a1.2,1.2,0,0,1,.53-.843,3.31,3.31,0,0,1,1.916-.228c1.067.079,2.144.209,2.981-.578.269-.251-.016-.646-.339-.581-1.417.287-3.773-.4-5.021.641q.964-1.089,1.947-2.175a.245.245,0,0,0,.383.022c2.526-3.271,5.425-6.262,9.912-5.766,1.152.127,2.3.386,3.441.608-1.235,1.1-2.411,2.281-3.576,3.457a1.19,1.19,0,0,1-.294-.862c.026-.425-.582-.463-.709-.1a1.8,1.8,0,0,0,.274,1.692c-.374.374-.748.749-1.126,1.115-.306.3.155.753.468.466.4-.364.8-.724,1.208-1.082.015.01.028.022.043.031a.563.563,0,0,0,.668-.087,4.766,4.766,0,0,0,1.279-1.641.322.322,0,0,0,.013-.068c.989-.881,1.961-1.779,2.873-2.726a14.216,14.216,0,0,0,1.788.182c-1.673,1.718-3.23,3.579-4.818,5.324a.253.253,0,0,1-.017.027,4.038,4.038,0,0,1-1.552-.641c-.046-.033-.1.041-.058.075a5.25,5.25,0,0,0,1.522.844.4.4,0,0,0,.672.261c.021-.022.039-.044.06-.063a4,4,0,0,0,2.669-.363c-.133.135-.266.269-.4.4a.483.483,0,0,0,.683.682A87.819,87.819,0,0,0-2484.837,1977.368Z" transform="translate(4.718 32.173)" fill="#f6ba33"/>
    <path id="Path_1978" data-name="Path 1978" d="M-2488.047,1974.78a48.319,48.319,0,0,0-4.862,4.637.459.459,0,0,0,.649.649,48.342,48.342,0,0,0,4.627-4.871C-2487.454,1974.957-2487.811,1974.6-2488.047,1974.78Z" transform="translate(11.998 34.028)" fill="#f6ba33"/>
    <path id="Path_1979" data-name="Path 1979" d="M-2503.46,1976.484a7.655,7.655,0,0,0-1.858,1.062q-.971.627-1.946,1.253c-.595.383-.042,1.337.555.949l1.943-1.259a7.786,7.786,0,0,0,1.746-1.25A.456.456,0,0,0-2503.46,1976.484Z" transform="translate(6.693 34.663)" fill="#f6ba33"/>
    <path id="Path_1980" data-name="Path 1980" d="M-2518.074,1970.236a.026.026,0,0,0,0-.052A.026.026,0,0,0-2518.074,1970.236Z" transform="translate(2.816 32.362)" fill="#f6ba33"/>
    <path id="Path_1981" data-name="Path 1981" d="M-2514.429,1951.109a26.854,26.854,0,0,0-5.834,14.881c-.007.144.236.182.258.034a32.28,32.28,0,0,1,5.6-14.9C-2514.391,1951.107-2514.417,1951.092-2514.429,1951.109Z" transform="translate(2.023 25.369)" fill="#f6ba33"/>
    <path id="Path_1982" data-name="Path 1982" d="M-2509,1946.1c-6.166,7.6-10.506,18.319-8.808,28.275.035.209.358.153.359-.049.052-4.979.176-9.728,1.583-14.56a40.368,40.368,0,0,1,6.91-13.624C-2508.929,1946.116-2508.972,1946.073-2509,1946.1Z" transform="translate(2.788 23.534)" fill="#f6ba33"/>
    <path id="Path_1983" data-name="Path 1983" d="M-2471.811,1970.283c.07-5.451-1.761-11.25-3.791-16.249a55.517,55.517,0,0,0-8.155-13.876c-.1-.121-.309.041-.216.167a60.757,60.757,0,0,1,8.056,14.472c1.961,5.092,2.69,10.235,3.776,15.53C-2472.1,1970.517-2471.814,1970.469-2471.811,1970.283Z" transform="translate(15.314 21.343)" fill="#f6ba33"/>
    <path id="Path_1984" data-name="Path 1984" d="M-2475.571,1963.13c-1.032-4.564-2.368-9.067-3.588-13.583a.178.178,0,0,0-.343.094c1.213,4.519,2.319,9.083,3.719,13.546A.11.11,0,0,0-2475.571,1963.13Z" transform="translate(16.958 24.754)" fill="#f6ba33"/>
    <path id="Path_1985" data-name="Path 1985" d="M-2480.959,1950.958c.909,3.748,1.764,7.517,2.792,11.234a.1.1,0,0,0,.2-.056c-.8-3.775-1.773-7.513-2.692-11.261A.156.156,0,0,0-2480.959,1950.958Z" transform="translate(16.424 25.246)" fill="#f6ba33"/>
    <path id="Path_1986" data-name="Path 1986" d="M-2515.522,1958.967c-.256,2.435-.525,4.867-.735,7.3-.008.1.141.1.153,0,.306-2.431.555-4.868.814-7.3C-2515.274,1958.818-2515.506,1958.819-2515.522,1958.967Z" transform="translate(3.491 28.211)" fill="#f6ba33"/>
    <path id="Path_1987" data-name="Path 1987" d="M-2514.094,1954.742q-.787,3.65-1.531,7.313a.037.037,0,0,0,.071.018q.815-3.642,1.6-7.293C-2513.934,1954.688-2514.075,1954.648-2514.094,1954.742Z" transform="translate(3.723 26.684)" fill="#f6ba33"/>
    <path id="Path_1988" data-name="Path 1988" d="M-2502.635,1933.761a32.485,32.485,0,0,1-5.847,12.693c-.122.171.148.375.289.222a25.708,25.708,0,0,0,6-12.8C-2502.146,1933.6-2502.579,1933.475-2502.635,1933.761Z" transform="translate(6.33 18.955)" fill="#f6ba33"/>
    <path id="Path_1989" data-name="Path 1989" d="M-2505.341,1928.576c.026.243.413.351.467.064a26.865,26.865,0,0,0-1.723-14.139.132.132,0,0,0-.254.068c.376,2.436.9,4.831,1.124,7.292C-2505.519,1924.1-2505.585,1926.346-2505.341,1928.576Z" transform="translate(6.938 11.923)" fill="#f6ba33"/>
    <path id="Path_1990" data-name="Path 1990" d="M-2484.951,1926.635a30.174,30.174,0,0,0,.543-5.929c.095-1.92.42-3.991-.034-5.874a.013.013,0,0,0-.024,0,19.992,19.992,0,0,0-.715,5.507,32.031,32.031,0,0,0-.2,6.238C-2485.349,1926.8-2485.017,1926.893-2484.951,1926.635Z" transform="translate(14.77 12.075)" fill="#f6ba33"/>
    <path id="Path_1991" data-name="Path 1991" d="M-2495.836,1894.026a.241.241,0,0,0,0-.461c-1.146-.475-2.584.443-3.218,1.377a3.533,3.533,0,0,0,.059,3.891.211.211,0,0,0,.365-.213,3.062,3.062,0,0,1,.324-3.444A4.978,4.978,0,0,1-2495.836,1894.026Z" transform="translate(9.591 4.238)" fill="#f6ba33"/>
    <path id="Path_1992" data-name="Path 1992" d="M-2502.866,1973.164a8.2,8.2,0,0,1,.772.5.25.25,0,0,0,.37-.22,8.454,8.454,0,0,0,7.48-3.129,2.155,2.155,0,0,0,1.738,1.354c.293.03.333-.371.136-.508a2.485,2.485,0,0,1-1.118-2.208,4.84,4.84,0,0,0,.152-.514,1.805,1.805,0,0,1,.811-.786c.235-.125.073-.536-.183-.439a3.112,3.112,0,0,0-1.02.627.292.292,0,0,0-.084.074l-.085.108c-.047.058-.094.118-.136.177a11.5,11.5,0,0,1-3.338,3.31,9.68,9.68,0,0,1-5.333,1.056A.325.325,0,0,0-2502.866,1973.164Z" transform="translate(8.343 31.267)" fill="#f6ba33"/>
    <path id="Path_1993" data-name="Path 1993" d="M-2500.935,1948.148a2.239,2.239,0,0,0-.7.145.825.825,0,0,1,.675-.813.207.207,0,0,0,0-.414,1.447,1.447,0,0,0-1.357,1.931.431.431,0,0,0,.619.252,2.483,2.483,0,0,0,.972-.742C-2500.616,1948.358-2500.769,1948.147-2500.935,1948.148Z" transform="translate(8.563 23.891)" fill="#f6ba33"/>
    <path id="Path_1994" data-name="Path 1994" d="M-2501.51,1955.239a.9.9,0,0,1-.094.25.023.023,0,0,0-.007.016.114.114,0,0,0-.032.019c-.045.037-.1.069-.153.1a.38.38,0,0,1-.354.078.437.437,0,0,1-.049-.671c.219-.175-.062-.527-.3-.384a1.075,1.075,0,0,0-.033,1.813,1.03,1.03,0,0,0,1.22-.152.932.932,0,0,0,.188-1.125A.216.216,0,0,0-2501.51,1955.239Z" transform="translate(8.346 26.657)" fill="#f6ba33"/>
    <path id="Path_1995" data-name="Path 1995" d="M-2483.548,1949.876a.228.228,0,0,0-.114-.422,1.127,1.127,0,0,0-.656.228,1.225,1.225,0,0,0-.4.638,1.4,1.4,0,0,0,.5,1.52c1.113.746,2.734-.8,1.809-1.863a.294.294,0,0,0-.5.205.7.7,0,0,1-.3.674c-.149.112-.36.227-.536.09C-2484.035,1950.713-2483.875,1950.015-2483.548,1949.876Z" transform="translate(15.031 24.765)" fill="#f6ba33"/>
    <path id="Path_1996" data-name="Path 1996" d="M-2489.578,1950.052c-.056.385.232.8.668.67a4.418,4.418,0,0,0,1.644-.771c.246-.21.024-.552-.239-.578a3.006,3.006,0,0,0-1.011.1c0-.386-.014-.772-.033-1.158a.963.963,0,0,1,1.149.214c.022.026.059-.011.038-.037a1.574,1.574,0,0,0-1.543-.7.364.364,0,0,0-.339.259c-.015.079-.027.16-.044.24a17.47,17.47,0,0,1-3.05-2.155c-1.345-1.393-1.414-3.668.726-4.271a.234.234,0,0,0,0-.448c-1.792-.547-2.866,1.741-2.576,3.217.415,2.118,2.905,3.5,4.771,4.371C-2489.475,1949.357-2489.527,1949.706-2489.578,1950.052Z" transform="translate(11.561 21.792)" fill="#f6ba33"/>
    <path id="Path_1997" data-name="Path 1997" d="M-2487.6,1938.636c.252-.246-.118-.6-.38-.38a1.739,1.739,0,0,0-.766,1.277c-.039.522.151,1.4.806,1.4,1.1-.013,2.446-1.057,2.258-2.247a.345.345,0,0,0-.572-.152,8.066,8.066,0,0,1-.8.9,1.952,1.952,0,0,1-.687.351A1.145,1.145,0,0,1-2487.6,1938.636Z" transform="translate(13.571 20.637)" fill="#f6ba33"/>
    <path id="Path_1998" data-name="Path 1998" d="M-2497.656,1939.512a.643.643,0,0,1-.649.245c-.253-.045-.3-.291-.469-.449a.3.3,0,0,0-.462.06c-.391.535.285,1.284.793,1.4a1.07,1.07,0,0,0,1.272-1.056A.29.29,0,0,0-2497.656,1939.512Z" transform="translate(9.686 21.017)" fill="#f6ba33"/>
    <path id="Path_1999" data-name="Path 1999" d="M-2499.794,1964.569a.493.493,0,0,0,.352.463.421.421,0,0,0,.411-.069.322.322,0,0,0,.078-.1.733.733,0,0,1-.062.2.388.388,0,0,0,.331.575c.521-.037.9-.14,1.271.385a1.7,1.7,0,0,1,.275,1.289c0,.033.045.046.051.015a1.754,1.754,0,0,0-.283-1.332,3.8,3.8,0,0,0-.8-.894,1.262,1.262,0,0,0-.289-1.4C-2499.075,1963.133-2499.826,1963.9-2499.794,1964.569Z" transform="translate(9.524 29.915)" fill="#f6ba33"/>
    <path id="Path_2000" data-name="Path 2000" d="M-2502.375,1961.535a1.163,1.163,0,0,0-1.045.708c-.427.992.63,2.308,1.678,1.741a.3.3,0,0,0-.07-.541c-.369-.1-.919-.48-.768-.935a.948.948,0,0,1,1.127-.52.041.041,0,0,0,.045-.058A.919.919,0,0,0-2502.375,1961.535Z" transform="translate(8.16 29.191)" fill="#f6ba33"/>
    <path id="Path_2001" data-name="Path 2001" d="M-2499.1,1980.651a2.581,2.581,0,0,0-2.177,2.331c-.051.391.579.459.678.092a1.922,1.922,0,0,1,1.737-1.5c.746-.011,1.23.5,1.833.842.169.094.455-.022.428-.246A2.116,2.116,0,0,0-2499.1,1980.651Z" transform="translate(8.982 36.189)" fill="#f6ba33"/>
    <path id="Path_2002" data-name="Path 2002" d="M-2482.923,1974.56a2.411,2.411,0,0,1,2.059-1.6c.766-.027,1.305.488,2.015.638a.3.3,0,0,0,.366-.365c-.222-1.155-1.792-1.463-2.779-1.284a2.94,2.94,0,0,0-2.38,2.417A.374.374,0,0,0-2482.923,1974.56Z" transform="translate(15.441 32.99)" fill="#f6ba33"/>
    <path id="Path_2003" data-name="Path 2003" d="M-2485.882,1905.6a.026.026,0,0,0,0,.052A.026.026,0,0,0-2485.882,1905.6Z" transform="translate(14.613 8.695)" fill="#f6ba33"/>
    <path id="Path_2004" data-name="Path 2004" d="M-2494.3,1888.839a2.927,2.927,0,0,0,1.853-1.415c.392-.53.918-1.3.707-1.988a.208.208,0,0,0-.343-.092,3.568,3.568,0,0,0-.455.719,6.022,6.022,0,0,1-.75.976,2.849,2.849,0,0,0-1.03,1.782C-2494.324,1888.831-2494.314,1888.842-2494.3,1888.839Z" transform="translate(11.529 1.251)" fill="#f6ba33"/>
    <path id="Path_2005" data-name="Path 2005" d="M-2499.566,1886.615a8.381,8.381,0,0,0,.449,1.143c.261.66.638,1.23.939,1.863.109.23.476.067.408-.173-.208-.731-.32-1.451-.58-2.177a5.986,5.986,0,0,0-.417-1.078c.329-.391.638-.8.967-1.184a3.955,3.955,0,0,0,.963-1.614.216.216,0,0,0-.314-.24,3.848,3.848,0,0,0-1.233,1.4c-.246.414-.523.812-.785,1.223a.279.279,0,0,0-.4.169,1.24,1.24,0,0,0-.012.6A.173.173,0,0,0-2499.566,1886.615Z" transform="translate(9.592 0.458)" fill="#f6ba33"/>
    <path id="Path_2006" data-name="Path 2006" d="M-2494.785,1884.928a.3.3,0,0,0,.583,0,6.626,6.626,0,0,0,.165-1.484,2.754,2.754,0,0,0-.112-1.391.373.373,0,0,0-.638,0,2.779,2.779,0,0,0-.137,1.391A6.681,6.681,0,0,0-2494.785,1884.928Z" transform="translate(11.302)" fill="#f6ba33"/>
    <path id="Path_2007" data-name="Path 2007" d="M-2504.16,1891.211a4.618,4.618,0,0,0,.788-2.039,5.183,5.183,0,0,0,.257-2.3.284.284,0,0,0-.514-.069,5.416,5.416,0,0,0-.621,2.3,4.4,4.4,0,0,0-.023,2.08A.067.067,0,0,0-2504.16,1891.211Z" transform="translate(7.839 1.759)" fill="#f6ba33"/>
  </g>
</svg>
