<?xml version="1.0" encoding="UTF-8"?>
<svg id="Layer_2" data-name="Layer 2" xmlns="http://www.w3.org/2000/svg" viewBox="0 0 148.81 162.86">
  <defs>
    <style>
      .cls-1 {
        fill: #f4de82;
        stroke-width: 0px;
      }
    </style>
  </defs>
  <g id="Layer_1-2" data-name="Layer 1">
    <g>
      <path class="cls-1" d="M73.02,162.86c-20.77,0-37.05-35.77-37.05-81.43S52.25,0,73.02,0s37.05,35.77,37.05,81.43-16.27,81.43-37.05,81.43ZM73.02,5.83c-16.92,0-31.22,34.62-31.22,75.6s14.3,75.61,31.22,75.61,31.22-34.62,31.22-75.61S89.95,5.83,73.02,5.83Z"/>
      <path class="cls-1" d="M29.08,133.49c-12.59,0-22.17-3.71-26.58-11.34-10.38-17.99,12.46-49.96,52-72.8,39.54-22.83,78.66-26.62,89.05-8.63,10.38,17.99-12.46,49.96-52,72.8-22.76,13.14-45.39,19.98-62.47,19.98ZM117.34,35.18c-15.99,0-38.26,6.71-59.92,19.21C21.93,74.89-.91,104.58,7.55,119.23c8.46,14.66,45.6,9.72,81.08-10.76,35.49-20.5,58.33-50.19,49.87-64.84-3.3-5.71-10.95-8.45-21.16-8.45Z"/>
      <path class="cls-1" d="M116.97,133.49c-17.08,0-39.7-6.83-62.47-19.98C14.96,90.68-7.88,58.7,2.5,40.71c10.39-18,49.5-14.21,89.05,8.63,39.54,22.84,62.39,54.81,52,72.8-4.41,7.63-13.99,11.34-26.58,11.34ZM28.71,35.18c-10.21,0-17.86,2.74-21.16,8.45-8.46,14.65,14.37,44.35,49.87,64.84,35.49,20.49,72.63,25.41,81.08,10.76,8.46-14.65-14.37-44.35-49.87-64.84-21.66-12.5-43.93-19.21-59.92-19.21Z"/>
      <circle class="cls-1" cx="73.03" cy="81.43" r="13.65"/>
      <circle class="cls-1" cx="139.33" cy="57.51" r="9.48"/>
      <circle class="cls-1" cx="55.42" cy="147.79" r="9.48"/>
      <circle class="cls-1" cx="21.31" cy="34.9" r="9.48"/>
    </g>
  </g>
</svg>