<svg width="83" height="93" viewBox="0 0 83 93" fill="none" xmlns="http://www.w3.org/2000/svg">
<path d="M41.6344 92.86C29.7917 92.86 20.5092 72.4646 20.5092 46.43C20.5092 20.3954 29.7917 0 41.6344 0C53.4771 0 62.7597 20.3954 62.7597 46.43C62.7597 72.4646 53.4828 92.86 41.6344 92.86ZM41.6344 3.32417C31.9869 3.32417 23.8333 23.0639 23.8333 46.43C23.8333 69.7961 31.9869 89.5415 41.6344 89.5415C51.2819 89.5415 59.4355 69.8018 59.4355 46.43C59.4355 23.0582 51.2876 3.32417 41.6344 3.32417Z" fill="#45D3F3"/>
<path d="M16.5806 76.1138C9.40203 76.1138 3.93968 73.9985 1.42517 69.648C-4.49333 59.3904 8.52965 41.1616 31.0747 28.1386C53.6197 15.1214 75.9253 12.9604 81.8495 23.218C87.768 33.4755 74.745 51.7043 52.2 64.7273C39.2226 72.2195 26.3194 76.1195 16.5806 76.1195V76.1138ZM66.905 20.0591C57.7878 20.0591 45.0898 23.8851 32.7396 31.0124C12.5038 42.7011 -0.519151 59.6298 4.3046 67.983C9.12834 76.3419 30.3049 73.5252 50.535 61.8479C70.7708 50.1591 83.7938 33.2304 78.9701 24.8772C77.0885 21.6214 72.7266 20.0591 66.905 20.0591Z" fill="#45D3F3"/>
<path d="M66.694 76.1136C56.9553 76.1136 44.0578 72.2192 31.0747 64.7213C8.52965 51.704 -4.49333 33.4696 1.42517 23.212C7.34937 12.9487 29.6492 15.1097 52.2 28.1327C74.745 41.1557 87.7737 59.3844 81.8495 69.642C79.335 73.9925 73.8726 76.1079 66.694 76.1079V76.1136ZM16.3697 20.0589C10.5481 20.0589 6.1862 21.6212 4.3046 24.8769C-0.519151 33.2301 12.4981 50.1646 32.7396 61.8476C52.9754 73.5307 74.152 76.336 78.9701 67.9828C83.7938 59.6296 70.7765 42.6952 50.535 31.0121C38.1849 23.8848 25.4869 20.0589 16.3697 20.0589Z" fill="#45D3F3"/>
<path d="M41.6402 54.2128C45.9386 54.2128 49.4232 50.7283 49.4232 46.4298C49.4232 42.1314 45.9386 38.6469 41.6402 38.6469C37.3417 38.6469 33.8572 42.1314 33.8572 46.4298C33.8572 50.7283 37.3417 54.2128 41.6402 54.2128Z" fill="#45D3F3"/>
<path d="M79.4433 38.1964C82.4286 38.1964 84.8486 35.7764 84.8486 32.7911C84.8486 29.8058 82.4286 27.3857 79.4433 27.3857C76.458 27.3857 74.038 29.8058 74.038 32.7911C74.038 35.7764 76.458 38.1964 79.4433 38.1964Z" fill="#45D3F3"/>
<path d="M31.5993 89.6727C34.5846 89.6727 37.0046 87.2527 37.0046 84.2674C37.0046 81.2821 34.5846 78.8621 31.5993 78.8621C28.614 78.8621 26.194 81.2821 26.194 84.2674C26.194 87.2527 28.614 89.6727 31.5993 89.6727Z" fill="#45D3F3"/>
<path d="M12.1503 25.3047C15.1356 25.3047 17.5557 22.8846 17.5557 19.8994C17.5557 16.9141 15.1356 14.494 12.1503 14.494C9.16505 14.494 6.745 16.9141 6.745 19.8994C6.745 22.8846 9.16505 25.3047 12.1503 25.3047Z" fill="#45D3F3"/>
</svg>
