<?xml version="1.0" encoding="UTF-8"?>
<svg id="Layer_2" data-name="Layer 2" xmlns="http://www.w3.org/2000/svg" viewBox="0 0 142.9 70.04">
  <defs>
    <style>
      .cls-1 {
        fill: #70c3d7;
      }

      .cls-1, .cls-2 {
        stroke-width: 0px;
      }

      .cls-2 {
        fill: #9dcc46;
      }
    </style>
  </defs>
  <g id="Layer_1-2" data-name="Layer 1">
    <path class="cls-1" d="M99.11,48.55c0-14.74,9.8-21.5,21.89-21.5s21.9,6.76,21.9,21.5-9.8,21.5-21.9,21.5-21.89-6.76-21.89-21.5"/>
    <path class="cls-2" d="M0,24.11c0-2.6.48-5.39,1.44-8.45.85-2.7,2.36-6.63,5.6-9.57,3.35-3.03,7.63-4.21,11.76-5.03,4.73-.94,9.79-1.64,14.82-.35,8.75,2.24,16.27,10.35,17.86,19.27,1.15,6.49-.97,13.26-5.99,19.07-1.5,1.74-3.23,3.35-5.13,4.79-4.39,3.31-8.78,5.09-13.05,5.3-5.63.28-11.3-2.02-17.32-7.02C4.62,37.65,1.49,33.09.42,28.16c-.28-1.3-.42-2.65-.42-4.05ZM42.45,23.51c0-.61-.06-1.24-.17-1.88-.95-5.31-5.77-10.52-10.97-11.85-3.04-.78-6.46-.38-10.67.46-2.62.52-5.56,1.21-7.31,2.79-1.18,1.07-2.12,2.81-2.96,5.44-.98,3.13-1.25,5.65-.8,7.72.61,2.8,2.7,5.65,6.41,8.73,4.08,3.39,7.74,5.03,10.88,4.87,2.36-.12,5.01-1.27,7.87-3.42,1.38-1.04,2.62-2.2,3.69-3.44h0c1.92-2.23,4.03-5.55,4.03-9.43Z"/>
  </g>
</svg>