<?xml version="1.0" encoding="UTF-8"?>
<svg id="Layer_2" data-name="Layer 2" xmlns="http://www.w3.org/2000/svg" viewBox="0 0 335.5 417.99">
  <defs>
    <style>
      .cls-1 {
        fill: #4fe16d;
      }

      .cls-1, .cls-2, .cls-3 {
        stroke-width: 0px;
      }

      .cls-2 {
        fill: #9044e2;
      }

      .cls-3 {
        fill: #f24ea2;
      }
    </style>
  </defs>
  <g id="Layer_1-2" data-name="Layer 1">
    <path class="cls-2" d="M22.31,51.21c-15.3,0-22.31-10.17-22.31-22.73C0,15.94,7.02,5.76,22.31,5.76c15.3,0,22.31,10.18,22.31,22.73s-7.02,22.73-22.31,22.73"/>
    <path class="cls-3" d="M298.59,261.63c-18.07-15.71-40.89-25.93-64.92-22.17-30.18,4.72-58.24,30.07-65.53,59.44-4.33,17.45-1.44,36.04,2.34,53.88,3.06,14.46,7.04,29.5,17.11,40.59,8.44,9.3,20.29,14.81,32.16,18.76,13.95,4.65,28.88,7.52,43.09,4.77,19.58-3.79,35.27-17.69,47.92-32.73,14.01-16.66,25.96-36.93,24.63-58.97-.98-16.19-9.09-31.43-19.07-44.57-5.16-6.79-11.13-13.27-17.74-19.01Z"/>
    <path class="cls-1" d="M236.73,77.34c-4.13-1.33-10.13-3.66-14.52-8.55-4.77-5.31-6.4-12.11-7.55-18.07-1.44-7.41-2.49-15.32-.47-23.06,3.5-13.39,15.98-24.84,29.66-27.21,9.88-1.72,20.21,1.61,29.09,9.36,2.7,2.35,5.19,5.05,7.42,8.02,5.06,6.78,7.77,13.51,8.06,20.01.37,8.57-3.23,17.24-11.01,26.52-6.97,8.3-14,13.1-21.49,14.68-1.91.4-3.89.61-5.97.61-4.03,0-8.39-.77-13.2-2.31ZM245.74,11.35c-9.31,1.62-18.47,10.01-20.84,19.11-1.38,5.28-.75,11.08.63,18.16.87,4.5,2.05,9.58,4.93,12.79,1.98,2.2,5.04,3.92,9.66,5.41,5.4,1.73,9.81,2.19,13.5,1.41,4.98-1.05,9.99-4.64,15.3-10.97,5.92-7.06,8.68-13.25,8.43-18.93-.19-4.24-2.16-8.91-5.86-13.86-1.76-2.35-3.72-4.47-5.83-6.31h0c-3.87-3.38-9.69-7.08-16.61-7.08-1.07,0-2.18.09-3.31.29Z"/>
    <g>
      <path class="cls-1" d="M84.79,132.96h20.68c2.29,0,4.15-1.86,4.15-4.15s-1.86-4.15-4.15-4.15h-20.68c-2.29,0-4.15,1.86-4.15,4.15,0,2.29,1.86,4.15,4.15,4.15Z"/>
      <path class="cls-1" d="M142.12,132.96h20.68c2.29,0,4.15-1.86,4.15-4.15,0-2.29-1.86-4.15-4.15-4.15h-20.68c-2.29,0-4.15,1.86-4.15,4.15s1.86,4.15,4.15,4.15Z"/>
      <path class="cls-1" d="M143.3,166.74c.7,0,1.42-.18,2.07-.55,1.99-1.15,2.67-3.68,1.52-5.67l-10.34-17.91c-1.14-1.98-3.68-2.66-5.66-1.52-1.99,1.15-2.67,3.68-1.52,5.67l10.34,17.91c.77,1.33,2.16,2.07,3.6,2.07Z"/>
      <path class="cls-1" d="M114.64,117.09c.7,0,1.42-.18,2.07-.55,1.99-1.15,2.67-3.68,1.52-5.67l-10.34-17.91c-1.14-1.98-3.68-2.67-5.66-1.52-1.99,1.15-2.67,3.68-1.52,5.67l10.34,17.91c.77,1.33,2.16,2.07,3.6,2.07Z"/>
      <path class="cls-1" d="M104.29,166.74c1.44,0,2.83-.74,3.6-2.07l10.34-17.91c1.15-1.98.47-4.52-1.52-5.67-1.99-1.15-4.52-.46-5.66,1.52l-10.34,17.91c-1.15,1.98-.47,4.52,1.52,5.67.65.38,1.37.55,2.07.55Z"/>
      <path class="cls-1" d="M132.95,117.09c1.44,0,2.83-.74,3.6-2.07l10.34-17.91c1.15-1.98.47-4.52-1.52-5.67-1.98-1.15-4.52-.46-5.66,1.52l-10.34,17.91c-1.15,1.98-.47,4.52,1.52,5.67.65.38,1.37.55,2.07.55Z"/>
    </g>
  </g>
</svg>