<?xml version="1.0" encoding="UTF-8"?>
<svg id="Layer_2" data-name="Layer 2" xmlns="http://www.w3.org/2000/svg" viewBox="0 0 85.46 212.6">
  <defs>
    <style>
      .cls-1 {
        fill: #4fe16d;
        stroke-width: 0px;
      }
    </style>
  </defs>
  <g id="Layer_1-2" data-name="Layer 1">
    <g>
      <path class="cls-1" d="M32.06,212.52c13.43,1.08,25.23-8.96,26.31-22.39l8.71-108.19c.11-1.42-.95-2.67-2.37-2.78-1.42-.11-2.67.94-2.78,2.37l-8.71,108.19c-.85,10.59-10.16,18.51-20.75,17.66-10.59-.85-18.51-10.16-17.65-20.75l8.71-108.19c.11-1.42-.95-2.67-2.37-2.78s-2.67.94-2.78,2.37l-8.71,108.19c-1.08,13.43,8.96,25.23,22.39,26.31Z"/>
      <path class="cls-1" d="M2.37,79.32l80.29,6.46c1.42.11,2.67-.94,2.78-2.37s-.95-2.67-2.37-2.78L2.79,74.17c-1.42-.11-2.67.94-2.78,2.37-.11,1.42.95,2.67,2.37,2.78Z"/>
      <path class="cls-1" d="M43.51,114.27l18.26,1.47c1.42.11,2.67-.94,2.78-2.37.11-1.42-.95-2.67-2.37-2.78l-18.26-1.47c-1.42-.11-2.67.94-2.78,2.37s.95,2.67,2.37,2.78Z"/>
      <path class="cls-1" d="M41.11,144.11l18.26,1.47c1.42.11,2.67-.94,2.78-2.37s-.95-2.67-2.37-2.78l-18.26-1.47c-1.42-.11-2.67.94-2.78,2.37-.11,1.42.95,2.67,2.37,2.78Z"/>
      <path class="cls-1" d="M38.71,173.96l18.26,1.47c1.42.11,2.67-.94,2.78-2.37.11-1.42-.95-2.67-2.37-2.78l-18.26-1.47c-1.42-.11-2.67.94-2.78,2.37s.95,2.67,2.37,2.78Z"/>
      <path class="cls-1" d="M54.12,31.56c.64-7.9,7.58-13.81,15.49-13.18,7.9.64,13.81,7.58,13.17,15.49s-7.58,13.81-15.48,13.18-13.81-7.58-13.18-15.49ZM59.27,31.97c-.41,5.07,3.38,9.52,8.45,9.93,5.06.41,9.51-3.38,9.92-8.45s-3.38-9.52-8.44-9.93-9.52,3.38-9.93,8.45Z"/>
      <path class="cls-1" d="M40.02,8.49C40.43,3.41,44.89-.38,49.96.03c5.07.41,8.86,4.87,8.45,9.94-.41,5.07-4.87,8.86-9.93,8.45-5.07-.41-8.86-4.87-8.45-9.93ZM45.17,8.9c-.18,2.23,1.49,4.19,3.72,4.37s4.19-1.49,4.37-3.72-1.49-4.2-3.72-4.38-4.19,1.49-4.37,3.72Z"/>
      <path class="cls-1" d="M56.93,60.86c.41-5.07,4.87-8.86,9.94-8.46,5.07.41,8.86,4.87,8.45,9.94-.41,5.07-4.87,8.86-9.93,8.45-5.07-.41-8.87-4.87-8.46-9.94ZM62.07,61.27c-.18,2.23,1.49,4.19,3.73,4.37,2.23.18,4.19-1.49,4.37-3.72.18-2.23-1.49-4.2-3.72-4.38-2.24-.18-4.2,1.49-4.38,3.72Z"/>
      <path class="cls-1" d="M13.66,49.39c.9-11.24,10.78-19.64,22.02-18.74s19.64,10.78,18.74,22.02c-.9,11.24-10.78,19.64-22.02,18.74-11.24-.91-19.65-10.78-18.74-22.02ZM18.8,49.81c-.68,8.4,5.61,15.79,14.01,16.46,8.4.68,15.78-5.61,16.46-14.01s-5.61-15.79-14.01-16.46c-8.4-.68-15.79,5.61-16.46,14.01Z"/>
    </g>
  </g>
</svg>