<svg width="76" height="80" viewBox="0 0 76 80" fill="none" xmlns="http://www.w3.org/2000/svg">
<path d="M23.6619 77.3325C19.5319 76.0025 13.5319 73.6725 9.14194 68.7825C4.37194 63.4725 2.74194 56.6725 1.59194 50.7125C0.15194 43.3025 -0.898061 35.3925 1.12194 27.6525C4.62194 14.2625 17.1019 2.81253 30.7819 0.442528C40.6619 -1.27747 50.9919 2.05253 59.8719 9.80253C62.5719 12.1525 65.0619 14.8525 67.2919 17.8225C72.3519 24.6025 75.062 31.3325 75.352 37.8325C75.722 46.4025 72.1219 55.0725 64.3419 64.3525C57.3719 72.6525 50.3419 77.4525 42.8519 79.0325C40.9419 79.4325 38.9619 79.6425 36.8819 79.6425C32.8519 79.6425 28.4919 78.8725 23.6819 77.3325H23.6619ZM32.6719 11.3425C23.3619 12.9625 14.2019 21.3525 11.8319 30.4525C10.4519 35.7325 11.0819 41.5325 12.4619 48.6125C13.3319 53.1125 14.5119 58.1925 17.3919 61.4025C19.3719 63.6025 22.4319 65.3225 27.0519 66.8125C32.4519 68.5425 36.8619 69.0025 40.5519 68.2225C45.5319 67.1725 50.542 63.5825 55.852 57.2525C61.7719 50.1925 64.5319 44.0025 64.2819 38.3225C64.0919 34.0825 62.1219 29.4125 58.4219 24.4625C56.6619 22.1125 54.7019 19.9925 52.5919 18.1525C48.7219 14.7725 42.9019 11.0725 35.9819 11.0725C34.9119 11.0725 33.8019 11.1625 32.6719 11.3625V11.3425Z" fill="#4FE16D"/>
</svg>
