<svg width="66" height="69" viewBox="0 0 66 69" fill="none" xmlns="http://www.w3.org/2000/svg">
<path d="M51.6327 8.8323C44.5973 2.78644 35.7125 -1.14664 26.3566 0.300362C14.6062 2.11681 3.68122 11.8725 0.842907 23.1754C-0.842948 29.8908 0.282252 37.0451 1.75397 43.9106C2.94536 49.4754 4.49494 55.2635 8.41563 59.5314C11.7017 63.1104 16.3154 65.2309 20.9369 66.751C26.3682 68.5405 32.1811 69.645 37.7137 68.5867C45.337 67.1281 51.4458 61.7788 56.371 55.9908C61.8257 49.5794 66.4784 41.7786 65.9605 33.2967C65.579 27.0661 62.4214 21.2011 58.5358 16.1443C56.5268 13.5312 54.2024 11.0374 51.6288 8.82845L51.6327 8.8323Z" fill="#F24EA2"/>
</svg>
