<svg width="75" height="83" viewBox="0 0 75 83" fill="none" xmlns="http://www.w3.org/2000/svg">
<path d="M36.8017 82.0815C26.3337 82.0815 18.1285 64.0534 18.1285 41.0407C18.1285 18.0281 26.3337 0 36.8017 0C47.2698 0 55.4749 18.0281 55.4749 41.0407C55.4749 64.0534 47.2749 82.0815 36.8017 82.0815ZM36.8017 2.93832C28.2741 2.93832 21.0669 20.3868 21.0669 41.0407C21.0669 61.6947 28.2741 79.1482 36.8017 79.1482C45.3294 79.1482 52.5366 61.6997 52.5366 41.0407C52.5366 20.3818 45.3345 2.93832 36.8017 2.93832Z" fill="#F24EA2"/>
<path d="M14.6561 67.279C8.31071 67.279 3.48239 65.4092 1.25975 61.5637C-3.97177 52.4967 7.53959 36.3838 27.4678 24.8724C47.3959 13.3661 67.1124 11.456 72.349 20.5229C77.5805 29.5899 66.0691 45.7028 46.141 57.2141C34.6699 63.8367 23.2644 67.2841 14.6561 67.2841V67.279ZM59.1391 17.7308C51.0802 17.7308 39.8561 21.1126 28.9394 27.4126C11.0525 37.7446 -0.458892 52.7084 3.80495 60.092C8.06879 67.4806 26.7874 64.9909 44.6693 54.6689C62.5562 44.3369 74.0676 29.3732 69.8038 21.9896C68.1406 19.1117 64.285 17.7308 59.1391 17.7308Z" fill="#F24EA2"/>
<path d="M58.9527 67.2788C50.3443 67.2788 38.9438 63.8365 27.4678 57.2089C7.53959 45.7026 -3.97177 29.5847 1.25975 20.5177C6.49631 11.4457 26.2078 13.3559 46.141 24.8672C66.0691 36.3786 77.5855 52.4915 72.349 61.5584C70.1263 65.404 65.298 67.2738 58.9527 67.2738V67.2788ZM14.4696 17.7306C9.32375 17.7306 5.46815 19.1115 3.80495 21.9894C-0.458892 29.373 11.0474 44.3418 28.9394 54.6688C46.8264 64.9957 65.545 67.4754 69.8038 60.0918C74.0676 52.7082 62.5613 37.7394 44.6693 27.4124C33.7526 21.1124 22.5286 17.7306 14.4696 17.7306Z" fill="#F24EA2"/>
<path d="M36.8068 47.9202C40.6063 47.9202 43.6865 44.8401 43.6865 41.0406C43.6865 37.2411 40.6063 34.1609 36.8068 34.1609C33.0073 34.1609 29.9272 37.2411 29.9272 41.0406C29.9272 44.8401 33.0073 47.9202 36.8068 47.9202Z" fill="#F24EA2"/>
<path d="M70.2221 33.7628C72.8608 33.7628 75 31.6237 75 28.9849C75 26.3461 72.8608 24.207 70.2221 24.207C67.5833 24.207 65.4442 26.3461 65.4442 28.9849C65.4442 31.6237 67.5833 33.7628 70.2221 33.7628Z" fill="#F24EA2"/>
<path d="M27.9314 79.2642C30.5701 79.2642 32.7093 77.125 32.7093 74.4862C32.7093 71.8475 30.5701 69.7083 27.9314 69.7083C25.2926 69.7083 23.1534 71.8475 23.1534 74.4862C23.1534 77.125 25.2926 79.2642 27.9314 79.2642Z" fill="#F24EA2"/>
<path d="M10.74 22.3675C13.3787 22.3675 15.5179 20.2283 15.5179 17.5896C15.5179 14.9508 13.3787 12.8116 10.74 12.8116C8.10118 12.8116 5.96204 14.9508 5.96204 17.5896C5.96204 20.2283 8.10118 22.3675 10.74 22.3675Z" fill="#F24EA2"/>
</svg>
