<svg width="54" height="94" viewBox="0 0 54 94" fill="none" xmlns="http://www.w3.org/2000/svg">
<g clip-path="url(#clip0_21_1153)">
<path d="M45.7489 58.8369C41.7094 55.3039 36.608 53.0056 31.2362 53.8511C24.4896 54.9126 18.2168 60.6135 16.5872 67.2184C15.6192 71.1426 16.2653 75.3232 17.1103 79.3352C17.7943 82.587 18.6841 85.9693 20.9352 88.4633C22.8219 90.5548 25.4709 91.7939 28.1244 92.6822C31.2429 93.7279 34.5805 94.3733 37.7571 93.7549C42.1341 92.9026 45.6416 89.7767 48.4694 86.3944C51.6013 82.6478 54.2727 78.0893 53.9754 73.1329C53.7563 69.492 51.9434 66.0647 49.7124 63.1097C48.5589 61.5827 47.2243 60.1255 45.7466 58.8346L45.7489 58.8369Z" fill="#F24EA2"/>
<path d="M31.9203 17.3927C30.997 17.0936 29.6557 16.5696 28.6744 15.4699C27.608 14.2757 27.2437 12.7465 26.9866 11.4062C26.6647 9.7398 26.43 7.96095 26.8815 6.22034C27.6639 3.20912 30.4538 0.634176 33.5119 0.101197C35.7206 -0.285607 38.0298 0.463263 40.0149 2.20613C40.6185 2.73461 41.1751 3.3418 41.6736 4.00971C42.8048 5.53444 43.4106 7.04792 43.4754 8.50968C43.5581 10.4369 42.7534 12.3867 41.0142 14.4736C39.456 16.3402 37.8845 17.4197 36.2101 17.775C35.7832 17.8649 35.3405 17.9122 34.8756 17.9122C33.9747 17.9122 33 17.739 31.9247 17.3927H31.9203ZM33.9344 2.55245C31.8532 2.91677 29.8055 4.80356 29.2757 6.85002C28.9672 8.03742 29.108 9.34175 29.4165 10.9339C29.611 11.9459 29.8748 13.0884 30.5186 13.8102C30.9613 14.305 31.6453 14.6918 32.6781 15.0269C33.8852 15.4159 34.8711 15.5194 35.696 15.344C36.8092 15.1078 37.9292 14.3005 39.1162 12.877C40.4396 11.2893 41.0566 9.89722 41.0007 8.61987C40.9583 7.66635 40.5179 6.61614 39.6908 5.50295C39.2973 4.97447 38.8592 4.49771 38.3875 4.08392C37.5224 3.32381 36.2213 2.49173 34.6744 2.49173C34.4352 2.49173 34.187 2.51197 33.9344 2.55695V2.55245Z" fill="#4FE16D"/>
<path d="M-2.04545 29.9005H2.5775C3.08942 29.9005 3.50522 29.4822 3.50522 28.9672C3.50522 28.4523 3.08942 28.034 2.5775 28.034H-2.04545C-2.55738 28.034 -2.97318 28.4523 -2.97318 28.9672C-2.97318 29.4822 -2.55738 29.9005 -2.04545 29.9005Z" fill="#4FE16D"/>
<path d="M10.7705 29.9005H15.3934C15.9053 29.9005 16.3211 29.4822 16.3211 28.9672C16.3211 28.4523 15.9053 28.034 15.3934 28.034H10.7705C10.2585 28.034 9.84274 28.4523 9.84274 28.9672C9.84274 29.4822 10.2585 29.9005 10.7705 29.9005Z" fill="#4FE16D"/>
<path d="M11.0343 37.4979C11.1908 37.4979 11.3517 37.4574 11.497 37.3742C11.9419 37.1156 12.0939 36.5466 11.8368 36.0991L9.52536 32.0714C9.27052 31.6261 8.70271 31.4732 8.26009 31.7295C7.81523 31.9882 7.66321 32.5571 7.92029 33.0047L10.2318 37.0324C10.4039 37.3315 10.7146 37.4979 11.0365 37.4979H11.0343Z" fill="#4FE16D"/>
<path d="M4.62742 26.3319C4.7839 26.3319 4.94486 26.2914 5.09016 26.2082C5.53502 25.9496 5.68704 25.3806 5.42996 24.9331L3.11848 20.9054C2.86364 20.4601 2.29583 20.3049 1.85321 20.5636C1.40835 20.8222 1.25633 21.3911 1.51341 21.8387L3.82489 25.8664C3.99702 26.1655 4.30775 26.3319 4.62966 26.3319H4.62742Z" fill="#4FE16D"/>
<path d="M2.31373 37.4979C2.63564 37.4979 2.94637 37.3315 3.1185 37.0324L5.42998 33.0047C5.68706 32.5594 5.53504 31.9882 5.09018 31.7296C4.64533 31.471 4.07975 31.6261 3.82491 32.0714L1.51343 36.0991C1.25635 36.5444 1.40837 37.1156 1.85323 37.3742C1.99853 37.4597 2.15948 37.4979 2.31597 37.4979H2.31373Z" fill="#4FE16D"/>
<path d="M8.72057 26.3319C9.04247 26.3319 9.3532 26.1655 9.52534 25.8664L11.8368 21.8387C12.0939 21.3934 11.9419 20.8222 11.497 20.5636C11.0544 20.3049 10.4866 20.4601 10.2317 20.9054L7.92027 24.9331C7.66319 25.3784 7.8152 25.9496 8.26006 26.2082C8.40537 26.2936 8.56632 26.3319 8.7228 26.3319H8.72057Z" fill="#4FE16D"/>
</g>
<defs>
<clipPath id="clip0_21_1153">
<rect width="75" height="94" fill="white" transform="translate(-21)"/>
</clipPath>
</defs>
</svg>
