<svg width="75" height="94" viewBox="0 0 75 94" fill="none" xmlns="http://www.w3.org/2000/svg">
<g clip-path="url(#clip0_21_1132)">
<path d="M4.98733 11.5168C1.56706 11.5168 0 9.22973 0 6.40517C0 3.5851 1.5693 1.29576 4.98733 1.29576C8.4076 1.29576 9.97466 3.5851 9.97466 6.40741C9.97466 9.22973 8.40536 11.5191 4.98733 11.5191" fill="white"/>
<path d="M66.7489 58.8369C62.7094 55.3039 57.6081 53.0056 52.2363 53.8511C45.4896 54.9126 39.2169 60.6135 37.5872 67.2184C36.6193 71.1426 37.2653 75.3232 38.1103 79.3352C38.7944 82.587 39.6841 85.9693 41.9352 88.4633C43.822 90.5548 46.471 91.7939 49.1245 92.6822C52.243 93.7279 55.5805 94.3733 58.7571 93.7549C63.1342 92.9026 66.6416 89.7767 69.4695 86.3944C72.6014 82.6478 75.2728 78.0893 74.9755 73.1329C74.7564 69.492 72.9434 66.0647 70.7124 63.1097C69.5589 61.5827 68.2243 60.1255 66.7467 58.8346L66.7489 58.8369Z" fill="#F24EA2"/>
<path d="M52.9203 17.3927C51.997 17.0936 50.6558 16.5696 49.6744 15.4699C48.6081 14.2757 48.2437 12.7465 47.9866 11.4062C47.6647 9.7398 47.43 7.96095 47.8815 6.22034C48.664 3.20912 51.4538 0.634176 54.5119 0.101197C56.7206 -0.285607 59.0298 0.463263 61.0149 2.20613C61.6185 2.73461 62.1751 3.3418 62.6736 4.00971C63.8048 5.53444 64.4106 7.04792 64.4754 8.50968C64.5581 10.4369 63.7534 12.3867 62.0142 14.4736C60.4561 16.3402 58.8845 17.4197 57.2102 17.775C56.7832 17.8649 56.3406 17.9122 55.8756 17.9122C54.9747 17.9122 54 17.739 52.9248 17.3927H52.9203ZM54.9345 2.55245C52.8532 2.91677 50.8055 4.80356 50.2757 6.85002C49.9672 8.03742 50.1081 9.34175 50.4166 10.9339C50.6111 11.9459 50.8748 13.0884 51.5187 13.8102C51.9613 14.305 52.6453 14.6918 53.6781 15.0269C54.8853 15.4159 55.8711 15.5194 56.696 15.344C57.8093 15.1078 58.9292 14.3005 60.1163 12.877C61.4397 11.2893 62.0567 9.89722 62.0008 8.61987C61.9583 7.66635 61.5179 6.61614 60.6908 5.50295C60.2973 4.97447 59.8592 4.49771 59.3875 4.08392C58.5224 3.32381 57.2213 2.49173 55.6744 2.49173C55.4352 2.49173 55.1871 2.51197 54.9345 2.55695V2.55245Z" fill="#FFC909"/>
<path d="M18.9546 29.9005H23.5775C24.0894 29.9005 24.5052 29.4822 24.5052 28.9672C24.5052 28.4523 24.0894 28.034 23.5775 28.034H18.9546C18.4427 28.034 18.0269 28.4523 18.0269 28.9672C18.0269 29.4822 18.4427 29.9005 18.9546 29.9005Z" fill="#FFC909"/>
<path d="M31.7705 29.9005H36.3934C36.9054 29.9005 37.3212 29.4822 37.3212 28.9672C37.3212 28.4523 36.9054 28.034 36.3934 28.034H31.7705C31.2586 28.034 30.8428 28.4523 30.8428 28.9672C30.8428 29.4822 31.2586 29.9005 31.7705 29.9005Z" fill="#FFC909"/>
<path d="M32.0343 37.4979C32.1908 37.4979 32.3518 37.4574 32.4971 37.3742C32.9419 37.1156 33.0939 36.5466 32.8369 36.0991L30.5254 32.0714C30.2705 31.6261 29.7027 31.4732 29.2601 31.7295C28.8153 31.9882 28.6632 32.5571 28.9203 33.0047L31.2318 37.0324C31.4039 37.3315 31.7147 37.4979 32.0366 37.4979H32.0343Z" fill="#FFC909"/>
<path d="M25.6275 26.3319C25.784 26.3319 25.9449 26.2914 26.0902 26.2082C26.5351 25.9496 26.6871 25.3806 26.43 24.9331L24.1185 20.9054C23.8637 20.4601 23.2959 20.3049 22.8533 20.5636C22.4084 20.8222 22.2564 21.3911 22.5135 21.8387L24.8249 25.8664C24.9971 26.1655 25.3078 26.3319 25.6297 26.3319H25.6275Z" fill="#FFC909"/>
<path d="M23.314 37.4979C23.6359 37.4979 23.9466 37.3315 24.1188 37.0324L26.4303 33.0047C26.6873 32.5594 26.5353 31.9882 26.0905 31.7296C25.6456 31.471 25.08 31.6261 24.8252 32.0714L22.5137 36.0991C22.2566 36.5444 22.4086 37.1156 22.8535 37.3742C22.9988 37.4597 23.1598 37.4979 23.3162 37.4979H23.314Z" fill="#FFC909"/>
<path d="M29.7206 26.3319C30.0425 26.3319 30.3533 26.1655 30.5254 25.8664L32.8369 21.8387C33.0939 21.3934 32.9419 20.8222 32.4971 20.5636C32.0545 20.3049 31.4866 20.4601 31.2318 20.9054L28.9203 24.9331C28.6632 25.3784 28.8153 25.9496 29.2601 26.2082C29.4054 26.2936 29.5664 26.3319 29.7229 26.3319H29.7206Z" fill="#FFC909"/>
</g>
<defs>
<clipPath id="clip0_21_1132">
<rect width="75" height="94" fill="white"/>
</clipPath>
</defs>
</svg>
