<svg width="75" height="94" viewBox="0 0 75 94" fill="none" xmlns="http://www.w3.org/2000/svg">
<g clip-path="url(#clip0_21_1082)">
<path d="M4.98733 11.5171C1.56706 11.5171 0 9.22999 0 6.40543C0 3.58536 1.5693 1.29602 4.98733 1.29602C8.4076 1.29602 9.97466 3.58536 9.97466 6.40767C9.97466 9.22999 8.40536 11.5193 4.98733 11.5193" fill="white"/>
<path d="M66.7489 58.8369C62.7094 55.3039 57.608 53.0056 52.2362 53.8512C45.4896 54.9126 39.2168 60.6135 37.5872 67.2184C36.6192 71.1426 37.2653 75.3233 38.1103 79.3352C38.7943 82.5871 39.684 85.9694 41.9352 88.4633C43.8219 90.5548 46.4709 91.7939 49.1244 92.6822C52.2429 93.7279 55.5805 94.3733 58.7571 93.7549C63.1341 92.9026 66.6416 89.7767 69.4694 86.3944C72.6013 82.6478 75.2727 78.0894 74.9754 73.1329C74.7563 69.492 72.9434 66.0647 70.7124 63.1097C69.5589 61.5828 68.2243 60.1255 66.7466 58.8346L66.7489 58.8369Z" fill="#F24EA2"/>
<path d="M52.9203 17.3927C51.997 17.0936 50.6557 16.5696 49.6744 15.4699C48.608 14.2758 48.2437 12.7466 47.9866 11.4062C47.6647 9.73983 47.4299 7.96099 47.8815 6.22037C48.6639 3.20915 51.4538 0.634207 54.5119 0.101227C56.7206 -0.285576 59.0298 0.463293 61.0149 2.20616C61.6185 2.73464 62.1751 3.34183 62.6736 4.00974C63.8048 5.53447 64.4106 7.04795 64.4754 8.50971C64.5581 10.437 63.7533 12.3867 62.0142 14.4737C60.456 16.3402 58.8845 17.4197 57.2101 17.775C56.7832 17.865 56.3405 17.9122 55.8756 17.9122C54.9747 17.9122 54 17.739 52.9247 17.3927H52.9203ZM54.9344 2.55248C52.8532 2.9168 50.8055 4.80359 50.2757 6.85005C49.9672 8.03745 50.108 9.34178 50.4165 10.934C50.611 11.946 50.8748 13.0884 51.5186 13.8103C51.9612 14.305 52.6453 14.6918 53.6781 15.0269C54.8852 15.4159 55.8711 15.5194 56.696 15.344C57.8092 15.1079 58.9292 14.3005 60.1162 12.877C61.4396 11.2893 62.0566 9.89725 62.0007 8.6199C61.9583 7.66639 61.5179 6.61617 60.6908 5.50298C60.2973 4.9745 59.8592 4.49774 59.3875 4.08395C58.5223 3.32384 57.2213 2.49176 55.6744 2.49176C55.4352 2.49176 55.187 2.512 54.9344 2.55698V2.55248Z" fill="#4FE16D"/>
<path d="M18.9545 29.9005H23.5775C24.0894 29.9005 24.5052 29.4822 24.5052 28.9672C24.5052 28.4522 24.0894 28.0339 23.5775 28.0339H18.9545C18.4426 28.0339 18.0268 28.4522 18.0268 28.9672C18.0268 29.4822 18.4426 29.9005 18.9545 29.9005Z" fill="#4FE16D"/>
<path d="M31.7705 29.9005H36.3934C36.9053 29.9005 37.3211 29.4822 37.3211 28.9672C37.3211 28.4522 36.9053 28.0339 36.3934 28.0339H31.7705C31.2585 28.0339 30.8427 28.4522 30.8427 28.9672C30.8427 29.4822 31.2585 29.9005 31.7705 29.9005Z" fill="#4FE16D"/>
<path d="M32.0343 37.4978C32.1908 37.4978 32.3517 37.4574 32.497 37.3742C32.9419 37.1155 33.0939 36.5466 32.8368 36.0991L30.5254 32.0713C30.2705 31.6261 29.7027 31.4731 29.2601 31.7295C28.8152 31.9881 28.6632 32.5571 28.9203 33.0046L31.2318 37.0323C31.4039 37.3314 31.7146 37.4978 32.0365 37.4978H32.0343Z" fill="#4FE16D"/>
<path d="M25.6274 26.3318C25.7839 26.3318 25.9449 26.2914 26.0902 26.2082C26.535 25.9495 26.687 25.3806 26.43 24.9331L24.1185 20.9054C23.8636 20.4601 23.2958 20.3049 22.8532 20.5635C22.4083 20.8221 22.2563 21.3911 22.5134 21.8386L24.8249 25.8663C24.997 26.1654 25.3077 26.3318 25.6297 26.3318H25.6274Z" fill="#4FE16D"/>
<path d="M23.3137 37.4979C23.6356 37.4979 23.9464 37.3314 24.1185 37.0323L26.43 33.0046C26.6871 32.5594 26.535 31.9882 26.0902 31.7295C25.6453 31.4709 25.0798 31.6261 24.8249 32.0714L22.5134 36.0991C22.2564 36.5443 22.4084 37.1156 22.8532 37.3742C22.9985 37.4596 23.1595 37.4979 23.316 37.4979H23.3137Z" fill="#4FE16D"/>
<path d="M29.7206 26.3318C30.0425 26.3318 30.3532 26.1654 30.5253 25.8663L32.8368 21.8386C33.0939 21.3934 32.9419 20.8221 32.497 20.5635C32.0544 20.3049 31.4866 20.4601 31.2317 20.9054L28.9203 24.9331C28.6632 25.3783 28.8152 25.9495 29.2601 26.2082C29.4054 26.2936 29.5663 26.3318 29.7228 26.3318H29.7206Z" fill="#4FE16D"/>
</g>
<defs>
<clipPath id="clip0_21_1082">
<rect width="75" height="94" fill="white"/>
</clipPath>
</defs>
</svg>
