<svg width="88" height="118" viewBox="0 0 88 118" fill="none" xmlns="http://www.w3.org/2000/svg">
<g clip-path="url(#clip0_21_1320)">
<path d="M14.5966 104.803C20.455 108.361 28.1301 106.446 31.7106 100.531L60.5584 52.8843C60.935 52.2579 60.7406 51.4428 60.1202 51.0686C59.4998 50.6943 58.6899 50.891 58.3109 51.5219L29.4631 99.1684C26.6406 103.833 20.5853 105.343 15.9654 102.539C11.3455 99.7343 9.88576 93.6575 12.7129 88.9954L41.5607 41.3489C41.9373 40.7225 41.7429 39.9074 41.1225 39.5332C40.5021 39.159 39.6922 39.3556 39.3132 39.9866L10.4654 87.6331C6.88496 93.5479 8.73592 101.25 14.5943 104.808L14.5966 104.803Z" fill="#8F44E1"/>
<path d="M31.7364 36.9276L66.7595 58.1979C67.3799 58.5721 68.1898 58.3754 68.5688 57.7445C68.9477 57.1136 68.751 56.303 68.1306 55.9288L33.1121 34.6608C32.4917 34.2865 31.6818 34.4832 31.3028 35.1141C30.9261 35.7405 31.1206 36.5556 31.741 36.9299L31.7364 36.9276Z" fill="#8F44E1"/>
<path d="M42.4037 62.342L50.3686 67.1798C50.989 67.554 51.799 67.3573 52.1779 66.7264C52.5546 66.1 52.3601 65.2849 51.7398 64.9107L43.7748 60.0729C43.1544 59.6986 42.3445 59.8953 41.9655 60.5263C41.5866 61.1572 41.7833 61.9677 42.4037 62.342Z" fill="#8F44E1"/>
<path d="M34.4483 75.4836L42.4132 80.3214C43.0336 80.6956 43.8435 80.4989 44.2225 79.868C44.6015 79.237 44.4047 78.4265 43.7843 78.0523L35.8194 73.2145C35.199 72.8402 34.389 73.0369 34.0101 73.6679C33.6334 74.2942 33.8279 75.1093 34.4483 75.4836Z" fill="#8F44E1"/>
<path d="M26.4905 88.6301L34.4554 93.4678C35.0758 93.8421 35.8858 93.6454 36.2647 93.0145C36.6414 92.3881 36.4469 91.573 35.8265 91.1988L27.8616 86.361C27.2412 85.9867 26.4313 86.1834 26.0523 86.8143C25.6733 87.4453 25.8701 88.2558 26.4905 88.6301Z" fill="#8F44E1"/>
<path d="M66.2543 26.8172C68.3626 23.339 72.8778 22.2102 76.3297 24.3027C79.7747 26.3976 80.8656 30.9289 78.7551 34.4117C76.6445 37.8945 72.1316 39.0187 68.6842 36.9285C65.2369 34.8382 64.1483 30.3023 66.2543 26.8172ZM68.5018 28.1796C67.1491 30.412 67.8488 33.3176 70.0599 34.6616C72.2664 36.0035 75.1617 35.2794 76.5144 33.047C77.8671 30.8146 77.1674 27.909 74.9609 26.5672C72.7543 25.2254 69.8545 25.9472 68.5018 28.1796Z" fill="#8F44E1"/>
<path d="M65.1496 13.0188C66.5046 10.7818 69.4045 10.06 71.6156 11.4041C73.8267 12.7482 74.5241 15.6584 73.1714 17.8908C71.8187 20.1232 68.9188 20.8449 66.7123 19.5031C64.5012 18.159 63.8038 15.2488 65.1542 13.021L65.1496 13.0188ZM67.3971 14.3811C66.8023 15.3631 67.1108 16.643 68.0834 17.234C69.056 17.8251 70.3314 17.5058 70.9262 16.5239C71.521 15.5419 71.2148 14.2574 70.2422 13.6663C69.2696 13.0753 67.9942 13.3945 67.3994 14.3765L67.3971 14.3811Z" fill="#8F44E1"/>
<path d="M60.792 40.8993C62.1447 38.6669 65.0446 37.9451 67.258 39.2846C69.4691 40.6287 70.1665 43.5389 68.8138 45.7713C67.4611 48.0037 64.5612 48.7255 62.3547 47.3836C60.1436 46.0396 59.4416 43.1271 60.7943 40.8947L60.792 40.8993ZM63.035 42.2593C62.4401 43.2413 62.7486 44.5212 63.7258 45.1146C64.6984 45.7056 65.9738 45.3864 66.5686 44.4044C67.1634 43.4224 66.8572 42.1379 65.8846 41.5469C64.9075 40.9536 63.6321 41.2728 63.0373 42.2547L63.035 42.2593Z" fill="#8F44E1"/>
<path d="M43.755 25.7716C46.7498 20.8204 53.1746 19.2196 58.0786 22.1953C62.9826 25.171 64.5295 31.6188 61.5346 36.5699C58.5398 41.5211 52.115 43.1219 47.211 40.1462C42.3093 37.1659 40.7556 30.7205 43.755 25.7716ZM45.9956 27.1362C43.7541 30.8347 44.9143 35.6591 48.5798 37.8817C52.243 40.1089 57.0457 38.9061 59.2872 35.2076C61.5287 31.5091 60.3684 26.6848 56.703 24.4621C53.0398 22.2349 48.2325 23.4355 45.9956 27.1362Z" fill="#8F44E1"/>
</g>
<defs>
<clipPath id="clip0_21_1320">
<rect width="43.4716" height="109.105" fill="white" transform="translate(48.9049) rotate(26.6306)"/>
</clipPath>
</defs>
</svg>
