<?xml version="1.0" encoding="UTF-8"?>
<svg id="Layer_2" data-name="Layer 2" xmlns="http://www.w3.org/2000/svg" xmlns:xlink="http://www.w3.org/1999/xlink" viewBox="0 0 773.52 1055.1">
  <defs>
    <style>
      .cls-1 {
        clip-path: url(#clippath);
      }

      .cls-2 {
        fill: none;
      }

      .cls-2, .cls-3, .cls-4, .cls-5, .cls-6, .cls-7, .cls-8 {
        stroke-width: 0px;
      }

      .cls-3 {
        fill: #f9dd72;
      }

      .cls-4 {
        fill: #95d0e3;
      }

      .cls-5 {
        fill: #42d4f3;
      }

      .cls-6 {
        fill: #cf7d9c;
      }

      .cls-7 {
        fill: #925085;
      }

      .cls-8 {
        fill: #c34370;
      }
    </style>
    <clipPath id="clippath">
      <path class="cls-2" d="M598.38,270.19c64.35,44.78,114.51,109.64,120.46,190.5,7.47,101.56-53.28,214.14-142.67,263.11-53.1,29.09-115.32,35.84-175.78,39.09-49.01,2.63-100.57,2.78-143.98-20.13-36.39-19.21-63.09-52.71-84.81-87.66-25.5-41.03-46.03-86.79-47.84-135.07-2.5-66.51,30.58-129.24,69.65-183.12,43.26-59.66,99.74-115.82,171.93-130.6,53.04-10.86,108.35,2.15,158.3,23.04,25.83,10.8,51.23,24.48,74.74,40.84Z"/>
    </clipPath>
  </defs>
  <g id="Layer_1-2" data-name="Layer 1">
    <path class="cls-6" d="M585.1,516.07c0,95.34-63.41,139.07-141.63,139.07s-141.65-43.73-141.65-139.07,63.43-139.07,141.65-139.07,141.63,43.73,141.63,139.07"/>
    <g class="cls-1">
      <image width="1173" height="1600" transform="scale(.66)" xlink:href="../../../../../../From Client/Franchise Brochure/(7).jpg"/>
    </g>
    <path class="cls-3" d="M601.98,759.01c-31.28,0-51.49-19.91-51.49-50.73s20.22-50.74,51.49-50.74,51.49,19.92,51.49,50.74-20.22,50.73-51.49,50.73ZM601.98,677.17c-11.89,0-31.86,4.04-31.86,31.1s19.97,31.1,31.86,31.1,31.86-4.04,31.86-31.1-19.97-31.1-31.86-31.1Z"/>
    <path class="cls-8" d="M682.37,390.38c-4.26-4.93-6.96-11.18-5.77-17.82,1.49-8.33,8.7-16.14,16.9-18.24,4.87-1.25,10.02-.51,14.96.47,4,.8,8.15,1.85,11.18,4.59,2.53,2.3,3.99,5.54,5.02,8.8,1.21,3.83,1.92,7.93,1.07,11.86-1.17,5.41-5.12,9.77-9.38,13.31-4.71,3.91-10.41,7.27-16.53,6.97-4.49-.22-8.68-2.4-12.27-5.11-1.86-1.4-3.62-3.03-5.18-4.83Z"/>
    <path class="cls-5" d="M295.46,738.98c-3.83,24.28-15.26,47.3-37.26,60.04-27.63,16-67.7,14.27-93.74-4.25-15.47-11-25.89-27.63-35.08-44.24-7.45-13.47-14.54-27.99-14.02-43.37.44-12.89,6.24-25.01,13.13-35.92,8.09-12.81,18.19-24.86,31.56-31.98,18.42-9.8,40.64-9.05,61.19-5.4,22.75,4.04,46.32,12.29,60.37,30.64,10.32,13.48,14.22,30.86,15.16,47.81.49,8.77.1,17.8-1.3,26.67Z"/>
    <path class="cls-4" d="M663.71,664.1c-2.85-3.3-4.66-7.49-3.87-11.93,1-5.58,5.82-10.81,11.32-12.21,3.26-.84,6.71-.34,10.01.32,2.68.53,5.46,1.24,7.48,3.07,1.7,1.54,2.67,3.71,3.36,5.89.81,2.56,1.28,5.31.72,7.94-.78,3.62-3.43,6.54-6.28,8.91-3.15,2.62-6.97,4.87-11.07,4.67-3.01-.15-5.81-1.61-8.21-3.42-1.24-.94-2.42-2.03-3.47-3.23Z"/>
    <path class="cls-3" d="M54.08,567.51l6.78-21.27c.19-.59,1.03-.59,1.22,0l6.78,21.27c.64,2.01,2.21,3.58,4.22,4.22l21.27,6.78c.59.19.59,1.03,0,1.22l-21.27,6.78c-2.01.64-3.58,2.21-4.22,4.22l-6.78,21.27c-.19.59-1.03.59-1.22,0l-6.78-21.27c-.64-2.01-2.21-3.58-4.22-4.22l-21.27-6.78c-.59-.19-.59-1.03,0-1.22l21.27-6.78c2.01-.64,3.58-2.21,4.22-4.22Z"/>
    <path class="cls-7" d="M308.43,516.37l5.08-15.96c.14-.44.77-.44.91,0l5.08,15.96c.48,1.51,1.66,2.69,3.17,3.17l15.96,5.08c.44.14.44.77,0,.91l-15.96,5.08c-1.51.48-2.69,1.66-3.17,3.17l-5.08,15.96c-.14.44-.77.44-.91,0l-5.08-15.96c-.48-1.51-1.66-2.69-3.17-3.17l-15.96-5.08c-.44-.14-.44-.77,0-.91l15.96-5.08c1.51-.48,2.69-1.66,3.17-3.17Z"/>
  </g>
</svg>