<?xml version="1.0" encoding="UTF-8"?>
<svg id="Layer_2" data-name="Layer 2" xmlns="http://www.w3.org/2000/svg" viewBox="0 0 380 300">
  <defs>
    <style>
      .cls-1 {
        fill: #9044E2;
        stroke-width: 0px;
      }
    </style>
  </defs>
  <g id="Layer_1-2" data-name="Layer 1">
    <path class="cls-1" d="m 0 0 c 21.251 20.944 37.999 24.717 67.223 30.741 c 19.147 3.948 22.713 23.993 57.497 27.786 c 25.681 2.801 31.177 -12.769 59.696 -2.713 c 12.408 4.375 24.468 -4.273 36.394 -6.084 c 11.383 -1.729 22.662 9.91 29.133 18.04 c 20.351 25.571 20.066 55.127 20.907 86.264 c 0.348 12.892 2.573 26.125 -2.109 38.142 c -3.639 9.341 -6.41 17.617 -9.332 27.206 c -2.923 9.589 -0.611 21.78 7.955 26.986 c 11.955 7.267 24.227 -5.035 27.219 -18.702 c 2.993 -13.667 -6.682 -27.722 -7.601 -41.682 c -1.811 -27.515 11.548 -46.773 10.243 -74.316 c -0.504 -10.635 -2.222 -28.758 -2.18 -39.405 c 0.043 -10.648 3.28 -22.091 11.844 -28.418 c 5.227 -3.862 11.765 -5.356 17.93 -7.411 c 14.275 -4.757 49.848 -34.648 60.323 -45.45 h -14.843 L -0 -6.282 Z"/>
  </g>
</svg>