<?xml version="1.0" encoding="UTF-8"?>
<svg id="Layer_2" data-name="Layer 2" xmlns="http://www.w3.org/2000/svg" viewBox="0 0 307.82 441.83">
  <defs>
    <style>
      .cls-1 {
        fill: #42d4f3;
        opacity: .71;
      }

      .cls-1, .cls-2, .cls-3, .cls-4 {
        stroke-width: 0px;
      }

      .cls-2 {
        fill: #f9dd72;
      }

      .cls-3 {
        fill: #4fe16d;
      }

      .cls-4 {
        fill: #c34370;
      }
    </style>
  </defs>
  <g id="Layer_1-2" data-name="Layer 1">
    <path class="cls-1" d="M205.62,37.96c0-16.71,11.12-24.38,24.83-24.38s24.83,7.67,24.83,24.38-11.12,24.38-24.83,24.38-24.83-7.67-24.83-24.38"/>
    <path class="cls-4" d="M246.77,310.36c0-18.27,11.98-30.07,30.52-30.07s30.53,11.8,30.53,30.07-11.98,30.07-30.53,30.07-30.52-11.81-30.52-30.07ZM296.43,310.36c0-16.25-11.99-18.68-19.14-18.68s-19.13,2.43-19.13,18.68,11.99,18.68,19.13,18.68,19.14-2.43,19.14-18.68Z"/>
    <path class="cls-2" d="M127.16,393.68c-6.79-.05-14.15-1.43-22.07-4.19-23.66-8.22-41.67-24.83-48.31-44.53-3.52-1.15-7.09-2.66-10.64-4.51C23.5,328.64,6.28,306.79.11,282.01c-.49-1.97.7-3.97,2.67-4.46,2-.49,3.98.71,4.46,2.68,5.68,22.77,21.49,42.85,42.31,53.71,1.71.9,3.44,1.7,5.14,2.41-1.78-11.81.97-23.22,7.78-31.03,5.09-5.87,12.99-9.4,21.12-9.45,6.99-.07,13.2,2.52,17.42,7.25,4.62,5.17,6.35,12.19,4.88,19.78-1.79,9.15-7.84,17.27-15.82,21.2-7.11,3.49-15.57,4.48-24.55,3.02,7.02,15.58,22.33,28.6,41.99,35.43,5.57,1.94,10.82,3.13,15.69,3.58-3.85-8.55-5.2-16.52-4.01-23.76,1.74-10.72,11.23-22.02,23.52-21.59,5.7.19,11.02,3,15,7.88,4.46,5.47,6.45,12.67,5.34,19.27-1.92,11.28-11.67,21.07-24.27,24.38-1.1.29-2.23.53-3.37.73,14.78,22.68,40.03,38.45,66.94,41.47,1.97.27,3.47,2.05,3.24,4.07-.23,2.02-2.05,3.47-4.07,3.24-5.61-.64-11.15-1.78-16.56-3.4-23.86-7.12-45.09-23.31-57.8-44.73ZM142.45,348.13c-8.02-.29-14.75,7.74-16,15.41-1.07,6.61.59,14.2,4.94,22.6,1.92-.18,3.76-.51,5.54-.97,9.84-2.58,17.43-10.01,18.87-18.49.76-4.46-.7-9.59-3.79-13.38-1.91-2.35-4.24-3.96-6.74-4.71-.92-.28-1.86-.43-2.82-.47ZM83.64,303.22c-5.95.04-11.94,2.69-15.62,6.92-7.12,8.19-7.5,19.78-5.29,28.89,8.96,2.25,17.36,1.77,24.09-1.55,5.86-2.88,10.51-9.16,11.84-15.99,1.03-5.27-.09-10.05-3.14-13.47-1.71-1.91-3.96-3.29-6.56-4.07-1.65-.49-3.44-.74-5.33-.73Z"/>
    <path class="cls-3" d="M93.24,18.96c0-2.04.38-4.24,1.14-6.65.67-2.12,1.85-5.21,4.41-7.52,2.64-2.39,6-3.31,9.25-3.96,3.72-.74,7.7-1.29,11.65-.27,6.88,1.76,12.79,8.14,14.05,15.15.91,5.1-.76,10.43-4.71,15-1.18,1.37-2.54,2.64-4.04,3.77-3.45,2.6-6.9,4-10.27,4.17-4.43.22-8.88-1.59-13.62-5.52-4.23-3.51-6.69-7.1-7.53-10.98-.22-1.02-.33-2.08-.33-3.19ZM126.62,18.48c0-.48-.04-.98-.13-1.48-.75-4.18-4.53-8.27-8.63-9.32-2.39-.61-5.08-.3-8.39.36-2.06.41-4.37.95-5.75,2.19-.93.85-1.67,2.21-2.33,4.28-.77,2.46-.98,4.44-.63,6.07.48,2.2,2.13,4.45,5.04,6.87,3.21,2.66,6.08,3.95,8.55,3.83,1.86-.09,3.94-1,6.19-2.69,1.08-.82,2.06-1.73,2.9-2.7h0c1.51-1.75,3.17-4.36,3.17-7.41Z"/>
  </g>
</svg>