<svg xmlns:ns="&amp;ns_sfw;" xmlns:dc="http://purl.org/dc/elements/1.1/" xmlns:cc="http://creativecommons.org/ns#" xmlns:rdf="http://www.w3.org/1999/02/22-rdf-syntax-ns#" xmlns:svg="http://www.w3.org/2000/svg" xmlns="http://www.w3.org/2000/svg" xmlns:sodipodi="http://sodipodi.sourceforge.net/DTD/sodipodi-0.dtd" xmlns:inkscape="http://www.inkscape.org/namespaces/inkscape" id="Capa_1" x="0px" y="0px" viewBox="0 0 512 512" style="enable-background:new 0 0 512 512;" xml:space="preserve" sodipodi:docname="stars.svg">
  <defs id="defs13"></defs>
  <metadata></metadata>
  <g id="g8">
    <g id="g6">
      <path d="M13.6,311.6c3.5,15.1,18.5,24.6,33.7,21.1c106.7-24.5,213.4,42.4,237.8,149.1c3.5,15.1,18.5,24.6,33.7,21.1    c15.1-3.5,24.6-18.5,21.1-33.7C315.4,362.5,381.5,256,487.1,231.8c15.1-3.5,24.6-18.5,21.1-33.7c-3.5-15.1-18.5-24.6-33.7-21.1    C368.9,201.3,263.2,135,239,29.3c-3.5-15.1-18.5-24.6-33.7-21.1c-15.1,3.5-24.6,18.5-21.1,33.7c24.2,105.7-42.8,211.5-149.5,236    C19.6,281.4,10.2,296.4,13.6,311.6z M237.3,148.2c34,40.2,79.9,69,130.9,82.1c-40.2,34.2-69,80.5-82,132    c-34.2-40.2-80.9-69.5-132-82.8C194.9,245.4,224.1,199.4,237.3,148.2z" id="path4"></path>
    </g>
  </g>
</svg>