<svg width="87" height="92" viewBox="0 0 87 92" fill="none" xmlns="http://www.w3.org/2000/svg">
<path d="M43.7746 77.0515C39.5874 73.7835 35.3973 70.5194 31.2298 67.2266C33.5676 63.1047 35.4413 58.7427 36.8061 54.202C37.0659 53.3376 36.0331 52.5195 35.2572 53.012C30.605 55.9639 25.9806 58.9565 21.3581 61.9538C18.3903 58.1939 15.1436 54.6773 11.6558 51.3911C10.8852 50.6648 9.89588 51.4198 10.0212 52.3421C10.4197 55.2763 10.8182 58.2106 11.2167 61.1448C11.5247 63.413 11.7792 65.7315 12.5293 67.8926C7.96709 68.6303 3.59 71.9882 0.286375 75.0391C-0.353207 75.63 0.168217 76.6575 0.969009 76.6862C5.75558 76.8555 10.5039 76.5796 15.2369 75.9078C16.4099 81.041 17.9115 86.057 19.769 90.9902C20.2029 92.143 21.5351 92.2726 22.2522 91.3144C25.6505 86.7722 28.3351 81.882 30.0104 76.472C34.1985 77.3527 38.3857 78.2373 42.5762 79.1084C43.6497 79.3317 44.8303 77.8758 43.7746 77.0515Z" fill="#FFC909"/>
<path d="M46.0033 25.6151C44.7911 22.3801 43.5765 19.1461 42.3839 15.9039C45.0819 14.4112 47.6049 12.6274 49.9053 10.5719C50.3435 10.1808 50.0484 9.37611 49.4504 9.38568C45.866 9.44353 42.283 9.53294 38.6995 9.62617C38.3312 6.53224 37.7255 3.47894 36.908 0.471068C36.7272 -0.193523 35.9221 -0.110808 35.6781 0.443815C34.9017 2.20713 34.1253 3.97045 33.3489 5.73329C32.7486 7.09642 32.1018 8.46911 31.7832 9.92261C29.0015 8.78228 25.4314 9.15857 22.5612 9.72945C22.0058 9.83989 21.9455 10.5872 22.3799 10.875C24.9779 12.5944 27.7061 14.0541 30.56 15.2891C29.466 18.535 28.5935 21.8279 27.9467 25.1958C27.7955 25.9828 28.4906 26.5073 29.2139 26.219C32.6433 24.8534 35.7953 23.0519 38.5641 20.6192C40.5881 22.5302 42.6107 24.4427 44.639 26.349C45.1589 26.8377 46.309 26.4308 46.0033 25.6151Z" fill="#FFC909"/>
<path d="M85.7975 51.2728C82.5958 49.9713 79.3936 48.6727 76.2 47.3522C76.93 44.3572 77.3275 41.2943 77.3743 38.2109C77.3834 37.6238 76.5913 37.2953 76.1933 37.7414C73.8067 40.4151 71.4445 43.1093 69.0847 45.8059C66.5589 43.98 63.9015 42.3558 61.1346 40.9185C60.5233 40.6011 60.0382 41.2489 60.2807 41.804C61.0519 43.5697 61.823 45.3354 62.5941 47.1007C63.1902 48.4657 63.7618 49.8709 64.6153 51.0906C61.8914 52.3624 59.7488 55.2412 58.2237 57.7375C57.9286 58.2208 58.4376 58.7716 58.9437 58.6469C61.9694 57.9029 64.8922 56.8864 67.7347 55.6256C69.3813 58.6296 71.2129 61.5022 73.2527 64.26C73.7292 64.9045 74.5859 64.7491 74.8643 64.0219C76.1837 60.5756 76.994 57.0385 77.0811 53.355C79.859 53.1623 82.6364 52.972 85.4138 52.7731C86.1247 52.722 86.605 51.6012 85.7975 51.2728Z" fill="#FFC909"/>
</svg>
