<?xml version="1.0" encoding="UTF-8"?>
<svg id="Layer_2" data-name="Layer 2" xmlns="http://www.w3.org/2000/svg" viewBox="0 0 181.34 144.98">
  <defs>
    <style>
      .cls-1 {
        fill: #f9dd72;
        stroke-width: 0px;
      }
    </style>
  </defs>
  <g id="Layer_1-2" data-name="Layer 1">
    <path class="cls-1" d="M112.14,102.52c-5.99-.04-12.48-1.26-19.46-3.69-20.86-7.25-36.74-21.9-42.6-39.27-3.11-1.02-6.26-2.34-9.39-3.98C20.72,45.16,5.54,25.89.1,4.03-.34,2.29.72.53,2.45.1c1.76-.43,3.51.63,3.93,2.36,5.01,20.08,18.96,37.79,37.31,47.36,1.51.79,3.03,1.5,4.53,2.13-1.57-10.42.86-20.48,6.86-27.37,4.49-5.18,11.46-8.29,18.63-8.33,6.16-.06,11.64,2.22,15.36,6.4,4.07,4.56,5.6,10.75,4.3,17.44-1.58,8.07-6.92,15.23-13.95,18.69-6.27,3.08-13.73,3.95-21.65,2.66,6.19,13.74,19.69,25.22,37.03,31.25,4.91,1.71,9.54,2.76,13.84,3.15-3.39-7.54-4.58-14.57-3.54-20.96,1.54-9.45,9.9-19.42,20.74-19.04,5.02.17,9.72,2.64,13.23,6.95,3.94,4.83,5.69,11.18,4.71,16.99-1.69,9.95-10.29,18.58-21.4,21.5-.97.25-1.96.47-2.97.64,13.03,20,35.31,33.91,59.03,36.57,1.73.23,3.06,1.81,2.86,3.59-.2,1.78-1.81,3.06-3.59,2.86-4.94-.56-9.83-1.57-14.6-3-21.04-6.28-39.76-20.56-50.98-39.44ZM125.62,62.34c-7.07-.25-13.01,6.83-14.11,13.59-.94,5.83.52,12.52,4.35,19.93,1.69-.16,3.32-.45,4.89-.86,8.68-2.27,15.37-8.82,16.64-16.3.67-3.93-.61-8.46-3.34-11.8-1.69-2.07-3.74-3.49-5.94-4.15-.82-.24-1.64-.38-2.49-.41ZM73.76,22.74c-5.24.03-10.53,2.37-13.77,6.11-6.28,7.22-6.61,17.44-4.66,25.48,7.9,1.98,15.31,1.56,21.24-1.37,5.17-2.54,9.27-8.08,10.44-14.11.9-4.65-.08-8.87-2.77-11.88-1.51-1.69-3.49-2.9-5.78-3.59-1.46-.43-3.04-.66-4.7-.64Z"/>
  </g>
</svg>