<?xml version="1.0" encoding="UTF-8"?>
<svg id="Layer_2" data-name="Layer 2" xmlns="http://www.w3.org/2000/svg" viewBox="0 0 1915.48 180">
  <defs>
    <style>
      .cls-1 {
        fill: #FFFFFF;
        stroke-width: 0px;
      }
    </style>
  </defs>
  <g id="Layer_1-2" data-name="Layer 1">
    <path class="cls-1" d="M 0.00,0.00
           C 0.00,0.00 1342.00,0.00 1342.00,0.00
             1342.00,0.00 1733.00,0.00 1733.00,0.00
             1733.00,0.00 1847.00,0.00 1847.00,0.00
             1847.00,0.00 1880.00,0.00 1880.00,0.00
             1880.00,0.00 1896.00,1.00 1896.00,1.00
             1875.97,1.00 1855.90,3.71 1836.00,5.84
             1795.07,10.21 1754.36,17.53 1714.00,25.60
             1591.97,50.01 1472.53,85.88 1351.00,112.58
             1292.25,125.48 1232.85,135.37 1173.00,141.17
             1173.00,141.17 1103.00,146.00 1103.00,146.00
             1103.00,146.00 1090.00,147.00 1090.00,147.00
             1090.00,147.00 1073.00,147.00 1073.00,147.00
             1073.00,147.00 1056.00,148.00 1056.00,148.00
             1056.00,148.00 1006.00,148.00 1006.00,148.00
             1006.00,148.00 991.00,147.00 991.00,147.00
             991.00,147.00 971.00,147.00 971.00,147.00
             971.00,147.00 954.00,146.00 954.00,146.00
             954.00,146.00 911.00,144.00 911.00,144.00
             911.00,144.00 887.00,142.09 887.00,142.09
             887.00,142.09 808.00,135.17 808.00,135.17
             733.75,127.74 659.84,117.15 586.00,106.27
             468.85,89.01 351.81,70.61 234.00,58.83
             234.00,58.83 165.00,52.91 165.00,52.91
             165.00,52.91 141.00,51.00 141.00,51.00
             141.00,51.00 120.00,50.00 120.00,50.00
             120.00,50.00 106.00,48.96 106.00,48.96
             106.00,48.96 92.00,48.96 92.00,48.96
             92.00,48.96 80.00,48.00 80.00,48.00
             80.00,48.00 58.00,48.00 58.00,48.00
             58.00,48.00 43.00,47.00 43.00,47.00
             43.00,47.00 0.00,47.00 0.00,47.00
             0.00,47.00 0.00,0.00 0.00,0.00 Z"/>
  </g>
</svg>