<?xml version="1.0" encoding="UTF-8"?>
<svg id="Layer_2" data-name="Layer 2" xmlns="http://www.w3.org/2000/svg" viewBox="0 0 62.35 91.97">
  <defs>
    <style>
      .cls-1 {
        fill: #9044e2;
        stroke-width: 0px;
      }
    </style>
  </defs>
  <g id="Layer_1-2" data-name="Layer 1">
    <path class="cls-1" d="M37.9.28c-.69.24-1.34.67-1.85,1.2-.39.4-.73.85-1.15,1.22-.19.13-.38.25-.59.35-.03.01-.06.02-.08.03-.09-.07-.19-.12-.3-.13-1.2-.2-2.43-.53-3.66-.53-.25,0-.49.01-.74.04-.25.03-.49.06-.74.1-.41.07-.8.21-1.19.39-.29.13-.58.27-.86.42-.1-.03-.2-.06-.3-.09-.39-.19-.77-.41-1.16-.61-.6-.32-1.26-.56-1.92-.72-.39-.09-.79-.14-1.19-.17-.35-.04-.71-.04-1.07-.01-.86.07-1.67.33-2.45.71-.69.34-1.33.86-1.81,1.46-.49.61-.85,1.31-1.11,2.05-.11.32-.18.67-.27,1-.06.23-.14.45-.23.67-.07.14-.15.28-.24.4-.07.08-.15.15-.23.23-.07.05-.15.09-.23.14-.14.05-.29.08-.44.11-.41.03-.81,0-1.22,0-.91-.02-1.83.03-2.69.33-1.72.61-3.04,1.94-3.97,3.48-.44.72-.76,1.53-.96,2.34-.11.42-.15.85-.18,1.28-.02.47.05.94.12,1.4.18,1.06.71,2.01.92,3.06.02.25.03.5.01.75-.03.13-.06.25-.1.37-.04.07-.08.13-.12.2-.15.16-.31.31-.47.44-.27.2-.54.38-.8.56-.72.49-1.39,1.05-1.99,1.68-1.53,1.63-2.35,3.8-2.63,6-.06.5-.06.99.01,1.49.05.31.12.59.25.87.12.27.28.49.46.72.57.73,1.39,1.18,2.2,1.6.8.41,1.63.8,2.37,1.32.15.13.29.27.42.43.09.13.16.26.23.39.07.2.12.41.16.62.02.23.01.45-.01.67-.09.46-.24.89-.41,1.32-.32.72-.65,1.44-.94,2.16-.18.45-.37.9-.53,1.36-.41,1.15-.67,2.34-.72,3.57-.02.59.05,1.19.17,1.77.06.32.2.61.32.9.14.34.37.62.6.91.32.4.77.71,1.23.91.27.12.54.22.82.31.35.1.72.14,1.08.19.55.07,1.11.07,1.66.09.55.02,1.1.04,1.65.09.56.09,1.09.25,1.61.46.26.11.51.23.74.39.05.05.09.09.13.13.06.09.11.18.15.27.06.17.11.34.14.53.08.8-.04,1.61-.12,2.41-.05.45-.08.89-.12,1.33-.03.45-.04.9.02,1.35.08.62.21,1.24.54,1.79.34.56.85.99,1.36,1.38.51.39,1.14.62,1.75.79.3.08.61.12.92.15.33.04.65.07.99.08.58.01,1.15-.05,1.72-.13.42-.06.85-.11,1.27-.18.86-.14,1.73-.28,2.59-.41.41-.05.83-.08,1.25-.04.11.02.22.05.32.09.08.04.15.08.22.13.11.1.21.2.31.31.13.19.25.38.34.59.08.23.15.46.19.7.02.26.02.52,0,.79-.1.6-.29,1.18-.53,1.74.03-.07.06-.14.09-.21-.26.61-.53,1.21-.76,1.83-.1.27-.2.54-.29.81-.28.77-.4,1.6-.49,2.41-.08.74-.04,1.47.16,2.19.21.79.65,1.49,1.19,2.09.28.31.62.56.95.82.22.18.44.34.65.53.25.22.48.47.69.73.28.39.53.79.73,1.22.16.42.27.86.34,1.31.06.6,0,1.18-.06,1.76-.08.46-.16.92-.26,1.37-.09.45-.2.9-.27,1.35-.09.58-.16,1.15-.21,1.73-.06.66-.09,1.33,0,1.99.05.37.12.71.26,1.05.12.3.26.58.43.85.16.26.36.52.57.74.27.28.61.45.97.57.3.1.66.09.96.03.31-.06.59-.2.83-.4.55-.44.87-1.09,1.09-1.74.21-.63.26-1.33.34-1.99.05-.47.05-.95.04-1.42-.02-.78-.09-1.56-.19-2.34-.11-.85-.27-1.7-.4-2.55.01.08.02.17.03.25-.02-.13-.04-.27-.05-.41-.03-.26-.03-.52,0-.78.05-.29.12-.58.23-.85.39-.82.91-1.56,1.36-2.34.2-.34.39-.69.56-1.04.16-.34.32-.69.47-1.04.22-.54.31-1.09.38-1.67.06-.48.06-.98,0-1.46-.04-.3-.06-.61-.12-.91-.08-.45-.17-.9-.26-1.35-.08-.37-.17-.73-.24-1.11-.08-.4-.15-.81-.21-1.21-.06-.55-.1-1.09-.05-1.65.06-.35.16-.69.29-1.02.18-.39.39-.75.63-1.1.25-.31.52-.58.81-.83.3-.22.61-.4.95-.56.5-.19,1.02-.3,1.54-.39.53-.06,1.07-.12,1.6-.14.81-.03,1.63-.03,2.43-.15.79-.12,1.53-.37,2.22-.77.71-.41,1.25-1.09,1.68-1.76.42-.66.72-1.42.9-2.17.2-.82.16-1.66.26-2.49.06-.35.16-.69.29-1.03.07-.14.15-.28.24-.41.07-.08.14-.14.22-.21.24-.16.51-.29.78-.41.35-.14.71-.28,1.07-.42.44-.17.87-.36,1.3-.54,1.01-.43,1.99-1.07,2.74-1.87.53-.56.93-1.23,1.33-1.88.21-.33.4-.66.6-1,.31-.52.56-1.06.79-1.62.23-.55.39-1.14.33-1.74-.08-.86-.55-1.58-.98-2.3-.29-.48-.57-.95-.8-1.46-.17-.42-.29-.84-.38-1.28-.03-.34-.04-.68-.01-1.02.06-.32.16-.63.28-.93.31-.66.71-1.26,1.15-1.84.48-.61.99-1.21,1.49-1.81.54-.67,1.05-1.38,1.42-2.16.23-.48.41-.99.55-1.52.14-.52.21-1.06.27-1.59.12-.99.09-2.03-.18-3-.27-.96-.85-1.81-1.53-2.53-.33-.35-.71-.66-1.12-.92-.43-.28-.93-.47-1.42-.61-.93-.26-1.88-.37-2.79-.7-.19-.09-.37-.2-.55-.32-.1-.08-.19-.18-.27-.27-.15-.23-.29-.47-.41-.72-.06-.17-.11-.34-.14-.52-.04-.47,0-.93.05-1.4.14-.89.35-1.78.46-2.68.04-.3.07-.6.07-.9,0-.42-.06-.85-.12-1.27-.12-.79-.38-1.59-.74-2.3-.16-.32-.4-.6-.61-.87-.26-.32-.58-.59-.91-.83-.65-.49-1.43-.83-2.24-.98-.66-.12-1.32-.1-1.99-.01-.44.06-.87.12-1.32.09-.25-.05-.49-.12-.73-.21-.18-.08-.34-.18-.5-.29-.18-.15-.34-.31-.49-.48-.21-.31-.38-.63-.53-.97-.25-.6-.47-1.21-.73-1.81-.31-.71-.72-1.38-1.3-1.9-.57-.51-1.32-.89-2.07-1.02-.22-.04-.46-.06-.69-.06-.54,0-1.09.11-1.6.28h0ZM38.88,1.97s-.05,0-.07,0c.02,0,.05,0,.07,0h0ZM24.87,4.72s.01,0,.02,0h-.02ZM17.21,25.62s0-.01,0-.01l.16-.36c.13-.29.26-.58.4-.87l.21-.43c.17-.35.34-.69.53-1.03l.22-.41c.17-.32.34-.63.54-.93l.07-.12c.39-.61.8-1.25,1.25-1.85,1-1.27,2.15-2.43,3.47-3.47.26-.19.51-.37.77-.55.62-.34,1.27-.63,1.83-.88.45-.16.88-.3,1.32-.41.44-.12.88-.19,1.31-.26.77-.09,1.54-.14,2.3-.14h.11c.78,0,1.56.08,2.29.15.52.08.94.16,1.32.27.48.12.94.29,1.33.44.49.22.96.47,1.44.77.39.24.77.49,1.18.79l.11.07s.08.07.13.1c.52.46.97.88,1.38,1.32.38.39.73.82,1.12,1.3.26.36.51.71.75,1.08.24.35.46.72.68,1.09l.29.48c.53.86,1.07,1.75,1.49,2.68.32.8.53,1.64.73,2.46l.11.43c.12.48.23.97.35,1.56.03.14.06.28.08.42v-.07s0-.05,0-.07c0,.02,0,.05,0,.07v-.07s.06.44.06.44l.05.38c.02.19.03.39.04.58v.1c.04.52.05,1.03.04,1.52-.01.54-.03,1.08-.06,1.62-.03.45-.07.9-.11,1.35,0-.02,0-.04,0-.06,0,.03,0,.05-.01.08,0,.06-.01.12-.02.18-.09.63-.2,1.35-.36,2.06-.18.8-.37,1.6-.56,2.4-.18.75-.38,1.55-.62,2.34-.21.71-.47,1.38-.78,2.19l-.35.78c-.28.63-.66,1.28-1.13,1.93-.67.84-1.48,1.52-2.33,2.2-.77.57-1.45.98-2.13,1.28-.65.26-1.3.43-2,.62-.29.08-.58.14-.87.19l-.19.04s.02,0,.03,0c-.01,0-.02,0-.03,0l-.12.02s.05,0,.08-.01h-.1s.02.01.02.01c-.63.08-1.28.16-1.92.18h-.29c-.19.02-.38.02-.56.02h-.23c-.55-.02-1.09-.04-1.63-.1-.63-.1-1.27-.26-1.96-.48-.21-.07-.41-.14-.62-.22l-.27-.1c-.43-.16-.85-.34-1.27-.52l-.15-.07c-.68-.31-1.38-.64-2.04-1.02-.41-.25-.81-.49-1.22-.76-.25-.16-.49-.34-.73-.51l-.23-.16c-.31-.25-.62-.49-.93-.75-.85-.75-1.5-1.42-2.04-2.1-.62-.83-1.08-1.72-1.58-2.72-.19-.38-.35-.77-.52-1.16l-.06-.15-.2-.59-.13-.39c-.08-.22-.13-.45-.19-.67l-.08-.33c-.06-.23-.11-.46-.14-.69l-.07-.36c-.05-.23-.07-.47-.1-.71v-.19s-.01,0-.01-.01v.05c-.1-1.09-.2-2.16-.17-3.34l.02-.8c0-.2.02-.39.04-.59l.02-.29c.04-.47.1-.93.16-1.43l.03-.15c.09-.48.17-.96.28-1.43l.04-.19c.06-.27.12-.54.2-.81.2-.75.45-1.5.74-2.23h0s.01-.02.01-.02h0ZM53.96,16.27s-.01.1-.02.15c0-.05.01-.1.02-.15h0ZM59.35,23.96s0,0,0,0c0,0,0,0,0,0h0ZM59.36,23.97s.02.02.03.04c0-.01-.02-.02-.03-.04h0ZM5.7,24.81l.08-.05c-.16.12-.31.25-.45.37.12-.11.25-.21.38-.32h0ZM5.65,24.84h.02s-.06.04-.1.06c.03-.02.05-.04.08-.06h0ZM51.12,52.47c-.06.03-.13.05-.19.08.06-.02.13-.05.19-.08h0ZM50.47,52.78s-.04.03-.06.05c.02-.01.04-.03.06-.05h0ZM38.17,62.86s-.06.05-.09.07c.03-.02.06-.05.09-.07h0ZM36.54,65s-.02.05-.04.08c.01-.02.02-.05.04-.08h0ZM33.21,88.11c0,.05-.01.1-.02.15,0-.05.01-.1.02-.15h0ZM32.87,89.6s-.01.04-.02.05c0-.02.01-.04.02-.05h0ZM32.29,90.28s-.04.02-.06.02c.02,0,.04-.02.06-.02h0ZM32.2,90.28s-.02,0-.02,0c0,0,.01,0,.02,0h0Z"/>
  </g>
</svg>