<?xml version="1.0" encoding="UTF-8"?>
<svg id="Layer_2" data-name="Layer 2" xmlns="http://www.w3.org/2000/svg" viewBox="0 0 51.71 76.18">
  <defs>
    <style>
      .cls-1 {
        fill: #9044e2;
        stroke-width: 0px;
      }
    </style>
  </defs>
  <g id="Layer_1-2" data-name="Layer 1">
    <g>
      <path class="cls-1" d="M22.63.32c-1.04.16-2.06.42-3.08.66-1.03.24-2.02.55-3,.93-.53.2-1.05.43-1.57.65-.51.22-1.02.44-1.52.68-.37.17-.72.36-1.06.56-.08.04-.17.08-.25.12-.62.34-1.24.67-1.84,1.04-1.27.8-2.46,1.75-3.47,2.87-.43.48-.84,1-1.23,1.52-.17.22-.33.45-.5.67-.42.5-.81,1.02-1.2,1.54-.62.84-1.09,1.75-1.5,2.7-.41.97-.67,2.01-.95,3.02-.28,1.01-.53,2.03-.74,3.06-.22,1.08-.38,2.16-.49,3.26C.12,24.62,0,25.63,0,26.64c0,1.1.08,2.21.31,3.29.22,1.04.44,2.09.79,3.1.38,1.07.89,2.08,1.38,3.09.43.89.87,1.78,1.28,2.68.87,1.92,1.78,3.81,2.63,5.73.42.96.89,1.9,1.34,2.85.44.94.9,1.86,1.35,2.79.47.94.91,1.89,1.37,2.83.49.99.99,1.96,1.49,2.95.47.93.89,1.87,1.36,2.79.47.93.97,1.85,1.45,2.78.5.96,1,1.91,1.5,2.87.48.9.94,1.81,1.41,2.72.5.95,1.04,1.87,1.62,2.78.55.86,1.07,1.74,1.62,2.59.56.86,1.18,1.67,1.83,2.47.31.38.63.77,1.07,1.01.24.14.49.19.77.21.12,0,.28,0,.38-.04.29-.07.48-.24.6-.51.06,0,.11,0,.17,0,.66-.05,1.2-.54,1.64-.99.29-.3.56-.64.82-.97.35-.43.68-.87,1.01-1.31.31-.41.63-.81.93-1.22,1.26-1.72,2.45-3.51,3.69-5.26,1.2-1.7,2.27-3.48,3.32-5.27,1.07-1.84,2.15-3.69,3.19-5.55,1.05-1.88,2.11-3.76,3.12-5.66.49-.91.95-1.85,1.42-2.77.47-.94.95-1.87,1.42-2.81.69-1.38,1.38-2.77,1.98-4.19h0s0,0,0,0c0,0,0-.02.01-.03,0,0,0,.02-.01.02,0,0,0-.02.02-.03,0,0,0,0,0,0,0,0,0,0,0,0,0,0,0,0,0,0,.02-.05.04-.1.06-.15-.02.05-.04.1-.06.15.42-1,.85-1.99,1.2-3.02.37-1.05.71-2.11,1-3.19.26-.95.46-1.92.62-2.89.19-1.13.35-2.26.44-3.4.09-1.06.1-2.13.12-3.2.02-1.01.03-2.02-.06-3.03-.11-1.16-.25-2.31-.47-3.46-.1-.53-.21-1.05-.37-1.57-.16-.51-.36-1.01-.56-1.5-.43-1.04-.87-2.07-1.41-3.05-.4-.72-.98-1.34-1.51-1.97-.37-.43-.73-.86-1.11-1.27-.68-.75-1.49-1.39-2.27-2.04-.84-.7-1.72-1.35-2.67-1.9-.49-.29-.98-.56-1.48-.82-.46-.24-.94-.45-1.41-.66-1-.45-2.01-.88-3.05-1.23-.48-.16-.98-.28-1.47-.41-.5-.13-1-.26-1.5-.35-1.07-.21-2.18-.27-3.26-.38-1.02-.1-2.04-.19-3.06-.24-.13,0-.26,0-.39,0-1.01,0-2.02.17-3.01.32h0ZM23.92,2.45s-.05,0-.08.01c.02,0,.05,0,.08-.01h0ZM14.84,4.94s-.04.02-.07.03c.02,0,.04-.02.07-.03h0ZM23.06,43.61c-.42-.07-.83-.14-1.25-.21-.42-.08-.83-.18-1.24-.29l-.21-.05c-.74-.18-1.54-.46-2.51-.86-.44-.22-.88-.45-1.31-.69-.43-.24-.83-.52-1.24-.79-.64-.49-1.31-1.02-1.89-1.62-.36-.37-.71-.73-1.05-1.13-.2-.23-.39-.47-.59-.71l-.2-.24c-.58-.78-1.18-1.62-1.69-2.57-.48-.9-.95-1.86-1.43-2.94-.22-.54-.39-1.06-.53-1.58-.04-.17-.08-.34-.11-.51l-.06-.27c-.07-.32-.11-.64-.16-.97l-.03-.19c-.07-.79-.15-1.64-.14-2.5,0-.82.08-1.64.16-2.44.28-1.75.56-3.55,1.22-5.22.38-.86.87-1.69,1.5-2.53.45-.56.95-1.07,1.37-1.5.54-.54,1.13-1.07,1.76-1.56.7-.52,1.44-1.01,2.15-1.48l.36-.24c.24-.16.5-.31.75-.45l.37-.21c.61-.36,1.19-.66,1.77-.92,1.48-.61,3.1-1.04,4.82-1.3.56-.07,1.12-.11,1.68-.14.45.03.91.08,1.35.13.91.14,1.8.35,2.7.58.74.18,1.5.45,2.48.85.64.29,1.27.61,1.88.92l.75.38.13.07c.41.2.81.41,1.21.62.43.23.84.52,1.18.77.58.49,1.07.94,1.5,1.37.47.47.88.98,1.22,1.41.36.5.71.99,1.04,1.5.33.5.59,1.03.86,1.63.3.75.58,1.53.84,2.38.12.38.24.75.32,1.13.09.42.17.83.24,1.25.13,1.25.19,2.47.17,3.73-.02,1.22-.14,2.45-.25,3.6-.13.78-.26,1.41-.41,1.99-.16.63-.39,1.23-.61,1.82,0-.01,0-.02.01-.03,0,.01-.01.02-.02.04-.02.06-.05.12-.07.18l-.05.11c-.21.51-.44,1.03-.71,1.52l-.15.27c-.11.21-.23.42-.36.62-.16.24-.32.48-.5.72-.03.04-.06.08-.09.13h.02s.03-.06.05-.08c-.02.02-.03.04-.05.06l.03-.03c-.41.53-.83,1.07-1.3,1.56l-.13.13c-.21.22-.42.44-.65.64-.23.2-.46.39-.7.57-.74.53-1.48,1-2.25,1.44-.66.37-1.39.73-2.24,1.11-.35.13-.71.25-1.07.35-.32.09-.64.17-.97.24l-.16.04c-.64.15-1.33.27-2.22.4-.59.05-1.37.11-2.16.11-.14,0-.28,0-.42,0-.71-.03-1.63-.06-2.57-.14,0,0,0,0,0,0,0,0,0,0,0,0-.05,0-.1,0-.15-.01h0ZM4.57,14.4s-.03.08-.05.11c.02-.04.03-.07.05-.11h0ZM49.61,28.48s0,0,0,.01c0,0,0,0,0-.01h0ZM49.6,28.56s0,0,0,.01c0,0,0,0,0-.01h0ZM49.55,28.89s0,.02,0,.02c0,0,0-.02,0-.02h0ZM49.55,28.91s0,0,0,.01c0,0,0,0,0-.01h0ZM25.96,73.82s0,0,0,0h0Z"/>
      <path class="cls-1" d="M25.83,19.92c-.57.08-1.13.16-1.67.34-.51.17-1.04.42-1.56.75-.47.29-.86.65-1.19,1.11-.17.23-.32.45-.44.68-.14.25-.24.54-.33.81l-.04.11c-.26.72-.47,1.53-.62,2.47-.07.43-.16,1-.17,1.55-.02.56.08,1.11.29,1.62.11.28.25.55.4.82.19.31.42.6.62.85.15.18.33.36.57.56.19.16.44.35.72.51.25.14.53.24.76.33.28.1.57.18.88.23.28.05.58.07.89.07.53,0,1.11-.07,1.76-.2.5-.1,1.01-.29,1.6-.6.5-.26.99-.63,1.4-1.07.41-.43.67-.99.87-1.48.2-.49.33-1.02.42-1.62.08-.55.09-1.11.03-1.71-.03-.32-.08-.64-.13-.96l-.02-.1c-.07-.47-.2-.91-.39-1.33-.1-.22-.22-.45-.39-.69l-.06-.13-.11-.27c-.07-.16-.14-.32-.22-.47-.14-.28-.33-.53-.54-.78-.18-.22-.4-.4-.6-.54-.19-.14-.42-.3-.67-.41-.24-.1-.51-.18-.81-.24-.19-.04-.36-.07-.52-.09-.08,0-.17-.01-.25-.02-.01,0-.02-.02-.04-.03,0,0-.01,0-.02,0-.08-.05-.16-.07-.25-.07-.05,0-.11,0-.16.02h0ZM25.31,23.59c.07-.05.15-.09.23-.13.07-.02.14-.05.2-.07-.15.05-.28.12-.42.2,0,0,0,0,0,0,0,0,0,0,0-.01h0ZM24.58,29.9c-.09-.05-.18-.11-.26-.17.09.02.18.05.28.07.3.06.6.07.89.04h0c-.06.01-.13.03-.19.07-.12,0-.24.01-.36.01s-.24,0-.36-.01h0ZM25.64,29.83s-.05,0-.07,0c.08,0,.17-.02.25-.04-.05.02-.11.03-.15.04,0,0-.02,0-.03,0h0Z"/>
      <path class="cls-1" d="M25.11,22.52c-.26.11-.5.33-.69.52-.25.24-.44.55-.61.85-.59,1.04-.96,2.22-1.06,3.42,0,.03-.02.06-.03.09-.05.14-.11.28-.16.42-.08.22-.1.46-.11.68,0,.1,0,.19.02.28.02.18.05.35.08.52.05.25.15.49.22.74.14.49.66.79,1.15.65.25-.07.44-.23.56-.43.07.04.15.08.22.11.27.11.52.16.81.18.34.01.67-.1.97-.24.25-.11.48-.33.67-.53.2-.2.35-.46.47-.71.28-.6.3-1.29.21-1.93.07-.39.11-.78.15-1.16.05-.59,0-1.2-.13-1.78-.14-.61-.45-1.17-.95-1.55-.25-.19-.56-.32-.88-.34-.03,0-.06,0-.09,0-.3,0-.55.1-.82.22h0ZM25.82,25.78s.04.05.06.07c.03.05.06.09.09.14,0,.1-.01.2-.03.3-.06.36-.16.71-.28,1.05-.09.2-.2.39-.33.57-.06.06-.11.13-.17.18,0-.01,0-.02,0-.04.13-.79.39-1.54.65-2.29h0Z"/>
    </g>
  </g>
</svg>