<?xml version="1.0" encoding="UTF-8"?>
<svg id="Layer_2" data-name="Layer 2" xmlns="http://www.w3.org/2000/svg" viewBox="0 0 49.15 84.61">
  <defs>
    <style>
      .cls-1 {
        fill: #9044e2;
        stroke-width: 0px;
      }
    </style>
  </defs>
  <g id="Layer_1-2" data-name="Layer 1">
    <path class="cls-1" d="M44.8.04c-.24.07-.4.23-.54.43-.16.22-.26.49-.35.73-.09.22-.17.45-.26.67-.17.46-.33.91-.51,1.37-.37.95-.75,1.9-1.12,2.86-.46,1.2-.92,2.39-1.41,3.58-.18.4-.35.81-.54,1.2-.27.58-.54,1.17-.84,1.73-.1-.2-.18-.4-.27-.6-.33-.85-.62-1.72-.87-2.6-.29-1.02-.59-2.05-.91-3.07-.32-1-.69-1.97-1.05-2.96-.12-.33-.28-.7-.61-.89-.33-.19-.93-.19-1.19.14-.08.1-.16.19-.21.31-.06.13-.12.26-.17.39-.04.1-.08.21-.13.32-.17.43-.32.86-.49,1.29-.24.65-.5,1.31-.74,1.96-.15.35-.3.69-.46,1.04-.15.34-.32.67-.48,1-.17.34-.34.67-.52,1-.31.57-.61,1.15-.98,1.68-.49-.67-.95-1.37-1.38-2.08-.55-.91-1.1-1.82-1.66-2.73-.49-.8-1.03-1.56-1.57-2.33-.32-.46-.64-.92-.96-1.39-.13-.19-.25-.38-.38-.57-.12-.19-.24-.37-.38-.54-.22-.28-.45-.6-.81-.7-.15-.04-.33-.08-.49-.02-.19.07-.36.14-.5.3-.17.18-.27.41-.38.63-.13.27-.26.55-.38.82-.28.61-.54,1.22-.79,1.84-.47,1.15-.92,2.3-1.39,3.45,0,.01-.01.03-.02.05h0s0,0,0,0c0,0,0,0,0,0h0s0,.01,0,.01,0,0,0,.01c0,0,0,0,0,0,0,0,0,0,0,0-.2.48-.4.96-.61,1.43-.17.38-.34.75-.51,1.13-.1.23-.22.45-.33.67-.1.2-.21.41-.33.6-.19-.36-.36-.74-.53-1.11.03.06.05.13.08.19-.4-.95-.77-1.91-1.14-2.87-.18-.47-.36-.93-.54-1.4-.07-.19-.16-.38-.24-.56-.11-.27-.22-.54-.34-.81-.35-.74-.68-1.49-1.16-2.16-.1-.14-.21-.27-.32-.4-.1-.13-.24-.22-.37-.32-.13-.1-.31-.12-.47-.14-.17-.02-.31.01-.47.09-.23.12-.38.27-.5.49-.07.13-.13.26-.19.39-.42.89-.75,1.85-1.06,2.79-.27.84-.54,1.68-.79,2.52-.11.36-.21.72-.31,1.07-.05.19-.1.38-.16.57-.11-.27-.22-.53-.33-.79-.41-.99-.83-1.97-1.25-2.94-.38-.88-.78-1.75-1.19-2.62-.19-.41-.39-.82-.61-1.22-.13-.24-.27-.49-.4-.74-.08-.14-.15-.28-.24-.41-.08-.13-.18-.24-.27-.35-.03-.04-.07-.06-.11-.09-.1-.19-.28-.35-.52-.41-.07-.02-.15-.03-.22-.03-.38,0-.76.25-.84.64-.58,2.63-1.16,5.26-1.71,7.9-.23,1.09-.42,2.18-.61,3.28-.08.47-.13.96-.2,1.44-.09.65-.1,1.32-.14,1.97-.07,1.13-.08,2.26-.1,3.39-.03,1.12,0,2.23.03,3.35.07,2.27.36,4.53.68,6.78.29,2.12.79,4.2,1.3,6.29.52,2.15,1,4.32,1.64,6.45.64,2.14,1.35,4.25,2.09,6.36.74,2.12,1.5,4.23,2.33,6.31.84,2.1,1.66,4.21,2.48,6.32.46,1.17.95,2.32,1.46,3.46.43.97.92,1.92,1.39,2.88.46.95.91,1.92,1.38,2.87.52,1.05,1.05,2.1,1.59,3.15.98,1.91,1.9,3.85,2.89,5.76.26.51.52,1.01.78,1.52.25.48.5.97.78,1.42.31.5.63.99,1,1.44.08.1.16.19.25.27.16.15.33.25.53.32.18.06.37.08.56.1.16.02.34-.04.49-.07.2-.04.41-.15.59-.23.23-.1.45-.22.66-.34,1.31-.74,2.34-1.81,3.34-2.9.74-.81,1.5-1.58,2.22-2.4.78-.87,1.47-1.81,2.16-2.75.63-.86,1.25-1.73,1.87-2.59.35-.48.69-.97,1.03-1.46.33-.5.64-1,.94-1.52.55-.93,1.01-1.92,1.46-2.91.44-.98.86-1.96,1.28-2.95.46-1.09.94-2.18,1.35-3.29.8-2.19,1.43-4.43,2.08-6.66.59-2.02,1.17-4.05,1.66-6.1.55-2.3,1.06-4.62,1.58-6.92.48-2.15.87-4.31,1.22-6.49.35-2.2.62-4.4.93-6.61.16-1.16.31-2.32.45-3.49.13-1.1.19-2.22.26-3.33.14-2.25.24-4.5.33-6.76.08-1.87.08-3.74,0-5.61-.04-.9-.16-1.79-.27-2.68-.1-.93-.18-1.89-.51-2.77-.07-.19-.17-.36-.32-.49-.17-.42-.36-.82-.59-1.2-.27-.43-.58-.83-.93-1.18-.18-.18-.35-.35-.54-.52-.18-.16-.4-.31-.64-.36-.08-.02-.15-.03-.22-.03-.09,0-.18.01-.27.04h0ZM45.72,1.26s-.03.06-.04.09c0,0,0,0,0,0,.01-.03.03-.06.04-.09h0ZM22.91,3.3s0,0,0,0c-.06.13-.12.27-.17.41.05-.14.11-.28.17-.41h0ZM4.05,3.84s0,0,0,0l-.02.07s.01-.05.01-.08h0ZM4.32,4.47s0,0,0,.01h0s0-.01,0-.01h0ZM4.34,4.5s.02.04.02.06h0s0,0,0,0v-.05s0,.03,0,.04c0-.01-.01-.03-.02-.05h0ZM12.42,4.68s0,0,0,0c-.03.09-.06.18-.1.28.03-.09.06-.19.09-.28h0ZM4.7,5.35s.04.09.06.14h0s-.01-.02-.02-.03c0,.02.01.03.02.05v.03s-.06-.18-.06-.18h0ZM35.08,5.66s0,0,0,0l-.03.08s.02-.06.03-.09h0ZM19.06,8.34h0s0,0,0,0h0ZM16.89,12.71s-.02.02-.04.03c.01,0,.03-.02.04-.03h0ZM20.08,19.18s-.02,0-.03,0c-.04,0-.08,0-.12,0,.05,0,.1-.01.14-.01h0ZM16.72,51.78c-.29-.17-.57-.34-.85-.52-.19-.13-.37-.26-.55-.4l-.32-.27-.32-.27c-.43-.36-.84-.78-1.22-1.23-.26-.35-.5-.72-.73-1.08-.13-.2-.25-.42-.37-.63l-.13-.23c-.23-.41-.42-.86-.61-1.28l-.1-.23-.12-.31-.18-.5c-.08-.19-.13-.4-.18-.6l-.08-.28c-.06-.21-.11-.42-.15-.64l-.06-.3c-.05-.19-.08-.38-.1-.58l-.04-.23c-.18-1.45-.3-2.62-.36-3.72-.08-1.25.04-2.51.17-3.67.1-.66.22-1.31.35-1.97.12-.58.27-1.16.42-1.74l.04-.15c.16-.64.33-1.21.53-1.75l.09-.28c.08-.22.15-.44.24-.65l.17-.42.17-.42.23-.49.19-.4c.28-.59.64-1.18,1.15-1.87.57-.72,1.13-1.3,1.71-1.78.77-.58,1.51-1.01,2.24-1.33l.91-.4c1.36-.54,3.06-1.22,4.81-1.47.4-.05.8-.08,1.18-.08.56,0,1.12.06,1.45.1.17.02.34.05.6.09.18.04.37.08.56.12l.1.02.39.08c.43.09.87.18,1.31.3.6.17,1.1.33,1.56.51.63.29,1.45.69,2.2,1.19.65.44,1.35.93,2.13,1.51.3.24.57.46.81.71.28.31.56.63.84.95.2.27.4.54.6.82.37.52.64,1.09.87,1.63.38.96.82,2.05,1.1,3.15.28,1.06.44,2.19.59,3.17l.02.19c.04.46.09.94.09,1.41,0,.56,0,1.13,0,1.69-.02,1.09-.05,2.24-.17,3.41-.05.36-.11.71-.18,1.06-.08.38-.16.76-.27,1.19-.17.76-.44,1.5-.73,2.3-.7,1.64-1.36,2.83-2.11,3.84-.71.87-1.53,1.58-2.17,2.1l-.45.32-.14.09c-.14.1-.28.18-.43.27l-.24.14c-.36.22-.76.4-1.2.59-.31.13-.63.25-.94.37-.3.11-.61.21-.91.31l-.23.07c-.37.12-.77.19-1.1.26-.33.06-.68.11-1.02.17-.49.05-.99.09-1.48.12-.13,0-.27,0-.4,0-.27,0-.53-.01-.8-.02h-.24c-.8-.04-1.67-.1-2.74-.22l-.16-.03c-.24-.04-.47-.07-.7-.13-.36-.09-.72-.17-1.07-.28-.49-.14-1-.32-1.57-.55-.09-.04-.18-.07-.28-.11l.03.02s.04.02.06.03c-.02,0-.04-.02-.06-.02l.05.03c-.57-.24-1.16-.5-1.71-.81h0ZM2.34,26.23h0s.02.18.02.18c0-.05-.01-.1-.02-.15h0s0,.04.01.07c0-.03,0-.06-.01-.09h0ZM24.89,81.81s-.08.06-.11.09c.04-.03.07-.06.11-.09h0Z"/>
  </g>
</svg>