<?xml version="1.0" encoding="UTF-8"?>
<svg id="Layer_2" data-name="Layer 2" xmlns="http://www.w3.org/2000/svg" viewBox="0 0 172.4 200.73">
  <defs>
    <style>
      .cls-1 {
        fill: #f4de82;
        stroke-width: 0px;
      }
    </style>
  </defs>
  <g id="Layer_1-2" data-name="Layer 1">
    <path class="cls-1" d="M133.53,20.73L140.01.42c.18-.57.98-.57,1.16,0l6.47,20.31c.61,1.92,2.11,3.42,4.03,4.03l20.31,6.47c.57.18.57.98,0,1.16l-20.31,6.47c-1.92.61-3.42,2.11-4.03,4.03l-6.47,20.31c-.18.57-.98.57-1.16,0l-6.47-20.31c-.61-1.92-2.11-3.42-4.03-4.03l-20.31-6.47c-.57-.18-.57-.98,0-1.16l20.31-6.47c1.92-.61,3.42-2.11,4.03-4.03Z"/>
    <path class="cls-1" d="M53.94,107.29l14.1-44.24c.39-1.23,2.14-1.23,2.53,0l14.1,44.24c1.33,4.18,4.6,7.45,8.78,8.78l44.24,14.1c1.23.39,1.23,2.14,0,2.53l-44.24,14.1c-4.18,1.33-7.45,4.6-8.78,8.78l-14.1,44.24c-.39,1.23-2.14,1.23-2.53,0l-14.1-44.24c-1.33-4.18-4.6-7.45-8.78-8.78L.92,132.7c-1.23-.39-1.23-2.14,0-2.53l44.24-14.1c4.18-1.33,7.45-4.6,8.78-8.78Z"/>
  </g>
</svg>