<?xml version="1.0" encoding="UTF-8"?>
<svg id="Layer_2" data-name="Layer 2" xmlns="http://www.w3.org/2000/svg" viewBox="0 0 124.11 176.97">
  <defs>
    <style>
      .cls-1 {
        fill: #f9dd72;
      }

      .cls-1, .cls-2, .cls-3 {
        stroke-width: 0px;
      }

      .cls-2 {
        fill: #95d0e3;
      }

      .cls-3 {
        fill: #3a3b3d;
      }
    </style>
  </defs>
  <g id="Layer_1-2" data-name="Layer 1">
    <g>
      <path class="cls-2" d="M39.87,103.14c.33-.92-.1-1.94-.97-2.38C15.66,89.18.87,72.06,5.17,59.86c4.3-12.19,26.57-16.26,51.93-10.72.96.21,1.93-.32,2.25-1.24l.2-.56c.38-1.09-.26-2.28-1.39-2.53-28.15-6.32-51.94-1.18-57.15,13.58-5.2,14.76,10.1,33.68,36,46.4,1.04.51,2.28-.01,2.67-1.1l.2-.56Z"/>
      <path class="cls-2" d="M84.32,56.43h0c-.38,1.07.11,2.23,1.12,2.74,23.1,11.58,37.79,28.63,33.5,40.78-4.29,12.15-26.42,16.23-51.68,10.77-1.1-.24-2.22.37-2.59,1.43h0c-.45,1.27.32,2.63,1.64,2.92,27.99,6.2,51.6,1.03,56.79-13.66s-9.97-33.52-35.67-46.24c-1.2-.6-2.66-.02-3.11,1.25Z"/>
    </g>
    <rect class="cls-3" x="-8.67" y="117.52" width="113.07" height="9.83" rx="1.54" ry="1.54" transform="translate(-83.52 126.9) rotate(-70.59)"/>
    <g>
      <path class="cls-2" d="M29.22,149.68c.23-.64-.07-1.34-.68-1.65-13.9-6.97-22.74-17.23-20.16-24.55,2.58-7.32,15.9-9.77,31.11-6.48.66.14,1.33-.22,1.56-.86h0c.27-.76-.18-1.58-.97-1.76-16.86-3.74-31.08-.63-34.2,8.22-3.12,8.85,6.01,20.18,21.49,27.84.72.36,1.59,0,1.85-.76h0Z"/>
      <path class="cls-2" d="M56.03,121.42h0c-.23.64.07,1.34.68,1.65,13.9,6.97,22.74,17.23,20.16,24.55-2.58,7.32-15.9,9.77-31.11,6.48-.66-.14-1.33.22-1.56.86h0c-.27.76.18,1.58.97,1.76,16.86,3.74,31.08.63,34.2-8.22,3.12-8.85-6.01-20.18-21.49-27.84-.72-.36-1.59,0-1.85.76Z"/>
    </g>
    <g>
      <path class="cls-2" d="M28.99,143.47c.15-.44-.05-.91-.46-1.12-9.47-4.75-15.49-11.74-13.73-16.72,1.76-4.98,10.83-6.65,21.19-4.42.45.1.91-.15,1.06-.59h0c.18-.51-.12-1.08-.66-1.2-11.48-2.54-21.17-.43-23.29,5.6-2.13,6.03,4.09,13.75,14.63,18.96.49.24,1.08,0,1.26-.52h0Z"/>
      <path class="cls-2" d="M55.2,126.3h0c-.15.44.05.91.46,1.12,9.47,4.75,15.49,11.74,13.73,16.72-1.76,4.98-10.83,6.65-21.19,4.42-.45-.1-.91.15-1.06.59h0c-.18.51.12,1.08.66,1.2,11.48,2.54,21.17.43,23.29-5.6,2.13-6.03-4.09-13.75-14.63-18.96-.49-.24-1.08,0-1.26.52Z"/>
    </g>
    <g>
      <path class="cls-2" d="M35.61,88.05c.23-.64-.07-1.34-.67-1.65-13.91-6.97-22.74-17.23-20.16-24.55,2.58-7.32,15.9-9.77,31.11-6.48.66.14,1.33-.22,1.56-.86h0c.27-.76-.18-1.58-.97-1.76-16.86-3.74-31.08-.63-34.2,8.22-3.12,8.85,6.01,20.18,21.49,27.84.72.36,1.59,0,1.85-.76h0Z"/>
      <path class="cls-2" d="M89.44,70.97h0c-.23.64.07,1.34.67,1.65,13.9,6.97,22.74,17.23,20.16,24.55-2.58,7.32-15.9,9.77-31.11,6.48-.66-.14-1.33.22-1.56.86h0c-.27.76.18,1.58.97,1.76,16.86,3.74,31.08.63,34.2-8.22,3.12-8.85-6.01-20.18-21.49-27.84-.72-.36-1.59,0-1.85.76Z"/>
    </g>
    <polygon class="cls-1" points="69.49 18.44 90.1 0 96.15 27.11 121.92 43.89 98.16 57.9 90.89 87.78 67.67 68.32 38.04 70.66 50.16 43.89 38.04 16.96 69.49 18.44"/>
  </g>
</svg>