<?xml version="1.0" encoding="UTF-8"?>
<svg id="Layer_2" data-name="Layer 2" xmlns="http://www.w3.org/2000/svg" viewBox="0 0 214.34 141.64">
  <defs>
    <style>
      .cls-1 {
        fill: #f9dd72;
      }

      .cls-1, .cls-2, .cls-3, .cls-4, .cls-5, .cls-6, .cls-7, .cls-8 {
        stroke-width: 0px;
      }

      .cls-2 {
        fill: #4fe16d;
      }

      .cls-3 {
        fill: #3a3b3d;
      }

      .cls-4 {
        fill: #141413;
      }

      .cls-5 {
        fill: #9044e2;
      }

      .cls-6 {
        fill: #f4de82;
      }

      .cls-7 {
        fill: #f24ea2;
      }

      .cls-8 {
        fill: #edc18b;
      }
    </style>
  </defs>
  <g id="Layer_1-2" data-name="Layer 1">
    <path class="cls-8" d="M144.91,101.69c-.7,13.34-2.52,22.23-4.85,39.94h36.01c1.68-16.8,3.07-22.99,3.76-31.47.29-3.6.65-7.81,2.43-11.96-5.3-.84-27.49-2.99-37.98-3.87,1.32,2.42.78,4.24.62,7.36Z"/>
    <path class="cls-2" d="M112.51,62.49c4.54-7.86,25.67,5.65,27.37,3.39,1.74-2.32-1.17-12.08-3.72-24.08-3.01-14.14-8.71-27.09-1.01-29.37,6.12-1.81,10.13,8.73,13.86,18.42,2.68,6.98,5.59,13.58,7.25,14.48,2.04-1.93,2.81-10.1,3.27-19.07.63-12.21,1.17-25.8,8.14-26.26,9.21-.6,7.77,15.39,6.69,28.63-.72,8.83-.85,16.52.87,16.95,1.37.25,5.17-6.11,8.82-13.16,4.56-8.8,9.32-18.58,13.88-16.97,7.05,2.49,1.07,16.13-3.6,26.93-3.02,6.97-4.92,12.87-4.33,13.46,1.05.52,5.11-2.73,9.18-6.44,5.14-4.68,10.64-9.92,13.83-7.31,4.65,3.79-3.52,14.99-12.99,28.48-5.57,7.94-18.1,28.64-19.54,30.25-1.79,2.01-6.72,2.1-10.95-.35-7.78-4.5-12.5-1.09-16.47-1.66-4.9-.71-7.6-2.43-8.02-3.15-13.28-15.4-37.38-24.74-32.51-33.18Z"/>
    <g>
      <path class="cls-5" d="M136.57,74.79c-5.48-1.29-10.3.62-14.58,1.71,5.84,4.39,13.22,9.36,19.35,15.29,4.67-7.88,3.42-15.08-4.76-17Z"/>
      <path class="cls-7" d="M130.6,70.2c4.32-.41,7.47-1.85,8.71-4.07-2.14.2-9.06-3.34-15.44-5.12,2.42,6.25-.09,9.84,6.73,9.19Z"/>
      <path class="cls-5" d="M174.11,31.84c.07-1.04.15-2.11.24-3.19,1.08-13.24,2.52-29.23-6.69-28.63-2.92.19-4.72,2.69-5.86,6.43,6.85-1.72,10.98,4.37,8.82,11.18-1.64,5.15,1.25,10.83,3.5,14.21Z"/>
      <path class="cls-5" d="M147,25.76c-3.2-7.91-6.82-14.82-11.86-13.32-6.57,1.95-3.37,11.68-.42,23.29.08.29.16.61.25.97h0c.06.24.12.48.18.71,2.72,10.09,9.74-2.08,11.87-11.65h0Z"/>
      <path class="cls-7" d="M182.27,52.04c2.49-.9,6.27-2.21,9.75-4.01.65-1.72,1.42-3.63,2.29-5.63,1.35-3.13,2.82-6.5,4.04-9.77-3.45-4.53-6.14-8.87-7.39-12.56-2.33,3.34-4.65,7.98-6.92,12.37-2.71,5.24-5.51,10.1-7.33,12.15.61,4.54,2.09,8.71,5.56,7.45Z"/>
      <path class="cls-5" d="M206.91,60.64c-11.82-.2-27.42,9.23-19.5,29.48,4.29-6.82,9.51-15.13,12.6-19.53,2.46-3.5,4.82-6.84,6.91-9.95Z"/>
      <path class="cls-6" d="M166.1,27.25c-.28-4.7-3.26-7.9-6-10.42-.26,3.08-.42,6.31-.58,9.45-.23,4.48-.54,8.76-1.04,12.17,3.03,1.69,8.12-2.66,7.62-11.19Z"/>
      <path class="cls-6" d="M211.41,53.41c2.94-5.31,4.02-9.33,1.58-11.31-2.24-1.83-5.61.21-9.2,3.2-.27,3.57,2.77,6.27,7.61,8.12Z"/>
    </g>
    <path class="cls-3" d="M161.47,86.6c-.71-.13-1.43-.3-2.18-.52-5.25-1.53-9.05-4.43-11.32-8.62-2.08-3.84-2.09-7.42-2.05-8.43.02-.55.49-.97,1.03-.94.55.02.97.49.94,1.03-.05,1.17-.16,11.52,11.94,15.05,11.56,3.37,17.52-5.8,17.58-5.89.29-.46.9-.6,1.37-.31.46.29.6.9.31,1.36-.07.11-1.72,2.69-4.99,4.81-2.69,1.75-6.96,3.47-12.63,2.43Z"/>
    <path class="cls-4" d="M183.17,70.5s-.05-.01-.08-.02c-.53-.14-.84-.68-.7-1.21,1.25-4.75-1.08-7.76-3.79-8.55-1.83-.53-5.19-.51-7.15,5.62-.17.52-.72.81-1.24.64-.52-.17-.81-.72-.64-1.24.99-3.11,2.47-5.24,4.39-6.36,1.97-1.14,3.91-.94,5.19-.56,3.6,1.05,6.74,4.92,5.15,10.95-.13.5-.63.81-1.13.72Z"/>
    <path class="cls-4" d="M161.39,64.23s-.05,0-.08-.02c-.53-.14-.84-.68-.7-1.21,1.25-4.75-1.08-7.76-3.79-8.55-1.83-.53-5.19-.51-7.15,5.62-.17.52-.72.81-1.24.64-.52-.17-.81-.72-.64-1.24.99-3.11,2.47-5.24,4.39-6.36,1.97-1.14,3.91-.94,5.19-.56,3.6,1.05,6.74,4.92,5.15,10.95-.13.5-.63.81-1.13.72Z"/>
    <path class="cls-8" d="M32.06,98.2c1.78,4.16,2.14,8.36,2.43,11.96.69,8.49,2.08,14.67,3.76,31.47h36.01c-2.33-17.71-4.14-26.6-4.85-39.94-.16-3.12-.7-4.94.62-7.36-10.49.88-32.68,3.03-37.98,3.87Z"/>
    <path class="cls-1" d="M101.83,62.49c-4.54-7.86-25.67,5.65-27.37,3.39-1.74-2.32,1.17-12.08,3.72-24.08,3.01-14.14,8.71-27.09,1.01-29.37-6.12-1.81-10.13,8.73-13.86,18.42-2.68,6.98-5.59,13.58-7.25,14.48-2.04-1.93-2.81-10.1-3.27-19.07C54.19,14.06,53.65.47,46.67.02c-9.21-.6-7.77,15.39-6.69,28.63.72,8.83.85,16.52-.87,16.95-1.37.25-5.17-6.11-8.82-13.16-4.56-8.8-9.32-18.58-13.88-16.97-7.05,2.49-1.07,16.13,3.6,26.93,3.02,6.97,4.92,12.87,4.33,13.46-1.05.52-5.11-2.73-9.18-6.44-5.14-4.68-10.64-9.92-13.83-7.31-4.65,3.79,3.52,14.99,12.99,28.48,5.57,7.94,18.1,28.64,19.54,30.25,1.79,2.01,6.72,2.1,10.95-.35,7.78-4.5,12.5-1.09,16.47-1.66,4.9-.71,7.6-2.43,8.02-3.15,13.28-15.4,37.38-24.74,32.51-33.18Z"/>
    <path class="cls-7" d="M22.91,55.52c-1.72-.93-4.58-3.39-7.44-6.1-4.94-4.68-10.23-9.92-13.3-7.31-4.02,3.41,1.92,12.8,9.78,24.46,1.28-3.81,6.42-9.1,10.97-11.04Z"/>
    <path class="cls-3" d="M37.68,44.65c-1.82-2.01-4.64-6.92-7.38-12.21-4.56-8.8-9.32-18.58-13.88-16.97-7.05,2.49-1.07,16.13,3.6,26.93,2,4.62,3.51,8.76,4.13,11.21,2.09-3.85,8.8-7.35,13.53-8.95Z"/>
    <path class="cls-5" d="M74.71,57.46c.83-4.23,2.19-9.66,3.47-15.66,3.01-14.14,8.71-27.09,1.01-29.37-6.12-1.81-10.13,8.73-13.86,18.42-2.41,6.28-5.01,12.25-6.72,14.05,5.01-.41,13.82,6.71,16.09,12.56Z"/>
    <path class="cls-3" d="M79.77,85.9c12.42-9.9,25.8-16.92,22.05-23.41-4.17-7.22-22.35,3.6-26.59,3.65,2.76,1.8,6.76,12.59,4.53,19.76,0,0,0,0,0,0Z"/>
    <path class="cls-7" d="M57.26,44.08c-1.43-3.12-2.05-10.18-2.44-17.8C54.19,14.06,53.65.47,46.67.02c-9.21-.6-7.77,15.39-6.69,28.63.61,7.45.79,14.08-.19,16.24,3.25-2.98,15.53-1.78,17.46-.81Z"/>
    <g>
      <path class="cls-3" d="M47.35,83.89c.71-.13,1.43-.3,2.18-.52,5.25-1.53,9.05-4.43,11.32-8.62,2.08-3.84,2.09-7.42,2.05-8.43-.02-.55-.49-.97-1.03-.94-.55.02-.97.49-.94,1.03.05,1.17.16,11.52-11.94,15.05-11.56,3.37-17.52-5.8-17.58-5.89-.29-.46-.9-.6-1.37-.31-.46.29-.6.9-.31,1.36.07.11,1.72,2.69,4.99,4.81,2.69,1.75,6.96,3.47,12.63,2.43Z"/>
      <ellipse class="cls-3" cx="36.71" cy="64.17" rx="2.12" ry="2.38" transform="translate(-17.42 13.82) rotate(-17.3)"/>
      <ellipse class="cls-3" cx="50.15" cy="59.98" rx="2.12" ry="2.38" transform="translate(-15.57 17.63) rotate(-17.3)"/>
    </g>
  </g>
</svg>