<?xml version="1.0" encoding="UTF-8"?>
<svg id="Layer_2" data-name="Layer 2" xmlns="http://www.w3.org/2000/svg" viewBox="0 0 128.45 139.4">
  <defs>
    <style>
      .cls-1 {
        fill: #9044e2;
        stroke-width: 0px;
      }
    </style>
  </defs>
  <g id="Layer_1-2" data-name="Layer 1">
    <path class="cls-1" d="M125.4,20.61c-1.09-2.48-7.12-15.09-18.42-19.27h0c-1.67-.62-3.4-1.03-5.13-1.21-12.56-1.34-25.24,8.42-34.45,25.68-6.47-11.1-15.02-19.18-24.31-22.62-3.85-1.42-7.74-2.03-11.56-1.81-12.41.74-22.17,10.2-26.76,18.08C-4.93,36.1.18,60.25,19.94,91.23c14.44,22.64,31.76,41.15,33.69,43.19l4.72,4.98,5.11-4.58c18.88-16.92,79.12-75.16,61.94-114.21Z"/>
  </g>
</svg>