<svg width="35" height="28" viewBox="0 0 35 28" fill="none" xmlns="http://www.w3.org/2000/svg">
<path d="M14.5519 0C5.45688 0 0 7.29576 0 10.944C0 14.5922 1.81872 17.3282 5.45688 17.3282C9.09504 17.3282 10.9145 18.2398 10.9145 20.9758C10.9145 24.6233 13.6426 27.3593 17.2807 27.3593C29.1046 27.3593 34.5607 20.9758 34.5607 14.5922C34.56 3.64824 25.4635 0 14.5519 0ZM12.2782 3.64824C12.5771 3.64862 12.8731 3.70788 13.1492 3.82264C13.4252 3.9374 13.676 4.10542 13.8871 4.31709C14.0983 4.52876 14.2657 4.77995 14.3797 5.05631C14.4938 5.33267 14.5523 5.62879 14.5519 5.92776C14.5519 7.18776 13.5338 8.208 12.2782 8.208C11.0225 8.208 10.0044 7.18704 10.0044 5.92776C10.004 5.62879 10.0625 5.33267 10.1766 5.05631C10.2907 4.77995 10.458 4.52876 10.6692 4.31709C10.8803 4.10542 11.1311 3.9374 11.4071 3.82264C11.6832 3.70788 11.9792 3.64862 12.2782 3.64824ZM19.553 3.64824C19.852 3.64862 20.148 3.70788 20.4241 3.82264C20.7001 3.9374 20.9509 4.10542 21.162 4.31709C21.3732 4.52876 21.5405 4.77995 21.6546 5.05631C21.7687 5.33267 21.8272 5.62879 21.8268 5.92776C21.8273 6.22679 21.7688 6.52299 21.6548 6.79943C21.5408 7.07588 21.3734 7.32715 21.1623 7.5389C20.9511 7.75065 20.7003 7.91872 20.4242 8.03353C20.1481 8.14834 19.8521 8.20762 19.553 8.208C19.2541 8.20753 18.9581 8.14817 18.6821 8.03332C18.406 7.91848 18.1553 7.75038 17.9443 7.53864C17.7332 7.3269 17.5659 7.07566 17.4519 6.79927C17.3379 6.52287 17.2795 6.22673 17.28 5.92776C17.2792 5.32408 17.5183 4.74481 17.9445 4.31734C18.3708 3.88987 18.9494 3.64919 19.553 3.64824ZM26.8294 7.29576C27.1285 7.29604 27.4246 7.35526 27.7008 7.47002C27.977 7.58479 28.2278 7.75285 28.4391 7.96461C28.6503 8.17637 28.8177 8.42767 28.9318 8.70416C29.0458 8.98065 29.1043 9.27691 29.1038 9.576C29.1043 9.87506 29.0458 10.1713 28.9318 10.4477C28.8177 10.7242 28.6503 10.9754 28.439 11.1871C28.2278 11.3988 27.9769 11.5668 27.7007 11.6815C27.4245 11.7962 27.1284 11.8553 26.8294 11.8555C26.5304 11.8552 26.2344 11.796 25.9583 11.6813C25.6823 11.5666 25.4315 11.3985 25.2204 11.1868C25.0093 10.9751 24.842 10.7239 24.7281 10.4475C24.6141 10.1711 24.5558 9.87496 24.5563 9.576C24.5558 9.277 24.6141 8.98082 24.728 8.70438C24.842 8.42794 25.0093 8.17667 25.2204 7.96491C25.4315 7.75315 25.6822 7.58506 25.9583 7.47024C26.2344 7.35543 26.5304 7.29614 26.8294 7.29576ZM5.91192 9.12024C6.21082 9.12052 6.50674 9.1797 6.78277 9.29439C7.0588 9.40908 7.30952 9.57704 7.52061 9.78867C7.7317 10.0003 7.89902 10.2514 8.01301 10.5278C8.127 10.8041 8.18543 11.1001 8.18496 11.399C8.18496 12.659 7.16688 13.6793 5.91192 13.6793C4.65696 13.6793 3.63816 12.6583 3.63816 11.399C3.63759 10.7954 3.8768 10.2162 4.30319 9.78883C4.72958 9.3615 5.30824 9.121 5.91192 9.12024ZM17.28 18.2398C18.787 18.2398 20.0081 19.4638 20.0081 20.9765C20.0081 22.487 18.787 23.7118 17.28 23.7118C15.773 23.7118 14.5519 22.487 14.5519 20.9765C14.5513 20.6176 14.6213 20.2622 14.7581 19.9304C14.8948 19.5986 15.0956 19.2971 15.349 19.0429C15.6023 18.7888 15.9032 18.587 16.2346 18.4492C16.5659 18.3114 16.9211 18.2402 17.28 18.2398Z" fill="#FF994B"/>
</svg>
