<svg width="32" height="32" viewBox="0 0 32 32" fill="none" xmlns="http://www.w3.org/2000/svg">
<path d="M14.2944 7.51684C16.1483 7.4337 17.5837 5.86348 17.5005 4.00966C17.4174 2.15584 15.8472 0.720419 13.9934 0.803561C12.1395 0.886702 10.7041 2.45692 10.7873 4.31074C10.8704 6.16456 12.4406 7.59998 14.2944 7.51684Z" fill="#FF7A9F"/>
<path d="M19.3605 10.4639L26.2405 8.7359C27.0725 8.5439 27.5525 7.6799 27.3605 6.8799C27.1685 6.0479 26.3045 5.5679 25.5045 5.7599L5.72853 10.7199C4.89653 10.9119 4.41653 11.7759 4.60853 12.5759C4.80053 13.2799 5.44053 13.7599 6.11253 13.7599C6.24053 13.7599 6.36853 13.7599 6.49653 13.7279L12.9605 12.0959L14.2725 17.2479C14.4005 17.7279 14.3685 18.2719 14.1765 18.7519L10.0165 28.7999C9.63253 29.6959 10.0805 30.7199 10.9765 31.1039C11.2005 31.1999 11.4245 31.2319 11.6485 31.2319C12.3525 31.2319 12.9925 30.8159 13.2805 30.1439L17.4405 20.0959C17.4725 19.9999 17.5045 19.9039 17.5365 19.8079L17.1845 29.4079C17.1525 30.3679 17.9205 31.1999 18.8805 31.2319C18.9125 31.2319 18.9125 31.2319 18.9445 31.2319C19.8725 31.2319 20.6725 30.4959 20.7045 29.5359L21.0885 18.7519C21.1205 18.2399 21.0565 17.7279 20.9285 17.2159L19.3605 10.4639Z" fill="#FF7A9F"/>
<path d="M23.4566 10.624C23.2006 10.752 23.0726 11.104 23.2006 11.36C24.0326 12.992 24.0326 15.104 24.0006 15.936C24.0006 16.224 24.2246 16.48 24.5446 16.512C24.5446 16.512 24.5446 16.512 24.5766 16.512C24.8646 16.512 25.1206 16.288 25.1206 15.968C25.1526 15.04 25.1206 12.736 24.1926 10.88C24.0646 10.592 23.7446 10.496 23.4566 10.624Z" fill="#FF7A9F"/>
<path d="M25.6324 10.08C25.3764 10.208 25.2484 10.528 25.3764 10.816C25.7604 11.584 26.0164 12.608 26.1444 13.76C26.1764 14.048 26.4004 14.272 26.6884 14.272C26.7204 14.272 26.7204 14.272 26.7524 14.272C27.0404 14.24 27.2644 13.984 27.2324 13.664C27.1044 12.384 26.8164 11.232 26.3684 10.336C26.2404 10.048 25.9204 9.95204 25.6324 10.08Z" fill="#FF7A9F"/>
<path d="M8.2236 8.95988C8.2876 8.95988 8.3836 8.95988 8.4476 8.92788C8.7356 8.79988 8.86359 8.47988 8.73559 8.19188C8.38359 7.39188 8.15959 6.36788 8.09559 5.21588C8.06359 4.92788 7.8076 4.67188 7.5196 4.70388C7.2316 4.73588 6.9756 4.99188 7.0076 5.27988C7.0716 6.59188 7.3276 7.74388 7.7436 8.63988C7.8396 8.83188 8.0316 8.95988 8.2236 8.95988Z" fill="#FF7A9F"/>
<path d="M6.04804 9.40799C6.11204 9.40799 6.20804 9.40799 6.27204 9.34399C6.56004 9.21599 6.65604 8.89599 6.56004 8.60799C6.24004 7.87199 6.01604 6.97599 5.95204 5.91999C5.92004 5.63199 5.66404 5.37599 5.37604 5.40799C5.08804 5.43999 4.83204 5.69599 4.86404 5.98399C4.96004 7.16799 5.18404 8.19199 5.56804 9.05599C5.63204 9.27999 5.85604 9.40799 6.04804 9.40799Z" fill="#FF7A9F"/>
</svg>
