<svg width="36" height="36" viewBox="0 0 36 36" fill="none" xmlns="http://www.w3.org/2000/svg">
<path d="M10.125 33C9 33 8.031 32.6185 7.218 31.8555C6.405 31.0925 5.999 30.149 6 29.025V8.09995C6 7.14995 6.294 6.29995 6.882 5.54995C7.47 4.79995 8.2385 4.32495 9.1875 4.12495L24 1.19995V25.1999L9.7875 28.05C9.5625 28.1 9.375 28.219 9.225 28.407C9.075 28.595 9 28.801 9 29.025C9 29.3 9.1125 29.5315 9.3375 29.7195C9.5625 29.9075 9.825 30.001 10.125 30H27V5.99995H30V33H10.125ZM10.5 24.8625L13.5 24.2624V6.33745L10.5 6.93745V24.8625Z" fill="#B8CA43"/>
</svg>
