<svg width="28" height="28" viewBox="0 0 28 28" fill="none" xmlns="http://www.w3.org/2000/svg">
<path fill-rule="evenodd" clip-rule="evenodd" d="M14 0C21.7314 0 28 6.26855 28 14C28 21.7314 21.7314 28 14 28C6.26855 28 0 21.7314 0 14C0 6.26855 6.26855 0 14 0ZM12.0586 6.95443H13.7699C14.082 6.95443 14.3395 7.21191 14.3395 7.52409V14.1185H20.3574C20.6719 14.1185 20.9271 14.376 20.9271 14.6882V16.3994C20.9271 16.7139 20.6696 16.9691 20.3574 16.9691H11.4867V7.52409C11.4867 7.20964 11.7441 6.95443 12.0586 6.95443ZM14 3.17871C19.9769 3.17871 24.8213 8.02311 24.8213 14C24.8213 19.9769 19.9769 24.8213 14 24.8213C8.02311 24.8213 3.17871 19.9769 3.17871 14C3.17871 8.02539 8.02311 3.17871 14 3.17871Z" fill="url(#paint0_linear_183_2753)"/>
<defs>
<linearGradient id="paint0_linear_183_2753" x1="0" y1="14" x2="28" y2="14" gradientUnits="userSpaceOnUse">
<stop stop-color="#FB7ABC"/>
<stop offset="1" stop-color="#F24DA2"/>
</linearGradient>
</defs>
</svg>
