<svg width="88" height="88" viewBox="0 0 88 88" fill="none" xmlns="http://www.w3.org/2000/svg">
<path d="M63.5249 9.48642C68.8489 4.51882 74.1949 6.47902 78.1395 9.48642C83.3975 13.6026 88.3167 20.2422 84.9067 26.9742C83.7583 30.503 77.7061 40.9442 68.2043 53.471C66.1693 56.155 64.3103 58.6278 62.6075 60.8916C55.7479 70.0216 51.3919 75.8164 48.0149 78.9294C44.3277 82.3306 40.5701 82.1568 36.3923 79.9084C32.9075 78.0318 28.3183 74.536 22.6687 70.2306L20.1827 68.3364C14.7047 64.1608 5.78807 58.4034 2.97427 51.579C0.219871 47.883 3.66067 42.3104 6.67027 38.3636C9.67547 34.4146 14.3527 29.7176 18.6735 31.3896C21.2233 31.6998 27.3811 35.8996 35.1889 41.8286C37.3229 38.907 39.6637 35.8028 42.1255 32.5314L42.1827 32.4544C51.6867 19.9254 60.3525 11.5764 63.5249 9.48642Z" fill="#00034A" stroke="#00034A" stroke-width="3.66667" stroke-miterlimit="10" stroke-linecap="round" stroke-linejoin="round"/>
<path d="M78.1396 9.48642C74.1906 6.47902 68.8468 4.51882 63.525 9.48642C60.3504 11.5764 51.6846 19.9254 42.185 32.4544C39.8311 35.5621 37.4991 38.6861 35.189 41.8264C27.379 35.8996 21.2234 31.702 18.6736 31.3874C14.3528 29.7176 9.67556 34.4168 6.66816 38.3614C3.66296 42.3082 0.217755 47.8808 2.97215 51.579C3.95556 53.9594 9.50616 58.949 17.3162 64.9C26.6926 72.0192 33.4576 77.4268 37.4242 77.9284C43.4984 80.2868 47.8632 73.106 65.34 50.0324C74.8418 37.5056 80.894 27.0666 82.0446 23.5378C85.2984 17.1072 81.9786 12.4938 78.1396 9.48642Z" fill="#9BFF00" stroke="#00034A" stroke-width="3.66667" stroke-miterlimit="10" stroke-linecap="round" stroke-linejoin="round"/>
</svg>
