<svg width="120" height="120" viewBox="0 0 120 120" fill="none" xmlns="http://www.w3.org/2000/svg">
<path d="M86.2999 55.22H33.6999C33.0718 55.2193 32.4497 55.3425 31.8692 55.5824C31.2887 55.8223 30.7611 56.1743 30.3167 56.6182C29.8724 57.0622 29.5198 57.5893 29.2793 58.1696C29.0388 58.7498 28.9149 59.3718 28.9149 60V64.785C28.9163 66.0532 29.421 67.269 30.3182 68.1652C31.2154 69.0615 32.4318 69.565 33.6999 69.565H36.0899L38.1649 98.6C38.2511 99.8079 38.7925 100.938 39.6797 101.762C40.567 102.586 41.734 103.043 42.9449 103.04H77.0849C78.2956 103.042 79.4619 102.585 80.3489 101.761C81.2359 100.937 81.7777 99.8074 81.8649 98.6L83.915 69.565H86.3049C86.9331 69.565 87.5551 69.4412 88.1353 69.2006C88.7156 68.9601 89.2428 68.6076 89.6867 68.1632C90.1306 67.7188 90.4826 67.1912 90.7225 66.6107C90.9625 66.0302 91.0856 65.4081 91.0849 64.78V60C91.0856 59.3718 90.9625 58.7497 90.7225 58.1692C90.4826 57.5887 90.1306 57.0612 89.6867 56.6168C89.2428 56.1724 88.7156 55.8198 88.1353 55.5793C87.5551 55.3388 86.9331 55.215 86.3049 55.215" fill="#78EB7B"/>
<path d="M67.1749 55.2201H52.8249V103.04H67.1749V55.2201Z" fill="#FF808C"/>
<path d="M52.8299 69.565H33.6999C33.0714 69.5656 32.4489 69.4423 31.868 69.2021C31.2872 68.9618 30.7594 68.6094 30.315 68.1649C29.8705 67.7205 29.5181 67.1927 29.2778 66.6119C29.0376 66.031 28.9143 65.4085 28.915 64.78V60C28.9143 59.3714 29.0376 58.7489 29.2778 58.168C29.5181 57.5872 29.8705 57.0595 30.315 56.615C30.7594 56.1705 31.2872 55.8181 31.868 55.5779C32.4489 55.3376 33.0714 55.2143 33.6999 55.215H86.3C87.569 55.215 88.7861 55.7191 89.6835 56.6165C90.5808 57.5138 91.0849 58.7309 91.0849 60V64.785C91.0849 66.0527 90.5813 67.2685 89.6849 68.1649C88.7885 69.0614 87.5727 69.565 86.305 69.565H67.175" stroke="#191919" stroke-width="5" stroke-linecap="round" stroke-linejoin="round"/>
<path d="M67.175 69.5651H83.91L81.835 98.6001C81.7488 99.808 81.2074 100.938 80.3202 101.762C79.4329 102.586 78.2659 103.043 77.055 103.04H42.93C41.719 103.043 40.552 102.586 39.6647 101.762C38.7775 100.938 38.2361 99.808 38.15 98.6001L36.09 69.5651H52.825M52.825 55.2201V103.04M67.175 103.04V55.2201M60 55.2151C60 55.2151 46.13 51.8301 43.26 48.9451C42.5662 48.2594 42.0148 47.4433 41.6376 46.5438C41.2603 45.6443 41.0646 44.679 41.0618 43.7036C41.0589 42.7282 41.2489 41.7618 41.6209 40.86C41.9928 39.9583 42.5394 39.139 43.2291 38.4493C43.9189 37.7595 44.7382 37.213 45.6399 36.841C46.5416 36.469 47.508 36.279 48.4835 36.2819C49.4589 36.2848 50.4241 36.4804 51.3237 36.8577C52.2232 37.2349 53.0393 37.7863 53.725 38.4801C56.61 41.3501 60 55.2151 60 55.2151ZM60 55.2151C60 55.2151 73.87 51.8301 76.74 48.9451C78.1143 47.5545 78.8824 45.6766 78.8767 43.7216C78.871 41.7665 78.0918 39.8932 76.7093 38.5107C75.3269 37.1283 73.4535 36.3491 71.4985 36.3433C69.5434 36.3376 67.6655 37.1058 66.275 38.4801C63.39 41.3501 60 55.2151 60 55.2151ZM60 24.1301V16.9601M93.815 38.1401L98.885 33.0701M107.825 69.5651H115M26.185 38.1401L21.11 33.0701M12.175 69.5651H4.99995" stroke="#191919" stroke-width="5" stroke-linecap="round" stroke-linejoin="round"/>
</svg>
