<svg width="1435" height="137" viewBox="0 0 1435 137" fill="none" xmlns="http://www.w3.org/2000/svg">
<path fill-rule="evenodd" clip-rule="evenodd" d="M-5 0.000349017L361 0.000350952C350.193 -0.0797634 335.531 13.6558 322.154 17.0638C310.792 19.9586 300.357 22.6171 294 22.5003C274.558 22.1433 267.13 18.9493 263.865 17.5455C263.298 17.3017 262.857 17.1119 262.5 17.0003C259.976 16.2116 257.607 15.434 255.36 14.6965C237.943 8.97924 227.873 5.67373 209.981 18.324C206.329 20.9062 201.934 23.5137 200.861 27.8558C198.956 35.5639 198.976 50.4296 198.996 64.7026L198.996 64.7208C198.997 65.6166 198.999 66.5101 198.999 67.3994C199 68.4651 198.928 69.5339 198.728 70.5806C196.114 84.2053 187.906 90.7122 186 90.5004C185.261 90.4183 184.32 90.444 183.239 90.4735C178.481 90.6036 171.007 90.8079 166.098 82.2198C164.414 79.2733 164.297 75.7475 164.699 72.3776C167.735 46.9188 161.666 38.7845 152 39.5003C146.659 39.8959 145.267 43.673 143.761 47.7565C141.87 52.8866 139.801 58.5003 129.5 58.5003C119.428 58.5003 114.4 45.2642 109.889 33.3908C106.114 23.4544 102.702 14.4724 97 15.0003C66.9363 17.7839 77.3083 74.1567 80.8596 93.4589C81.1138 94.8403 81.333 96.0319 81.5 97.0004C84 111.5 68.5 112 61.5 111C54.5 110 47.5 104.5 46 93.5004C45.4647 89.5745 46.6191 82.3715 47.995 73.7864C50.4743 58.3163 53.6729 38.3582 49 25.0003C45.0703 13.767 32.3688 18.1539 24.3726 20.9157C21.751 21.8212 19.6352 22.5519 18.5 22.5003C14.0116 22.2963 9.27352 20.8436 5.23675 19.1952C-1.39248 16.4882 -5 9.6684 -5 2.50777V0.000349017ZM1190.8 0.720056C1190.59 0.417724 1190.8 0.000349017 1191.17 0.000349017H1435C1435 7.2814 1428.27 13.3215 1421.05 14.2324C1415.09 14.9838 1407.33 16.6246 1398 20.0003C1388.02 23.6115 1372.08 43.2778 1377.2 104.13C1377.39 106.343 1377.26 108.621 1376.72 110.776C1370.23 137.011 1362.93 136.313 1360.11 136.043C1359.87 136.021 1359.67 136.001 1359.5 136C1352.87 135.961 1341 135.5 1335.5 105.5C1333.88 96.6812 1339.4 83.001 1344.91 69.3223C1354.4 45.7765 1363.88 22.2353 1337 23.5003C1311.51 24.6999 1312.82 48.2036 1313.85 66.7166C1314.54 79.0695 1315.1 89.2005 1307.5 89.0004C1290.45 88.5516 1287.81 63.9355 1286.8 54.5576L1286.8 54.5508C1286.68 53.4833 1286.59 52.6138 1286.5 52.0003C1279.6 5.54924 1272.05 10.8676 1263.36 16.9805C1260.07 19.2899 1256.63 21.7128 1253 21.5003C1247.32 21.1681 1244.25 18.086 1240.95 14.7699C1235.85 9.6468 1230.19 3.96508 1213.5 7.00035C1204.37 8.65979 1197.97 -1.01595 1191.33 0.895833C1191.13 0.952085 1190.92 0.886077 1190.8 0.720056Z" fill="white"/>
</svg>
